%TF.GenerationSoftware,KiCad,Pcbnew,9.0.0*%
%TF.CreationDate,2025-08-15T19:12:53+05:30*%
%TF.ProjectId,robodogv2,726f626f-646f-4677-9632-2e6b69636164,rev?*%
%TF.SameCoordinates,Original*%
%TF.FileFunction,Copper,L4,Bot*%
%TF.FilePolarity,Positive*%
%FSLAX46Y46*%
G04 Gerber Fmt 4.6, Leading zero omitted, Abs format (unit mm)*
G04 Created by KiCad (PCBNEW 9.0.0) date 2025-08-15 19:12:53*
%MOMM*%
%LPD*%
G01*
G04 APERTURE LIST*
G04 Aperture macros list*
%AMRoundRect*
0 Rectangle with rounded corners*
0 $1 Rounding radius*
0 $2 $3 $4 $5 $6 $7 $8 $9 X,Y pos of 4 corners*
0 Add a 4 corners polygon primitive as box body*
4,1,4,$2,$3,$4,$5,$6,$7,$8,$9,$2,$3,0*
0 Add four circle primitives for the rounded corners*
1,1,$1+$1,$2,$3*
1,1,$1+$1,$4,$5*
1,1,$1+$1,$6,$7*
1,1,$1+$1,$8,$9*
0 Add four rect primitives between the rounded corners*
20,1,$1+$1,$2,$3,$4,$5,0*
20,1,$1+$1,$4,$5,$6,$7,0*
20,1,$1+$1,$6,$7,$8,$9,0*
20,1,$1+$1,$8,$9,$2,$3,0*%
G04 Aperture macros list end*
%TA.AperFunction,ComponentPad*%
%ADD10R,1.700000X1.700000*%
%TD*%
%TA.AperFunction,ComponentPad*%
%ADD11O,1.700000X1.700000*%
%TD*%
%TA.AperFunction,ComponentPad*%
%ADD12RoundRect,0.250000X0.512000X-0.512000X0.512000X0.512000X-0.512000X0.512000X-0.512000X-0.512000X0*%
%TD*%
%TA.AperFunction,ComponentPad*%
%ADD13C,1.524000*%
%TD*%
%TA.AperFunction,ComponentPad*%
%ADD14C,3.500000*%
%TD*%
%TA.AperFunction,ComponentPad*%
%ADD15O,2.800000X1.400000*%
%TD*%
%TA.AperFunction,ComponentPad*%
%ADD16R,3.716000X3.716000*%
%TD*%
%TA.AperFunction,ComponentPad*%
%ADD17C,3.716000*%
%TD*%
%TA.AperFunction,ComponentPad*%
%ADD18O,2.400000X1.200000*%
%TD*%
%TA.AperFunction,ViaPad*%
%ADD19C,0.600000*%
%TD*%
%TA.AperFunction,Conductor*%
%ADD20C,0.150000*%
%TD*%
%TA.AperFunction,Conductor*%
%ADD21C,0.200000*%
%TD*%
%TA.AperFunction,Conductor*%
%ADD22C,0.350000*%
%TD*%
G04 APERTURE END LIST*
D10*
%TO.P,J4,1,Pin_1*%
%TO.N,7v*%
X119800000Y-73310000D03*
D11*
%TO.P,J4,2,Pin_2*%
X122340000Y-73310000D03*
%TO.P,J4,3,Pin_3*%
X124880000Y-73310000D03*
%TO.P,J4,4,Pin_4*%
X127420000Y-73310000D03*
%TO.P,J4,5,Pin_5*%
X129960000Y-73310000D03*
%TO.P,J4,6,Pin_6*%
X132500000Y-73310000D03*
%TO.P,J4,7,Pin_7*%
X135040000Y-73310000D03*
%TO.P,J4,8,Pin_8*%
X137580000Y-73310000D03*
%TO.P,J4,9,Pin_9*%
X140120000Y-73310000D03*
%TO.P,J4,10,Pin_10*%
X142660000Y-73310000D03*
%TO.P,J4,11,Pin_11*%
X145200000Y-73310000D03*
%TO.P,J4,12,Pin_12*%
X147740000Y-73310000D03*
%TD*%
D10*
%TO.P,J3,1,Pin_1*%
%TO.N,PWM1*%
X147750000Y-76080000D03*
D11*
%TO.P,J3,2,Pin_2*%
%TO.N,PWM2*%
X145210000Y-76080000D03*
%TO.P,J3,3,Pin_3*%
%TO.N,PWM3*%
X142670000Y-76080000D03*
%TO.P,J3,4,Pin_4*%
%TO.N,PWM4*%
X140130000Y-76080000D03*
%TO.P,J3,5,Pin_5*%
%TO.N,PWM5*%
X137590000Y-76080000D03*
%TO.P,J3,6,Pin_6*%
%TO.N,PWM6*%
X135050000Y-76080000D03*
%TO.P,J3,7,Pin_7*%
%TO.N,PWM7*%
X132510000Y-76080000D03*
%TO.P,J3,8,Pin_8*%
%TO.N,PWM8*%
X129970000Y-76080000D03*
%TO.P,J3,9,Pin_9*%
%TO.N,PWM9*%
X127430000Y-76080000D03*
%TO.P,J3,10,Pin_10*%
%TO.N,PWM10*%
X124890000Y-76080000D03*
%TO.P,J3,11,Pin_11*%
%TO.N,PWM11*%
X122350000Y-76080000D03*
%TO.P,J3,12,Pin_12*%
%TO.N,PWM12*%
X119810000Y-76080000D03*
%TD*%
D10*
%TO.P,J5,1,Pin_1*%
%TO.N,Net-(J5-Pin_1)*%
X116390000Y-84530000D03*
%TD*%
%TO.P,J7,1,Pin_1*%
%TO.N,GND*%
X119860000Y-70620000D03*
D11*
%TO.P,J7,2,Pin_2*%
X122400000Y-70620000D03*
%TO.P,J7,3,Pin_3*%
X124940000Y-70620000D03*
%TO.P,J7,4,Pin_4*%
X127480000Y-70620000D03*
%TO.P,J7,5,Pin_5*%
X130020000Y-70620000D03*
%TO.P,J7,6,Pin_6*%
X132560000Y-70620000D03*
%TO.P,J7,7,Pin_7*%
X135100000Y-70620000D03*
%TO.P,J7,8,Pin_8*%
X137640000Y-70620000D03*
%TO.P,J7,9,Pin_9*%
X140180000Y-70620000D03*
%TO.P,J7,10,Pin_10*%
X142720000Y-70620000D03*
%TO.P,J7,11,Pin_11*%
X145260000Y-70620000D03*
%TO.P,J7,12,Pin_12*%
X147800000Y-70620000D03*
%TD*%
D12*
%TO.P,J9,1,VBUS*%
%TO.N,5V*%
X94885000Y-77160000D03*
D13*
%TO.P,J9,2,D-*%
%TO.N,Net-(J9-D-)*%
X94885000Y-74660000D03*
%TO.P,J9,3,D+*%
%TO.N,Net-(J9-D+)*%
X94885000Y-72660000D03*
%TO.P,J9,4,GND*%
%TO.N,GND*%
X94885000Y-70160000D03*
D14*
%TO.P,J9,5,Shield*%
X97595000Y-80230000D03*
X97595000Y-67090000D03*
%TD*%
D10*
%TO.P,J2,1,Pin_1*%
%TO.N,/SCL{slash}9*%
X145830000Y-86865000D03*
D11*
%TO.P,J2,2,Pin_2*%
%TO.N,/SDA{slash}8*%
X145830000Y-89405000D03*
%TD*%
D15*
%TO.P,U3,1,COMP*%
%TO.N,GND*%
X149280000Y-95770000D03*
%TO.P,U3,2,FEEDBACK*%
%TO.N,Net-(U3-FEEDBACK)*%
X149280000Y-97470000D03*
%TO.P,U3,3,GROUND*%
%TO.N,Net-(U3-GROUND)*%
X149280000Y-99170000D03*
%TO.P,U3,4,SWITCH*%
%TO.N,Net-(D1-K)*%
X149280000Y-100870000D03*
%TO.P,U3,5,VIN*%
%TO.N,5V*%
X149280000Y-102570000D03*
%TD*%
D16*
%TO.P,J1,1,+*%
%TO.N,Net-(J1-+)*%
X109860000Y-98820000D03*
D17*
%TO.P,J1,2,-*%
%TO.N,GND*%
X109860000Y-106020000D03*
D18*
%TO.P,J1,S1*%
%TO.N,N/C*%
X103860000Y-95670000D03*
%TO.P,J1,S2*%
X103860000Y-109170000D03*
%TD*%
D10*
%TO.P,J6,1,Pin_1*%
%TO.N,Net-(J6-Pin_1)*%
X106640000Y-83855000D03*
D11*
%TO.P,J6,2,Pin_2*%
%TO.N,Net-(J6-Pin_2)*%
X106640000Y-86395000D03*
%TD*%
D19*
%TO.N,GND*%
X122541000Y-106981476D03*
X131471735Y-106471735D03*
X120525000Y-83930000D03*
X128000000Y-88000000D03*
X120000000Y-104000000D03*
X124000000Y-95000000D03*
X123741000Y-107000000D03*
X154000000Y-89000000D03*
X119395000Y-97639000D03*
X119395000Y-99180000D03*
X98000000Y-85000000D03*
X100928413Y-82928413D03*
X124000000Y-99000000D03*
X120023353Y-106323117D03*
X113000000Y-91000000D03*
X110880000Y-92975000D03*
%TO.N,Net-(U2-VCC)*%
X136545000Y-84240000D03*
X111110000Y-88320000D03*
X104709586Y-87475000D03*
%TO.N,Net-(U2-BST)*%
X99928413Y-83928413D03*
X96000000Y-84000000D03*
%TO.N,5V*%
X113317298Y-96317298D03*
X116949863Y-93050137D03*
X127152652Y-92392652D03*
X127580000Y-101860000D03*
X102265000Y-92410000D03*
%TO.N,Net-(J5-Pin_1)*%
X99980000Y-86480000D03*
X140212500Y-87290000D03*
X108540000Y-82150000D03*
X137602781Y-85385001D03*
X132470000Y-83039000D03*
%TO.N,Net-(J6-Pin_1)*%
X131200000Y-89410000D03*
%TO.N,Net-(U2-MODE)*%
X115275000Y-88280000D03*
X105355735Y-88045735D03*
%TO.N,Net-(U2-FB)*%
X102494905Y-88220001D03*
X134720000Y-90140000D03*
%TO.N,7v*%
X128000000Y-111310000D03*
X127450000Y-105840000D03*
%TO.N,Net-(C21-Pad1)*%
X148070000Y-94300000D03*
X129020000Y-98670000D03*
%TO.N,Net-(R15-Pad1)*%
X129670000Y-94634000D03*
X130670000Y-96160000D03*
%TO.N,Net-(U3-FEEDBACK)*%
X151020000Y-92970000D03*
X140225000Y-90060000D03*
%TO.N,Net-(J1-+)*%
X99183600Y-85025000D03*
X107530000Y-89540000D03*
%TO.N,+3V3*%
X131080265Y-108560265D03*
X129750000Y-107730000D03*
X122786550Y-107751000D03*
%TO.N,Net-(U6-XIN32)*%
X117035000Y-104690000D03*
X119096765Y-106403235D03*
%TO.N,/BOOTN*%
X121790000Y-109510000D03*
X123570000Y-105020000D03*
%TO.N,Net-(U6-ENV_SCL)*%
X125760000Y-102480000D03*
X125760000Y-110110000D03*
%TO.N,Net-(U6-ENV_SDA)*%
X126610000Y-110710000D03*
X126477652Y-100530000D03*
%TO.N,Net-(U6-SA0{slash}H_MOSI)*%
X140510000Y-108640000D03*
X123691000Y-102607172D03*
%TO.N,/IMU_RST*%
X122690000Y-104680000D03*
X117795000Y-99180000D03*
X117795000Y-95080000D03*
%TO.N,/IMU_INT*%
X122725000Y-99140000D03*
X122725000Y-95040000D03*
X123290000Y-103819804D03*
%TO.N,/SDA{slash}8*%
X125330000Y-97300000D03*
X126870000Y-91461000D03*
%TO.N,/SCL{slash}9*%
X125670798Y-96350798D03*
X125610000Y-93186000D03*
%TD*%
D20*
%TO.N,GND*%
X122541000Y-106981476D02*
X123722476Y-106981476D01*
X100071587Y-82928413D02*
X98000000Y-85000000D01*
D21*
X113000000Y-91000000D02*
X111000000Y-93000000D01*
X131471735Y-106471735D02*
X142173470Y-95770000D01*
X142173470Y-95770000D02*
X149280000Y-95770000D01*
X110905000Y-93000000D02*
X110880000Y-92975000D01*
D20*
X100928413Y-82928413D02*
X100071587Y-82928413D01*
D21*
X98000000Y-85000000D02*
X97595000Y-84595000D01*
X111000000Y-93000000D02*
X110905000Y-93000000D01*
D20*
X123722476Y-106981476D02*
X123741000Y-107000000D01*
D21*
X97595000Y-84595000D02*
X97595000Y-80230000D01*
D20*
%TO.N,Net-(U2-VCC)*%
X105117147Y-88621735D02*
X110808265Y-88621735D01*
X104709586Y-88214174D02*
X105117147Y-88621735D01*
X104709586Y-87475000D02*
X104709586Y-88214174D01*
X110808265Y-88621735D02*
X111110000Y-88320000D01*
D22*
%TO.N,5V*%
X127546000Y-91999304D02*
X127152652Y-92392652D01*
X110651000Y-93651000D02*
X103506000Y-93651000D01*
X116949863Y-93050137D02*
X119215000Y-90785000D01*
X127152652Y-92392652D02*
X127152652Y-101432652D01*
X119215000Y-90785000D02*
X127150009Y-90785000D01*
X103506000Y-93651000D02*
X102265000Y-92410000D01*
X127546000Y-91180991D02*
X127546000Y-91999304D01*
X113317298Y-96317298D02*
X110651000Y-93651000D01*
X127150009Y-90785000D02*
X127546000Y-91180991D01*
X127152652Y-101432652D02*
X127580000Y-101860000D01*
D20*
%TO.N,Net-(J5-Pin_1)*%
X99980000Y-84690000D02*
X99980000Y-86480000D01*
X108540000Y-82150000D02*
X102520000Y-82150000D01*
X100960000Y-83710000D02*
X99980000Y-84690000D01*
D21*
X138307501Y-85385001D02*
X140212500Y-87290000D01*
D20*
X102520000Y-82150000D02*
X100960000Y-83710000D01*
D21*
X130968000Y-84530000D02*
X116390000Y-84530000D01*
X132459000Y-83039000D02*
X130968000Y-84530000D01*
X132470000Y-83039000D02*
X132459000Y-83039000D01*
X137602781Y-85385001D02*
X138307501Y-85385001D01*
D20*
%TO.N,Net-(U2-MODE)*%
X111080000Y-87460000D02*
X114455000Y-87460000D01*
X110760000Y-87780000D02*
X111080000Y-87460000D01*
X114455000Y-87460000D02*
X115275000Y-88280000D01*
X105621470Y-87780000D02*
X110760000Y-87780000D01*
X105355735Y-88045735D02*
X105621470Y-87780000D01*
D22*
%TO.N,7v*%
X128000000Y-111310000D02*
X128000000Y-106390000D01*
X128000000Y-106390000D02*
X127450000Y-105840000D01*
D21*
%TO.N,Net-(C21-Pad1)*%
X148070000Y-94300000D02*
X133390000Y-94300000D01*
X133390000Y-94300000D02*
X129020000Y-98670000D01*
%TO.N,Net-(R15-Pad1)*%
X129670000Y-94634000D02*
X129670000Y-95160000D01*
X129670000Y-95160000D02*
X130670000Y-96160000D01*
%TO.N,Net-(U3-FEEDBACK)*%
X149260000Y-91210000D02*
X141090000Y-91210000D01*
X151020000Y-92970000D02*
X149260000Y-91210000D01*
X141090000Y-91210000D02*
X140225000Y-90345000D01*
X140225000Y-90345000D02*
X140225000Y-90060000D01*
D22*
%TO.N,Net-(J1-+)*%
X99183600Y-85025000D02*
X99183600Y-86639609D01*
X102083991Y-89540000D02*
X107530000Y-89540000D01*
X99183600Y-86639609D02*
X102083991Y-89540000D01*
D21*
%TO.N,+3V3*%
X131080265Y-108560265D02*
X130271000Y-107751000D01*
X130271000Y-107751000D02*
X129771000Y-107751000D01*
X129771000Y-107751000D02*
X129750000Y-107730000D01*
%TO.N,Net-(U6-XIN32)*%
X119096765Y-106403235D02*
X118748235Y-106403235D01*
X118748235Y-106403235D02*
X117035000Y-104690000D01*
%TO.N,/BOOTN*%
X121790000Y-109510000D02*
X121790000Y-106800000D01*
X121790000Y-106800000D02*
X123570000Y-105020000D01*
D20*
%TO.N,Net-(U6-SA0{slash}H_MOSI)*%
X125998588Y-103056000D02*
X126336000Y-102718588D01*
X125184000Y-102607172D02*
X125184000Y-102718588D01*
X126336000Y-102718588D02*
X126336000Y-102607172D01*
X125184000Y-102718588D02*
X125521412Y-103056000D01*
X126607172Y-102607172D02*
X131154000Y-107154000D01*
X123691000Y-102607172D02*
X125184000Y-102607172D01*
X131154000Y-107154000D02*
X139024000Y-107154000D01*
X126336000Y-102607172D02*
X126607172Y-102607172D01*
X139024000Y-107154000D02*
X140510000Y-108640000D01*
X125521412Y-103056000D02*
X125998588Y-103056000D01*
D21*
%TO.N,/IMU_RST*%
X120840000Y-100210000D02*
X117810000Y-100210000D01*
X122690000Y-102060000D02*
X120840000Y-100210000D01*
X117810000Y-99195000D02*
X117795000Y-99180000D01*
X117810000Y-100210000D02*
X117810000Y-99195000D01*
X122690000Y-104680000D02*
X122690000Y-102060000D01*
X117795000Y-99180000D02*
X117795000Y-95080000D01*
%TO.N,/IMU_INT*%
X123091000Y-101893900D02*
X123040000Y-101842900D01*
X123040000Y-99455000D02*
X122725000Y-99140000D01*
X122725000Y-99140000D02*
X122725000Y-95040000D01*
X123091000Y-103620804D02*
X123091000Y-101893900D01*
X123040000Y-101842900D02*
X123040000Y-99455000D01*
X123290000Y-103819804D02*
X123091000Y-103620804D01*
%TO.N,/SDA{slash}8*%
X126551652Y-96319887D02*
X126551652Y-91779348D01*
X126551652Y-91779348D02*
X126870000Y-91461000D01*
X125330000Y-97300000D02*
X125571539Y-97300000D01*
X125571539Y-97300000D02*
X126551652Y-96319887D01*
%TO.N,/SCL{slash}9*%
X125610000Y-96290000D02*
X125670798Y-96350798D01*
X125610000Y-93186000D02*
X125610000Y-96290000D01*
%TD*%
%TA.AperFunction,Conductor*%
%TO.N,GND*%
G36*
X121934075Y-70427007D02*
G01*
X121900000Y-70554174D01*
X121900000Y-70685826D01*
X121934075Y-70812993D01*
X121966988Y-70870000D01*
X120293012Y-70870000D01*
X120325925Y-70812993D01*
X120360000Y-70685826D01*
X120360000Y-70554174D01*
X120325925Y-70427007D01*
X120293012Y-70370000D01*
X121966988Y-70370000D01*
X121934075Y-70427007D01*
G37*
%TD.AperFunction*%
%TA.AperFunction,Conductor*%
G36*
X124474075Y-70427007D02*
G01*
X124440000Y-70554174D01*
X124440000Y-70685826D01*
X124474075Y-70812993D01*
X124506988Y-70870000D01*
X122833012Y-70870000D01*
X122865925Y-70812993D01*
X122900000Y-70685826D01*
X122900000Y-70554174D01*
X122865925Y-70427007D01*
X122833012Y-70370000D01*
X124506988Y-70370000D01*
X124474075Y-70427007D01*
G37*
%TD.AperFunction*%
%TA.AperFunction,Conductor*%
G36*
X127014075Y-70427007D02*
G01*
X126980000Y-70554174D01*
X126980000Y-70685826D01*
X127014075Y-70812993D01*
X127046988Y-70870000D01*
X125373012Y-70870000D01*
X125405925Y-70812993D01*
X125440000Y-70685826D01*
X125440000Y-70554174D01*
X125405925Y-70427007D01*
X125373012Y-70370000D01*
X127046988Y-70370000D01*
X127014075Y-70427007D01*
G37*
%TD.AperFunction*%
%TA.AperFunction,Conductor*%
G36*
X129554075Y-70427007D02*
G01*
X129520000Y-70554174D01*
X129520000Y-70685826D01*
X129554075Y-70812993D01*
X129586988Y-70870000D01*
X127913012Y-70870000D01*
X127945925Y-70812993D01*
X127980000Y-70685826D01*
X127980000Y-70554174D01*
X127945925Y-70427007D01*
X127913012Y-70370000D01*
X129586988Y-70370000D01*
X129554075Y-70427007D01*
G37*
%TD.AperFunction*%
%TA.AperFunction,Conductor*%
G36*
X132094075Y-70427007D02*
G01*
X132060000Y-70554174D01*
X132060000Y-70685826D01*
X132094075Y-70812993D01*
X132126988Y-70870000D01*
X130453012Y-70870000D01*
X130485925Y-70812993D01*
X130520000Y-70685826D01*
X130520000Y-70554174D01*
X130485925Y-70427007D01*
X130453012Y-70370000D01*
X132126988Y-70370000D01*
X132094075Y-70427007D01*
G37*
%TD.AperFunction*%
%TA.AperFunction,Conductor*%
G36*
X134634075Y-70427007D02*
G01*
X134600000Y-70554174D01*
X134600000Y-70685826D01*
X134634075Y-70812993D01*
X134666988Y-70870000D01*
X132993012Y-70870000D01*
X133025925Y-70812993D01*
X133060000Y-70685826D01*
X133060000Y-70554174D01*
X133025925Y-70427007D01*
X132993012Y-70370000D01*
X134666988Y-70370000D01*
X134634075Y-70427007D01*
G37*
%TD.AperFunction*%
%TA.AperFunction,Conductor*%
G36*
X137174075Y-70427007D02*
G01*
X137140000Y-70554174D01*
X137140000Y-70685826D01*
X137174075Y-70812993D01*
X137206988Y-70870000D01*
X135533012Y-70870000D01*
X135565925Y-70812993D01*
X135600000Y-70685826D01*
X135600000Y-70554174D01*
X135565925Y-70427007D01*
X135533012Y-70370000D01*
X137206988Y-70370000D01*
X137174075Y-70427007D01*
G37*
%TD.AperFunction*%
%TA.AperFunction,Conductor*%
G36*
X139714075Y-70427007D02*
G01*
X139680000Y-70554174D01*
X139680000Y-70685826D01*
X139714075Y-70812993D01*
X139746988Y-70870000D01*
X138073012Y-70870000D01*
X138105925Y-70812993D01*
X138140000Y-70685826D01*
X138140000Y-70554174D01*
X138105925Y-70427007D01*
X138073012Y-70370000D01*
X139746988Y-70370000D01*
X139714075Y-70427007D01*
G37*
%TD.AperFunction*%
%TA.AperFunction,Conductor*%
G36*
X142254075Y-70427007D02*
G01*
X142220000Y-70554174D01*
X142220000Y-70685826D01*
X142254075Y-70812993D01*
X142286988Y-70870000D01*
X140613012Y-70870000D01*
X140645925Y-70812993D01*
X140680000Y-70685826D01*
X140680000Y-70554174D01*
X140645925Y-70427007D01*
X140613012Y-70370000D01*
X142286988Y-70370000D01*
X142254075Y-70427007D01*
G37*
%TD.AperFunction*%
%TA.AperFunction,Conductor*%
G36*
X144794075Y-70427007D02*
G01*
X144760000Y-70554174D01*
X144760000Y-70685826D01*
X144794075Y-70812993D01*
X144826988Y-70870000D01*
X143153012Y-70870000D01*
X143185925Y-70812993D01*
X143220000Y-70685826D01*
X143220000Y-70554174D01*
X143185925Y-70427007D01*
X143153012Y-70370000D01*
X144826988Y-70370000D01*
X144794075Y-70427007D01*
G37*
%TD.AperFunction*%
%TA.AperFunction,Conductor*%
G36*
X147334075Y-70427007D02*
G01*
X147300000Y-70554174D01*
X147300000Y-70685826D01*
X147334075Y-70812993D01*
X147366988Y-70870000D01*
X145693012Y-70870000D01*
X145725925Y-70812993D01*
X145760000Y-70685826D01*
X145760000Y-70554174D01*
X145725925Y-70427007D01*
X145693012Y-70370000D01*
X147366988Y-70370000D01*
X147334075Y-70427007D01*
G37*
%TD.AperFunction*%
%TA.AperFunction,Conductor*%
G36*
X96184730Y-65330185D02*
G01*
X96205372Y-65346819D01*
X96976466Y-66117913D01*
X96845825Y-66212829D01*
X96717829Y-66340825D01*
X96622912Y-66471466D01*
X95836777Y-65685331D01*
X95836775Y-65685331D01*
X95720185Y-65837276D01*
X95720174Y-65837292D01*
X95572709Y-66092707D01*
X95572704Y-66092718D01*
X95459838Y-66365199D01*
X95459835Y-66365209D01*
X95383499Y-66650102D01*
X95383496Y-66650115D01*
X95345001Y-66942516D01*
X95345000Y-66942533D01*
X95345000Y-67237466D01*
X95345001Y-67237483D01*
X95383496Y-67529884D01*
X95383499Y-67529897D01*
X95459835Y-67814790D01*
X95459838Y-67814800D01*
X95572704Y-68087281D01*
X95572709Y-68087292D01*
X95720174Y-68342707D01*
X95720180Y-68342715D01*
X95836777Y-68494667D01*
X96622912Y-67708531D01*
X96717829Y-67839175D01*
X96845825Y-67967171D01*
X96976466Y-68062086D01*
X96190331Y-68848221D01*
X96342284Y-68964819D01*
X96342292Y-68964825D01*
X96597707Y-69112290D01*
X96597718Y-69112295D01*
X96870199Y-69225161D01*
X96870209Y-69225164D01*
X97155102Y-69301500D01*
X97155115Y-69301503D01*
X97447516Y-69339998D01*
X97447534Y-69340000D01*
X97742466Y-69340000D01*
X97742483Y-69339998D01*
X98034884Y-69301503D01*
X98034897Y-69301500D01*
X98319790Y-69225164D01*
X98319800Y-69225161D01*
X98592281Y-69112295D01*
X98592292Y-69112290D01*
X98847707Y-68964825D01*
X98847725Y-68964813D01*
X98999667Y-68848222D01*
X98999667Y-68848220D01*
X98863781Y-68712334D01*
X98780158Y-68628711D01*
X110899500Y-68628711D01*
X110899500Y-68871288D01*
X110931161Y-69111785D01*
X110993947Y-69346104D01*
X111069252Y-69527906D01*
X111086776Y-69570212D01*
X111208064Y-69780289D01*
X111208066Y-69780292D01*
X111208067Y-69780293D01*
X111355733Y-69972736D01*
X111355739Y-69972743D01*
X111527256Y-70144260D01*
X111527263Y-70144266D01*
X111625833Y-70219901D01*
X111719711Y-70291936D01*
X111929788Y-70413224D01*
X112153900Y-70506054D01*
X112388211Y-70568838D01*
X112568586Y-70592584D01*
X112628711Y-70600500D01*
X112628712Y-70600500D01*
X112871289Y-70600500D01*
X112919388Y-70594167D01*
X113111789Y-70568838D01*
X113346100Y-70506054D01*
X113570212Y-70413224D01*
X113780289Y-70291936D01*
X113972738Y-70144265D01*
X114144265Y-69972738D01*
X114291936Y-69780289D01*
X114413224Y-69570212D01*
X114506054Y-69346100D01*
X114568838Y-69111789D01*
X114600500Y-68871288D01*
X114600500Y-68628712D01*
X114568838Y-68388211D01*
X114566292Y-68378711D01*
X149649500Y-68378711D01*
X149649500Y-68621288D01*
X149681161Y-68861785D01*
X149743947Y-69096104D01*
X149818629Y-69276401D01*
X149836776Y-69320212D01*
X149958064Y-69530289D01*
X149958066Y-69530292D01*
X149958067Y-69530293D01*
X150105733Y-69722736D01*
X150105739Y-69722743D01*
X150277256Y-69894260D01*
X150277263Y-69894266D01*
X150372183Y-69967100D01*
X150469711Y-70041936D01*
X150679788Y-70163224D01*
X150903900Y-70256054D01*
X151138211Y-70318838D01*
X151318586Y-70342584D01*
X151378711Y-70350500D01*
X151378712Y-70350500D01*
X151621289Y-70350500D01*
X151669388Y-70344167D01*
X151861789Y-70318838D01*
X152096100Y-70256054D01*
X152320212Y-70163224D01*
X152530289Y-70041936D01*
X152722738Y-69894265D01*
X152894265Y-69722738D01*
X153041936Y-69530289D01*
X153163224Y-69320212D01*
X153256054Y-69096100D01*
X153318838Y-68861789D01*
X153350500Y-68621288D01*
X153350500Y-68378712D01*
X153318838Y-68138211D01*
X153256054Y-67903900D01*
X153163224Y-67679788D01*
X153041936Y-67469711D01*
X152894265Y-67277262D01*
X152894260Y-67277256D01*
X152722743Y-67105739D01*
X152722736Y-67105733D01*
X152530293Y-66958067D01*
X152530292Y-66958066D01*
X152530289Y-66958064D01*
X152320212Y-66836776D01*
X152320205Y-66836773D01*
X152096104Y-66743947D01*
X151861785Y-66681161D01*
X151621289Y-66649500D01*
X151621288Y-66649500D01*
X151378712Y-66649500D01*
X151378711Y-66649500D01*
X151138214Y-66681161D01*
X150903895Y-66743947D01*
X150679794Y-66836773D01*
X150679785Y-66836777D01*
X150469706Y-66958067D01*
X150277263Y-67105733D01*
X150277256Y-67105739D01*
X150105739Y-67277256D01*
X150105733Y-67277263D01*
X149958067Y-67469706D01*
X149836777Y-67679785D01*
X149836773Y-67679794D01*
X149743947Y-67903895D01*
X149681161Y-68138214D01*
X149649500Y-68378711D01*
X114566292Y-68378711D01*
X114506054Y-68153900D01*
X114413224Y-67929788D01*
X114291936Y-67719711D01*
X114144265Y-67527262D01*
X114144260Y-67527256D01*
X113972743Y-67355739D01*
X113972736Y-67355733D01*
X113780293Y-67208067D01*
X113780292Y-67208066D01*
X113780289Y-67208064D01*
X113603050Y-67105735D01*
X113570214Y-67086777D01*
X113570205Y-67086773D01*
X113346104Y-66993947D01*
X113111785Y-66931161D01*
X112871289Y-66899500D01*
X112871288Y-66899500D01*
X112628712Y-66899500D01*
X112628711Y-66899500D01*
X112388214Y-66931161D01*
X112153895Y-66993947D01*
X111929794Y-67086773D01*
X111929785Y-67086777D01*
X111719706Y-67208067D01*
X111527263Y-67355733D01*
X111527256Y-67355739D01*
X111355739Y-67527256D01*
X111355733Y-67527263D01*
X111208067Y-67719706D01*
X111086777Y-67929785D01*
X111086773Y-67929794D01*
X110993947Y-68153895D01*
X110931161Y-68388214D01*
X110899500Y-68628711D01*
X98780158Y-68628711D01*
X98213533Y-68062086D01*
X98344175Y-67967171D01*
X98472171Y-67839175D01*
X98567086Y-67708533D01*
X99353220Y-68494667D01*
X99353222Y-68494667D01*
X99469813Y-68342725D01*
X99469825Y-68342707D01*
X99617290Y-68087292D01*
X99617295Y-68087281D01*
X99730161Y-67814800D01*
X99730164Y-67814790D01*
X99806500Y-67529897D01*
X99806503Y-67529884D01*
X99844998Y-67237483D01*
X99845000Y-67237466D01*
X99845000Y-66942533D01*
X99844998Y-66942516D01*
X99806503Y-66650115D01*
X99806500Y-66650102D01*
X99730164Y-66365209D01*
X99730161Y-66365199D01*
X99617295Y-66092718D01*
X99617290Y-66092707D01*
X99469825Y-65837292D01*
X99469819Y-65837284D01*
X99353221Y-65685331D01*
X98567086Y-66471466D01*
X98472171Y-66340825D01*
X98344175Y-66212829D01*
X98213533Y-66117912D01*
X98984626Y-65346819D01*
X99045949Y-65313334D01*
X99072307Y-65310500D01*
X154825500Y-65310500D01*
X154892539Y-65330185D01*
X154938294Y-65382989D01*
X154949500Y-65434500D01*
X154949500Y-112535500D01*
X154929815Y-112602539D01*
X154877011Y-112648294D01*
X154825500Y-112659500D01*
X93124000Y-112659500D01*
X93056961Y-112639815D01*
X93011206Y-112587011D01*
X93000000Y-112535500D01*
X93000000Y-109083389D01*
X102159500Y-109083389D01*
X102159500Y-109256610D01*
X102183752Y-109409737D01*
X102186598Y-109427701D01*
X102240127Y-109592445D01*
X102318768Y-109746788D01*
X102420586Y-109886928D01*
X102543072Y-110009414D01*
X102683212Y-110111232D01*
X102837555Y-110189873D01*
X103002299Y-110243402D01*
X103173389Y-110270500D01*
X103173390Y-110270500D01*
X104546610Y-110270500D01*
X104546611Y-110270500D01*
X104717701Y-110243402D01*
X104882445Y-110189873D01*
X105036788Y-110111232D01*
X105176928Y-110009414D01*
X105299414Y-109886928D01*
X105401232Y-109746788D01*
X105461395Y-109628711D01*
X113649500Y-109628711D01*
X113649500Y-109871288D01*
X113681161Y-110111785D01*
X113743947Y-110346104D01*
X113825062Y-110541932D01*
X113836776Y-110570212D01*
X113958064Y-110780289D01*
X113958066Y-110780292D01*
X113958067Y-110780293D01*
X114105733Y-110972736D01*
X114105739Y-110972743D01*
X114277256Y-111144260D01*
X114277263Y-111144266D01*
X114390321Y-111231018D01*
X114469711Y-111291936D01*
X114679788Y-111413224D01*
X114903900Y-111506054D01*
X115138211Y-111568838D01*
X115318586Y-111592584D01*
X115378711Y-111600500D01*
X115378712Y-111600500D01*
X115621289Y-111600500D01*
X115669388Y-111594167D01*
X115861789Y-111568838D01*
X116096100Y-111506054D01*
X116320212Y-111413224D01*
X116530289Y-111291936D01*
X116722738Y-111144265D01*
X116894265Y-110972738D01*
X117041936Y-110780289D01*
X117163224Y-110570212D01*
X117256054Y-110346100D01*
X117318838Y-110111789D01*
X117350500Y-109871288D01*
X117350500Y-109628712D01*
X117346681Y-109599707D01*
X117325722Y-109440500D01*
X117318838Y-109388211D01*
X117256054Y-109153900D01*
X117246491Y-109130814D01*
X117221531Y-109070554D01*
X117163224Y-108929788D01*
X117041936Y-108719711D01*
X116920272Y-108561155D01*
X116894266Y-108527263D01*
X116894260Y-108527256D01*
X116722743Y-108355739D01*
X116722736Y-108355733D01*
X116530293Y-108208067D01*
X116530292Y-108208066D01*
X116530289Y-108208064D01*
X116337224Y-108096598D01*
X116320214Y-108086777D01*
X116320205Y-108086773D01*
X116096104Y-107993947D01*
X115861785Y-107931161D01*
X115621289Y-107899500D01*
X115621288Y-107899500D01*
X115378712Y-107899500D01*
X115378711Y-107899500D01*
X115138214Y-107931161D01*
X114903895Y-107993947D01*
X114679794Y-108086773D01*
X114679785Y-108086777D01*
X114469706Y-108208067D01*
X114277263Y-108355733D01*
X114277256Y-108355739D01*
X114105739Y-108527256D01*
X114105733Y-108527263D01*
X113958067Y-108719706D01*
X113836777Y-108929785D01*
X113836773Y-108929794D01*
X113743947Y-109153895D01*
X113681161Y-109388214D01*
X113649500Y-109628711D01*
X105461395Y-109628711D01*
X105479873Y-109592445D01*
X105533402Y-109427701D01*
X105560500Y-109256611D01*
X105560500Y-109083389D01*
X105533402Y-108912299D01*
X105479873Y-108747555D01*
X105401232Y-108593212D01*
X105299414Y-108453072D01*
X105176928Y-108330586D01*
X105036788Y-108228768D01*
X104940670Y-108179794D01*
X104882447Y-108150128D01*
X104882446Y-108150127D01*
X104882445Y-108150127D01*
X104717701Y-108096598D01*
X104717699Y-108096597D01*
X104717698Y-108096597D01*
X104586271Y-108075781D01*
X104546611Y-108069500D01*
X103173389Y-108069500D01*
X103133728Y-108075781D01*
X103002302Y-108096597D01*
X102919927Y-108123362D01*
X102900389Y-108129711D01*
X102837552Y-108150128D01*
X102683211Y-108228768D01*
X102603256Y-108286859D01*
X102543072Y-108330586D01*
X102543070Y-108330588D01*
X102543069Y-108330588D01*
X102420588Y-108453069D01*
X102420588Y-108453070D01*
X102420586Y-108453072D01*
X102399990Y-108481420D01*
X102318768Y-108593211D01*
X102240128Y-108747552D01*
X102186597Y-108912302D01*
X102159500Y-109083389D01*
X93000000Y-109083389D01*
X93000000Y-105865441D01*
X107502000Y-105865441D01*
X107502000Y-106174558D01*
X107542346Y-106481001D01*
X107542348Y-106481012D01*
X107622347Y-106779577D01*
X107740634Y-107065147D01*
X107740638Y-107065157D01*
X107895187Y-107332844D01*
X108024751Y-107501694D01*
X108744728Y-106781716D01*
X108830278Y-106899466D01*
X108980534Y-107049722D01*
X109098281Y-107135270D01*
X108378304Y-107855247D01*
X108547159Y-107984815D01*
X108814842Y-108139361D01*
X108814852Y-108139365D01*
X109100422Y-108257652D01*
X109398987Y-108337651D01*
X109398998Y-108337653D01*
X109705441Y-108377999D01*
X109705456Y-108378000D01*
X110014544Y-108378000D01*
X110014558Y-108377999D01*
X110321001Y-108337653D01*
X110321012Y-108337651D01*
X110619577Y-108257652D01*
X110905147Y-108139365D01*
X110905156Y-108139361D01*
X111172845Y-107984811D01*
X111341694Y-107855247D01*
X110621717Y-107135270D01*
X110739466Y-107049722D01*
X110889722Y-106899466D01*
X110975270Y-106781717D01*
X111695247Y-107501694D01*
X111824811Y-107332845D01*
X111979361Y-107065156D01*
X111979365Y-107065147D01*
X112097652Y-106779577D01*
X112177651Y-106481012D01*
X112177653Y-106481001D01*
X112217999Y-106174558D01*
X112218000Y-106174544D01*
X112218000Y-105865455D01*
X112217999Y-105865441D01*
X112177653Y-105558998D01*
X112177651Y-105558987D01*
X112097652Y-105260422D01*
X111979365Y-104974852D01*
X111979361Y-104974842D01*
X111824812Y-104707155D01*
X111804401Y-104680555D01*
X111804399Y-104680553D01*
X111751146Y-104611153D01*
X116234500Y-104611153D01*
X116234500Y-104768846D01*
X116265261Y-104923489D01*
X116265264Y-104923501D01*
X116325602Y-105069172D01*
X116325609Y-105069185D01*
X116413210Y-105200288D01*
X116413213Y-105200292D01*
X116524707Y-105311786D01*
X116524711Y-105311789D01*
X116655814Y-105399390D01*
X116655827Y-105399397D01*
X116765026Y-105444628D01*
X116801503Y-105459737D01*
X116866147Y-105472595D01*
X116956849Y-105490638D01*
X117018760Y-105523023D01*
X117020339Y-105524574D01*
X118263374Y-106767609D01*
X118263384Y-106767620D01*
X118267714Y-106771950D01*
X118267715Y-106771951D01*
X118379519Y-106883755D01*
X118462849Y-106931865D01*
X118512032Y-106960261D01*
X118520804Y-106965326D01*
X118520809Y-106965331D01*
X118546482Y-106985031D01*
X118586472Y-107025021D01*
X118586476Y-107025024D01*
X118717579Y-107112625D01*
X118717592Y-107112632D01*
X118863263Y-107172970D01*
X118863268Y-107172972D01*
X119017918Y-107203734D01*
X119017921Y-107203735D01*
X119017923Y-107203735D01*
X119175609Y-107203735D01*
X119175610Y-107203734D01*
X119330262Y-107172972D01*
X119475944Y-107112629D01*
X119607054Y-107025024D01*
X119718554Y-106913524D01*
X119806159Y-106782414D01*
X119866502Y-106636732D01*
X119897265Y-106482077D01*
X119897265Y-106324393D01*
X119897265Y-106324390D01*
X119897264Y-106324388D01*
X119895602Y-106316034D01*
X119866502Y-106169738D01*
X119826635Y-106073489D01*
X119806162Y-106024062D01*
X119806155Y-106024049D01*
X119718554Y-105892946D01*
X119718551Y-105892942D01*
X119607057Y-105781448D01*
X119607053Y-105781445D01*
X119475950Y-105693844D01*
X119475937Y-105693837D01*
X119330266Y-105633499D01*
X119330254Y-105633496D01*
X119175610Y-105602735D01*
X119175607Y-105602735D01*
X119017923Y-105602735D01*
X119017918Y-105602735D01*
X118898633Y-105626462D01*
X118829041Y-105620235D01*
X118786761Y-105592526D01*
X117869574Y-104675339D01*
X117836089Y-104614016D01*
X117835638Y-104611849D01*
X117804738Y-104456510D01*
X117804737Y-104456503D01*
X117780592Y-104398211D01*
X117744397Y-104310827D01*
X117744390Y-104310814D01*
X117656789Y-104179711D01*
X117656786Y-104179707D01*
X117545292Y-104068213D01*
X117545288Y-104068210D01*
X117414185Y-103980609D01*
X117414172Y-103980602D01*
X117268501Y-103920264D01*
X117268489Y-103920261D01*
X117113845Y-103889500D01*
X117113842Y-103889500D01*
X116956158Y-103889500D01*
X116956155Y-103889500D01*
X116801510Y-103920261D01*
X116801498Y-103920264D01*
X116655827Y-103980602D01*
X116655814Y-103980609D01*
X116524711Y-104068210D01*
X116524707Y-104068213D01*
X116413213Y-104179707D01*
X116413210Y-104179711D01*
X116325609Y-104310814D01*
X116325602Y-104310827D01*
X116265264Y-104456498D01*
X116265261Y-104456510D01*
X116234500Y-104611153D01*
X111751146Y-104611153D01*
X111695247Y-104538304D01*
X110975270Y-105258281D01*
X110889722Y-105140534D01*
X110739466Y-104990278D01*
X110621716Y-104904728D01*
X111341694Y-104184751D01*
X111341694Y-104184750D01*
X111172844Y-104055187D01*
X110905157Y-103900638D01*
X110905147Y-103900634D01*
X110619577Y-103782347D01*
X110321012Y-103702348D01*
X110321001Y-103702346D01*
X110014558Y-103662000D01*
X109705441Y-103662000D01*
X109398998Y-103702346D01*
X109398987Y-103702348D01*
X109100422Y-103782347D01*
X108814852Y-103900634D01*
X108814842Y-103900638D01*
X108547155Y-104055187D01*
X108378304Y-104184750D01*
X108378304Y-104184751D01*
X109098282Y-104904729D01*
X108980534Y-104990278D01*
X108830278Y-105140534D01*
X108744729Y-105258282D01*
X108024751Y-104538304D01*
X108024750Y-104538304D01*
X107895187Y-104707155D01*
X107740638Y-104974842D01*
X107740634Y-104974852D01*
X107622347Y-105260422D01*
X107542348Y-105558987D01*
X107542346Y-105558998D01*
X107502000Y-105865441D01*
X93000000Y-105865441D01*
X93000000Y-96914135D01*
X107501500Y-96914135D01*
X107501500Y-100725870D01*
X107501501Y-100725876D01*
X107507908Y-100785483D01*
X107558202Y-100920328D01*
X107558206Y-100920335D01*
X107644452Y-101035544D01*
X107644455Y-101035547D01*
X107759664Y-101121793D01*
X107759671Y-101121797D01*
X107894517Y-101172091D01*
X107894516Y-101172091D01*
X107901444Y-101172835D01*
X107954127Y-101178500D01*
X111765872Y-101178499D01*
X111825483Y-101172091D01*
X111960331Y-101121796D01*
X112075546Y-101035546D01*
X112161796Y-100920331D01*
X112212091Y-100785483D01*
X112218500Y-100725873D01*
X112218499Y-96914128D01*
X112212091Y-96854517D01*
X112206975Y-96840801D01*
X112161797Y-96719671D01*
X112161793Y-96719664D01*
X112075547Y-96604455D01*
X112075544Y-96604452D01*
X111960335Y-96518206D01*
X111960328Y-96518202D01*
X111825482Y-96467908D01*
X111825483Y-96467908D01*
X111765883Y-96461501D01*
X111765881Y-96461500D01*
X111765873Y-96461500D01*
X111765864Y-96461500D01*
X107954129Y-96461500D01*
X107954123Y-96461501D01*
X107894516Y-96467908D01*
X107759671Y-96518202D01*
X107759664Y-96518206D01*
X107644455Y-96604452D01*
X107644452Y-96604455D01*
X107558206Y-96719664D01*
X107558202Y-96719671D01*
X107507908Y-96854517D01*
X107501501Y-96914116D01*
X107501501Y-96914123D01*
X107501500Y-96914135D01*
X93000000Y-96914135D01*
X93000000Y-92331153D01*
X101464500Y-92331153D01*
X101464500Y-92488846D01*
X101495261Y-92643489D01*
X101495264Y-92643501D01*
X101555602Y-92789172D01*
X101555609Y-92789185D01*
X101643210Y-92920288D01*
X101643213Y-92920292D01*
X101754707Y-93031786D01*
X101754711Y-93031789D01*
X101885814Y-93119390D01*
X101885827Y-93119397D01*
X102031498Y-93179735D01*
X102031503Y-93179737D01*
X102054443Y-93184300D01*
X102116353Y-93216682D01*
X102117935Y-93218236D01*
X103075390Y-94175692D01*
X103075398Y-94175698D01*
X103186020Y-94249613D01*
X103186023Y-94249614D01*
X103186031Y-94249620D01*
X103186037Y-94249622D01*
X103186038Y-94249623D01*
X103258168Y-94279500D01*
X103308964Y-94300540D01*
X103308968Y-94300540D01*
X103308969Y-94300541D01*
X103426311Y-94323883D01*
X103488222Y-94356268D01*
X103522796Y-94416984D01*
X103519055Y-94486754D01*
X103478189Y-94543425D01*
X103413170Y-94569007D01*
X103402119Y-94569500D01*
X103173389Y-94569500D01*
X103133728Y-94575781D01*
X103002302Y-94596597D01*
X102837552Y-94650128D01*
X102683211Y-94728768D01*
X102603256Y-94786859D01*
X102543072Y-94830586D01*
X102543070Y-94830588D01*
X102543069Y-94830588D01*
X102420588Y-94953069D01*
X102420588Y-94953070D01*
X102420586Y-94953072D01*
X102395022Y-94988258D01*
X102318768Y-95093211D01*
X102240128Y-95247552D01*
X102186597Y-95412302D01*
X102159500Y-95583389D01*
X102159500Y-95756610D01*
X102176195Y-95862023D01*
X102186598Y-95927701D01*
X102240127Y-96092445D01*
X102318768Y-96246788D01*
X102420586Y-96386928D01*
X102543072Y-96509414D01*
X102683212Y-96611232D01*
X102837555Y-96689873D01*
X103002299Y-96743402D01*
X103173389Y-96770500D01*
X103173390Y-96770500D01*
X104546610Y-96770500D01*
X104546611Y-96770500D01*
X104717701Y-96743402D01*
X104882445Y-96689873D01*
X105036788Y-96611232D01*
X105176928Y-96509414D01*
X105299414Y-96386928D01*
X105401232Y-96246788D01*
X105479873Y-96092445D01*
X105533402Y-95927701D01*
X105560500Y-95756611D01*
X105560500Y-95583389D01*
X105533402Y-95412299D01*
X105479873Y-95247555D01*
X105401232Y-95093212D01*
X105299414Y-94953072D01*
X105176928Y-94830586D01*
X105036788Y-94728768D01*
X104882445Y-94650127D01*
X104717701Y-94596598D01*
X104717699Y-94596597D01*
X104717698Y-94596597D01*
X104593126Y-94576867D01*
X104568537Y-94572972D01*
X104505404Y-94543044D01*
X104468472Y-94483733D01*
X104469470Y-94413870D01*
X104508080Y-94355637D01*
X104572043Y-94327523D01*
X104587936Y-94326500D01*
X110319837Y-94326500D01*
X110386876Y-94346185D01*
X110407518Y-94362819D01*
X112509060Y-96464361D01*
X112542545Y-96525684D01*
X112542996Y-96527849D01*
X112547559Y-96550791D01*
X112547561Y-96550797D01*
X112607900Y-96696470D01*
X112607907Y-96696483D01*
X112695508Y-96827586D01*
X112695511Y-96827590D01*
X112807005Y-96939084D01*
X112807009Y-96939087D01*
X112938112Y-97026688D01*
X112938125Y-97026695D01*
X113083796Y-97087033D01*
X113083801Y-97087035D01*
X113238451Y-97117797D01*
X113238454Y-97117798D01*
X113238456Y-97117798D01*
X113396142Y-97117798D01*
X113396143Y-97117797D01*
X113550795Y-97087035D01*
X113696477Y-97026692D01*
X113827587Y-96939087D01*
X113939087Y-96827587D01*
X114026692Y-96696477D01*
X114028356Y-96692461D01*
X114087033Y-96550799D01*
X114087035Y-96550795D01*
X114117798Y-96396140D01*
X114117798Y-96238456D01*
X114117798Y-96238453D01*
X114117797Y-96238451D01*
X114093700Y-96117308D01*
X114087035Y-96083801D01*
X114040568Y-95971619D01*
X114026695Y-95938125D01*
X114026688Y-95938112D01*
X113939087Y-95807009D01*
X113939084Y-95807005D01*
X113827590Y-95695511D01*
X113827586Y-95695508D01*
X113696483Y-95607907D01*
X113696470Y-95607900D01*
X113550797Y-95547561D01*
X113550791Y-95547559D01*
X113527849Y-95542996D01*
X113465938Y-95510610D01*
X113464361Y-95509060D01*
X111081609Y-93126307D01*
X111081606Y-93126304D01*
X110994803Y-93068305D01*
X110970974Y-93052383D01*
X110970965Y-93052378D01*
X110848036Y-93001459D01*
X110848028Y-93001457D01*
X110717535Y-92975500D01*
X110717531Y-92975500D01*
X103837163Y-92975500D01*
X103822825Y-92971290D01*
X116149363Y-92971290D01*
X116149363Y-93128983D01*
X116180124Y-93283626D01*
X116180127Y-93283638D01*
X116240465Y-93429309D01*
X116240472Y-93429322D01*
X116328073Y-93560425D01*
X116328076Y-93560429D01*
X116439570Y-93671923D01*
X116439574Y-93671926D01*
X116570677Y-93759527D01*
X116570690Y-93759534D01*
X116715415Y-93819480D01*
X116716366Y-93819874D01*
X116871016Y-93850636D01*
X116871019Y-93850637D01*
X116871021Y-93850637D01*
X117028707Y-93850637D01*
X117028708Y-93850636D01*
X117183360Y-93819874D01*
X117329042Y-93759531D01*
X117460152Y-93671926D01*
X117571652Y-93560426D01*
X117659257Y-93429316D01*
X117663323Y-93419501D01*
X117692448Y-93349185D01*
X117719600Y-93283634D01*
X117724163Y-93260689D01*
X117756547Y-93198779D01*
X117758041Y-93197258D01*
X119458482Y-91496819D01*
X119519805Y-91463334D01*
X119546163Y-91460500D01*
X125853804Y-91460500D01*
X125920843Y-91480185D01*
X125966598Y-91532989D01*
X125976542Y-91602147D01*
X125973583Y-91616573D01*
X125951151Y-91700291D01*
X125951151Y-91700294D01*
X125951151Y-91868394D01*
X125951152Y-91868407D01*
X125951152Y-92286582D01*
X125931467Y-92353621D01*
X125878663Y-92399376D01*
X125809505Y-92409320D01*
X125802961Y-92408199D01*
X125688846Y-92385500D01*
X125688842Y-92385500D01*
X125531158Y-92385500D01*
X125531155Y-92385500D01*
X125376510Y-92416261D01*
X125376498Y-92416264D01*
X125230827Y-92476602D01*
X125230814Y-92476609D01*
X125099711Y-92564210D01*
X125099707Y-92564213D01*
X124988213Y-92675707D01*
X124988210Y-92675711D01*
X124900609Y-92806814D01*
X124900602Y-92806827D01*
X124840264Y-92952498D01*
X124840261Y-92952510D01*
X124809500Y-93107153D01*
X124809500Y-93264846D01*
X124840261Y-93419489D01*
X124840264Y-93419501D01*
X124900602Y-93565172D01*
X124900609Y-93565185D01*
X124988602Y-93696874D01*
X125009480Y-93763551D01*
X125009500Y-93765765D01*
X125009500Y-95862023D01*
X124989815Y-95929062D01*
X124988602Y-95930913D01*
X124961410Y-95971608D01*
X124961400Y-95971626D01*
X124901062Y-96117296D01*
X124901059Y-96117308D01*
X124870298Y-96271951D01*
X124870298Y-96429644D01*
X124891842Y-96537952D01*
X124885615Y-96607543D01*
X124842752Y-96662721D01*
X124839138Y-96665229D01*
X124831567Y-96670289D01*
X124819706Y-96678214D01*
X124819704Y-96678217D01*
X124708213Y-96789707D01*
X124708210Y-96789711D01*
X124620609Y-96920814D01*
X124620602Y-96920827D01*
X124560264Y-97066498D01*
X124560261Y-97066510D01*
X124529500Y-97221153D01*
X124529500Y-97378846D01*
X124560261Y-97533489D01*
X124560264Y-97533501D01*
X124620602Y-97679172D01*
X124620609Y-97679185D01*
X124708210Y-97810288D01*
X124708213Y-97810292D01*
X124819707Y-97921786D01*
X124819711Y-97921789D01*
X124950814Y-98009390D01*
X124950827Y-98009397D01*
X125044534Y-98048211D01*
X125096503Y-98069737D01*
X125251153Y-98100499D01*
X125251156Y-98100500D01*
X125251158Y-98100500D01*
X125408844Y-98100500D01*
X125408845Y-98100499D01*
X125563497Y-98069737D01*
X125709179Y-98009394D01*
X125840289Y-97921789D01*
X125951789Y-97810289D01*
X126028177Y-97695964D01*
X126043582Y-97677192D01*
X126052059Y-97668716D01*
X126052060Y-97668713D01*
X126265472Y-97455301D01*
X126326794Y-97421817D01*
X126396486Y-97426801D01*
X126452419Y-97468673D01*
X126476836Y-97534137D01*
X126477152Y-97542983D01*
X126477152Y-99612152D01*
X126457467Y-99679191D01*
X126404663Y-99724946D01*
X126377344Y-99733769D01*
X126244160Y-99760261D01*
X126244150Y-99760264D01*
X126098479Y-99820602D01*
X126098466Y-99820609D01*
X125967363Y-99908210D01*
X125967359Y-99908213D01*
X125855865Y-100019707D01*
X125855862Y-100019711D01*
X125768261Y-100150814D01*
X125768254Y-100150827D01*
X125707916Y-100296498D01*
X125707913Y-100296510D01*
X125677152Y-100451153D01*
X125677152Y-100608846D01*
X125707913Y-100763489D01*
X125707916Y-100763501D01*
X125768254Y-100909172D01*
X125768261Y-100909185D01*
X125855862Y-101040288D01*
X125855865Y-101040292D01*
X125967359Y-101151786D01*
X125967363Y-101151789D01*
X126098466Y-101239390D01*
X126098479Y-101239397D01*
X126244150Y-101299735D01*
X126244155Y-101299737D01*
X126354639Y-101321713D01*
X126377343Y-101326230D01*
X126439254Y-101358615D01*
X126473828Y-101419330D01*
X126477152Y-101447847D01*
X126477152Y-101499187D01*
X126503109Y-101629680D01*
X126503111Y-101629688D01*
X126554030Y-101752617D01*
X126554035Y-101752627D01*
X126611602Y-101838781D01*
X126614639Y-101848481D01*
X126621294Y-101856161D01*
X126624902Y-101881258D01*
X126632480Y-101905458D01*
X126629791Y-101915258D01*
X126631238Y-101925319D01*
X126620704Y-101948384D01*
X126613996Y-101972839D01*
X126606434Y-101979631D01*
X126602213Y-101988875D01*
X126580882Y-102002583D01*
X126562017Y-102019529D01*
X126550419Y-102022160D01*
X126543435Y-102026649D01*
X126508500Y-102031672D01*
X126489470Y-102031672D01*
X126422431Y-102011987D01*
X126386369Y-101976565D01*
X126381788Y-101969709D01*
X126270292Y-101858213D01*
X126270288Y-101858210D01*
X126139185Y-101770609D01*
X126139172Y-101770602D01*
X125993501Y-101710264D01*
X125993489Y-101710261D01*
X125838845Y-101679500D01*
X125838842Y-101679500D01*
X125681158Y-101679500D01*
X125681155Y-101679500D01*
X125526510Y-101710261D01*
X125526498Y-101710264D01*
X125380827Y-101770602D01*
X125380814Y-101770609D01*
X125249711Y-101858210D01*
X125249707Y-101858213D01*
X125138211Y-101969709D01*
X125133631Y-101976565D01*
X125080018Y-102021369D01*
X125030530Y-102031672D01*
X124298941Y-102031672D01*
X124231902Y-102011987D01*
X124211260Y-101995353D01*
X124201292Y-101985385D01*
X124201288Y-101985382D01*
X124070185Y-101897781D01*
X124070172Y-101897774D01*
X123924501Y-101837436D01*
X123924489Y-101837433D01*
X123763868Y-101805483D01*
X123764244Y-101803590D01*
X123753139Y-101799105D01*
X123732465Y-101795999D01*
X123721397Y-101786285D01*
X123707742Y-101780770D01*
X123695666Y-101763701D01*
X123679953Y-101749911D01*
X123670237Y-101727760D01*
X123667387Y-101723732D01*
X123665495Y-101717714D01*
X123665191Y-101716656D01*
X123650577Y-101662115D01*
X123648540Y-101658587D01*
X123645304Y-101647301D01*
X123645365Y-101637583D01*
X123640500Y-101613121D01*
X123640500Y-99375945D01*
X123640500Y-99375943D01*
X123601282Y-99229577D01*
X123599577Y-99223215D01*
X123599576Y-99223213D01*
X123570639Y-99173094D01*
X123570637Y-99173091D01*
X123542112Y-99123682D01*
X123526960Y-99067133D01*
X123526097Y-99067218D01*
X123525582Y-99061991D01*
X123525500Y-99061684D01*
X123525500Y-99061155D01*
X123525499Y-99061153D01*
X123502695Y-98946510D01*
X123494737Y-98906503D01*
X123450965Y-98800827D01*
X123434397Y-98760827D01*
X123434390Y-98760814D01*
X123346398Y-98629125D01*
X123325520Y-98562447D01*
X123325500Y-98560234D01*
X123325500Y-95619765D01*
X123345185Y-95552726D01*
X123346398Y-95550874D01*
X123407672Y-95459172D01*
X123434394Y-95419179D01*
X123494737Y-95273497D01*
X123525500Y-95118842D01*
X123525500Y-94961158D01*
X123525500Y-94961155D01*
X123525499Y-94961153D01*
X123506870Y-94867501D01*
X123494737Y-94806503D01*
X123468711Y-94743670D01*
X123434397Y-94660827D01*
X123434390Y-94660814D01*
X123346789Y-94529711D01*
X123346786Y-94529707D01*
X123235292Y-94418213D01*
X123235288Y-94418210D01*
X123104185Y-94330609D01*
X123104172Y-94330602D01*
X122958501Y-94270264D01*
X122958489Y-94270261D01*
X122803845Y-94239500D01*
X122803842Y-94239500D01*
X122646158Y-94239500D01*
X122646155Y-94239500D01*
X122491510Y-94270261D01*
X122491498Y-94270264D01*
X122345827Y-94330602D01*
X122345814Y-94330609D01*
X122214711Y-94418210D01*
X122214707Y-94418213D01*
X122103213Y-94529707D01*
X122103210Y-94529711D01*
X122015609Y-94660814D01*
X122015602Y-94660827D01*
X121955264Y-94806498D01*
X121955261Y-94806510D01*
X121924500Y-94961153D01*
X121924500Y-95118846D01*
X121955261Y-95273489D01*
X121955264Y-95273501D01*
X122015602Y-95419172D01*
X122015609Y-95419185D01*
X122103602Y-95550874D01*
X122124480Y-95617551D01*
X122124500Y-95619765D01*
X122124500Y-98560234D01*
X122104815Y-98627273D01*
X122103602Y-98629125D01*
X122015609Y-98760814D01*
X122015602Y-98760827D01*
X121955264Y-98906498D01*
X121955261Y-98906510D01*
X121924500Y-99061153D01*
X121924500Y-99218846D01*
X121955261Y-99373489D01*
X121955264Y-99373501D01*
X122015602Y-99519172D01*
X122015609Y-99519185D01*
X122103210Y-99650288D01*
X122103213Y-99650292D01*
X122214710Y-99761789D01*
X122344262Y-99848352D01*
X122345821Y-99849394D01*
X122345827Y-99849396D01*
X122345828Y-99849397D01*
X122362952Y-99856490D01*
X122417356Y-99900331D01*
X122439421Y-99966625D01*
X122439500Y-99971051D01*
X122439500Y-100660903D01*
X122419815Y-100727942D01*
X122367011Y-100773697D01*
X122297853Y-100783641D01*
X122234297Y-100754616D01*
X122227819Y-100748584D01*
X121327590Y-99848355D01*
X121327588Y-99848352D01*
X121208717Y-99729481D01*
X121208709Y-99729475D01*
X121089274Y-99660520D01*
X121089274Y-99660519D01*
X121089269Y-99660518D01*
X121083168Y-99656995D01*
X121071786Y-99650423D01*
X120998686Y-99630836D01*
X120919057Y-99609499D01*
X120760943Y-99609499D01*
X120753347Y-99609499D01*
X120753331Y-99609500D01*
X118669129Y-99609500D01*
X118602090Y-99589815D01*
X118556335Y-99537011D01*
X118546391Y-99467853D01*
X118554568Y-99438048D01*
X118564735Y-99413501D01*
X118564737Y-99413497D01*
X118595500Y-99258842D01*
X118595500Y-99101158D01*
X118595500Y-99101155D01*
X118595499Y-99101153D01*
X118564738Y-98946510D01*
X118564737Y-98946503D01*
X118564735Y-98946498D01*
X118504397Y-98800827D01*
X118504390Y-98800814D01*
X118416398Y-98669125D01*
X118395520Y-98602447D01*
X118395500Y-98600234D01*
X118395500Y-95659765D01*
X118415185Y-95592726D01*
X118416398Y-95590874D01*
X118504390Y-95459185D01*
X118504390Y-95459184D01*
X118504394Y-95459179D01*
X118564737Y-95313497D01*
X118595500Y-95158842D01*
X118595500Y-95001158D01*
X118595500Y-95001155D01*
X118595499Y-95001153D01*
X118576041Y-94903334D01*
X118564737Y-94846503D01*
X118549737Y-94810289D01*
X118504397Y-94700827D01*
X118504390Y-94700814D01*
X118416789Y-94569711D01*
X118416786Y-94569707D01*
X118305292Y-94458213D01*
X118305288Y-94458210D01*
X118174185Y-94370609D01*
X118174172Y-94370602D01*
X118028501Y-94310264D01*
X118028489Y-94310261D01*
X117873845Y-94279500D01*
X117873842Y-94279500D01*
X117716158Y-94279500D01*
X117716155Y-94279500D01*
X117561510Y-94310261D01*
X117561498Y-94310264D01*
X117415827Y-94370602D01*
X117415814Y-94370609D01*
X117284711Y-94458210D01*
X117284707Y-94458213D01*
X117173213Y-94569707D01*
X117173210Y-94569711D01*
X117085609Y-94700814D01*
X117085602Y-94700827D01*
X117025264Y-94846498D01*
X117025261Y-94846510D01*
X116994500Y-95001153D01*
X116994500Y-95158846D01*
X117025261Y-95313489D01*
X117025264Y-95313501D01*
X117085602Y-95459172D01*
X117085609Y-95459185D01*
X117173602Y-95590874D01*
X117194480Y-95657551D01*
X117194500Y-95659765D01*
X117194500Y-98600234D01*
X117174815Y-98667273D01*
X117173602Y-98669125D01*
X117085609Y-98800814D01*
X117085602Y-98800827D01*
X117025264Y-98946498D01*
X117025261Y-98946510D01*
X116994500Y-99101153D01*
X116994500Y-99258846D01*
X117025261Y-99413489D01*
X117025264Y-99413501D01*
X117085602Y-99559172D01*
X117085609Y-99559185D01*
X117173210Y-99690288D01*
X117177076Y-99694999D01*
X117176171Y-99695741D01*
X117206663Y-99751568D01*
X117209500Y-99777940D01*
X117209500Y-100289057D01*
X117241683Y-100409163D01*
X117250423Y-100441783D01*
X117250426Y-100441790D01*
X117329475Y-100578709D01*
X117329479Y-100578714D01*
X117329480Y-100578716D01*
X117441284Y-100690520D01*
X117441286Y-100690521D01*
X117441290Y-100690524D01*
X117567671Y-100763489D01*
X117578216Y-100769577D01*
X117730943Y-100810500D01*
X117889057Y-100810500D01*
X120539903Y-100810500D01*
X120606942Y-100830185D01*
X120627584Y-100846819D01*
X122053181Y-102272416D01*
X122086666Y-102333739D01*
X122089500Y-102360097D01*
X122089500Y-104100234D01*
X122069815Y-104167273D01*
X122068602Y-104169125D01*
X121980609Y-104300814D01*
X121980602Y-104300827D01*
X121920264Y-104446498D01*
X121920261Y-104446510D01*
X121889500Y-104601153D01*
X121889500Y-104758846D01*
X121920261Y-104913489D01*
X121920264Y-104913501D01*
X121980602Y-105059172D01*
X121980609Y-105059185D01*
X122068210Y-105190288D01*
X122068213Y-105190292D01*
X122179708Y-105301787D01*
X122179711Y-105301789D01*
X122209497Y-105321691D01*
X122254302Y-105375303D01*
X122263010Y-105444628D01*
X122232856Y-105507656D01*
X122228288Y-105512475D01*
X121424729Y-106316034D01*
X121424723Y-106316040D01*
X121421286Y-106319478D01*
X121421284Y-106319480D01*
X121309480Y-106431284D01*
X121280155Y-106482077D01*
X121274457Y-106491945D01*
X121274456Y-106491947D01*
X121235850Y-106558815D01*
X121230423Y-106568215D01*
X121189499Y-106720943D01*
X121189499Y-106720945D01*
X121189499Y-106889046D01*
X121189500Y-106889059D01*
X121189500Y-108930234D01*
X121169815Y-108997273D01*
X121168602Y-108999125D01*
X121080609Y-109130814D01*
X121080602Y-109130827D01*
X121020264Y-109276498D01*
X121020261Y-109276510D01*
X120989500Y-109431153D01*
X120989500Y-109588846D01*
X121020261Y-109743489D01*
X121020264Y-109743501D01*
X121080602Y-109889172D01*
X121080609Y-109889185D01*
X121168210Y-110020288D01*
X121168213Y-110020292D01*
X121279707Y-110131786D01*
X121279711Y-110131789D01*
X121410814Y-110219390D01*
X121410827Y-110219397D01*
X121556498Y-110279735D01*
X121556503Y-110279737D01*
X121711153Y-110310499D01*
X121711156Y-110310500D01*
X121711158Y-110310500D01*
X121868844Y-110310500D01*
X121868845Y-110310499D01*
X122023497Y-110279737D01*
X122169179Y-110219394D01*
X122300289Y-110131789D01*
X122400925Y-110031153D01*
X124959500Y-110031153D01*
X124959500Y-110188846D01*
X124990261Y-110343489D01*
X124990264Y-110343501D01*
X125050602Y-110489172D01*
X125050609Y-110489185D01*
X125138210Y-110620288D01*
X125138213Y-110620292D01*
X125249707Y-110731786D01*
X125249711Y-110731789D01*
X125380814Y-110819390D01*
X125380827Y-110819397D01*
X125526498Y-110879735D01*
X125526503Y-110879737D01*
X125681153Y-110910499D01*
X125681156Y-110910500D01*
X125681158Y-110910500D01*
X125743741Y-110910500D01*
X125810780Y-110930185D01*
X125856535Y-110982989D01*
X125858302Y-110987048D01*
X125900602Y-111089172D01*
X125900609Y-111089185D01*
X125988210Y-111220288D01*
X125988213Y-111220292D01*
X126099707Y-111331786D01*
X126099711Y-111331789D01*
X126230814Y-111419390D01*
X126230827Y-111419397D01*
X126291314Y-111444451D01*
X126376503Y-111479737D01*
X126508797Y-111506052D01*
X126531153Y-111510499D01*
X126531156Y-111510500D01*
X126531158Y-111510500D01*
X126688844Y-111510500D01*
X126688845Y-111510499D01*
X126843497Y-111479737D01*
X126989179Y-111419394D01*
X127025885Y-111394868D01*
X127092562Y-111373989D01*
X127159942Y-111392473D01*
X127206633Y-111444451D01*
X127216394Y-111473777D01*
X127230261Y-111543491D01*
X127230264Y-111543501D01*
X127290602Y-111689172D01*
X127290609Y-111689185D01*
X127378210Y-111820288D01*
X127378213Y-111820292D01*
X127489707Y-111931786D01*
X127489711Y-111931789D01*
X127620814Y-112019390D01*
X127620827Y-112019397D01*
X127766498Y-112079735D01*
X127766503Y-112079737D01*
X127921153Y-112110499D01*
X127921156Y-112110500D01*
X127921158Y-112110500D01*
X128078844Y-112110500D01*
X128078845Y-112110499D01*
X128233497Y-112079737D01*
X128379179Y-112019394D01*
X128510289Y-111931789D01*
X128621789Y-111820289D01*
X128709394Y-111689179D01*
X128769737Y-111543497D01*
X128800500Y-111388842D01*
X128800500Y-111231158D01*
X128800500Y-111231155D01*
X128800499Y-111231153D01*
X128783215Y-111144260D01*
X128769737Y-111076503D01*
X128726759Y-110972743D01*
X128709397Y-110930827D01*
X128709390Y-110930814D01*
X128696398Y-110911370D01*
X128675520Y-110844692D01*
X128675500Y-110842479D01*
X128675500Y-106323466D01*
X128649541Y-106192969D01*
X128649540Y-106192968D01*
X128649540Y-106192964D01*
X128641910Y-106174544D01*
X128598623Y-106070038D01*
X128598622Y-106070037D01*
X128598620Y-106070031D01*
X128565190Y-106020000D01*
X128524698Y-105959398D01*
X128524697Y-105959397D01*
X128524695Y-105959394D01*
X128430606Y-105865305D01*
X128258236Y-105692935D01*
X128224751Y-105631612D01*
X128224314Y-105629514D01*
X128219737Y-105606503D01*
X128200060Y-105558998D01*
X128159397Y-105460827D01*
X128159390Y-105460814D01*
X128071789Y-105329711D01*
X128071786Y-105329707D01*
X127960292Y-105218213D01*
X127960288Y-105218210D01*
X127829185Y-105130609D01*
X127829172Y-105130602D01*
X127683501Y-105070264D01*
X127683489Y-105070261D01*
X127528845Y-105039500D01*
X127528842Y-105039500D01*
X127371158Y-105039500D01*
X127371155Y-105039500D01*
X127216510Y-105070261D01*
X127216498Y-105070264D01*
X127070827Y-105130602D01*
X127070814Y-105130609D01*
X126939711Y-105218210D01*
X126939707Y-105218213D01*
X126828213Y-105329707D01*
X126828210Y-105329711D01*
X126740609Y-105460814D01*
X126740602Y-105460827D01*
X126680264Y-105606498D01*
X126680261Y-105606510D01*
X126649500Y-105761153D01*
X126649500Y-105918846D01*
X126680261Y-106073489D01*
X126680264Y-106073501D01*
X126740602Y-106219172D01*
X126740609Y-106219185D01*
X126828210Y-106350288D01*
X126828213Y-106350292D01*
X126939707Y-106461786D01*
X126939711Y-106461789D01*
X127070814Y-106549390D01*
X127070827Y-106549397D01*
X127216498Y-106609735D01*
X127216503Y-106609737D01*
X127224691Y-106611365D01*
X127286601Y-106643750D01*
X127321176Y-106704465D01*
X127324500Y-106732983D01*
X127324500Y-109993626D01*
X127304815Y-110060665D01*
X127252011Y-110106420D01*
X127182853Y-110116364D01*
X127125645Y-110091159D01*
X127125354Y-110091595D01*
X127122876Y-110089939D01*
X127121838Y-110089482D01*
X127120287Y-110088209D01*
X126989185Y-110000609D01*
X126989172Y-110000602D01*
X126843501Y-109940264D01*
X126843489Y-109940261D01*
X126688845Y-109909500D01*
X126688842Y-109909500D01*
X126626259Y-109909500D01*
X126559220Y-109889815D01*
X126513465Y-109837011D01*
X126511698Y-109832952D01*
X126469397Y-109730827D01*
X126469390Y-109730814D01*
X126381789Y-109599711D01*
X126381786Y-109599707D01*
X126270292Y-109488213D01*
X126270288Y-109488210D01*
X126139185Y-109400609D01*
X126139172Y-109400602D01*
X125993501Y-109340264D01*
X125993489Y-109340261D01*
X125838845Y-109309500D01*
X125838842Y-109309500D01*
X125681158Y-109309500D01*
X125681155Y-109309500D01*
X125526510Y-109340261D01*
X125526498Y-109340264D01*
X125380827Y-109400602D01*
X125380814Y-109400609D01*
X125249711Y-109488210D01*
X125249707Y-109488213D01*
X125138213Y-109599707D01*
X125138210Y-109599711D01*
X125050609Y-109730814D01*
X125050602Y-109730827D01*
X124990264Y-109876498D01*
X124990261Y-109876510D01*
X124959500Y-110031153D01*
X122400925Y-110031153D01*
X122411789Y-110020289D01*
X122499394Y-109889179D01*
X122559737Y-109743497D01*
X122590500Y-109588842D01*
X122590500Y-109431158D01*
X122590500Y-109431155D01*
X122590499Y-109431153D01*
X122581957Y-109388211D01*
X122559737Y-109276503D01*
X122556902Y-109269659D01*
X122499397Y-109130827D01*
X122499390Y-109130814D01*
X122411398Y-108999125D01*
X122390520Y-108932447D01*
X122390500Y-108930234D01*
X122390500Y-108638621D01*
X122410185Y-108571582D01*
X122462989Y-108525827D01*
X122532147Y-108515883D01*
X122550506Y-108519964D01*
X122553045Y-108520733D01*
X122553053Y-108520737D01*
X122602130Y-108530499D01*
X122707703Y-108551499D01*
X122707706Y-108551500D01*
X122707708Y-108551500D01*
X122865394Y-108551500D01*
X122865395Y-108551499D01*
X123020047Y-108520737D01*
X123140425Y-108470875D01*
X123165722Y-108460397D01*
X123165722Y-108460396D01*
X123165729Y-108460394D01*
X123296839Y-108372789D01*
X123408339Y-108261289D01*
X123495944Y-108130179D01*
X123556287Y-107984497D01*
X123587050Y-107829842D01*
X123587050Y-107672158D01*
X123587050Y-107672155D01*
X123587049Y-107672153D01*
X123573838Y-107605739D01*
X123556287Y-107517503D01*
X123549739Y-107501694D01*
X123495947Y-107371827D01*
X123495940Y-107371814D01*
X123408339Y-107240711D01*
X123408336Y-107240707D01*
X123296842Y-107129213D01*
X123296838Y-107129210D01*
X123165735Y-107041609D01*
X123165722Y-107041602D01*
X123020051Y-106981264D01*
X123020039Y-106981261D01*
X122865395Y-106950500D01*
X122865392Y-106950500D01*
X122788097Y-106950500D01*
X122721058Y-106930815D01*
X122675303Y-106878011D01*
X122665359Y-106808853D01*
X122694384Y-106745297D01*
X122700416Y-106738819D01*
X123123201Y-106316034D01*
X123584662Y-105854572D01*
X123645983Y-105821089D01*
X123648150Y-105820638D01*
X123706085Y-105809113D01*
X123803497Y-105789737D01*
X123949179Y-105729394D01*
X124080289Y-105641789D01*
X124191789Y-105530289D01*
X124279394Y-105399179D01*
X124339737Y-105253497D01*
X124370500Y-105098842D01*
X124370500Y-104941158D01*
X124370500Y-104941155D01*
X124370499Y-104941153D01*
X124339738Y-104786510D01*
X124339737Y-104786503D01*
X124328280Y-104758842D01*
X124279397Y-104640827D01*
X124279390Y-104640814D01*
X124191789Y-104509711D01*
X124191786Y-104509707D01*
X124080292Y-104398213D01*
X124080288Y-104398210D01*
X124035434Y-104368239D01*
X123990629Y-104314626D01*
X123981922Y-104245301D01*
X123997771Y-104205026D01*
X123996521Y-104204358D01*
X123999390Y-104198988D01*
X123999394Y-104198983D01*
X124005290Y-104184750D01*
X124053561Y-104068211D01*
X124059737Y-104053301D01*
X124090500Y-103898646D01*
X124090500Y-103740962D01*
X124090500Y-103740959D01*
X124090499Y-103740957D01*
X124074793Y-103662000D01*
X124059737Y-103586307D01*
X124013160Y-103473861D01*
X124009902Y-103443554D01*
X124004388Y-103413571D01*
X124006203Y-103409146D01*
X124005692Y-103404393D01*
X124019336Y-103377135D01*
X124030908Y-103348930D01*
X124035268Y-103345306D01*
X124036967Y-103341914D01*
X124056659Y-103324793D01*
X124065872Y-103318349D01*
X124070179Y-103316566D01*
X124201289Y-103228961D01*
X124218954Y-103211295D01*
X124227878Y-103205055D01*
X124251089Y-103197242D01*
X124272583Y-103185506D01*
X124292237Y-103183392D01*
X124294097Y-103182767D01*
X124295282Y-103183065D01*
X124298941Y-103182672D01*
X124782842Y-103182672D01*
X124849881Y-103202357D01*
X124870523Y-103218991D01*
X125060897Y-103409365D01*
X125168047Y-103516515D01*
X125299277Y-103592281D01*
X125445646Y-103631500D01*
X125445648Y-103631500D01*
X126074352Y-103631500D01*
X126074354Y-103631500D01*
X126220723Y-103592281D01*
X126351953Y-103516515D01*
X126439613Y-103428855D01*
X126500936Y-103395370D01*
X126570628Y-103400354D01*
X126614975Y-103428855D01*
X129903939Y-106717819D01*
X129937424Y-106779142D01*
X129932440Y-106848834D01*
X129890568Y-106904767D01*
X129825104Y-106929184D01*
X129816258Y-106929500D01*
X129671155Y-106929500D01*
X129516510Y-106960261D01*
X129516498Y-106960264D01*
X129370827Y-107020602D01*
X129370814Y-107020609D01*
X129239711Y-107108210D01*
X129239707Y-107108213D01*
X129128213Y-107219707D01*
X129128210Y-107219711D01*
X129040609Y-107350814D01*
X129040602Y-107350827D01*
X128980264Y-107496498D01*
X128980261Y-107496510D01*
X128949500Y-107651153D01*
X128949500Y-107808846D01*
X128980261Y-107963489D01*
X128980264Y-107963501D01*
X129040602Y-108109172D01*
X129040609Y-108109185D01*
X129128210Y-108240288D01*
X129128213Y-108240292D01*
X129239707Y-108351786D01*
X129239711Y-108351789D01*
X129370814Y-108439390D01*
X129370827Y-108439397D01*
X129474647Y-108482400D01*
X129516503Y-108499737D01*
X129654880Y-108527262D01*
X129671153Y-108530499D01*
X129671156Y-108530500D01*
X129671158Y-108530500D01*
X129828844Y-108530500D01*
X129828845Y-108530499D01*
X129983497Y-108499737D01*
X130039182Y-108476670D01*
X130059059Y-108474533D01*
X130077789Y-108467548D01*
X130093085Y-108470875D01*
X130108651Y-108469202D01*
X130126527Y-108478150D01*
X130146062Y-108482400D01*
X130168352Y-108499086D01*
X130171130Y-108500477D01*
X130174316Y-108503551D01*
X130245690Y-108574925D01*
X130279175Y-108636248D01*
X130279626Y-108638414D01*
X130310526Y-108793756D01*
X130310529Y-108793766D01*
X130370867Y-108939437D01*
X130370874Y-108939450D01*
X130458475Y-109070553D01*
X130458478Y-109070557D01*
X130569972Y-109182051D01*
X130569976Y-109182054D01*
X130701079Y-109269655D01*
X130701092Y-109269662D01*
X130797271Y-109309500D01*
X130846768Y-109330002D01*
X130944258Y-109349394D01*
X131001418Y-109360764D01*
X131001421Y-109360765D01*
X131001423Y-109360765D01*
X131159109Y-109360765D01*
X131159110Y-109360764D01*
X131313762Y-109330002D01*
X131459444Y-109269659D01*
X131590554Y-109182054D01*
X131702054Y-109070554D01*
X131789659Y-108939444D01*
X131800902Y-108912302D01*
X131850000Y-108793766D01*
X131850002Y-108793762D01*
X131880765Y-108639107D01*
X131880765Y-108481423D01*
X131880765Y-108481420D01*
X131880764Y-108481418D01*
X131865861Y-108406498D01*
X131850002Y-108326768D01*
X131822683Y-108260814D01*
X131789662Y-108181092D01*
X131789655Y-108181079D01*
X131702054Y-108049976D01*
X131702051Y-108049972D01*
X131593260Y-107941181D01*
X131559775Y-107879858D01*
X131564759Y-107810166D01*
X131606631Y-107754233D01*
X131672095Y-107729816D01*
X131680941Y-107729500D01*
X138734258Y-107729500D01*
X138801297Y-107749185D01*
X138821939Y-107765819D01*
X139673181Y-108617061D01*
X139706666Y-108678384D01*
X139709500Y-108704742D01*
X139709500Y-108718846D01*
X139740261Y-108873489D01*
X139740264Y-108873501D01*
X139800602Y-109019172D01*
X139800609Y-109019185D01*
X139888210Y-109150288D01*
X139888213Y-109150292D01*
X139999707Y-109261786D01*
X139999711Y-109261789D01*
X140130814Y-109349390D01*
X140130827Y-109349397D01*
X140254466Y-109400609D01*
X140276503Y-109409737D01*
X140431153Y-109440499D01*
X140431156Y-109440500D01*
X140431158Y-109440500D01*
X140588844Y-109440500D01*
X140588845Y-109440499D01*
X140743497Y-109409737D01*
X140889179Y-109349394D01*
X141020289Y-109261789D01*
X141131789Y-109150289D01*
X141219394Y-109019179D01*
X141277577Y-108878711D01*
X149149500Y-108878711D01*
X149149500Y-109121288D01*
X149181161Y-109361785D01*
X149243947Y-109596104D01*
X149305001Y-109743501D01*
X149336776Y-109820212D01*
X149458064Y-110030289D01*
X149458066Y-110030292D01*
X149458067Y-110030293D01*
X149605733Y-110222736D01*
X149605739Y-110222743D01*
X149777256Y-110394260D01*
X149777262Y-110394265D01*
X149969711Y-110541936D01*
X150179788Y-110663224D01*
X150403900Y-110756054D01*
X150638211Y-110818838D01*
X150817785Y-110842479D01*
X150878711Y-110850500D01*
X150878712Y-110850500D01*
X151121289Y-110850500D01*
X151169388Y-110844167D01*
X151361789Y-110818838D01*
X151596100Y-110756054D01*
X151820212Y-110663224D01*
X152030289Y-110541936D01*
X152222738Y-110394265D01*
X152394265Y-110222738D01*
X152541936Y-110030289D01*
X152663224Y-109820212D01*
X152756054Y-109596100D01*
X152818838Y-109361789D01*
X152850500Y-109121288D01*
X152850500Y-108878712D01*
X152849813Y-108873497D01*
X152839316Y-108793762D01*
X152818838Y-108638211D01*
X152756054Y-108403900D01*
X152663224Y-108179788D01*
X152541936Y-107969711D01*
X152465627Y-107870263D01*
X152394266Y-107777263D01*
X152394260Y-107777256D01*
X152222743Y-107605739D01*
X152222736Y-107605733D01*
X152030293Y-107458067D01*
X152030292Y-107458066D01*
X152030289Y-107458064D01*
X151820212Y-107336776D01*
X151810722Y-107332845D01*
X151596104Y-107243947D01*
X151361785Y-107181161D01*
X151121289Y-107149500D01*
X151121288Y-107149500D01*
X150878712Y-107149500D01*
X150878711Y-107149500D01*
X150638214Y-107181161D01*
X150403895Y-107243947D01*
X150179794Y-107336773D01*
X150179785Y-107336777D01*
X149969706Y-107458067D01*
X149777263Y-107605733D01*
X149777256Y-107605739D01*
X149605739Y-107777256D01*
X149605733Y-107777263D01*
X149458067Y-107969706D01*
X149336777Y-108179785D01*
X149336773Y-108179794D01*
X149243947Y-108403895D01*
X149181161Y-108638214D01*
X149149500Y-108878711D01*
X141277577Y-108878711D01*
X141279737Y-108873497D01*
X141279739Y-108873489D01*
X141284320Y-108850460D01*
X141284320Y-108850458D01*
X141298097Y-108781194D01*
X141310500Y-108718842D01*
X141310500Y-108561158D01*
X141310500Y-108561155D01*
X141310499Y-108561153D01*
X141304402Y-108530500D01*
X141279737Y-108406503D01*
X141267931Y-108378000D01*
X141219397Y-108260827D01*
X141219390Y-108260814D01*
X141131789Y-108129711D01*
X141131786Y-108129707D01*
X141020292Y-108018213D01*
X141020288Y-108018210D01*
X140889185Y-107930609D01*
X140889172Y-107930602D01*
X140743501Y-107870264D01*
X140743489Y-107870261D01*
X140588845Y-107839500D01*
X140588842Y-107839500D01*
X140574742Y-107839500D01*
X140507703Y-107819815D01*
X140487061Y-107803181D01*
X139377367Y-106693487D01*
X139377365Y-106693485D01*
X139291222Y-106643750D01*
X139246136Y-106617719D01*
X139172950Y-106598109D01*
X139099766Y-106578500D01*
X139099765Y-106578500D01*
X131443742Y-106578500D01*
X131376703Y-106558815D01*
X131356061Y-106542181D01*
X127669024Y-102855144D01*
X127635539Y-102793821D01*
X127640523Y-102724129D01*
X127682395Y-102668196D01*
X127732514Y-102645846D01*
X127763728Y-102639636D01*
X127813497Y-102629737D01*
X127959179Y-102569394D01*
X128090289Y-102481789D01*
X128201789Y-102370289D01*
X128289394Y-102239179D01*
X128349737Y-102093497D01*
X128380500Y-101938842D01*
X128380500Y-101781158D01*
X128380500Y-101781155D01*
X128380499Y-101781153D01*
X128374823Y-101752617D01*
X128349737Y-101626503D01*
X128344194Y-101613121D01*
X128289397Y-101480827D01*
X128289390Y-101480814D01*
X128201789Y-101349711D01*
X128201786Y-101349707D01*
X128090292Y-101238213D01*
X128090288Y-101238210D01*
X127959185Y-101150609D01*
X127959175Y-101150604D01*
X127904699Y-101128039D01*
X127850295Y-101084197D01*
X127828231Y-101017903D01*
X127828152Y-101013478D01*
X127828152Y-98591153D01*
X128219500Y-98591153D01*
X128219500Y-98748846D01*
X128250261Y-98903489D01*
X128250264Y-98903501D01*
X128310602Y-99049172D01*
X128310609Y-99049185D01*
X128398210Y-99180288D01*
X128398213Y-99180292D01*
X128509707Y-99291786D01*
X128509711Y-99291789D01*
X128640814Y-99379390D01*
X128640827Y-99379397D01*
X128723163Y-99413501D01*
X128786503Y-99439737D01*
X128927851Y-99467853D01*
X128941153Y-99470499D01*
X128941156Y-99470500D01*
X128941158Y-99470500D01*
X129098844Y-99470500D01*
X129098845Y-99470499D01*
X129253497Y-99439737D01*
X129399179Y-99379394D01*
X129530289Y-99291789D01*
X129641789Y-99180289D01*
X129729394Y-99049179D01*
X129789737Y-98903497D01*
X129809113Y-98806085D01*
X129820638Y-98748150D01*
X129853023Y-98686239D01*
X129854518Y-98684716D01*
X133602416Y-94936819D01*
X133663739Y-94903334D01*
X133690097Y-94900500D01*
X147485083Y-94900500D01*
X147552122Y-94920185D01*
X147597877Y-94972989D01*
X147607821Y-95042147D01*
X147585402Y-95097384D01*
X147553668Y-95141062D01*
X147553667Y-95141064D01*
X147467914Y-95309362D01*
X147409548Y-95488997D01*
X147404638Y-95520000D01*
X148731518Y-95520000D01*
X148720889Y-95538409D01*
X148680000Y-95691009D01*
X148680000Y-95848991D01*
X148720889Y-96001591D01*
X148731518Y-96020000D01*
X147404638Y-96020000D01*
X147409548Y-96051002D01*
X147467914Y-96230637D01*
X147553670Y-96398940D01*
X147661015Y-96546690D01*
X147684495Y-96612497D01*
X147668669Y-96680550D01*
X147661015Y-96692460D01*
X147553242Y-96840797D01*
X147467454Y-97009163D01*
X147409059Y-97188881D01*
X147379500Y-97375513D01*
X147379500Y-97564486D01*
X147409059Y-97751118D01*
X147467454Y-97930836D01*
X147553240Y-98099199D01*
X147660707Y-98247114D01*
X147684187Y-98312921D01*
X147668362Y-98380975D01*
X147660707Y-98392886D01*
X147553240Y-98540800D01*
X147467454Y-98709163D01*
X147409059Y-98888881D01*
X147379500Y-99075513D01*
X147379500Y-99264486D01*
X147409059Y-99451118D01*
X147467454Y-99630836D01*
X147553240Y-99799199D01*
X147660707Y-99947114D01*
X147684187Y-100012921D01*
X147668362Y-100080975D01*
X147660707Y-100092886D01*
X147553240Y-100240800D01*
X147467454Y-100409163D01*
X147409059Y-100588881D01*
X147379500Y-100775513D01*
X147379500Y-100964486D01*
X147409059Y-101151118D01*
X147467454Y-101330836D01*
X147553240Y-101499199D01*
X147660707Y-101647114D01*
X147684187Y-101712921D01*
X147668362Y-101780975D01*
X147660707Y-101792886D01*
X147553240Y-101940800D01*
X147467454Y-102109163D01*
X147409059Y-102288881D01*
X147379500Y-102475513D01*
X147379500Y-102664486D01*
X147409059Y-102851118D01*
X147467454Y-103030836D01*
X147545019Y-103183065D01*
X147553240Y-103199199D01*
X147664310Y-103352073D01*
X147797927Y-103485690D01*
X147950801Y-103596760D01*
X148018980Y-103631499D01*
X148119163Y-103682545D01*
X148119165Y-103682545D01*
X148119168Y-103682547D01*
X148180103Y-103702346D01*
X148298881Y-103740940D01*
X148485514Y-103770500D01*
X148485519Y-103770500D01*
X150074486Y-103770500D01*
X150261118Y-103740940D01*
X150440832Y-103682547D01*
X150609199Y-103596760D01*
X150762073Y-103485690D01*
X150895690Y-103352073D01*
X151006760Y-103199199D01*
X151092547Y-103030832D01*
X151150940Y-102851118D01*
X151179912Y-102668196D01*
X151180500Y-102664486D01*
X151180500Y-102475513D01*
X151150940Y-102288881D01*
X151092545Y-102109163D01*
X151038239Y-102002583D01*
X151006760Y-101940801D01*
X150899291Y-101792883D01*
X150875812Y-101727080D01*
X150891637Y-101659026D01*
X150899284Y-101647125D01*
X151006760Y-101499199D01*
X151092547Y-101330832D01*
X151150940Y-101151118D01*
X151168493Y-101040292D01*
X151180500Y-100964486D01*
X151180500Y-100775513D01*
X151150940Y-100588881D01*
X151106189Y-100451153D01*
X151092547Y-100409168D01*
X151092545Y-100409165D01*
X151092545Y-100409163D01*
X151035139Y-100296498D01*
X151006760Y-100240801D01*
X150899291Y-100092883D01*
X150875812Y-100027080D01*
X150891637Y-99959026D01*
X150899284Y-99947125D01*
X151006760Y-99799199D01*
X151092547Y-99630832D01*
X151150940Y-99451118D01*
X151156900Y-99413489D01*
X151180500Y-99264486D01*
X151180500Y-99075513D01*
X151150940Y-98888881D01*
X151105213Y-98748150D01*
X151092547Y-98709168D01*
X151092545Y-98709165D01*
X151092545Y-98709163D01*
X151047290Y-98620347D01*
X151006760Y-98540801D01*
X150899291Y-98392883D01*
X150875812Y-98327080D01*
X150891637Y-98259026D01*
X150899284Y-98247125D01*
X151006760Y-98099199D01*
X151092547Y-97930832D01*
X151150940Y-97751118D01*
X151180500Y-97564486D01*
X151180500Y-97375513D01*
X151150940Y-97188881D01*
X151098241Y-97026692D01*
X151092547Y-97009168D01*
X151092545Y-97009165D01*
X151092545Y-97009163D01*
X151044116Y-96914116D01*
X151006760Y-96840801D01*
X150898983Y-96692460D01*
X150875504Y-96626654D01*
X150891329Y-96558600D01*
X150898984Y-96546690D01*
X151006329Y-96398940D01*
X151092085Y-96230637D01*
X151150451Y-96051002D01*
X151155362Y-96020000D01*
X149828482Y-96020000D01*
X149839111Y-96001591D01*
X149880000Y-95848991D01*
X149880000Y-95691009D01*
X149839111Y-95538409D01*
X149828482Y-95520000D01*
X151155362Y-95520000D01*
X151150451Y-95488997D01*
X151092085Y-95309362D01*
X151006329Y-95141059D01*
X150895314Y-94988258D01*
X150895310Y-94988253D01*
X150761746Y-94854689D01*
X150761741Y-94854685D01*
X150608940Y-94743670D01*
X150440637Y-94657914D01*
X150261002Y-94599548D01*
X150074447Y-94570000D01*
X149530000Y-94570000D01*
X149530000Y-95221517D01*
X149511591Y-95210889D01*
X149358991Y-95170000D01*
X149201009Y-95170000D01*
X149048409Y-95210889D01*
X149030000Y-95221517D01*
X149030000Y-94600580D01*
X148934953Y-94560071D01*
X148926738Y-94553311D01*
X148916532Y-94550315D01*
X148900228Y-94531500D01*
X148880999Y-94515678D01*
X148877742Y-94505549D01*
X148870777Y-94497511D01*
X148867233Y-94472868D01*
X148859611Y-94449162D01*
X148862346Y-94438881D01*
X148860833Y-94428353D01*
X148861954Y-94421809D01*
X148870499Y-94378846D01*
X148870500Y-94378844D01*
X148870500Y-94221155D01*
X148870499Y-94221153D01*
X148851116Y-94123711D01*
X148839737Y-94066503D01*
X148817249Y-94012211D01*
X148779397Y-93920827D01*
X148779390Y-93920814D01*
X148691789Y-93789711D01*
X148691786Y-93789707D01*
X148580292Y-93678213D01*
X148580288Y-93678210D01*
X148449185Y-93590609D01*
X148449172Y-93590602D01*
X148303501Y-93530264D01*
X148303489Y-93530261D01*
X148148845Y-93499500D01*
X148148842Y-93499500D01*
X147991158Y-93499500D01*
X147991155Y-93499500D01*
X147836510Y-93530261D01*
X147836498Y-93530264D01*
X147690827Y-93590602D01*
X147690814Y-93590609D01*
X147559125Y-93678602D01*
X147492447Y-93699480D01*
X147490234Y-93699500D01*
X133310942Y-93699500D01*
X133158216Y-93740422D01*
X133120036Y-93762466D01*
X133120035Y-93762465D01*
X133021287Y-93819477D01*
X133021282Y-93819481D01*
X132909478Y-93931286D01*
X131325539Y-95515224D01*
X131264216Y-95548709D01*
X131194524Y-95543725D01*
X131168967Y-95530645D01*
X131049185Y-95450609D01*
X131049172Y-95450602D01*
X130903501Y-95390264D01*
X130903489Y-95390261D01*
X130748151Y-95359362D01*
X130686240Y-95326977D01*
X130684711Y-95325475D01*
X130554981Y-95195745D01*
X130435936Y-95076700D01*
X130402451Y-95015377D01*
X130407435Y-94945685D01*
X130409039Y-94941607D01*
X130439737Y-94867497D01*
X130470500Y-94712842D01*
X130470500Y-94555158D01*
X130470500Y-94555155D01*
X130470499Y-94555153D01*
X130459033Y-94497511D01*
X130439737Y-94400503D01*
X130439735Y-94400498D01*
X130379397Y-94254827D01*
X130379390Y-94254814D01*
X130291789Y-94123711D01*
X130291786Y-94123707D01*
X130180292Y-94012213D01*
X130180288Y-94012210D01*
X130049185Y-93924609D01*
X130049172Y-93924602D01*
X129903501Y-93864264D01*
X129903489Y-93864261D01*
X129748845Y-93833500D01*
X129748842Y-93833500D01*
X129591158Y-93833500D01*
X129591155Y-93833500D01*
X129436510Y-93864261D01*
X129436498Y-93864264D01*
X129290827Y-93924602D01*
X129290814Y-93924609D01*
X129159711Y-94012210D01*
X129159707Y-94012213D01*
X129048213Y-94123707D01*
X129048210Y-94123711D01*
X128960609Y-94254814D01*
X128960602Y-94254827D01*
X128900264Y-94400498D01*
X128900261Y-94400510D01*
X128869500Y-94555153D01*
X128869500Y-94712846D01*
X128900261Y-94867489D01*
X128900264Y-94867501D01*
X128960602Y-95013172D01*
X128960609Y-95013185D01*
X129048601Y-95144873D01*
X129069479Y-95211550D01*
X129069499Y-95213764D01*
X129069499Y-95239054D01*
X129069498Y-95239054D01*
X129069499Y-95239057D01*
X129110423Y-95391785D01*
X129117320Y-95403731D01*
X129117322Y-95403739D01*
X129117325Y-95403738D01*
X129184448Y-95520000D01*
X129189479Y-95528714D01*
X129189481Y-95528717D01*
X129308349Y-95647585D01*
X129308355Y-95647590D01*
X129835425Y-96174660D01*
X129868910Y-96235983D01*
X129869361Y-96238149D01*
X129900261Y-96393491D01*
X129900264Y-96393501D01*
X129960602Y-96539172D01*
X129960609Y-96539185D01*
X130040645Y-96658967D01*
X130061523Y-96725645D01*
X130043038Y-96793025D01*
X130025224Y-96815539D01*
X129005339Y-97835425D01*
X128944016Y-97868910D01*
X128941850Y-97869361D01*
X128786508Y-97900261D01*
X128786498Y-97900264D01*
X128640827Y-97960602D01*
X128640814Y-97960609D01*
X128509711Y-98048210D01*
X128509707Y-98048213D01*
X128398213Y-98159707D01*
X128398210Y-98159711D01*
X128310609Y-98290814D01*
X128310602Y-98290827D01*
X128250264Y-98436498D01*
X128250261Y-98436510D01*
X128219500Y-98591153D01*
X127828152Y-98591153D01*
X127828152Y-92860171D01*
X127847837Y-92793132D01*
X127849050Y-92791280D01*
X127850454Y-92789179D01*
X127862046Y-92771831D01*
X127922389Y-92626149D01*
X127926952Y-92603207D01*
X127959333Y-92541298D01*
X127960889Y-92539715D01*
X128011759Y-92488846D01*
X128070695Y-92429910D01*
X128144620Y-92319273D01*
X128195540Y-92196340D01*
X128221500Y-92065835D01*
X128221500Y-91932773D01*
X128221500Y-91114460D01*
X128217089Y-91092284D01*
X128195541Y-90983955D01*
X128144620Y-90861022D01*
X128144618Y-90861019D01*
X128144616Y-90861015D01*
X128070695Y-90750385D01*
X128070692Y-90750381D01*
X127580618Y-90260307D01*
X127580614Y-90260304D01*
X127469984Y-90186383D01*
X127469974Y-90186378D01*
X127347045Y-90135459D01*
X127347037Y-90135457D01*
X127216544Y-90109500D01*
X127216540Y-90109500D01*
X119148469Y-90109500D01*
X119148467Y-90109500D01*
X119017969Y-90135458D01*
X119017959Y-90135461D01*
X118895030Y-90186380D01*
X118895028Y-90186381D01*
X118800724Y-90249394D01*
X118800720Y-90249396D01*
X118784400Y-90260299D01*
X118784394Y-90260304D01*
X116802798Y-92241899D01*
X116741475Y-92275384D01*
X116739312Y-92275835D01*
X116716366Y-92280399D01*
X116716363Y-92280400D01*
X116570690Y-92340739D01*
X116570677Y-92340746D01*
X116439574Y-92428347D01*
X116439570Y-92428350D01*
X116328076Y-92539844D01*
X116328073Y-92539848D01*
X116240472Y-92670951D01*
X116240465Y-92670964D01*
X116180127Y-92816635D01*
X116180124Y-92816647D01*
X116149363Y-92971290D01*
X103822825Y-92971290D01*
X103770124Y-92955815D01*
X103749482Y-92939181D01*
X103073236Y-92262935D01*
X103039751Y-92201612D01*
X103039314Y-92199514D01*
X103034737Y-92176503D01*
X102988898Y-92065837D01*
X102974397Y-92030827D01*
X102974390Y-92030814D01*
X102886789Y-91899711D01*
X102886786Y-91899707D01*
X102775292Y-91788213D01*
X102775288Y-91788210D01*
X102644185Y-91700609D01*
X102644172Y-91700602D01*
X102498501Y-91640264D01*
X102498489Y-91640261D01*
X102343845Y-91609500D01*
X102343842Y-91609500D01*
X102186158Y-91609500D01*
X102186155Y-91609500D01*
X102031510Y-91640261D01*
X102031498Y-91640264D01*
X101885827Y-91700602D01*
X101885814Y-91700609D01*
X101754711Y-91788210D01*
X101754707Y-91788213D01*
X101643213Y-91899707D01*
X101643210Y-91899711D01*
X101555609Y-92030814D01*
X101555602Y-92030827D01*
X101495264Y-92176498D01*
X101495261Y-92176510D01*
X101464500Y-92331153D01*
X93000000Y-92331153D01*
X93000000Y-84946153D01*
X98383100Y-84946153D01*
X98383100Y-85103846D01*
X98413861Y-85258489D01*
X98413864Y-85258501D01*
X98474203Y-85404174D01*
X98474204Y-85404175D01*
X98474206Y-85404179D01*
X98487202Y-85423628D01*
X98508080Y-85490305D01*
X98508100Y-85492519D01*
X98508100Y-86706144D01*
X98534057Y-86836637D01*
X98534059Y-86836645D01*
X98584978Y-86959574D01*
X98584983Y-86959584D01*
X98658904Y-87070214D01*
X98658907Y-87070218D01*
X101559296Y-89970606D01*
X101653385Y-90064695D01*
X101653388Y-90064697D01*
X101653389Y-90064698D01*
X101764011Y-90138613D01*
X101764014Y-90138614D01*
X101764022Y-90138620D01*
X101764028Y-90138622D01*
X101764029Y-90138623D01*
X101879321Y-90186378D01*
X101886955Y-90189540D01*
X101886959Y-90189540D01*
X101886960Y-90189541D01*
X102017457Y-90215500D01*
X102017460Y-90215500D01*
X102150522Y-90215500D01*
X107062480Y-90215500D01*
X107129519Y-90235185D01*
X107131372Y-90236399D01*
X107150813Y-90249389D01*
X107150815Y-90249390D01*
X107150821Y-90249394D01*
X107150823Y-90249395D01*
X107150827Y-90249397D01*
X107296498Y-90309735D01*
X107296503Y-90309737D01*
X107451153Y-90340499D01*
X107451156Y-90340500D01*
X107451158Y-90340500D01*
X107608844Y-90340500D01*
X107608845Y-90340499D01*
X107763497Y-90309737D01*
X107876166Y-90263067D01*
X107909172Y-90249397D01*
X107909172Y-90249396D01*
X107909179Y-90249394D01*
X108040289Y-90161789D01*
X108151789Y-90050289D01*
X108239394Y-89919179D01*
X108244643Y-89906508D01*
X108299735Y-89773501D01*
X108299737Y-89773497D01*
X108330500Y-89618842D01*
X108330500Y-89461158D01*
X108330500Y-89461155D01*
X108330499Y-89461153D01*
X108308243Y-89349262D01*
X108308241Y-89349256D01*
X108307479Y-89345425D01*
X108308756Y-89331153D01*
X130399500Y-89331153D01*
X130399500Y-89488846D01*
X130430261Y-89643489D01*
X130430264Y-89643501D01*
X130490602Y-89789172D01*
X130490609Y-89789185D01*
X130578210Y-89920288D01*
X130578213Y-89920292D01*
X130689707Y-90031786D01*
X130689711Y-90031789D01*
X130820814Y-90119390D01*
X130820827Y-90119397D01*
X130923165Y-90161786D01*
X130966503Y-90179737D01*
X131094207Y-90205139D01*
X131121153Y-90210499D01*
X131121156Y-90210500D01*
X131121158Y-90210500D01*
X131278844Y-90210500D01*
X131278845Y-90210499D01*
X131433497Y-90179737D01*
X131579179Y-90119394D01*
X131666343Y-90061153D01*
X133919500Y-90061153D01*
X133919500Y-90218846D01*
X133950261Y-90373489D01*
X133950264Y-90373501D01*
X134010602Y-90519172D01*
X134010609Y-90519185D01*
X134098210Y-90650288D01*
X134098213Y-90650292D01*
X134209707Y-90761786D01*
X134209711Y-90761789D01*
X134340814Y-90849390D01*
X134340827Y-90849397D01*
X134486498Y-90909735D01*
X134486503Y-90909737D01*
X134641153Y-90940499D01*
X134641156Y-90940500D01*
X134641158Y-90940500D01*
X134798844Y-90940500D01*
X134798845Y-90940499D01*
X134953497Y-90909737D01*
X135099179Y-90849394D01*
X135230289Y-90761789D01*
X135341789Y-90650289D01*
X135429394Y-90519179D01*
X135489737Y-90373497D01*
X135520500Y-90218842D01*
X135520500Y-90061158D01*
X135520500Y-90061155D01*
X135520499Y-90061153D01*
X135508188Y-89999257D01*
X135504587Y-89981153D01*
X139424500Y-89981153D01*
X139424500Y-90138846D01*
X139455261Y-90293489D01*
X139455264Y-90293501D01*
X139515602Y-90439172D01*
X139515609Y-90439185D01*
X139603210Y-90570288D01*
X139603213Y-90570292D01*
X139714704Y-90681783D01*
X139718806Y-90685149D01*
X139729013Y-90694527D01*
X139739801Y-90705613D01*
X139744480Y-90713716D01*
X139856284Y-90825520D01*
X139856286Y-90825521D01*
X140721284Y-91690520D01*
X140721286Y-91690521D01*
X140721290Y-91690524D01*
X140858209Y-91769573D01*
X140858216Y-91769577D01*
X141010943Y-91810501D01*
X141010945Y-91810501D01*
X141176654Y-91810501D01*
X141176670Y-91810500D01*
X148959903Y-91810500D01*
X149026942Y-91830185D01*
X149047584Y-91846819D01*
X150185425Y-92984660D01*
X150218910Y-93045983D01*
X150219361Y-93048149D01*
X150250261Y-93203491D01*
X150250264Y-93203501D01*
X150310602Y-93349172D01*
X150310609Y-93349185D01*
X150398210Y-93480288D01*
X150398213Y-93480292D01*
X150509707Y-93591786D01*
X150509711Y-93591789D01*
X150640814Y-93679390D01*
X150640827Y-93679397D01*
X150786498Y-93739735D01*
X150786503Y-93739737D01*
X150917354Y-93765765D01*
X150941153Y-93770499D01*
X150941156Y-93770500D01*
X150941158Y-93770500D01*
X151098844Y-93770500D01*
X151098845Y-93770499D01*
X151253497Y-93739737D01*
X151399179Y-93679394D01*
X151530289Y-93591789D01*
X151641789Y-93480289D01*
X151729394Y-93349179D01*
X151789737Y-93203497D01*
X151820500Y-93048842D01*
X151820500Y-92891158D01*
X151820500Y-92891155D01*
X151820499Y-92891153D01*
X151800215Y-92789179D01*
X151789737Y-92736503D01*
X151789735Y-92736498D01*
X151729397Y-92590827D01*
X151729390Y-92590814D01*
X151641789Y-92459711D01*
X151641786Y-92459707D01*
X151530292Y-92348213D01*
X151530288Y-92348210D01*
X151399185Y-92260609D01*
X151399172Y-92260602D01*
X151253501Y-92200264D01*
X151253491Y-92200261D01*
X151098149Y-92169361D01*
X151036238Y-92136976D01*
X151034660Y-92135425D01*
X149747590Y-90848355D01*
X149747588Y-90848352D01*
X149628717Y-90729481D01*
X149628716Y-90729480D01*
X149541904Y-90679360D01*
X149541904Y-90679359D01*
X149541900Y-90679358D01*
X149491785Y-90650423D01*
X149339057Y-90609499D01*
X149180943Y-90609499D01*
X149173347Y-90609499D01*
X149173331Y-90609500D01*
X146834758Y-90609500D01*
X146767719Y-90589815D01*
X146721964Y-90537011D01*
X146712020Y-90467853D01*
X146741045Y-90404297D01*
X146747077Y-90397819D01*
X146771407Y-90373489D01*
X146860104Y-90284792D01*
X146860106Y-90284788D01*
X146860109Y-90284786D01*
X146985048Y-90112820D01*
X146985047Y-90112820D01*
X146985051Y-90112816D01*
X147081557Y-89923412D01*
X147147246Y-89721243D01*
X147180500Y-89511287D01*
X147180500Y-89298713D01*
X147147246Y-89088757D01*
X147081557Y-88886588D01*
X146985051Y-88697184D01*
X146985049Y-88697181D01*
X146985048Y-88697179D01*
X146860109Y-88525213D01*
X146746569Y-88411673D01*
X146713084Y-88350350D01*
X146718068Y-88280658D01*
X146759940Y-88224725D01*
X146790915Y-88207810D01*
X146922331Y-88158796D01*
X147037546Y-88072546D01*
X147123796Y-87957331D01*
X147174091Y-87822483D01*
X147180500Y-87762873D01*
X147180499Y-85967128D01*
X147174091Y-85907517D01*
X147169530Y-85895289D01*
X147123797Y-85772671D01*
X147123793Y-85772664D01*
X147037547Y-85657455D01*
X147037544Y-85657452D01*
X146922335Y-85571206D01*
X146922328Y-85571202D01*
X146787482Y-85520908D01*
X146787483Y-85520908D01*
X146727883Y-85514501D01*
X146727881Y-85514500D01*
X146727873Y-85514500D01*
X146727864Y-85514500D01*
X144932129Y-85514500D01*
X144932123Y-85514501D01*
X144872516Y-85520908D01*
X144737671Y-85571202D01*
X144737664Y-85571206D01*
X144622455Y-85657452D01*
X144622452Y-85657455D01*
X144536206Y-85772664D01*
X144536202Y-85772671D01*
X144485908Y-85907517D01*
X144480294Y-85959740D01*
X144479501Y-85967123D01*
X144479500Y-85967135D01*
X144479500Y-87762870D01*
X144479501Y-87762876D01*
X144485908Y-87822483D01*
X144536202Y-87957328D01*
X144536206Y-87957335D01*
X144622452Y-88072544D01*
X144622455Y-88072547D01*
X144737664Y-88158793D01*
X144737671Y-88158797D01*
X144869082Y-88207810D01*
X144925016Y-88249681D01*
X144949433Y-88315145D01*
X144934582Y-88383418D01*
X144913431Y-88411673D01*
X144799889Y-88525215D01*
X144674951Y-88697179D01*
X144578444Y-88886585D01*
X144512753Y-89088760D01*
X144479500Y-89298713D01*
X144479500Y-89511286D01*
X144506352Y-89680827D01*
X144512754Y-89721243D01*
X144577429Y-89920292D01*
X144578444Y-89923414D01*
X144674951Y-90112820D01*
X144799890Y-90284786D01*
X144912923Y-90397819D01*
X144946408Y-90459142D01*
X144941424Y-90528834D01*
X144899552Y-90584767D01*
X144834088Y-90609184D01*
X144825242Y-90609500D01*
X141390098Y-90609500D01*
X141323059Y-90589815D01*
X141302417Y-90573181D01*
X141046248Y-90317013D01*
X141012763Y-90255690D01*
X141012312Y-90205139D01*
X141015416Y-90189538D01*
X141025500Y-90138842D01*
X141025500Y-89981158D01*
X141025500Y-89981155D01*
X141025499Y-89981153D01*
X141014014Y-89923414D01*
X140994737Y-89826503D01*
X140994735Y-89826498D01*
X140934397Y-89680827D01*
X140934390Y-89680814D01*
X140846789Y-89549711D01*
X140846786Y-89549707D01*
X140735292Y-89438213D01*
X140735288Y-89438210D01*
X140604185Y-89350609D01*
X140604172Y-89350602D01*
X140458501Y-89290264D01*
X140458489Y-89290261D01*
X140303845Y-89259500D01*
X140303842Y-89259500D01*
X140146158Y-89259500D01*
X140146155Y-89259500D01*
X139991510Y-89290261D01*
X139991498Y-89290264D01*
X139845827Y-89350602D01*
X139845814Y-89350609D01*
X139714711Y-89438210D01*
X139714707Y-89438213D01*
X139603213Y-89549707D01*
X139603210Y-89549711D01*
X139515609Y-89680814D01*
X139515602Y-89680827D01*
X139455264Y-89826498D01*
X139455261Y-89826510D01*
X139424500Y-89981153D01*
X135504587Y-89981153D01*
X135489738Y-89906508D01*
X135489737Y-89906507D01*
X135489737Y-89906503D01*
X135441143Y-89789185D01*
X135429397Y-89760827D01*
X135429390Y-89760814D01*
X135341789Y-89629711D01*
X135341786Y-89629707D01*
X135230292Y-89518213D01*
X135230288Y-89518210D01*
X135099185Y-89430609D01*
X135099172Y-89430602D01*
X134953501Y-89370264D01*
X134953489Y-89370261D01*
X134798845Y-89339500D01*
X134798842Y-89339500D01*
X134641158Y-89339500D01*
X134641155Y-89339500D01*
X134486510Y-89370261D01*
X134486498Y-89370264D01*
X134340827Y-89430602D01*
X134340814Y-89430609D01*
X134209711Y-89518210D01*
X134209707Y-89518213D01*
X134098213Y-89629707D01*
X134098210Y-89629711D01*
X134010609Y-89760814D01*
X134010602Y-89760827D01*
X133950264Y-89906498D01*
X133950261Y-89906510D01*
X133919500Y-90061153D01*
X131666343Y-90061153D01*
X131710289Y-90031789D01*
X131710292Y-90031786D01*
X131774694Y-89967385D01*
X131821786Y-89920292D01*
X131821789Y-89920289D01*
X131909394Y-89789179D01*
X131969737Y-89643497D01*
X132000500Y-89488842D01*
X132000500Y-89331158D01*
X132000500Y-89331155D01*
X132000499Y-89331153D01*
X131973861Y-89197235D01*
X131969737Y-89176503D01*
X131969735Y-89176498D01*
X131909397Y-89030827D01*
X131909390Y-89030814D01*
X131821789Y-88899711D01*
X131821786Y-88899707D01*
X131710292Y-88788213D01*
X131710288Y-88788210D01*
X131579185Y-88700609D01*
X131579172Y-88700602D01*
X131433501Y-88640264D01*
X131433489Y-88640261D01*
X131278845Y-88609500D01*
X131278842Y-88609500D01*
X131121158Y-88609500D01*
X131121155Y-88609500D01*
X130966510Y-88640261D01*
X130966498Y-88640264D01*
X130820827Y-88700602D01*
X130820814Y-88700609D01*
X130689711Y-88788210D01*
X130689707Y-88788213D01*
X130578213Y-88899707D01*
X130578210Y-88899711D01*
X130490609Y-89030814D01*
X130490602Y-89030827D01*
X130430264Y-89176498D01*
X130430261Y-89176510D01*
X130399500Y-89331153D01*
X108308756Y-89331153D01*
X108313708Y-89275834D01*
X108356571Y-89220657D01*
X108422461Y-89197413D01*
X108429097Y-89197235D01*
X110884029Y-89197235D01*
X110884031Y-89197235D01*
X111030400Y-89158016D01*
X111036250Y-89154638D01*
X111066604Y-89137114D01*
X111128605Y-89120500D01*
X111188844Y-89120500D01*
X111188845Y-89120499D01*
X111343497Y-89089737D01*
X111456166Y-89043067D01*
X111489172Y-89029397D01*
X111489172Y-89029396D01*
X111489179Y-89029394D01*
X111620289Y-88941789D01*
X111731789Y-88830289D01*
X111819394Y-88699179D01*
X111820223Y-88697179D01*
X111860812Y-88599186D01*
X111879737Y-88553497D01*
X111910500Y-88398842D01*
X111910500Y-88241158D01*
X111910500Y-88241155D01*
X111910499Y-88241153D01*
X111899070Y-88183691D01*
X111905297Y-88114099D01*
X111948161Y-88058922D01*
X112014050Y-88035678D01*
X112020687Y-88035500D01*
X114165258Y-88035500D01*
X114232297Y-88055185D01*
X114252939Y-88071819D01*
X114438181Y-88257061D01*
X114471666Y-88318384D01*
X114474500Y-88344742D01*
X114474500Y-88358846D01*
X114505261Y-88513489D01*
X114505264Y-88513501D01*
X114565602Y-88659172D01*
X114565609Y-88659185D01*
X114653210Y-88790288D01*
X114653213Y-88790292D01*
X114764707Y-88901786D01*
X114764711Y-88901789D01*
X114895814Y-88989390D01*
X114895827Y-88989397D01*
X115041498Y-89049735D01*
X115041503Y-89049737D01*
X115196153Y-89080499D01*
X115196156Y-89080500D01*
X115196158Y-89080500D01*
X115353844Y-89080500D01*
X115353845Y-89080499D01*
X115508497Y-89049737D01*
X115654179Y-88989394D01*
X115785289Y-88901789D01*
X115896789Y-88790289D01*
X115984394Y-88659179D01*
X116044737Y-88513497D01*
X116075500Y-88358842D01*
X116075500Y-88201158D01*
X116075500Y-88201155D01*
X116075499Y-88201153D01*
X116058183Y-88114099D01*
X116044737Y-88046503D01*
X116040253Y-88035678D01*
X115984397Y-87900827D01*
X115984390Y-87900814D01*
X115896789Y-87769711D01*
X115896786Y-87769707D01*
X115785292Y-87658213D01*
X115785288Y-87658210D01*
X115654185Y-87570609D01*
X115654172Y-87570602D01*
X115508501Y-87510264D01*
X115508489Y-87510261D01*
X115353845Y-87479500D01*
X115353842Y-87479500D01*
X115339742Y-87479500D01*
X115272703Y-87459815D01*
X115252061Y-87443181D01*
X114808367Y-86999487D01*
X114808365Y-86999485D01*
X114739237Y-86959574D01*
X114677136Y-86923719D01*
X114603950Y-86904109D01*
X114530766Y-86884500D01*
X111155766Y-86884500D01*
X111004233Y-86884500D01*
X110866952Y-86921284D01*
X110866951Y-86921284D01*
X110857867Y-86923717D01*
X110857866Y-86923718D01*
X110726638Y-86999483D01*
X110726632Y-86999487D01*
X110557939Y-87168181D01*
X110496616Y-87201666D01*
X110470258Y-87204500D01*
X107945590Y-87204500D01*
X107878551Y-87184815D01*
X107832796Y-87132011D01*
X107822852Y-87062853D01*
X107835105Y-87024205D01*
X107891557Y-86913412D01*
X107957246Y-86711243D01*
X107990500Y-86501287D01*
X107990500Y-86288713D01*
X107957246Y-86078757D01*
X107891557Y-85876588D01*
X107795051Y-85687184D01*
X107795049Y-85687181D01*
X107795048Y-85687179D01*
X107670109Y-85515213D01*
X107556569Y-85401673D01*
X107523084Y-85340350D01*
X107528068Y-85270658D01*
X107569940Y-85214725D01*
X107600915Y-85197810D01*
X107732331Y-85148796D01*
X107847546Y-85062546D01*
X107933796Y-84947331D01*
X107984091Y-84812483D01*
X107990500Y-84752873D01*
X107990499Y-83632135D01*
X115039500Y-83632135D01*
X115039500Y-85427870D01*
X115039501Y-85427876D01*
X115045908Y-85487483D01*
X115096202Y-85622328D01*
X115096206Y-85622335D01*
X115182452Y-85737544D01*
X115182455Y-85737547D01*
X115297664Y-85823793D01*
X115297671Y-85823797D01*
X115432517Y-85874091D01*
X115432516Y-85874091D01*
X115439444Y-85874835D01*
X115492127Y-85880500D01*
X117287872Y-85880499D01*
X117347483Y-85874091D01*
X117482331Y-85823796D01*
X117597546Y-85737546D01*
X117683796Y-85622331D01*
X117734091Y-85487483D01*
X117740500Y-85427873D01*
X117740500Y-85254500D01*
X117760185Y-85187461D01*
X117812989Y-85141706D01*
X117864500Y-85130500D01*
X130881331Y-85130500D01*
X130881347Y-85130501D01*
X130888943Y-85130501D01*
X131047054Y-85130501D01*
X131047057Y-85130501D01*
X131199785Y-85089577D01*
X131279826Y-85043365D01*
X131284789Y-85040500D01*
X131336709Y-85010524D01*
X131336708Y-85010524D01*
X131336716Y-85010520D01*
X131448520Y-84898716D01*
X131448520Y-84898714D01*
X131458724Y-84888511D01*
X131458727Y-84888506D01*
X132186081Y-84161153D01*
X135744500Y-84161153D01*
X135744500Y-84318846D01*
X135775261Y-84473489D01*
X135775264Y-84473501D01*
X135835602Y-84619172D01*
X135835609Y-84619185D01*
X135923210Y-84750288D01*
X135923213Y-84750292D01*
X136034707Y-84861786D01*
X136034711Y-84861789D01*
X136165814Y-84949390D01*
X136165827Y-84949397D01*
X136302051Y-85005822D01*
X136311503Y-85009737D01*
X136407364Y-85028805D01*
X136466153Y-85040499D01*
X136466156Y-85040500D01*
X136466158Y-85040500D01*
X136623844Y-85040500D01*
X136682637Y-85028805D01*
X136752229Y-85035032D01*
X136807406Y-85077895D01*
X136830651Y-85143784D01*
X136828446Y-85174613D01*
X136802281Y-85306154D01*
X136802281Y-85463847D01*
X136833042Y-85618490D01*
X136833045Y-85618502D01*
X136893383Y-85764173D01*
X136893390Y-85764186D01*
X136980991Y-85895289D01*
X136980994Y-85895293D01*
X137092488Y-86006787D01*
X137092492Y-86006790D01*
X137223595Y-86094391D01*
X137223608Y-86094398D01*
X137369279Y-86154736D01*
X137369284Y-86154738D01*
X137523934Y-86185500D01*
X137523937Y-86185501D01*
X137523939Y-86185501D01*
X137681625Y-86185501D01*
X137681626Y-86185500D01*
X137836278Y-86154738D01*
X137981960Y-86094395D01*
X138008665Y-86076550D01*
X138075337Y-86055672D01*
X138142718Y-86074154D01*
X138165236Y-86091971D01*
X139377925Y-87304660D01*
X139411410Y-87365983D01*
X139411861Y-87368149D01*
X139442761Y-87523491D01*
X139442764Y-87523501D01*
X139503102Y-87669172D01*
X139503109Y-87669185D01*
X139590710Y-87800288D01*
X139590713Y-87800292D01*
X139702207Y-87911786D01*
X139702211Y-87911789D01*
X139833314Y-87999390D01*
X139833327Y-87999397D01*
X139947041Y-88046498D01*
X139979003Y-88059737D01*
X140095652Y-88082940D01*
X140133653Y-88090499D01*
X140133656Y-88090500D01*
X140133658Y-88090500D01*
X140291344Y-88090500D01*
X140291345Y-88090499D01*
X140445997Y-88059737D01*
X140591679Y-87999394D01*
X140722789Y-87911789D01*
X140834289Y-87800289D01*
X140921894Y-87669179D01*
X140926438Y-87658210D01*
X140962724Y-87570606D01*
X140982237Y-87523497D01*
X141013000Y-87368842D01*
X141013000Y-87211158D01*
X141013000Y-87211155D01*
X141012999Y-87211153D01*
X141004451Y-87168181D01*
X140982237Y-87056503D01*
X140968859Y-87024205D01*
X140921897Y-86910827D01*
X140921890Y-86910814D01*
X140834289Y-86779711D01*
X140834286Y-86779707D01*
X140722792Y-86668213D01*
X140722788Y-86668210D01*
X140591685Y-86580609D01*
X140591672Y-86580602D01*
X140446001Y-86520264D01*
X140445991Y-86520261D01*
X140290649Y-86489361D01*
X140228738Y-86456976D01*
X140227160Y-86455425D01*
X138795091Y-85023356D01*
X138795089Y-85023353D01*
X138676218Y-84904482D01*
X138676210Y-84904476D01*
X138556316Y-84835256D01*
X138556316Y-84835255D01*
X138556312Y-84835254D01*
X138539286Y-84825424D01*
X138386558Y-84784500D01*
X138228444Y-84784500D01*
X138220848Y-84784500D01*
X138220832Y-84784501D01*
X138182547Y-84784501D01*
X138115508Y-84764816D01*
X138113656Y-84763603D01*
X137981966Y-84675610D01*
X137981953Y-84675603D01*
X137836282Y-84615265D01*
X137836270Y-84615262D01*
X137681626Y-84584501D01*
X137681623Y-84584501D01*
X137523939Y-84584501D01*
X137465141Y-84596196D01*
X137395549Y-84589967D01*
X137340373Y-84547104D01*
X137317129Y-84481214D01*
X137319334Y-84450386D01*
X137345500Y-84318844D01*
X137345500Y-84161155D01*
X137345499Y-84161153D01*
X137329127Y-84078846D01*
X137314737Y-84006503D01*
X137281668Y-83926666D01*
X137254397Y-83860827D01*
X137254390Y-83860814D01*
X137166789Y-83729711D01*
X137166786Y-83729707D01*
X137055292Y-83618213D01*
X137055288Y-83618210D01*
X136924185Y-83530609D01*
X136924172Y-83530602D01*
X136778501Y-83470264D01*
X136778489Y-83470261D01*
X136623845Y-83439500D01*
X136623842Y-83439500D01*
X136466158Y-83439500D01*
X136466155Y-83439500D01*
X136311510Y-83470261D01*
X136311498Y-83470264D01*
X136165827Y-83530602D01*
X136165814Y-83530609D01*
X136034711Y-83618210D01*
X136034707Y-83618213D01*
X135923213Y-83729707D01*
X135923210Y-83729711D01*
X135835609Y-83860814D01*
X135835602Y-83860827D01*
X135775264Y-84006498D01*
X135775261Y-84006510D01*
X135744500Y-84161153D01*
X132186081Y-84161153D01*
X132471872Y-83875362D01*
X132533193Y-83841879D01*
X132547405Y-83839641D01*
X132548833Y-83839500D01*
X132548842Y-83839500D01*
X132548851Y-83839498D01*
X132548853Y-83839498D01*
X132586164Y-83832075D01*
X132703497Y-83808737D01*
X132849179Y-83748394D01*
X132980289Y-83660789D01*
X133091789Y-83549289D01*
X133179394Y-83418179D01*
X133179419Y-83418120D01*
X133225601Y-83306624D01*
X133239737Y-83272497D01*
X133270500Y-83117842D01*
X133270500Y-82960158D01*
X133270500Y-82960155D01*
X133270499Y-82960153D01*
X133262460Y-82919737D01*
X133239737Y-82805503D01*
X133206599Y-82725500D01*
X133179397Y-82659827D01*
X133179390Y-82659814D01*
X133091789Y-82528711D01*
X133091786Y-82528707D01*
X132980292Y-82417213D01*
X132980288Y-82417210D01*
X132849185Y-82329609D01*
X132849172Y-82329602D01*
X132703501Y-82269264D01*
X132703489Y-82269261D01*
X132548845Y-82238500D01*
X132548842Y-82238500D01*
X132391158Y-82238500D01*
X132391155Y-82238500D01*
X132236510Y-82269261D01*
X132236498Y-82269264D01*
X132090827Y-82329602D01*
X132090814Y-82329609D01*
X131959711Y-82417210D01*
X131959707Y-82417213D01*
X131848213Y-82528707D01*
X131848210Y-82528711D01*
X131760609Y-82659814D01*
X131760602Y-82659827D01*
X131700264Y-82805498D01*
X131700261Y-82805508D01*
X131672093Y-82947118D01*
X131639708Y-83009029D01*
X131638157Y-83010607D01*
X130755584Y-83893181D01*
X130694261Y-83926666D01*
X130667903Y-83929500D01*
X117864499Y-83929500D01*
X117797460Y-83909815D01*
X117751705Y-83857011D01*
X117740499Y-83805500D01*
X117740499Y-83632129D01*
X117740498Y-83632123D01*
X117740497Y-83632116D01*
X117734091Y-83572517D01*
X117725427Y-83549288D01*
X117683797Y-83437671D01*
X117683793Y-83437664D01*
X117597547Y-83322455D01*
X117597544Y-83322452D01*
X117482335Y-83236206D01*
X117482328Y-83236202D01*
X117347482Y-83185908D01*
X117347483Y-83185908D01*
X117287883Y-83179501D01*
X117287881Y-83179500D01*
X117287873Y-83179500D01*
X117287864Y-83179500D01*
X115492129Y-83179500D01*
X115492123Y-83179501D01*
X115432516Y-83185908D01*
X115297671Y-83236202D01*
X115297664Y-83236206D01*
X115182455Y-83322452D01*
X115182452Y-83322455D01*
X115096206Y-83437664D01*
X115096202Y-83437671D01*
X115045908Y-83572517D01*
X115040715Y-83620827D01*
X115039501Y-83632123D01*
X115039500Y-83632135D01*
X107990499Y-83632135D01*
X107990499Y-82974422D01*
X108010184Y-82907384D01*
X108062988Y-82861629D01*
X108132146Y-82851685D01*
X108161948Y-82859861D01*
X108306503Y-82919737D01*
X108444156Y-82947118D01*
X108461153Y-82950499D01*
X108461156Y-82950500D01*
X108461158Y-82950500D01*
X108618844Y-82950500D01*
X108618845Y-82950499D01*
X108773497Y-82919737D01*
X108886166Y-82873067D01*
X108919172Y-82859397D01*
X108919172Y-82859396D01*
X108919179Y-82859394D01*
X109050289Y-82771789D01*
X109161789Y-82660289D01*
X109249394Y-82529179D01*
X109309737Y-82383497D01*
X109340500Y-82228842D01*
X109340500Y-82071158D01*
X109340500Y-82071155D01*
X109340499Y-82071153D01*
X109324003Y-81988222D01*
X109309737Y-81916503D01*
X109309735Y-81916498D01*
X109249397Y-81770827D01*
X109249390Y-81770814D01*
X109161789Y-81639711D01*
X109161786Y-81639707D01*
X109050292Y-81528213D01*
X109050288Y-81528210D01*
X108919185Y-81440609D01*
X108919172Y-81440602D01*
X108773501Y-81380264D01*
X108773489Y-81380261D01*
X108618845Y-81349500D01*
X108618842Y-81349500D01*
X108461158Y-81349500D01*
X108461155Y-81349500D01*
X108306510Y-81380261D01*
X108306498Y-81380264D01*
X108160827Y-81440602D01*
X108160814Y-81440609D01*
X108029711Y-81528210D01*
X108029707Y-81528213D01*
X108019740Y-81538181D01*
X107958417Y-81571666D01*
X107932059Y-81574500D01*
X102444233Y-81574500D01*
X102297863Y-81613719D01*
X102166635Y-81689485D01*
X102166632Y-81689487D01*
X102085306Y-81770814D01*
X102059485Y-81796635D01*
X102059483Y-81796637D01*
X101326935Y-82529185D01*
X100589193Y-83266926D01*
X100577076Y-83279043D01*
X100515753Y-83312528D01*
X100446061Y-83307544D01*
X100420504Y-83294464D01*
X100307598Y-83219022D01*
X100307585Y-83219015D01*
X100161914Y-83158677D01*
X100161902Y-83158674D01*
X100007258Y-83127913D01*
X100007255Y-83127913D01*
X99849571Y-83127913D01*
X99849568Y-83127913D01*
X99694923Y-83158674D01*
X99694911Y-83158677D01*
X99549240Y-83219015D01*
X99549227Y-83219022D01*
X99418124Y-83306623D01*
X99418120Y-83306626D01*
X99306626Y-83418120D01*
X99306623Y-83418124D01*
X99219022Y-83549227D01*
X99219015Y-83549240D01*
X99158677Y-83694911D01*
X99158674Y-83694923D01*
X99127913Y-83849566D01*
X99127913Y-83849571D01*
X99127913Y-84007255D01*
X99127913Y-84007257D01*
X99127912Y-84007257D01*
X99144408Y-84090182D01*
X99138181Y-84159774D01*
X99095318Y-84214951D01*
X99046983Y-84235991D01*
X98950108Y-84255261D01*
X98950098Y-84255264D01*
X98804427Y-84315602D01*
X98804414Y-84315609D01*
X98673311Y-84403210D01*
X98673307Y-84403213D01*
X98561813Y-84514707D01*
X98561810Y-84514711D01*
X98474209Y-84645814D01*
X98474202Y-84645827D01*
X98413864Y-84791498D01*
X98413861Y-84791510D01*
X98383100Y-84946153D01*
X93000000Y-84946153D01*
X93000000Y-83921153D01*
X95199500Y-83921153D01*
X95199500Y-84078846D01*
X95230261Y-84233489D01*
X95230264Y-84233501D01*
X95290602Y-84379172D01*
X95290609Y-84379185D01*
X95378210Y-84510288D01*
X95378213Y-84510292D01*
X95489707Y-84621786D01*
X95489711Y-84621789D01*
X95620814Y-84709390D01*
X95620827Y-84709397D01*
X95766498Y-84769735D01*
X95766503Y-84769737D01*
X95875963Y-84791510D01*
X95921153Y-84800499D01*
X95921156Y-84800500D01*
X95921158Y-84800500D01*
X96078844Y-84800500D01*
X96078845Y-84800499D01*
X96233497Y-84769737D01*
X96379179Y-84709394D01*
X96510289Y-84621789D01*
X96621789Y-84510289D01*
X96709394Y-84379179D01*
X96769737Y-84233497D01*
X96800500Y-84078842D01*
X96800500Y-83921158D01*
X96800500Y-83921155D01*
X96800499Y-83921153D01*
X96784257Y-83839500D01*
X96769737Y-83766503D01*
X96762236Y-83748394D01*
X96709397Y-83620827D01*
X96709390Y-83620814D01*
X96621789Y-83489711D01*
X96621786Y-83489707D01*
X96510292Y-83378213D01*
X96510288Y-83378210D01*
X96379185Y-83290609D01*
X96379172Y-83290602D01*
X96233501Y-83230264D01*
X96233489Y-83230261D01*
X96078845Y-83199500D01*
X96078842Y-83199500D01*
X95921158Y-83199500D01*
X95921155Y-83199500D01*
X95766510Y-83230261D01*
X95766498Y-83230264D01*
X95620827Y-83290602D01*
X95620814Y-83290609D01*
X95489711Y-83378210D01*
X95489707Y-83378213D01*
X95378213Y-83489707D01*
X95378210Y-83489711D01*
X95290609Y-83620814D01*
X95290602Y-83620827D01*
X95230264Y-83766498D01*
X95230261Y-83766510D01*
X95199500Y-83921153D01*
X93000000Y-83921153D01*
X93000000Y-80082533D01*
X95345000Y-80082533D01*
X95345000Y-80377466D01*
X95345001Y-80377483D01*
X95383496Y-80669884D01*
X95383499Y-80669897D01*
X95459835Y-80954790D01*
X95459838Y-80954800D01*
X95572704Y-81227281D01*
X95572709Y-81227292D01*
X95720174Y-81482707D01*
X95720180Y-81482715D01*
X95836777Y-81634667D01*
X96622912Y-80848531D01*
X96717829Y-80979175D01*
X96845825Y-81107171D01*
X96976466Y-81202086D01*
X96190331Y-81988221D01*
X96342284Y-82104819D01*
X96342292Y-82104825D01*
X96597707Y-82252290D01*
X96597718Y-82252295D01*
X96870199Y-82365161D01*
X96870209Y-82365164D01*
X97155102Y-82441500D01*
X97155115Y-82441503D01*
X97447516Y-82479998D01*
X97447534Y-82480000D01*
X97742466Y-82480000D01*
X97742483Y-82479998D01*
X98034884Y-82441503D01*
X98034897Y-82441500D01*
X98319790Y-82365164D01*
X98319800Y-82365161D01*
X98592281Y-82252295D01*
X98592292Y-82252290D01*
X98847707Y-82104825D01*
X98847725Y-82104813D01*
X98999667Y-81988222D01*
X98999667Y-81988220D01*
X98213533Y-81202086D01*
X98344175Y-81107171D01*
X98472171Y-80979175D01*
X98567086Y-80848533D01*
X99353220Y-81634667D01*
X99353222Y-81634667D01*
X99469813Y-81482725D01*
X99469825Y-81482707D01*
X99617290Y-81227292D01*
X99617295Y-81227281D01*
X99730161Y-80954800D01*
X99730164Y-80954790D01*
X99806500Y-80669897D01*
X99806503Y-80669884D01*
X99844998Y-80377483D01*
X99845000Y-80377466D01*
X99845000Y-80082533D01*
X99844998Y-80082516D01*
X99806503Y-79790115D01*
X99806500Y-79790102D01*
X99730164Y-79505209D01*
X99730161Y-79505199D01*
X99617295Y-79232718D01*
X99617290Y-79232707D01*
X99469825Y-78977292D01*
X99469819Y-78977284D01*
X99353221Y-78825331D01*
X98567086Y-79611466D01*
X98472171Y-79480825D01*
X98344175Y-79352829D01*
X98213532Y-79257912D01*
X98999667Y-78471777D01*
X98847715Y-78355180D01*
X98847707Y-78355174D01*
X98592292Y-78207709D01*
X98592281Y-78207704D01*
X98319800Y-78094838D01*
X98319790Y-78094835D01*
X98034897Y-78018499D01*
X98034884Y-78018496D01*
X97742483Y-77980001D01*
X97742466Y-77980000D01*
X97447534Y-77980000D01*
X97447516Y-77980001D01*
X97155115Y-78018496D01*
X97155102Y-78018499D01*
X96870209Y-78094835D01*
X96870199Y-78094838D01*
X96597718Y-78207704D01*
X96597707Y-78207709D01*
X96342292Y-78355174D01*
X96342276Y-78355185D01*
X96190331Y-78471775D01*
X96190331Y-78471777D01*
X96976466Y-79257912D01*
X96845825Y-79352829D01*
X96717829Y-79480825D01*
X96622912Y-79611466D01*
X95836777Y-78825331D01*
X95836775Y-78825331D01*
X95720185Y-78977276D01*
X95720174Y-78977292D01*
X95572709Y-79232707D01*
X95572704Y-79232718D01*
X95459838Y-79505199D01*
X95459835Y-79505209D01*
X95383499Y-79790102D01*
X95383496Y-79790115D01*
X95345001Y-80082516D01*
X95345000Y-80082533D01*
X93000000Y-80082533D01*
X93000000Y-72560639D01*
X93622500Y-72560639D01*
X93622500Y-72759360D01*
X93653587Y-72955637D01*
X93714993Y-73144629D01*
X93714994Y-73144632D01*
X93745098Y-73203713D01*
X93805213Y-73321694D01*
X93922019Y-73482464D01*
X93922021Y-73482466D01*
X94011874Y-73572319D01*
X94045359Y-73633642D01*
X94040375Y-73703334D01*
X94011874Y-73747681D01*
X93922021Y-73837533D01*
X93805213Y-73998305D01*
X93714994Y-74175367D01*
X93714993Y-74175370D01*
X93653587Y-74364362D01*
X93647573Y-74402335D01*
X93622500Y-74560639D01*
X93622500Y-74759361D01*
X93626751Y-74786202D01*
X93653587Y-74955637D01*
X93714993Y-75144629D01*
X93714994Y-75144632D01*
X93805213Y-75321694D01*
X93922019Y-75482464D01*
X94062536Y-75622981D01*
X94185863Y-75712583D01*
X94228528Y-75767913D01*
X94234507Y-75837526D01*
X94201901Y-75899321D01*
X94151982Y-75930607D01*
X94053666Y-75963186D01*
X94053663Y-75963187D01*
X93904342Y-76055289D01*
X93780289Y-76179342D01*
X93688187Y-76328663D01*
X93688186Y-76328666D01*
X93633001Y-76495203D01*
X93633001Y-76495204D01*
X93633000Y-76495204D01*
X93622500Y-76597983D01*
X93622500Y-77722001D01*
X93622501Y-77722018D01*
X93633000Y-77824796D01*
X93633001Y-77824799D01*
X93688185Y-77991331D01*
X93688187Y-77991336D01*
X93704941Y-78018499D01*
X93780288Y-78140656D01*
X93904344Y-78264712D01*
X94053666Y-78356814D01*
X94220203Y-78411999D01*
X94322991Y-78422500D01*
X95447008Y-78422499D01*
X95549797Y-78411999D01*
X95716334Y-78356814D01*
X95865656Y-78264712D01*
X95989712Y-78140656D01*
X96081814Y-77991334D01*
X96136999Y-77824797D01*
X96147500Y-77722009D01*
X96147499Y-76597992D01*
X96136999Y-76495203D01*
X96081814Y-76328666D01*
X95989712Y-76179344D01*
X95865656Y-76055288D01*
X95716334Y-75963186D01*
X95618016Y-75930606D01*
X95560573Y-75890834D01*
X95533750Y-75826318D01*
X95546065Y-75757542D01*
X95584137Y-75712583D01*
X95707464Y-75622981D01*
X95847981Y-75482464D01*
X95964787Y-75321694D01*
X96055005Y-75144632D01*
X96116413Y-74955636D01*
X96147500Y-74759361D01*
X96147500Y-74560639D01*
X96116413Y-74364364D01*
X96067877Y-74214984D01*
X96055006Y-74175370D01*
X96055005Y-74175367D01*
X95964786Y-73998305D01*
X95847981Y-73837536D01*
X95758126Y-73747681D01*
X95724641Y-73686358D01*
X95729625Y-73616666D01*
X95758126Y-73572319D01*
X95847981Y-73482464D01*
X95964787Y-73321694D01*
X96055005Y-73144632D01*
X96116413Y-72955636D01*
X96147500Y-72759361D01*
X96147500Y-72560639D01*
X96123979Y-72412135D01*
X118449500Y-72412135D01*
X118449500Y-74207870D01*
X118449501Y-74207876D01*
X118455908Y-74267483D01*
X118506202Y-74402328D01*
X118506206Y-74402335D01*
X118592452Y-74517544D01*
X118592455Y-74517547D01*
X118707664Y-74603793D01*
X118707671Y-74603797D01*
X118842517Y-74654091D01*
X118842516Y-74654091D01*
X118849444Y-74654835D01*
X118902127Y-74660500D01*
X119104699Y-74660499D01*
X119171736Y-74680183D01*
X119217491Y-74732987D01*
X119227435Y-74802145D01*
X119198410Y-74865701D01*
X119160993Y-74894983D01*
X119102182Y-74924949D01*
X118930213Y-75049890D01*
X118779890Y-75200213D01*
X118654951Y-75372179D01*
X118558444Y-75561585D01*
X118492753Y-75763760D01*
X118469908Y-75908001D01*
X118459500Y-75973713D01*
X118459500Y-76186287D01*
X118492754Y-76396243D01*
X118558308Y-76597998D01*
X118558444Y-76598414D01*
X118654951Y-76787820D01*
X118779890Y-76959786D01*
X118930213Y-77110109D01*
X119102179Y-77235048D01*
X119102181Y-77235049D01*
X119102184Y-77235051D01*
X119291588Y-77331557D01*
X119493757Y-77397246D01*
X119703713Y-77430500D01*
X119703714Y-77430500D01*
X119916286Y-77430500D01*
X119916287Y-77430500D01*
X120126243Y-77397246D01*
X120328412Y-77331557D01*
X120517816Y-77235051D01*
X120604138Y-77172335D01*
X120689786Y-77110109D01*
X120689788Y-77110106D01*
X120689792Y-77110104D01*
X120840104Y-76959792D01*
X120840106Y-76959788D01*
X120840109Y-76959786D01*
X120965048Y-76787820D01*
X120965047Y-76787820D01*
X120965051Y-76787816D01*
X120969514Y-76779054D01*
X121017488Y-76728259D01*
X121085308Y-76711463D01*
X121151444Y-76733999D01*
X121190486Y-76779056D01*
X121194951Y-76787820D01*
X121319890Y-76959786D01*
X121470213Y-77110109D01*
X121642179Y-77235048D01*
X121642181Y-77235049D01*
X121642184Y-77235051D01*
X121831588Y-77331557D01*
X122033757Y-77397246D01*
X122243713Y-77430500D01*
X122243714Y-77430500D01*
X122456286Y-77430500D01*
X122456287Y-77430500D01*
X122666243Y-77397246D01*
X122868412Y-77331557D01*
X123057816Y-77235051D01*
X123144138Y-77172335D01*
X123229786Y-77110109D01*
X123229788Y-77110106D01*
X123229792Y-77110104D01*
X123380104Y-76959792D01*
X123380106Y-76959788D01*
X123380109Y-76959786D01*
X123505048Y-76787820D01*
X123505047Y-76787820D01*
X123505051Y-76787816D01*
X123509514Y-76779054D01*
X123557488Y-76728259D01*
X123625308Y-76711463D01*
X123691444Y-76733999D01*
X123730486Y-76779056D01*
X123734951Y-76787820D01*
X123859890Y-76959786D01*
X124010213Y-77110109D01*
X124182179Y-77235048D01*
X124182181Y-77235049D01*
X124182184Y-77235051D01*
X124371588Y-77331557D01*
X124573757Y-77397246D01*
X124783713Y-77430500D01*
X124783714Y-77430500D01*
X124996286Y-77430500D01*
X124996287Y-77430500D01*
X125206243Y-77397246D01*
X125408412Y-77331557D01*
X125597816Y-77235051D01*
X125684138Y-77172335D01*
X125769786Y-77110109D01*
X125769788Y-77110106D01*
X125769792Y-77110104D01*
X125920104Y-76959792D01*
X125920106Y-76959788D01*
X125920109Y-76959786D01*
X126045048Y-76787820D01*
X126045047Y-76787820D01*
X126045051Y-76787816D01*
X126049514Y-76779054D01*
X126097488Y-76728259D01*
X126165308Y-76711463D01*
X126231444Y-76733999D01*
X126270486Y-76779056D01*
X126274951Y-76787820D01*
X126399890Y-76959786D01*
X126550213Y-77110109D01*
X126722179Y-77235048D01*
X126722181Y-77235049D01*
X126722184Y-77235051D01*
X126911588Y-77331557D01*
X127113757Y-77397246D01*
X127323713Y-77430500D01*
X127323714Y-77430500D01*
X127536286Y-77430500D01*
X127536287Y-77430500D01*
X127746243Y-77397246D01*
X127948412Y-77331557D01*
X128137816Y-77235051D01*
X128224138Y-77172335D01*
X128309786Y-77110109D01*
X128309788Y-77110106D01*
X128309792Y-77110104D01*
X128460104Y-76959792D01*
X128460106Y-76959788D01*
X128460109Y-76959786D01*
X128585048Y-76787820D01*
X128585047Y-76787820D01*
X128585051Y-76787816D01*
X128589514Y-76779054D01*
X128637488Y-76728259D01*
X128705308Y-76711463D01*
X128771444Y-76733999D01*
X128810486Y-76779056D01*
X128814951Y-76787820D01*
X128939890Y-76959786D01*
X129090213Y-77110109D01*
X129262179Y-77235048D01*
X129262181Y-77235049D01*
X129262184Y-77235051D01*
X129451588Y-77331557D01*
X129653757Y-77397246D01*
X129863713Y-77430500D01*
X129863714Y-77430500D01*
X130076286Y-77430500D01*
X130076287Y-77430500D01*
X130286243Y-77397246D01*
X130488412Y-77331557D01*
X130677816Y-77235051D01*
X130764138Y-77172335D01*
X130849786Y-77110109D01*
X130849788Y-77110106D01*
X130849792Y-77110104D01*
X131000104Y-76959792D01*
X131000106Y-76959788D01*
X131000109Y-76959786D01*
X131125048Y-76787820D01*
X131125047Y-76787820D01*
X131125051Y-76787816D01*
X131129514Y-76779054D01*
X131177488Y-76728259D01*
X131245308Y-76711463D01*
X131311444Y-76733999D01*
X131350486Y-76779056D01*
X131354951Y-76787820D01*
X131479890Y-76959786D01*
X131630213Y-77110109D01*
X131802179Y-77235048D01*
X131802181Y-77235049D01*
X131802184Y-77235051D01*
X131991588Y-77331557D01*
X132193757Y-77397246D01*
X132403713Y-77430500D01*
X132403714Y-77430500D01*
X132616286Y-77430500D01*
X132616287Y-77430500D01*
X132826243Y-77397246D01*
X133028412Y-77331557D01*
X133217816Y-77235051D01*
X133304138Y-77172335D01*
X133389786Y-77110109D01*
X133389788Y-77110106D01*
X133389792Y-77110104D01*
X133540104Y-76959792D01*
X133540106Y-76959788D01*
X133540109Y-76959786D01*
X133665048Y-76787820D01*
X133665047Y-76787820D01*
X133665051Y-76787816D01*
X133669514Y-76779054D01*
X133717488Y-76728259D01*
X133785308Y-76711463D01*
X133851444Y-76733999D01*
X133890486Y-76779056D01*
X133894951Y-76787820D01*
X134019890Y-76959786D01*
X134170213Y-77110109D01*
X134342179Y-77235048D01*
X134342181Y-77235049D01*
X134342184Y-77235051D01*
X134531588Y-77331557D01*
X134733757Y-77397246D01*
X134943713Y-77430500D01*
X134943714Y-77430500D01*
X135156286Y-77430500D01*
X135156287Y-77430500D01*
X135366243Y-77397246D01*
X135568412Y-77331557D01*
X135757816Y-77235051D01*
X135844138Y-77172335D01*
X135929786Y-77110109D01*
X135929788Y-77110106D01*
X135929792Y-77110104D01*
X136080104Y-76959792D01*
X136080106Y-76959788D01*
X136080109Y-76959786D01*
X136205048Y-76787820D01*
X136205047Y-76787820D01*
X136205051Y-76787816D01*
X136209514Y-76779054D01*
X136257488Y-76728259D01*
X136325308Y-76711463D01*
X136391444Y-76733999D01*
X136430486Y-76779056D01*
X136434951Y-76787820D01*
X136559890Y-76959786D01*
X136710213Y-77110109D01*
X136882179Y-77235048D01*
X136882181Y-77235049D01*
X136882184Y-77235051D01*
X137071588Y-77331557D01*
X137273757Y-77397246D01*
X137483713Y-77430500D01*
X137483714Y-77430500D01*
X137696286Y-77430500D01*
X137696287Y-77430500D01*
X137906243Y-77397246D01*
X138108412Y-77331557D01*
X138297816Y-77235051D01*
X138384138Y-77172335D01*
X138469786Y-77110109D01*
X138469788Y-77110106D01*
X138469792Y-77110104D01*
X138620104Y-76959792D01*
X138620106Y-76959788D01*
X138620109Y-76959786D01*
X138745048Y-76787820D01*
X138745047Y-76787820D01*
X138745051Y-76787816D01*
X138749514Y-76779054D01*
X138797488Y-76728259D01*
X138865308Y-76711463D01*
X138931444Y-76733999D01*
X138970486Y-76779056D01*
X138974951Y-76787820D01*
X139099890Y-76959786D01*
X139250213Y-77110109D01*
X139422179Y-77235048D01*
X139422181Y-77235049D01*
X139422184Y-77235051D01*
X139611588Y-77331557D01*
X139813757Y-77397246D01*
X140023713Y-77430500D01*
X140023714Y-77430500D01*
X140236286Y-77430500D01*
X140236287Y-77430500D01*
X140446243Y-77397246D01*
X140648412Y-77331557D01*
X140837816Y-77235051D01*
X140924138Y-77172335D01*
X141009786Y-77110109D01*
X141009788Y-77110106D01*
X141009792Y-77110104D01*
X141160104Y-76959792D01*
X141160106Y-76959788D01*
X141160109Y-76959786D01*
X141285048Y-76787820D01*
X141285047Y-76787820D01*
X141285051Y-76787816D01*
X141289514Y-76779054D01*
X141337488Y-76728259D01*
X141405308Y-76711463D01*
X141471444Y-76733999D01*
X141510486Y-76779056D01*
X141514951Y-76787820D01*
X141639890Y-76959786D01*
X141790213Y-77110109D01*
X141962179Y-77235048D01*
X141962181Y-77235049D01*
X141962184Y-77235051D01*
X142151588Y-77331557D01*
X142353757Y-77397246D01*
X142563713Y-77430500D01*
X142563714Y-77430500D01*
X142776286Y-77430500D01*
X142776287Y-77430500D01*
X142986243Y-77397246D01*
X143188412Y-77331557D01*
X143377816Y-77235051D01*
X143464138Y-77172335D01*
X143549786Y-77110109D01*
X143549788Y-77110106D01*
X143549792Y-77110104D01*
X143700104Y-76959792D01*
X143700106Y-76959788D01*
X143700109Y-76959786D01*
X143825048Y-76787820D01*
X143825047Y-76787820D01*
X143825051Y-76787816D01*
X143829514Y-76779054D01*
X143877488Y-76728259D01*
X143945308Y-76711463D01*
X144011444Y-76733999D01*
X144050486Y-76779056D01*
X144054951Y-76787820D01*
X144179890Y-76959786D01*
X144330213Y-77110109D01*
X144502179Y-77235048D01*
X144502181Y-77235049D01*
X144502184Y-77235051D01*
X144691588Y-77331557D01*
X144893757Y-77397246D01*
X145103713Y-77430500D01*
X145103714Y-77430500D01*
X145316286Y-77430500D01*
X145316287Y-77430500D01*
X145526243Y-77397246D01*
X145728412Y-77331557D01*
X145917816Y-77235051D01*
X146089792Y-77110104D01*
X146203329Y-76996566D01*
X146264648Y-76963084D01*
X146334340Y-76968068D01*
X146390274Y-77009939D01*
X146407189Y-77040917D01*
X146456202Y-77172328D01*
X146456206Y-77172335D01*
X146542452Y-77287544D01*
X146542455Y-77287547D01*
X146657664Y-77373793D01*
X146657671Y-77373797D01*
X146792517Y-77424091D01*
X146792516Y-77424091D01*
X146799444Y-77424835D01*
X146852127Y-77430500D01*
X148647872Y-77430499D01*
X148707483Y-77424091D01*
X148842331Y-77373796D01*
X148957546Y-77287546D01*
X149043796Y-77172331D01*
X149094091Y-77037483D01*
X149100500Y-76977873D01*
X149100499Y-75182128D01*
X149094091Y-75122517D01*
X149092810Y-75119083D01*
X149043797Y-74987671D01*
X149043793Y-74987664D01*
X148957547Y-74872455D01*
X148957544Y-74872452D01*
X148842335Y-74786206D01*
X148842328Y-74786202D01*
X148707482Y-74735908D01*
X148707483Y-74735908D01*
X148647883Y-74729501D01*
X148647881Y-74729500D01*
X148647873Y-74729500D01*
X148647865Y-74729500D01*
X148445302Y-74729500D01*
X148378263Y-74709815D01*
X148332508Y-74657011D01*
X148322564Y-74587853D01*
X148351589Y-74524297D01*
X148389008Y-74495015D01*
X148447816Y-74465051D01*
X148534138Y-74402335D01*
X148619786Y-74340109D01*
X148619788Y-74340106D01*
X148619792Y-74340104D01*
X148770104Y-74189792D01*
X148770106Y-74189788D01*
X148770109Y-74189786D01*
X148895048Y-74017820D01*
X148895047Y-74017820D01*
X148895051Y-74017816D01*
X148991557Y-73828412D01*
X149057246Y-73626243D01*
X149090500Y-73416287D01*
X149090500Y-73203713D01*
X149057246Y-72993757D01*
X148991557Y-72791588D01*
X148895051Y-72602184D01*
X148895049Y-72602181D01*
X148895048Y-72602179D01*
X148770109Y-72430213D01*
X148619786Y-72279890D01*
X148447820Y-72154951D01*
X148321308Y-72090490D01*
X148270512Y-72042515D01*
X148253717Y-71974694D01*
X148276254Y-71908559D01*
X148321308Y-71869520D01*
X148507557Y-71774620D01*
X148679459Y-71649727D01*
X148679464Y-71649723D01*
X148829723Y-71499464D01*
X148829727Y-71499459D01*
X148954620Y-71327557D01*
X149051095Y-71138217D01*
X149116757Y-70936129D01*
X149116757Y-70936126D01*
X149127231Y-70870000D01*
X148233012Y-70870000D01*
X148265925Y-70812993D01*
X148300000Y-70685826D01*
X148300000Y-70554174D01*
X148265925Y-70427007D01*
X148233012Y-70370000D01*
X149127231Y-70370000D01*
X149116757Y-70303873D01*
X149116757Y-70303870D01*
X149051095Y-70101782D01*
X148954620Y-69912442D01*
X148829727Y-69740540D01*
X148829723Y-69740535D01*
X148679464Y-69590276D01*
X148679459Y-69590272D01*
X148507557Y-69465379D01*
X148318215Y-69368903D01*
X148116124Y-69303241D01*
X148050000Y-69292768D01*
X148050000Y-70186988D01*
X147992993Y-70154075D01*
X147865826Y-70120000D01*
X147734174Y-70120000D01*
X147607007Y-70154075D01*
X147550000Y-70186988D01*
X147550000Y-69292768D01*
X147549999Y-69292768D01*
X147483875Y-69303241D01*
X147281784Y-69368903D01*
X147092442Y-69465379D01*
X146920540Y-69590272D01*
X146920535Y-69590276D01*
X146770276Y-69740535D01*
X146770272Y-69740540D01*
X146645377Y-69912444D01*
X146640484Y-69922048D01*
X146592509Y-69972844D01*
X146524688Y-69989638D01*
X146458553Y-69967100D01*
X146419516Y-69922048D01*
X146414622Y-69912444D01*
X146289727Y-69740540D01*
X146289723Y-69740535D01*
X146139464Y-69590276D01*
X146139459Y-69590272D01*
X145967557Y-69465379D01*
X145778215Y-69368903D01*
X145576124Y-69303241D01*
X145510000Y-69292768D01*
X145510000Y-70186988D01*
X145452993Y-70154075D01*
X145325826Y-70120000D01*
X145194174Y-70120000D01*
X145067007Y-70154075D01*
X145010000Y-70186988D01*
X145010000Y-69292768D01*
X145009999Y-69292768D01*
X144943875Y-69303241D01*
X144741784Y-69368903D01*
X144552442Y-69465379D01*
X144380540Y-69590272D01*
X144380535Y-69590276D01*
X144230276Y-69740535D01*
X144230272Y-69740540D01*
X144105377Y-69912444D01*
X144100484Y-69922048D01*
X144052509Y-69972844D01*
X143984688Y-69989638D01*
X143918553Y-69967100D01*
X143879516Y-69922048D01*
X143874622Y-69912444D01*
X143749727Y-69740540D01*
X143749723Y-69740535D01*
X143599464Y-69590276D01*
X143599459Y-69590272D01*
X143427557Y-69465379D01*
X143238215Y-69368903D01*
X143036124Y-69303241D01*
X142970000Y-69292768D01*
X142970000Y-70186988D01*
X142912993Y-70154075D01*
X142785826Y-70120000D01*
X142654174Y-70120000D01*
X142527007Y-70154075D01*
X142470000Y-70186988D01*
X142470000Y-69292768D01*
X142469999Y-69292768D01*
X142403875Y-69303241D01*
X142201784Y-69368903D01*
X142012442Y-69465379D01*
X141840540Y-69590272D01*
X141840535Y-69590276D01*
X141690276Y-69740535D01*
X141690272Y-69740540D01*
X141565377Y-69912444D01*
X141560484Y-69922048D01*
X141512509Y-69972844D01*
X141444688Y-69989638D01*
X141378553Y-69967100D01*
X141339516Y-69922048D01*
X141334622Y-69912444D01*
X141209727Y-69740540D01*
X141209723Y-69740535D01*
X141059464Y-69590276D01*
X141059459Y-69590272D01*
X140887557Y-69465379D01*
X140698215Y-69368903D01*
X140496124Y-69303241D01*
X140430000Y-69292768D01*
X140430000Y-70186988D01*
X140372993Y-70154075D01*
X140245826Y-70120000D01*
X140114174Y-70120000D01*
X139987007Y-70154075D01*
X139930000Y-70186988D01*
X139930000Y-69292768D01*
X139929999Y-69292768D01*
X139863875Y-69303241D01*
X139661784Y-69368903D01*
X139472442Y-69465379D01*
X139300540Y-69590272D01*
X139300535Y-69590276D01*
X139150276Y-69740535D01*
X139150272Y-69740540D01*
X139025377Y-69912444D01*
X139020484Y-69922048D01*
X138972509Y-69972844D01*
X138904688Y-69989638D01*
X138838553Y-69967100D01*
X138799516Y-69922048D01*
X138794622Y-69912444D01*
X138669727Y-69740540D01*
X138669723Y-69740535D01*
X138519464Y-69590276D01*
X138519459Y-69590272D01*
X138347557Y-69465379D01*
X138158215Y-69368903D01*
X137956124Y-69303241D01*
X137890000Y-69292768D01*
X137890000Y-70186988D01*
X137832993Y-70154075D01*
X137705826Y-70120000D01*
X137574174Y-70120000D01*
X137447007Y-70154075D01*
X137390000Y-70186988D01*
X137390000Y-69292768D01*
X137389999Y-69292768D01*
X137323875Y-69303241D01*
X137121784Y-69368903D01*
X136932442Y-69465379D01*
X136760540Y-69590272D01*
X136760535Y-69590276D01*
X136610276Y-69740535D01*
X136610272Y-69740540D01*
X136485377Y-69912444D01*
X136480484Y-69922048D01*
X136432509Y-69972844D01*
X136364688Y-69989638D01*
X136298553Y-69967100D01*
X136259516Y-69922048D01*
X136254622Y-69912444D01*
X136129727Y-69740540D01*
X136129723Y-69740535D01*
X135979464Y-69590276D01*
X135979459Y-69590272D01*
X135807557Y-69465379D01*
X135618215Y-69368903D01*
X135416124Y-69303241D01*
X135350000Y-69292768D01*
X135350000Y-70186988D01*
X135292993Y-70154075D01*
X135165826Y-70120000D01*
X135034174Y-70120000D01*
X134907007Y-70154075D01*
X134850000Y-70186988D01*
X134850000Y-69292768D01*
X134849999Y-69292768D01*
X134783875Y-69303241D01*
X134581784Y-69368903D01*
X134392442Y-69465379D01*
X134220540Y-69590272D01*
X134220535Y-69590276D01*
X134070276Y-69740535D01*
X134070272Y-69740540D01*
X133945377Y-69912444D01*
X133940484Y-69922048D01*
X133892509Y-69972844D01*
X133824688Y-69989638D01*
X133758553Y-69967100D01*
X133719516Y-69922048D01*
X133714622Y-69912444D01*
X133589727Y-69740540D01*
X133589723Y-69740535D01*
X133439464Y-69590276D01*
X133439459Y-69590272D01*
X133267557Y-69465379D01*
X133078215Y-69368903D01*
X132876124Y-69303241D01*
X132810000Y-69292768D01*
X132810000Y-70186988D01*
X132752993Y-70154075D01*
X132625826Y-70120000D01*
X132494174Y-70120000D01*
X132367007Y-70154075D01*
X132310000Y-70186988D01*
X132310000Y-69292768D01*
X132309999Y-69292768D01*
X132243875Y-69303241D01*
X132041784Y-69368903D01*
X131852442Y-69465379D01*
X131680540Y-69590272D01*
X131680535Y-69590276D01*
X131530276Y-69740535D01*
X131530272Y-69740540D01*
X131405377Y-69912444D01*
X131400484Y-69922048D01*
X131352509Y-69972844D01*
X131284688Y-69989638D01*
X131218553Y-69967100D01*
X131179516Y-69922048D01*
X131174622Y-69912444D01*
X131049727Y-69740540D01*
X131049723Y-69740535D01*
X130899464Y-69590276D01*
X130899459Y-69590272D01*
X130727557Y-69465379D01*
X130538215Y-69368903D01*
X130336124Y-69303241D01*
X130270000Y-69292768D01*
X130270000Y-70186988D01*
X130212993Y-70154075D01*
X130085826Y-70120000D01*
X129954174Y-70120000D01*
X129827007Y-70154075D01*
X129770000Y-70186988D01*
X129770000Y-69292768D01*
X129769999Y-69292768D01*
X129703875Y-69303241D01*
X129501784Y-69368903D01*
X129312442Y-69465379D01*
X129140540Y-69590272D01*
X129140535Y-69590276D01*
X128990276Y-69740535D01*
X128990272Y-69740540D01*
X128865377Y-69912444D01*
X128860484Y-69922048D01*
X128812509Y-69972844D01*
X128744688Y-69989638D01*
X128678553Y-69967100D01*
X128639516Y-69922048D01*
X128634622Y-69912444D01*
X128509727Y-69740540D01*
X128509723Y-69740535D01*
X128359464Y-69590276D01*
X128359459Y-69590272D01*
X128187557Y-69465379D01*
X127998215Y-69368903D01*
X127796124Y-69303241D01*
X127730000Y-69292768D01*
X127730000Y-70186988D01*
X127672993Y-70154075D01*
X127545826Y-70120000D01*
X127414174Y-70120000D01*
X127287007Y-70154075D01*
X127230000Y-70186988D01*
X127230000Y-69292768D01*
X127229999Y-69292768D01*
X127163875Y-69303241D01*
X126961784Y-69368903D01*
X126772442Y-69465379D01*
X126600540Y-69590272D01*
X126600535Y-69590276D01*
X126450276Y-69740535D01*
X126450272Y-69740540D01*
X126325377Y-69912444D01*
X126320484Y-69922048D01*
X126272509Y-69972844D01*
X126204688Y-69989638D01*
X126138553Y-69967100D01*
X126099516Y-69922048D01*
X126094622Y-69912444D01*
X125969727Y-69740540D01*
X125969723Y-69740535D01*
X125819464Y-69590276D01*
X125819459Y-69590272D01*
X125647557Y-69465379D01*
X125458215Y-69368903D01*
X125256124Y-69303241D01*
X125190000Y-69292768D01*
X125190000Y-70186988D01*
X125132993Y-70154075D01*
X125005826Y-70120000D01*
X124874174Y-70120000D01*
X124747007Y-70154075D01*
X124690000Y-70186988D01*
X124690000Y-69292768D01*
X124689999Y-69292768D01*
X124623875Y-69303241D01*
X124421784Y-69368903D01*
X124232442Y-69465379D01*
X124060540Y-69590272D01*
X124060535Y-69590276D01*
X123910276Y-69740535D01*
X123910272Y-69740540D01*
X123785377Y-69912444D01*
X123780484Y-69922048D01*
X123732509Y-69972844D01*
X123664688Y-69989638D01*
X123598553Y-69967100D01*
X123559516Y-69922048D01*
X123554622Y-69912444D01*
X123429727Y-69740540D01*
X123429723Y-69740535D01*
X123279464Y-69590276D01*
X123279459Y-69590272D01*
X123107557Y-69465379D01*
X122918215Y-69368903D01*
X122716124Y-69303241D01*
X122650000Y-69292768D01*
X122650000Y-70186988D01*
X122592993Y-70154075D01*
X122465826Y-70120000D01*
X122334174Y-70120000D01*
X122207007Y-70154075D01*
X122150000Y-70186988D01*
X122150000Y-69292768D01*
X122149999Y-69292768D01*
X122083875Y-69303241D01*
X121881784Y-69368903D01*
X121692442Y-69465379D01*
X121520541Y-69590271D01*
X121406477Y-69704335D01*
X121345154Y-69737819D01*
X121275462Y-69732835D01*
X121219529Y-69690963D01*
X121202614Y-69659986D01*
X121153354Y-69527913D01*
X121153350Y-69527906D01*
X121067190Y-69412812D01*
X121067187Y-69412809D01*
X120952093Y-69326649D01*
X120952086Y-69326645D01*
X120817379Y-69276403D01*
X120817372Y-69276401D01*
X120757844Y-69270000D01*
X120110000Y-69270000D01*
X120110000Y-70186988D01*
X120052993Y-70154075D01*
X119925826Y-70120000D01*
X119794174Y-70120000D01*
X119667007Y-70154075D01*
X119610000Y-70186988D01*
X119610000Y-69270000D01*
X118962155Y-69270000D01*
X118902627Y-69276401D01*
X118902620Y-69276403D01*
X118767913Y-69326645D01*
X118767906Y-69326649D01*
X118652812Y-69412809D01*
X118652809Y-69412812D01*
X118566649Y-69527906D01*
X118566645Y-69527913D01*
X118516403Y-69662620D01*
X118516401Y-69662627D01*
X118510000Y-69722155D01*
X118510000Y-70370000D01*
X119426988Y-70370000D01*
X119394075Y-70427007D01*
X119360000Y-70554174D01*
X119360000Y-70685826D01*
X119394075Y-70812993D01*
X119426988Y-70870000D01*
X118510000Y-70870000D01*
X118510000Y-71517844D01*
X118516401Y-71577372D01*
X118516403Y-71577379D01*
X118566645Y-71712086D01*
X118566649Y-71712093D01*
X118652808Y-71827186D01*
X118673882Y-71842962D01*
X118715753Y-71898896D01*
X118720737Y-71968588D01*
X118687252Y-72029911D01*
X118673883Y-72041495D01*
X118592452Y-72102455D01*
X118506206Y-72217664D01*
X118506202Y-72217671D01*
X118455908Y-72352517D01*
X118449501Y-72412116D01*
X118449500Y-72412135D01*
X96123979Y-72412135D01*
X96116413Y-72364364D01*
X96116413Y-72364363D01*
X96055006Y-72175370D01*
X96055005Y-72175367D01*
X95995428Y-72058443D01*
X95964787Y-71998306D01*
X95847981Y-71837536D01*
X95707464Y-71697019D01*
X95546694Y-71580213D01*
X95428919Y-71520203D01*
X95378124Y-71472229D01*
X95361329Y-71404408D01*
X95383866Y-71338273D01*
X95428921Y-71299234D01*
X95546422Y-71239364D01*
X95583716Y-71212268D01*
X94981750Y-70610302D01*
X95062553Y-70588651D01*
X95167446Y-70528091D01*
X95253091Y-70442446D01*
X95313651Y-70337553D01*
X95335302Y-70256749D01*
X95937268Y-70858715D01*
X95964362Y-70821425D01*
X96054542Y-70644437D01*
X96115924Y-70455523D01*
X96115924Y-70455520D01*
X96147000Y-70259321D01*
X96147000Y-70060678D01*
X96115924Y-69864479D01*
X96115924Y-69864476D01*
X96054542Y-69675562D01*
X95964358Y-69498567D01*
X95937268Y-69461283D01*
X95335302Y-70063249D01*
X95313651Y-69982447D01*
X95253091Y-69877554D01*
X95167446Y-69791909D01*
X95062553Y-69731349D01*
X94981749Y-69709697D01*
X95583716Y-69107731D01*
X95583715Y-69107730D01*
X95546432Y-69080641D01*
X95369437Y-68990457D01*
X95180522Y-68929075D01*
X95140535Y-68922742D01*
X94984321Y-68898000D01*
X94785679Y-68898000D01*
X94589479Y-68929075D01*
X94589476Y-68929075D01*
X94400562Y-68990457D01*
X94223564Y-69080643D01*
X94186283Y-69107729D01*
X94186282Y-69107730D01*
X94788250Y-69709697D01*
X94707447Y-69731349D01*
X94602554Y-69791909D01*
X94516909Y-69877554D01*
X94456349Y-69982447D01*
X94434697Y-70063250D01*
X93832730Y-69461282D01*
X93832729Y-69461283D01*
X93805643Y-69498564D01*
X93715457Y-69675562D01*
X93654075Y-69864476D01*
X93654075Y-69864479D01*
X93623000Y-70060678D01*
X93623000Y-70259321D01*
X93654075Y-70455520D01*
X93654075Y-70455523D01*
X93715457Y-70644437D01*
X93805641Y-70821432D01*
X93832730Y-70858715D01*
X93832731Y-70858716D01*
X94434697Y-70256749D01*
X94456349Y-70337553D01*
X94516909Y-70442446D01*
X94602554Y-70528091D01*
X94707447Y-70588651D01*
X94788250Y-70610302D01*
X94186283Y-71212268D01*
X94186283Y-71212269D01*
X94223567Y-71239358D01*
X94341079Y-71299234D01*
X94391875Y-71347209D01*
X94408670Y-71415030D01*
X94386133Y-71481165D01*
X94341079Y-71520204D01*
X94223305Y-71580213D01*
X94062533Y-71697021D01*
X93922021Y-71837533D01*
X93805213Y-71998305D01*
X93714994Y-72175367D01*
X93714993Y-72175370D01*
X93653587Y-72364362D01*
X93622500Y-72560639D01*
X93000000Y-72560639D01*
X93000000Y-65434500D01*
X93019685Y-65367461D01*
X93072489Y-65321706D01*
X93124000Y-65310500D01*
X96117691Y-65310500D01*
X96184730Y-65330185D01*
G37*
%TD.AperFunction*%
%TD*%
%TA.AperFunction,NonConductor*%
G36*
X105248513Y-82745185D02*
G01*
X105294268Y-82797989D01*
X105304212Y-82867147D01*
X105297655Y-82892835D01*
X105295908Y-82897516D01*
X105289501Y-82957116D01*
X105289500Y-82957135D01*
X105289500Y-84752870D01*
X105289501Y-84752876D01*
X105295908Y-84812483D01*
X105346202Y-84947328D01*
X105346206Y-84947335D01*
X105432452Y-85062544D01*
X105432455Y-85062547D01*
X105547664Y-85148793D01*
X105547671Y-85148797D01*
X105679082Y-85197810D01*
X105735016Y-85239681D01*
X105759433Y-85305145D01*
X105744582Y-85373418D01*
X105723431Y-85401673D01*
X105609889Y-85515215D01*
X105484951Y-85687179D01*
X105388444Y-85876585D01*
X105322753Y-86078760D01*
X105289500Y-86288713D01*
X105289500Y-86501286D01*
X105315729Y-86666892D01*
X105306774Y-86736186D01*
X105261778Y-86789638D01*
X105195026Y-86810277D01*
X105127713Y-86791552D01*
X105124366Y-86789393D01*
X105088769Y-86765608D01*
X105088758Y-86765602D01*
X104943087Y-86705264D01*
X104943075Y-86705261D01*
X104788431Y-86674500D01*
X104788428Y-86674500D01*
X104630744Y-86674500D01*
X104630741Y-86674500D01*
X104476096Y-86705261D01*
X104476084Y-86705264D01*
X104330413Y-86765602D01*
X104330400Y-86765609D01*
X104199297Y-86853210D01*
X104199293Y-86853213D01*
X104087799Y-86964707D01*
X104087796Y-86964711D01*
X104000195Y-87095814D01*
X104000188Y-87095827D01*
X103939850Y-87241498D01*
X103939847Y-87241510D01*
X103909086Y-87396153D01*
X103909086Y-87553846D01*
X103939847Y-87708489D01*
X103939850Y-87708501D01*
X104000188Y-87854172D01*
X104000195Y-87854185D01*
X104087796Y-87985288D01*
X104087798Y-87985291D01*
X104097764Y-87995256D01*
X104131251Y-88056578D01*
X104134086Y-88082940D01*
X104134086Y-88138408D01*
X104134086Y-88289940D01*
X104148770Y-88344742D01*
X104173305Y-88436310D01*
X104183224Y-88453490D01*
X104249071Y-88567539D01*
X104249073Y-88567541D01*
X104334351Y-88652819D01*
X104367836Y-88714142D01*
X104362852Y-88783834D01*
X104320980Y-88839767D01*
X104255516Y-88864184D01*
X104246670Y-88864500D01*
X103259006Y-88864500D01*
X103191967Y-88844815D01*
X103146212Y-88792011D01*
X103136268Y-88722853D01*
X103155904Y-88671609D01*
X103204295Y-88599186D01*
X103204295Y-88599185D01*
X103204299Y-88599180D01*
X103264642Y-88453498D01*
X103295405Y-88298843D01*
X103295405Y-88141159D01*
X103295405Y-88141156D01*
X103295404Y-88141154D01*
X103281757Y-88072546D01*
X103264642Y-87986504D01*
X103264138Y-87985288D01*
X103204302Y-87840828D01*
X103204295Y-87840815D01*
X103116694Y-87709712D01*
X103116691Y-87709708D01*
X103005197Y-87598214D01*
X103005193Y-87598211D01*
X102874090Y-87510610D01*
X102874077Y-87510603D01*
X102728406Y-87450265D01*
X102728394Y-87450262D01*
X102573750Y-87419501D01*
X102573747Y-87419501D01*
X102416063Y-87419501D01*
X102416060Y-87419501D01*
X102261415Y-87450262D01*
X102261403Y-87450265D01*
X102115732Y-87510603D01*
X102115719Y-87510610D01*
X101984616Y-87598211D01*
X101984612Y-87598214D01*
X101873118Y-87709708D01*
X101873115Y-87709712D01*
X101785514Y-87840815D01*
X101785509Y-87840824D01*
X101726075Y-87984313D01*
X101682234Y-88038716D01*
X101615940Y-88060781D01*
X101548241Y-88043502D01*
X101523833Y-88024541D01*
X100628803Y-87129511D01*
X100595318Y-87068188D01*
X100600302Y-86998496D01*
X100613382Y-86972939D01*
X100689390Y-86859185D01*
X100689390Y-86859184D01*
X100689394Y-86859179D01*
X100691867Y-86853210D01*
X100717406Y-86791552D01*
X100749737Y-86713497D01*
X100780500Y-86558842D01*
X100780500Y-86401158D01*
X100780500Y-86401155D01*
X100780499Y-86401153D01*
X100749738Y-86246510D01*
X100749737Y-86246503D01*
X100749735Y-86246498D01*
X100689397Y-86100827D01*
X100689390Y-86100814D01*
X100601789Y-85969711D01*
X100601786Y-85969707D01*
X100591819Y-85959740D01*
X100558334Y-85898417D01*
X100555500Y-85872059D01*
X100555500Y-84979742D01*
X100575185Y-84912703D01*
X100591819Y-84892061D01*
X101010391Y-84473489D01*
X101420514Y-84063366D01*
X101420514Y-84063365D01*
X102722060Y-82761819D01*
X102783383Y-82728334D01*
X102809741Y-82725500D01*
X105181474Y-82725500D01*
X105248513Y-82745185D01*
G37*
%TD.AperFunction*%
M02*
