%TF.GenerationSoftware,KiCad,Pcbnew,9.0.0*%
%TF.CreationDate,2025-08-15T19:12:53+05:30*%
%TF.ProjectId,robodogv2,726f626f-646f-4677-9632-2e6b69636164,rev?*%
%TF.SameCoordinates,Original*%
%TF.FileFunction,Soldermask,Bot*%
%TF.FilePolarity,Negative*%
%FSLAX46Y46*%
G04 Gerber Fmt 4.6, Leading zero omitted, Abs format (unit mm)*
G04 Created by KiCad (PCBNEW 9.0.0) date 2025-08-15 19:12:53*
%MOMM*%
%LPD*%
G01*
G04 APERTURE LIST*
G04 Aperture macros list*
%AMRoundRect*
0 Rectangle with rounded corners*
0 $1 Rounding radius*
0 $2 $3 $4 $5 $6 $7 $8 $9 X,Y pos of 4 corners*
0 Add a 4 corners polygon primitive as box body*
4,1,4,$2,$3,$4,$5,$6,$7,$8,$9,$2,$3,0*
0 Add four circle primitives for the rounded corners*
1,1,$1+$1,$2,$3*
1,1,$1+$1,$4,$5*
1,1,$1+$1,$6,$7*
1,1,$1+$1,$8,$9*
0 Add four rect primitives between the rounded corners*
20,1,$1+$1,$2,$3,$4,$5,0*
20,1,$1+$1,$4,$5,$6,$7,0*
20,1,$1+$1,$6,$7,$8,$9,0*
20,1,$1+$1,$8,$9,$2,$3,0*%
G04 Aperture macros list end*
%ADD10R,1.700000X1.700000*%
%ADD11O,1.700000X1.700000*%
%ADD12C,3.200000*%
%ADD13RoundRect,0.250000X0.512000X-0.512000X0.512000X0.512000X-0.512000X0.512000X-0.512000X-0.512000X0*%
%ADD14C,1.524000*%
%ADD15C,3.500000*%
%ADD16O,2.800000X1.400000*%
%ADD17R,3.716000X3.716000*%
%ADD18C,3.716000*%
%ADD19O,2.400000X1.200000*%
G04 APERTURE END LIST*
D10*
%TO.C,J4*%
X119800000Y-73310000D03*
D11*
X122340000Y-73310000D03*
X124880000Y-73310000D03*
X127420000Y-73310000D03*
X129960000Y-73310000D03*
X132500000Y-73310000D03*
X135040000Y-73310000D03*
X137580000Y-73310000D03*
X140120000Y-73310000D03*
X142660000Y-73310000D03*
X145200000Y-73310000D03*
X147740000Y-73310000D03*
%TD*%
D12*
%TO.C,H3*%
X151500000Y-68500000D03*
%TD*%
D10*
%TO.C,J3*%
X147750000Y-76080000D03*
D11*
X145210000Y-76080000D03*
X142670000Y-76080000D03*
X140130000Y-76080000D03*
X137590000Y-76080000D03*
X135050000Y-76080000D03*
X132510000Y-76080000D03*
X129970000Y-76080000D03*
X127430000Y-76080000D03*
X124890000Y-76080000D03*
X122350000Y-76080000D03*
X119810000Y-76080000D03*
%TD*%
D12*
%TO.C,H2*%
X112750000Y-68750000D03*
%TD*%
D10*
%TO.C,J5*%
X116390000Y-84530000D03*
%TD*%
%TO.C,J7*%
X119860000Y-70620000D03*
D11*
X122400000Y-70620000D03*
X124940000Y-70620000D03*
X127480000Y-70620000D03*
X130020000Y-70620000D03*
X132560000Y-70620000D03*
X135100000Y-70620000D03*
X137640000Y-70620000D03*
X140180000Y-70620000D03*
X142720000Y-70620000D03*
X145260000Y-70620000D03*
X147800000Y-70620000D03*
%TD*%
D13*
%TO.C,J9*%
X94885000Y-77160000D03*
D14*
X94885000Y-74660000D03*
X94885000Y-72660000D03*
X94885000Y-70160000D03*
D15*
X97595000Y-80230000D03*
X97595000Y-67090000D03*
%TD*%
D10*
%TO.C,J2*%
X145830000Y-86865000D03*
D11*
X145830000Y-89405000D03*
%TD*%
D12*
%TO.C,H1*%
X115500000Y-109750000D03*
%TD*%
D16*
%TO.C,U3*%
X149280000Y-95770000D03*
X149280000Y-97470000D03*
X149280000Y-99170000D03*
X149280000Y-100870000D03*
X149280000Y-102570000D03*
%TD*%
D17*
%TO.C,J1*%
X109860000Y-98820000D03*
D18*
X109860000Y-106020000D03*
D19*
X103860000Y-95670000D03*
X103860000Y-109170000D03*
%TD*%
D12*
%TO.C,H4*%
X151000000Y-109000000D03*
%TD*%
D10*
%TO.C,J6*%
X106640000Y-83855000D03*
D11*
X106640000Y-86395000D03*
%TD*%
M02*
