M48
; DRILL file {KiCad 9.0.0} date 2025-08-15T19:12:57+0530
; FORMAT={-:-/ absolute / metric / decimal}
; #@! TF.CreationDate,2025-08-15T19:12:57+05:30
; #@! TF.GenerationSoftware,Kicad,Pcbnew,9.0.0
; #@! TF.FileFunction,Plated,1,4,PTH
FMAT,2
METRIC
; #@! TA.AperFunction,Plated,PTH,ViaDrill
T1C0.300
; #@! TA.AperFunction,Plated,PTH,ComponentDrill
T2C0.600
; #@! TA.AperFunction,Plated,PTH,ComponentDrill
T3C0.920
; #@! TA.AperFunction,Plated,PTH,ComponentDrill
T4C1.000
; #@! TA.AperFunction,Plated,PTH,ComponentDrill
T5C1.200
; #@! TA.AperFunction,Plated,PTH,ComponentDrill
T6C2.300
; #@! TA.AperFunction,Plated,PTH,ComponentDrill
T7C2.700
%
G90
G05
T1
X96.0Y-84.0
X98.0Y-85.0
X99.184Y-85.025
X99.928Y-83.928
X99.98Y-86.48
X100.928Y-82.928
X102.265Y-92.41
X102.495Y-88.22
X104.71Y-87.475
X105.356Y-88.046
X107.53Y-89.54
X108.54Y-82.15
X110.88Y-92.975
X111.11Y-88.32
X113.0Y-91.0
X113.317Y-96.317
X115.275Y-88.28
X116.95Y-93.05
X117.035Y-104.69
X117.795Y-95.08
X117.795Y-99.18
X119.097Y-106.403
X119.395Y-97.639
X119.395Y-99.18
X120.0Y-104.0
X120.023Y-106.323
X120.525Y-83.93
X121.79Y-109.51
X122.541Y-106.981
X122.69Y-104.68
X122.725Y-95.04
X122.725Y-99.14
X122.787Y-107.751
X123.29Y-103.82
X123.57Y-105.02
X123.691Y-102.607
X123.741Y-107.0
X124.0Y-95.0
X124.0Y-99.0
X125.33Y-97.3
X125.61Y-93.186
X125.671Y-96.351
X125.76Y-102.48
X125.76Y-110.11
X126.478Y-100.53
X126.61Y-110.71
X126.87Y-91.461
X127.153Y-92.393
X127.45Y-105.84
X127.58Y-101.86
X128.0Y-88.0
X128.0Y-111.31
X129.02Y-98.67
X129.67Y-94.634
X129.75Y-107.73
X130.67Y-96.16
X131.08Y-108.56
X131.2Y-89.41
X131.472Y-106.472
X132.47Y-83.039
X134.72Y-90.14
X136.545Y-84.24
X137.603Y-85.385
X140.213Y-87.29
X140.225Y-90.06
X140.51Y-108.64
X148.07Y-94.3
X151.02Y-92.97
X154.0Y-89.0
T3
X94.885Y-70.16
X94.885Y-72.66
X94.885Y-74.66
X94.885Y-77.16
T4
X106.64Y-83.855
X106.64Y-86.395
X116.39Y-84.53
X119.8Y-73.31
X119.81Y-76.08
X119.86Y-70.62
X122.34Y-73.31
X122.35Y-76.08
X122.4Y-70.62
X124.88Y-73.31
X124.89Y-76.08
X124.94Y-70.62
X127.42Y-73.31
X127.43Y-76.08
X127.48Y-70.62
X129.96Y-73.31
X129.97Y-76.08
X130.02Y-70.62
X132.5Y-73.31
X132.51Y-76.08
X132.56Y-70.62
X135.04Y-73.31
X135.05Y-76.08
X135.1Y-70.62
X137.58Y-73.31
X137.59Y-76.08
X137.64Y-70.62
X140.12Y-73.31
X140.13Y-76.08
X140.18Y-70.62
X142.66Y-73.31
X142.67Y-76.08
X142.72Y-70.62
X145.2Y-73.31
X145.21Y-76.08
X145.26Y-70.62
X145.83Y-86.865
X145.83Y-89.405
X147.74Y-73.31
X147.75Y-76.08
X147.8Y-70.62
T5
X149.28Y-95.77
X149.28Y-97.47
X149.28Y-99.17
X149.28Y-100.87
X149.28Y-102.57
T6
X97.595Y-67.09
X97.595Y-80.23
T7
X109.86Y-98.82
X109.86Y-106.02
T2
G00X103.31Y-95.67
M15
G01X104.41Y-95.67
M16
G05
G00X103.31Y-109.17
M15
G01X104.41Y-109.17
M16
G05
M30
