%TF.GenerationSoftware,KiCad,Pcbnew,9.0.0*%
%TF.CreationDate,2025-08-15T19:12:53+05:30*%
%TF.ProjectId,robodogv2,726f626f-646f-4677-9632-2e6b69636164,rev?*%
%TF.SameCoordinates,Original*%
%TF.FileFunction,Copper,L1,Top*%
%TF.FilePolarity,Positive*%
%FSLAX46Y46*%
G04 Gerber Fmt 4.6, Leading zero omitted, Abs format (unit mm)*
G04 Created by KiCad (PCBNEW 9.0.0) date 2025-08-15 19:12:53*
%MOMM*%
%LPD*%
G01*
G04 APERTURE LIST*
G04 Aperture macros list*
%AMRoundRect*
0 Rectangle with rounded corners*
0 $1 Rounding radius*
0 $2 $3 $4 $5 $6 $7 $8 $9 X,Y pos of 4 corners*
0 Add a 4 corners polygon primitive as box body*
4,1,4,$2,$3,$4,$5,$6,$7,$8,$9,$2,$3,0*
0 Add four circle primitives for the rounded corners*
1,1,$1+$1,$2,$3*
1,1,$1+$1,$4,$5*
1,1,$1+$1,$6,$7*
1,1,$1+$1,$8,$9*
0 Add four rect primitives between the rounded corners*
20,1,$1+$1,$2,$3,$4,$5,0*
20,1,$1+$1,$4,$5,$6,$7,0*
20,1,$1+$1,$6,$7,$8,$9,0*
20,1,$1+$1,$8,$9,$2,$3,0*%
G04 Aperture macros list end*
%TA.AperFunction,SMDPad,CuDef*%
%ADD10R,0.600000X0.200000*%
%TD*%
%TA.AperFunction,SMDPad,CuDef*%
%ADD11R,0.200000X0.600000*%
%TD*%
%TA.AperFunction,SMDPad,CuDef*%
%ADD12R,0.926000X0.975000*%
%TD*%
%TA.AperFunction,SMDPad,CuDef*%
%ADD13RoundRect,0.140000X-0.140000X-0.170000X0.140000X-0.170000X0.140000X0.170000X-0.140000X0.170000X0*%
%TD*%
%TA.AperFunction,ComponentPad*%
%ADD14R,1.700000X1.700000*%
%TD*%
%TA.AperFunction,ComponentPad*%
%ADD15O,1.700000X1.700000*%
%TD*%
%TA.AperFunction,SMDPad,CuDef*%
%ADD16RoundRect,0.218750X0.218750X0.256250X-0.218750X0.256250X-0.218750X-0.256250X0.218750X-0.256250X0*%
%TD*%
%TA.AperFunction,SMDPad,CuDef*%
%ADD17R,1.000000X0.900000*%
%TD*%
%TA.AperFunction,SMDPad,CuDef*%
%ADD18RoundRect,0.250000X0.450000X-0.262500X0.450000X0.262500X-0.450000X0.262500X-0.450000X-0.262500X0*%
%TD*%
%TA.AperFunction,SMDPad,CuDef*%
%ADD19RoundRect,0.250000X0.250000X0.475000X-0.250000X0.475000X-0.250000X-0.475000X0.250000X-0.475000X0*%
%TD*%
%TA.AperFunction,SMDPad,CuDef*%
%ADD20RoundRect,0.100000X-0.100000X0.637500X-0.100000X-0.637500X0.100000X-0.637500X0.100000X0.637500X0*%
%TD*%
%TA.AperFunction,SMDPad,CuDef*%
%ADD21RoundRect,0.135000X0.185000X-0.135000X0.185000X0.135000X-0.185000X0.135000X-0.185000X-0.135000X0*%
%TD*%
%TA.AperFunction,SMDPad,CuDef*%
%ADD22RoundRect,0.250000X-0.262500X-0.450000X0.262500X-0.450000X0.262500X0.450000X-0.262500X0.450000X0*%
%TD*%
%TA.AperFunction,SMDPad,CuDef*%
%ADD23RoundRect,0.200000X-0.200000X-0.275000X0.200000X-0.275000X0.200000X0.275000X-0.200000X0.275000X0*%
%TD*%
%TA.AperFunction,SMDPad,CuDef*%
%ADD24RoundRect,0.250000X0.650000X-0.325000X0.650000X0.325000X-0.650000X0.325000X-0.650000X-0.325000X0*%
%TD*%
%TA.AperFunction,SMDPad,CuDef*%
%ADD25R,2.200000X1.600000*%
%TD*%
%TA.AperFunction,SMDPad,CuDef*%
%ADD26R,3.225800X4.953000*%
%TD*%
%TA.AperFunction,SMDPad,CuDef*%
%ADD27RoundRect,0.100000X0.130000X0.100000X-0.130000X0.100000X-0.130000X-0.100000X0.130000X-0.100000X0*%
%TD*%
%TA.AperFunction,SMDPad,CuDef*%
%ADD28RoundRect,0.250000X-0.475000X0.250000X-0.475000X-0.250000X0.475000X-0.250000X0.475000X0.250000X0*%
%TD*%
%TA.AperFunction,SMDPad,CuDef*%
%ADD29RoundRect,0.140000X0.170000X-0.140000X0.170000X0.140000X-0.170000X0.140000X-0.170000X-0.140000X0*%
%TD*%
%TA.AperFunction,SMDPad,CuDef*%
%ADD30RoundRect,0.250000X-0.250000X-0.475000X0.250000X-0.475000X0.250000X0.475000X-0.250000X0.475000X0*%
%TD*%
%TA.AperFunction,SMDPad,CuDef*%
%ADD31RoundRect,0.200000X0.200000X0.275000X-0.200000X0.275000X-0.200000X-0.275000X0.200000X-0.275000X0*%
%TD*%
%TA.AperFunction,SMDPad,CuDef*%
%ADD32RoundRect,0.250000X-0.325000X-0.650000X0.325000X-0.650000X0.325000X0.650000X-0.325000X0.650000X0*%
%TD*%
%TA.AperFunction,ComponentPad*%
%ADD33RoundRect,0.250000X0.512000X-0.512000X0.512000X0.512000X-0.512000X0.512000X-0.512000X-0.512000X0*%
%TD*%
%TA.AperFunction,ComponentPad*%
%ADD34C,1.524000*%
%TD*%
%TA.AperFunction,ComponentPad*%
%ADD35C,3.500000*%
%TD*%
%TA.AperFunction,SMDPad,CuDef*%
%ADD36R,0.800000X1.500000*%
%TD*%
%TA.AperFunction,ComponentPad*%
%ADD37O,2.800000X1.400000*%
%TD*%
%TA.AperFunction,SMDPad,CuDef*%
%ADD38R,0.675000X0.250000*%
%TD*%
%TA.AperFunction,SMDPad,CuDef*%
%ADD39R,0.250000X0.575000*%
%TD*%
%TA.AperFunction,ComponentPad*%
%ADD40R,3.716000X3.716000*%
%TD*%
%TA.AperFunction,ComponentPad*%
%ADD41C,3.716000*%
%TD*%
%TA.AperFunction,ComponentPad*%
%ADD42O,2.400000X1.200000*%
%TD*%
%TA.AperFunction,SMDPad,CuDef*%
%ADD43RoundRect,0.218750X-0.218750X-0.256250X0.218750X-0.256250X0.218750X0.256250X-0.218750X0.256250X0*%
%TD*%
%TA.AperFunction,ViaPad*%
%ADD44C,0.600000*%
%TD*%
%TA.AperFunction,Conductor*%
%ADD45C,0.200000*%
%TD*%
%TA.AperFunction,Conductor*%
%ADD46C,0.350000*%
%TD*%
%TA.AperFunction,Conductor*%
%ADD47C,0.150000*%
%TD*%
G04 APERTURE END LIST*
D10*
%TO.P,U2,1,BST*%
%TO.N,Net-(U2-BST)*%
X101188000Y-84700000D03*
%TO.P,U2,2,VIN*%
%TO.N,Net-(J1-+)*%
X101188000Y-85150000D03*
%TO.P,U2,3,SW*%
%TO.N,Net-(U2-SW)*%
X101188000Y-85600000D03*
%TO.P,U2,4,GND*%
%TO.N,GND*%
X101188000Y-86050000D03*
%TO.P,U2,5,PGOOD*%
%TO.N,Net-(J5-Pin_1)*%
X101188000Y-86500000D03*
D11*
%TO.P,U2,6,SS*%
%TO.N,Net-(U2-SS)*%
X101694200Y-87006200D03*
%TO.P,U2,7,EN*%
%TO.N,Net-(J6-Pin_2)*%
X102144200Y-87006200D03*
%TO.P,U2,8,FB*%
%TO.N,Net-(U2-FB)*%
X102594200Y-87006200D03*
%TO.P,U2,9,MODE*%
%TO.N,Net-(U2-MODE)*%
X103044200Y-87006200D03*
%TO.P,U2,10,VCC*%
%TO.N,Net-(U2-VCC)*%
X103494200Y-87006200D03*
D10*
%TO.P,U2,11,NC*%
%TO.N,GND*%
X104000400Y-86500000D03*
%TO.P,U2,12*%
%TO.N,N/C*%
X104000400Y-86050000D03*
%TO.P,U2,13*%
X104000400Y-85600000D03*
%TO.P,U2,14*%
X104000400Y-85150000D03*
%TO.P,U2,15*%
X104000400Y-84700000D03*
D11*
%TO.P,U2,16*%
X103494200Y-84193800D03*
%TO.P,U2,17*%
X103044200Y-84193800D03*
%TO.P,U2,18*%
X102594200Y-84193800D03*
%TO.P,U2,19*%
X102144200Y-84193800D03*
%TO.P,U2,20*%
X101694200Y-84193800D03*
D12*
%TO.P,U2,21*%
X102717200Y-85607000D03*
%TD*%
D13*
%TO.P,C22,1*%
%TO.N,GND*%
X124180000Y-107230000D03*
%TO.P,C22,2*%
%TO.N,Net-(U6-CAP)*%
X125140000Y-107230000D03*
%TD*%
D14*
%TO.P,J4,1,Pin_1*%
%TO.N,7v*%
X119800000Y-73310000D03*
D15*
%TO.P,J4,2,Pin_2*%
X122340000Y-73310000D03*
%TO.P,J4,3,Pin_3*%
X124880000Y-73310000D03*
%TO.P,J4,4,Pin_4*%
X127420000Y-73310000D03*
%TO.P,J4,5,Pin_5*%
X129960000Y-73310000D03*
%TO.P,J4,6,Pin_6*%
X132500000Y-73310000D03*
%TO.P,J4,7,Pin_7*%
X135040000Y-73310000D03*
%TO.P,J4,8,Pin_8*%
X137580000Y-73310000D03*
%TO.P,J4,9,Pin_9*%
X140120000Y-73310000D03*
%TO.P,J4,10,Pin_10*%
X142660000Y-73310000D03*
%TO.P,J4,11,Pin_11*%
X145200000Y-73310000D03*
%TO.P,J4,12,Pin_12*%
X147740000Y-73310000D03*
%TD*%
D16*
%TO.P,D2,1,K*%
%TO.N,GND*%
X150087500Y-83650000D03*
%TO.P,D2,2,A*%
%TO.N,Net-(D2-A)*%
X148512500Y-83650000D03*
%TD*%
D17*
%TO.P,SW1,1,1*%
%TO.N,/IMU_RST*%
X117795000Y-99180000D03*
X117795000Y-95080000D03*
%TO.P,SW1,2,2*%
%TO.N,GND*%
X119395000Y-99180000D03*
X119395000Y-95080000D03*
%TD*%
D18*
%TO.P,R16,1*%
%TO.N,Net-(J9-D-)*%
X112800000Y-79332500D03*
%TO.P,R16,2*%
%TO.N,Net-(J9-D+)*%
X112800000Y-77507500D03*
%TD*%
D19*
%TO.P,C21,1*%
%TO.N,Net-(C21-Pad1)*%
X149290000Y-92420000D03*
%TO.P,C21,2*%
%TO.N,Net-(U3-GROUND)*%
X147390000Y-92420000D03*
%TD*%
D20*
%TO.P,U1,1,A0*%
%TO.N,unconnected-(U1-A0-Pad1)*%
X129025000Y-84097500D03*
%TO.P,U1,2,A1*%
%TO.N,unconnected-(U1-A1-Pad2)*%
X128375000Y-84097500D03*
%TO.P,U1,3,A2*%
%TO.N,unconnected-(U1-A2-Pad3)*%
X127725000Y-84097500D03*
%TO.P,U1,4,A3*%
%TO.N,unconnected-(U1-A3-Pad4)*%
X127075000Y-84097500D03*
%TO.P,U1,5,A4*%
%TO.N,unconnected-(U1-A4-Pad5)*%
X126425000Y-84097500D03*
%TO.P,U1,6,LED0*%
%TO.N,PWM1*%
X125775000Y-84097500D03*
%TO.P,U1,7,LED1*%
%TO.N,PWM2*%
X125125000Y-84097500D03*
%TO.P,U1,8,LED2*%
%TO.N,PWM3*%
X124475000Y-84097500D03*
%TO.P,U1,9,LED3*%
%TO.N,PWM4*%
X123825000Y-84097500D03*
%TO.P,U1,10,LED4*%
%TO.N,PWM5*%
X123175000Y-84097500D03*
%TO.P,U1,11,LED5*%
%TO.N,PWM6*%
X122525000Y-84097500D03*
%TO.P,U1,12,LED6*%
%TO.N,PWM7*%
X121875000Y-84097500D03*
%TO.P,U1,13,LED7*%
%TO.N,PWM8*%
X121225000Y-84097500D03*
%TO.P,U1,14,VSS*%
%TO.N,GND*%
X120575000Y-84097500D03*
%TO.P,U1,15,LED8*%
%TO.N,PWM9*%
X120575000Y-89822500D03*
%TO.P,U1,16,LED9*%
%TO.N,PWM10*%
X121225000Y-89822500D03*
%TO.P,U1,17,LED10*%
%TO.N,PWM11*%
X121875000Y-89822500D03*
%TO.P,U1,18,LED11*%
%TO.N,PWM12*%
X122525000Y-89822500D03*
%TO.P,U1,19,LED12*%
%TO.N,unconnected-(U1-LED12-Pad19)*%
X123175000Y-89822500D03*
%TO.P,U1,20,LED13*%
%TO.N,unconnected-(U1-LED13-Pad20)*%
X123825000Y-89822500D03*
%TO.P,U1,21,LED14*%
%TO.N,unconnected-(U1-LED14-Pad21)*%
X124475000Y-89822500D03*
%TO.P,U1,22,LED15*%
%TO.N,unconnected-(U1-LED15-Pad22)*%
X125125000Y-89822500D03*
%TO.P,U1,23,~{OE}*%
%TO.N,Net-(U1-~{OE})*%
X125775000Y-89822500D03*
%TO.P,U1,24,A5*%
%TO.N,unconnected-(U1-A5-Pad24)*%
X126425000Y-89822500D03*
%TO.P,U1,25,EXTCLK*%
%TO.N,GND*%
X127075000Y-89822500D03*
%TO.P,U1,26,SCL*%
%TO.N,/SCL{slash}9*%
X127725000Y-89822500D03*
%TO.P,U1,27,SDA*%
%TO.N,/SDA{slash}8*%
X128375000Y-89822500D03*
%TO.P,U1,28,VDD*%
%TO.N,5V*%
X129025000Y-89822500D03*
%TD*%
D21*
%TO.P,R21,1*%
%TO.N,Net-(U6-ENV_SDA)*%
X138383333Y-108640000D03*
%TO.P,R21,2*%
%TO.N,+3V3*%
X138383333Y-107620000D03*
%TD*%
D22*
%TO.P,R11,1*%
%TO.N,5V*%
X134720000Y-87190000D03*
%TO.P,R11,2*%
%TO.N,Net-(U2-FB)*%
X136545000Y-87190000D03*
%TD*%
D23*
%TO.P,R8,1*%
%TO.N,Net-(U2-MODE)*%
X131200000Y-84390000D03*
%TO.P,R8,2*%
%TO.N,GND*%
X132850000Y-84390000D03*
%TD*%
D24*
%TO.P,C11,1*%
%TO.N,GND*%
X107530000Y-92975000D03*
%TO.P,C11,2*%
%TO.N,Net-(J1-+)*%
X107530000Y-90025000D03*
%TD*%
D22*
%TO.P,R6,1*%
%TO.N,Net-(J5-Pin_1)*%
X134720000Y-84240000D03*
%TO.P,R6,2*%
%TO.N,Net-(U2-VCC)*%
X136545000Y-84240000D03*
%TD*%
D21*
%TO.P,R5,1*%
%TO.N,/BOOTN*%
X134130000Y-108640000D03*
%TO.P,R5,2*%
%TO.N,+3V3*%
X134130000Y-107620000D03*
%TD*%
D25*
%TO.P,C2,1*%
%TO.N,7v*%
X127450000Y-105840000D03*
%TO.P,C2,2*%
%TO.N,GND*%
X130450000Y-105840000D03*
%TD*%
D14*
%TO.P,J3,1,Pin_1*%
%TO.N,PWM1*%
X147750000Y-76080000D03*
D15*
%TO.P,J3,2,Pin_2*%
%TO.N,PWM2*%
X145210000Y-76080000D03*
%TO.P,J3,3,Pin_3*%
%TO.N,PWM3*%
X142670000Y-76080000D03*
%TO.P,J3,4,Pin_4*%
%TO.N,PWM4*%
X140130000Y-76080000D03*
%TO.P,J3,5,Pin_5*%
%TO.N,PWM5*%
X137590000Y-76080000D03*
%TO.P,J3,6,Pin_6*%
%TO.N,PWM6*%
X135050000Y-76080000D03*
%TO.P,J3,7,Pin_7*%
%TO.N,PWM7*%
X132510000Y-76080000D03*
%TO.P,J3,8,Pin_8*%
%TO.N,PWM8*%
X129970000Y-76080000D03*
%TO.P,J3,9,Pin_9*%
%TO.N,PWM9*%
X127430000Y-76080000D03*
%TO.P,J3,10,Pin_10*%
%TO.N,PWM10*%
X124890000Y-76080000D03*
%TO.P,J3,11,Pin_11*%
%TO.N,PWM11*%
X122350000Y-76080000D03*
%TO.P,J3,12,Pin_12*%
%TO.N,PWM12*%
X119810000Y-76080000D03*
%TD*%
D26*
%TO.P,L2,1,1*%
%TO.N,Net-(U2-SW)*%
X134032500Y-99460000D03*
%TO.P,L2,2,2*%
%TO.N,5V*%
X144827500Y-99460000D03*
%TD*%
D27*
%TO.P,L1,1,1*%
%TO.N,5V*%
X147800000Y-105520000D03*
%TO.P,L1,2,2*%
%TO.N,Net-(D1-K)*%
X147160000Y-105520000D03*
%TD*%
D28*
%TO.P,C15,1*%
%TO.N,Net-(U2-SW)*%
X97900000Y-86580000D03*
%TO.P,C15,2*%
%TO.N,Net-(U2-BST)*%
X97900000Y-88480000D03*
%TD*%
D23*
%TO.P,R7,1*%
%TO.N,Net-(U2-VCC)*%
X113625000Y-88280000D03*
%TO.P,R7,2*%
%TO.N,Net-(U2-MODE)*%
X115275000Y-88280000D03*
%TD*%
D29*
%TO.P,C24,1*%
%TO.N,GND*%
X118055000Y-107170000D03*
%TO.P,C24,2*%
%TO.N,+3V3*%
X118055000Y-106210000D03*
%TD*%
%TO.P,C25,1*%
%TO.N,Net-(U6-XIN32)*%
X120025000Y-107170000D03*
%TO.P,C25,2*%
%TO.N,GND*%
X120025000Y-106210000D03*
%TD*%
D30*
%TO.P,C20,1*%
%TO.N,Net-(U2-SS)*%
X98090000Y-92420000D03*
%TO.P,C20,2*%
%TO.N,GND*%
X99990000Y-92420000D03*
%TD*%
D21*
%TO.P,R20,1*%
%TO.N,Net-(U6-ENV_SCL)*%
X136256667Y-108640000D03*
%TO.P,R20,2*%
%TO.N,+3V3*%
X136256667Y-107620000D03*
%TD*%
D22*
%TO.P,R12,1*%
%TO.N,Net-(U2-FB)*%
X134720000Y-90140000D03*
%TO.P,R12,2*%
%TO.N,GND*%
X136545000Y-90140000D03*
%TD*%
D25*
%TO.P,C1,1*%
%TO.N,5V*%
X127580000Y-101860000D03*
%TO.P,C1,2*%
%TO.N,GND*%
X130580000Y-101860000D03*
%TD*%
D17*
%TO.P,SW2,1,1*%
%TO.N,/IMU_INT*%
X122725000Y-99140000D03*
X122725000Y-95040000D03*
%TO.P,SW2,2,2*%
%TO.N,GND*%
X124325000Y-99140000D03*
X124325000Y-95040000D03*
%TD*%
D14*
%TO.P,J5,1,Pin_1*%
%TO.N,Net-(J5-Pin_1)*%
X116390000Y-84530000D03*
%TD*%
D31*
%TO.P,R14,1*%
%TO.N,GND*%
X130670000Y-98670000D03*
%TO.P,R14,2*%
%TO.N,Net-(C21-Pad1)*%
X129020000Y-98670000D03*
%TD*%
D32*
%TO.P,C19,1*%
%TO.N,5V*%
X102265000Y-92410000D03*
%TO.P,C19,2*%
%TO.N,GND*%
X105215000Y-92410000D03*
%TD*%
D28*
%TO.P,C14,1*%
%TO.N,Net-(J1-+)*%
X97930000Y-82930000D03*
%TO.P,C14,2*%
%TO.N,GND*%
X97930000Y-84830000D03*
%TD*%
D22*
%TO.P,R28,1*%
%TO.N,GND*%
X138387500Y-87290000D03*
%TO.P,R28,2*%
%TO.N,Net-(J5-Pin_1)*%
X140212500Y-87290000D03*
%TD*%
D21*
%TO.P,R22,1*%
%TO.N,Net-(U6-SA0{slash}H_MOSI)*%
X140510000Y-108640000D03*
%TO.P,R22,2*%
%TO.N,+3V3*%
X140510000Y-107620000D03*
%TD*%
D14*
%TO.P,J7,1,Pin_1*%
%TO.N,GND*%
X119860000Y-70620000D03*
D15*
%TO.P,J7,2,Pin_2*%
X122400000Y-70620000D03*
%TO.P,J7,3,Pin_3*%
X124940000Y-70620000D03*
%TO.P,J7,4,Pin_4*%
X127480000Y-70620000D03*
%TO.P,J7,5,Pin_5*%
X130020000Y-70620000D03*
%TO.P,J7,6,Pin_6*%
X132560000Y-70620000D03*
%TO.P,J7,7,Pin_7*%
X135100000Y-70620000D03*
%TO.P,J7,8,Pin_8*%
X137640000Y-70620000D03*
%TO.P,J7,9,Pin_9*%
X140180000Y-70620000D03*
%TO.P,J7,10,Pin_10*%
X142720000Y-70620000D03*
%TO.P,J7,11,Pin_11*%
X145260000Y-70620000D03*
%TO.P,J7,12,Pin_12*%
X147800000Y-70620000D03*
%TD*%
D33*
%TO.P,J9,1,VBUS*%
%TO.N,5V*%
X94885000Y-77160000D03*
D34*
%TO.P,J9,2,D-*%
%TO.N,Net-(J9-D-)*%
X94885000Y-74660000D03*
%TO.P,J9,3,D+*%
%TO.N,Net-(J9-D+)*%
X94885000Y-72660000D03*
%TO.P,J9,4,GND*%
%TO.N,GND*%
X94885000Y-70160000D03*
D35*
%TO.P,J9,5,Shield*%
X97595000Y-80230000D03*
X97595000Y-67090000D03*
%TD*%
D14*
%TO.P,J2,1,Pin_1*%
%TO.N,/SCL{slash}9*%
X145830000Y-86865000D03*
D15*
%TO.P,J2,2,Pin_2*%
%TO.N,/SDA{slash}8*%
X145830000Y-89405000D03*
%TD*%
D29*
%TO.P,C26,1*%
%TO.N,Net-(U6-XOUT32{slash}CLKSEL1)*%
X119945000Y-105120000D03*
%TO.P,C26,2*%
%TO.N,GND*%
X119945000Y-104160000D03*
%TD*%
D31*
%TO.P,R15,1*%
%TO.N,Net-(R15-Pad1)*%
X130670000Y-96160000D03*
%TO.P,R15,2*%
%TO.N,7v*%
X129020000Y-96160000D03*
%TD*%
D24*
%TO.P,C16,1*%
%TO.N,5V*%
X114230000Y-92975000D03*
%TO.P,C16,2*%
%TO.N,GND*%
X114230000Y-90025000D03*
%TD*%
D36*
%TO.P,Y1,1,1*%
%TO.N,Net-(U6-XOUT32{slash}CLKSEL1)*%
X118535000Y-104690000D03*
%TO.P,Y1,2,2*%
%TO.N,Net-(U6-XIN32)*%
X117035000Y-104690000D03*
%TD*%
D37*
%TO.P,U3,1,COMP*%
%TO.N,GND*%
X149280000Y-95770000D03*
%TO.P,U3,2,FEEDBACK*%
%TO.N,Net-(U3-FEEDBACK)*%
X149280000Y-97470000D03*
%TO.P,U3,3,GROUND*%
%TO.N,Net-(U3-GROUND)*%
X149280000Y-99170000D03*
%TO.P,U3,4,SWITCH*%
%TO.N,Net-(D1-K)*%
X149280000Y-100870000D03*
%TO.P,U3,5,VIN*%
%TO.N,5V*%
X149280000Y-102570000D03*
%TD*%
D24*
%TO.P,C17,1*%
%TO.N,5V*%
X112760000Y-86515000D03*
%TO.P,C17,2*%
%TO.N,GND*%
X112760000Y-83565000D03*
%TD*%
D38*
%TO.P,U6,1,RESV_NC_1*%
%TO.N,unconnected-(U6-RESV_NC_1-Pad1)*%
X121790000Y-105840000D03*
D39*
%TO.P,U6,2,GND_1*%
%TO.N,GND*%
X122602500Y-105902500D03*
%TO.P,U6,3,VDD*%
%TO.N,+3V3*%
X123102500Y-105902500D03*
%TO.P,U6,4,BOOTN*%
%TO.N,/BOOTN*%
X123602500Y-105902500D03*
%TO.P,U6,5,PS1*%
%TO.N,GND*%
X124102500Y-105902500D03*
D38*
%TO.P,U6,6,PS0/WAKE*%
X124915000Y-105840000D03*
%TO.P,U6,7,RESV_NC_2*%
%TO.N,unconnected-(U6-RESV_NC_2-Pad7)*%
X124915000Y-105340000D03*
%TO.P,U6,8,RESV_NC_3*%
%TO.N,unconnected-(U6-RESV_NC_3-Pad8)*%
X124915000Y-104840000D03*
%TO.P,U6,9,CAP*%
%TO.N,Net-(U6-CAP)*%
X124915000Y-104340000D03*
%TO.P,U6,10,CLKSEL0*%
%TO.N,GND*%
X124915000Y-103840000D03*
%TO.P,U6,11,NRST*%
%TO.N,/IMU_RST*%
X124915000Y-103340000D03*
%TO.P,U6,12,RESV_NC_4*%
%TO.N,unconnected-(U6-RESV_NC_4-Pad12)*%
X124915000Y-102840000D03*
%TO.P,U6,13,RESV_NC_5*%
%TO.N,unconnected-(U6-RESV_NC_5-Pad13)*%
X124915000Y-102340000D03*
%TO.P,U6,14,H_INTN*%
%TO.N,/IMU_INT*%
X124915000Y-101840000D03*
%TO.P,U6,15,ENV_SCL*%
%TO.N,Net-(U6-ENV_SCL)*%
X124915000Y-101340000D03*
D39*
%TO.P,U6,16,ENV_SDA*%
%TO.N,Net-(U6-ENV_SDA)*%
X124102500Y-101277500D03*
%TO.P,U6,17,SA0/H_MOSI*%
%TO.N,Net-(U6-SA0{slash}H_MOSI)*%
X123602500Y-101277500D03*
%TO.P,U6,18,H_CSN*%
%TO.N,unconnected-(U6-H_CSN-Pad18)*%
X123102500Y-101277500D03*
%TO.P,U6,19,H_SCL/SCK/RX*%
%TO.N,/SCL{slash}9*%
X122602500Y-101277500D03*
D38*
%TO.P,U6,20,H_SDA/H_MISO/TX*%
%TO.N,/SDA{slash}8*%
X121790000Y-101340000D03*
%TO.P,U6,21,RESV_NC_6*%
%TO.N,unconnected-(U6-RESV_NC_6-Pad21)*%
X121790000Y-101840000D03*
%TO.P,U6,22,RESV_NC_7*%
%TO.N,unconnected-(U6-RESV_NC_7-Pad22)*%
X121790000Y-102340000D03*
%TO.P,U6,23,RESV_NC_8*%
%TO.N,unconnected-(U6-RESV_NC_8-Pad23)*%
X121790000Y-102840000D03*
%TO.P,U6,24,RESV_NC_9*%
%TO.N,unconnected-(U6-RESV_NC_9-Pad24)*%
X121790000Y-103340000D03*
%TO.P,U6,25,GND_2*%
%TO.N,GND*%
X121790000Y-103840000D03*
%TO.P,U6,26,XOUT32/CLKSEL1*%
%TO.N,Net-(U6-XOUT32{slash}CLKSEL1)*%
X121790000Y-104340000D03*
%TO.P,U6,27,XIN32*%
%TO.N,Net-(U6-XIN32)*%
X121790000Y-104840000D03*
%TO.P,U6,28,VDDIO*%
%TO.N,+3V3*%
X121790000Y-105340000D03*
%TD*%
D29*
%TO.P,C23,1*%
%TO.N,+3V3*%
X119905000Y-103010000D03*
%TO.P,C23,2*%
%TO.N,GND*%
X119905000Y-102050000D03*
%TD*%
D40*
%TO.P,J1,1,+*%
%TO.N,Net-(J1-+)*%
X109860000Y-98820000D03*
D41*
%TO.P,J1,2,-*%
%TO.N,GND*%
X109860000Y-106020000D03*
D42*
%TO.P,J1,S1*%
%TO.N,N/C*%
X103860000Y-95670000D03*
%TO.P,J1,S2*%
X103860000Y-109170000D03*
%TD*%
D31*
%TO.P,R17,1*%
%TO.N,Net-(U3-FEEDBACK)*%
X130670000Y-93650000D03*
%TO.P,R17,2*%
%TO.N,Net-(R15-Pad1)*%
X129020000Y-93650000D03*
%TD*%
D13*
%TO.P,C13,1*%
%TO.N,Net-(U2-VCC)*%
X111110000Y-88320000D03*
%TO.P,C13,2*%
%TO.N,GND*%
X112070000Y-88320000D03*
%TD*%
D24*
%TO.P,C12,1*%
%TO.N,GND*%
X110880000Y-92975000D03*
%TO.P,C12,2*%
%TO.N,Net-(J1-+)*%
X110880000Y-90025000D03*
%TD*%
D22*
%TO.P,R13,1*%
%TO.N,Net-(D2-A)*%
X138387500Y-84390000D03*
%TO.P,R13,2*%
%TO.N,5V*%
X140212500Y-84390000D03*
%TD*%
D23*
%TO.P,R19,1*%
%TO.N,GND*%
X144775000Y-84160000D03*
%TO.P,R19,2*%
%TO.N,Net-(U1-~{OE})*%
X146425000Y-84160000D03*
%TD*%
%TO.P,R9,1*%
%TO.N,Net-(J1-+)*%
X131200000Y-86900000D03*
%TO.P,R9,2*%
%TO.N,Net-(J6-Pin_1)*%
X132850000Y-86900000D03*
%TD*%
%TO.P,R18,1*%
%TO.N,GND*%
X138575000Y-90060000D03*
%TO.P,R18,2*%
%TO.N,Net-(U3-FEEDBACK)*%
X140225000Y-90060000D03*
%TD*%
D43*
%TO.P,D1,1,K*%
%TO.N,Net-(D1-K)*%
X149165000Y-105660000D03*
%TO.P,D1,2,A*%
%TO.N,7v*%
X150740000Y-105660000D03*
%TD*%
D23*
%TO.P,R10,1*%
%TO.N,Net-(J6-Pin_1)*%
X131200000Y-89410000D03*
%TO.P,R10,2*%
%TO.N,GND*%
X132850000Y-89410000D03*
%TD*%
D24*
%TO.P,C18,1*%
%TO.N,5V*%
X109830000Y-86390000D03*
%TO.P,C18,2*%
%TO.N,GND*%
X109830000Y-83440000D03*
%TD*%
D14*
%TO.P,J6,1,Pin_1*%
%TO.N,Net-(J6-Pin_1)*%
X106640000Y-83855000D03*
D15*
%TO.P,J6,2,Pin_2*%
%TO.N,Net-(J6-Pin_2)*%
X106640000Y-86395000D03*
%TD*%
D44*
%TO.N,GND*%
X122541000Y-106981476D03*
X131471735Y-106471735D03*
X120525000Y-83930000D03*
X128000000Y-88000000D03*
X120000000Y-104000000D03*
X124000000Y-95000000D03*
X123741000Y-107000000D03*
X154000000Y-89000000D03*
X119395000Y-97639000D03*
X119395000Y-99180000D03*
X98000000Y-85000000D03*
X100928413Y-82928413D03*
X124000000Y-99000000D03*
X120023353Y-106323117D03*
X113000000Y-91000000D03*
X110880000Y-92975000D03*
%TO.N,Net-(U2-VCC)*%
X136545000Y-84240000D03*
X111110000Y-88320000D03*
X104709586Y-87475000D03*
%TO.N,Net-(U2-BST)*%
X99928413Y-83928413D03*
X96000000Y-84000000D03*
%TO.N,5V*%
X113317298Y-96317298D03*
X116949863Y-93050137D03*
X127152652Y-92392652D03*
X127580000Y-101860000D03*
X102265000Y-92410000D03*
%TO.N,Net-(J5-Pin_1)*%
X99980000Y-86480000D03*
X140212500Y-87290000D03*
X108540000Y-82150000D03*
X137602781Y-85385001D03*
X132470000Y-83039000D03*
%TO.N,Net-(J6-Pin_1)*%
X131200000Y-89410000D03*
%TO.N,Net-(U2-MODE)*%
X115275000Y-88280000D03*
X105355735Y-88045735D03*
%TO.N,Net-(U2-FB)*%
X102494905Y-88220001D03*
X134720000Y-90140000D03*
%TO.N,7v*%
X128000000Y-111310000D03*
X127450000Y-105840000D03*
%TO.N,Net-(C21-Pad1)*%
X148070000Y-94300000D03*
X129020000Y-98670000D03*
%TO.N,Net-(R15-Pad1)*%
X129670000Y-94634000D03*
X130670000Y-96160000D03*
%TO.N,Net-(U3-FEEDBACK)*%
X151020000Y-92970000D03*
X140225000Y-90060000D03*
%TO.N,Net-(J1-+)*%
X99183600Y-85025000D03*
X107530000Y-89540000D03*
%TO.N,+3V3*%
X131080265Y-108560265D03*
X129750000Y-107730000D03*
X122786550Y-107751000D03*
%TO.N,Net-(U6-XIN32)*%
X117035000Y-104690000D03*
X119096765Y-106403235D03*
%TO.N,/BOOTN*%
X121790000Y-109510000D03*
X123570000Y-105020000D03*
%TO.N,Net-(U6-ENV_SCL)*%
X125760000Y-102480000D03*
X125760000Y-110110000D03*
%TO.N,Net-(U6-ENV_SDA)*%
X126610000Y-110710000D03*
X126477652Y-100530000D03*
%TO.N,Net-(U6-SA0{slash}H_MOSI)*%
X140510000Y-108640000D03*
X123691000Y-102607172D03*
%TO.N,/IMU_RST*%
X122690000Y-104680000D03*
X117795000Y-99180000D03*
X117795000Y-95080000D03*
%TO.N,/IMU_INT*%
X122725000Y-99140000D03*
X122725000Y-95040000D03*
X123290000Y-103819804D03*
%TO.N,/SDA{slash}8*%
X125330000Y-97300000D03*
X126870000Y-91461000D03*
%TO.N,/SCL{slash}9*%
X125670798Y-96350798D03*
X125610000Y-93186000D03*
%TD*%
D45*
%TO.N,GND*%
X114038064Y-87504000D02*
X114326000Y-87791936D01*
D46*
X124915000Y-105840000D02*
X124877500Y-105877500D01*
D45*
X130450000Y-105840000D02*
X130840000Y-105840000D01*
X119945000Y-104055000D02*
X120000000Y-104000000D01*
D47*
X124325000Y-95040000D02*
X121726000Y-97639000D01*
D45*
X138387500Y-89872500D02*
X138575000Y-90060000D01*
D47*
X102033700Y-86426000D02*
X103926400Y-86426000D01*
D45*
X132850000Y-84390000D02*
X133551000Y-85091000D01*
X112886000Y-87504000D02*
X114038064Y-87504000D01*
X124040000Y-95040000D02*
X124000000Y-95000000D01*
D46*
X123971000Y-107230000D02*
X123741000Y-107000000D01*
X124180000Y-107230000D02*
X124102500Y-107152500D01*
D45*
X127075000Y-89822500D02*
X127075000Y-88925000D01*
X124325000Y-95040000D02*
X124040000Y-95040000D01*
X114230000Y-90025000D02*
X113975000Y-90025000D01*
X133551000Y-88709000D02*
X132850000Y-89410000D01*
D46*
X124102500Y-105902500D02*
X124102500Y-107152500D01*
D45*
X112070000Y-88320000D02*
X112999000Y-87391000D01*
D47*
X123599000Y-95766000D02*
X124325000Y-95040000D01*
D45*
X125840000Y-103840000D02*
X126049000Y-104049000D01*
X120025000Y-106210000D02*
X120025000Y-106321470D01*
D47*
X101657700Y-86050000D02*
X102033700Y-86426000D01*
D45*
X150091000Y-94959000D02*
X150091000Y-83653500D01*
X150091000Y-83653500D02*
X150087500Y-83650000D01*
X113645160Y-87391000D02*
X113961000Y-87075160D01*
D47*
X103926400Y-86426000D02*
X104000400Y-86500000D01*
D45*
X127075000Y-88925000D02*
X128000000Y-88000000D01*
D46*
X124877500Y-105877500D02*
X124180000Y-106575000D01*
D47*
X119395000Y-95080000D02*
X120081000Y-95766000D01*
D45*
X133551000Y-85091000D02*
X133551000Y-88709000D01*
D47*
X120081000Y-95766000D02*
X123599000Y-95766000D01*
X101188000Y-86050000D02*
X101657700Y-86050000D01*
D45*
X97930000Y-84830000D02*
X97930000Y-84930000D01*
X113961000Y-84766000D02*
X112760000Y-83565000D01*
X112999000Y-87391000D02*
X113645160Y-87391000D01*
X120025000Y-106321470D02*
X120023353Y-106323117D01*
D47*
X122602500Y-106919976D02*
X122541000Y-106981476D01*
D45*
X120265000Y-103840000D02*
X121790000Y-103840000D01*
D46*
X124180000Y-105980000D02*
X124102500Y-105902500D01*
D45*
X112070000Y-88320000D02*
X112886000Y-87504000D01*
D47*
X104576400Y-86423600D02*
X104576400Y-83576400D01*
X104500000Y-86500000D02*
X104576400Y-86423600D01*
D45*
X105215000Y-92410000D02*
X106965000Y-92410000D01*
X120575000Y-84097500D02*
X120575000Y-83980000D01*
X106965000Y-92410000D02*
X107530000Y-92975000D01*
D46*
X124852500Y-105902500D02*
X124877500Y-105877500D01*
D45*
X124140000Y-99140000D02*
X124000000Y-99000000D01*
X120575000Y-83980000D02*
X120525000Y-83930000D01*
D46*
X124180000Y-106575000D02*
X124180000Y-107230000D01*
D45*
X149280000Y-95770000D02*
X150091000Y-94959000D01*
X113961000Y-87075160D02*
X113961000Y-84766000D01*
D46*
X124180000Y-106575000D02*
X124180000Y-105980000D01*
D47*
X104576400Y-83576400D02*
X103928413Y-82928413D01*
D45*
X126049000Y-104049000D02*
X126049000Y-106941000D01*
D47*
X103928413Y-82928413D02*
X100928413Y-82928413D01*
X122602500Y-105902500D02*
X122602500Y-106919976D01*
D45*
X113975000Y-90025000D02*
X113000000Y-91000000D01*
X114326000Y-89929000D02*
X114230000Y-90025000D01*
X114326000Y-87791936D02*
X114326000Y-89929000D01*
X126049000Y-106941000D02*
X129349000Y-106941000D01*
X124915000Y-103840000D02*
X125840000Y-103840000D01*
X129349000Y-106941000D02*
X130450000Y-105840000D01*
D46*
X124180000Y-107230000D02*
X123971000Y-107230000D01*
D45*
X138387500Y-87290000D02*
X138387500Y-89872500D01*
X119945000Y-104160000D02*
X119945000Y-104055000D01*
D47*
X104000400Y-86500000D02*
X104500000Y-86500000D01*
D45*
X119945000Y-104160000D02*
X120265000Y-103840000D01*
X97930000Y-84930000D02*
X98000000Y-85000000D01*
X124325000Y-99140000D02*
X124140000Y-99140000D01*
X130840000Y-105840000D02*
X131471735Y-106471735D01*
D47*
X121726000Y-97639000D02*
X119395000Y-97639000D01*
D46*
X124102500Y-105902500D02*
X124852500Y-105902500D01*
D47*
%TO.N,Net-(U2-VCC)*%
X112999000Y-88906000D02*
X113625000Y-88280000D01*
X111110000Y-88320000D02*
X111696000Y-88906000D01*
X111696000Y-88906000D02*
X112999000Y-88906000D01*
X104240786Y-87006200D02*
X104709586Y-87475000D01*
X103494200Y-87006200D02*
X104240786Y-87006200D01*
D45*
%TO.N,Net-(U2-BST)*%
X96000000Y-86580000D02*
X97900000Y-88480000D01*
X101188000Y-84676840D02*
X101188000Y-84700000D01*
X101188000Y-84700000D02*
X100700000Y-84700000D01*
X96000000Y-84000000D02*
X96000000Y-86580000D01*
X100700000Y-84700000D02*
X99928413Y-83928413D01*
%TO.N,Net-(U2-SW)*%
X97050000Y-90841160D02*
X98926000Y-88965160D01*
X129882000Y-108910000D02*
X108150000Y-108910000D01*
X108150000Y-108910000D02*
X97050000Y-97810000D01*
X132521800Y-100970700D02*
X132521800Y-106270200D01*
X98926000Y-88965160D02*
X98926000Y-87606000D01*
D47*
X97900000Y-86580000D02*
X98880000Y-85600000D01*
D45*
X132521800Y-106270200D02*
X129882000Y-108910000D01*
X98926000Y-87606000D02*
X97900000Y-86580000D01*
X97050000Y-97810000D02*
X97050000Y-90841160D01*
X134032500Y-99460000D02*
X132521800Y-100970700D01*
D47*
X98880000Y-85600000D02*
X101188000Y-85600000D01*
D46*
%TO.N,5V*%
X109250000Y-86390000D02*
X109830000Y-86390000D01*
X132549898Y-92883200D02*
X146310102Y-92883200D01*
X114230000Y-92975000D02*
X114230000Y-95404596D01*
X94885000Y-77160000D02*
X98150000Y-77160000D01*
X109830000Y-86390000D02*
X107866000Y-84426000D01*
X138542500Y-86060000D02*
X140212500Y-84390000D01*
X134720000Y-87190000D02*
X135850000Y-86060000D01*
X98320000Y-77330000D02*
X98040750Y-77330000D01*
X140212500Y-84390000D02*
X141101000Y-85278500D01*
X145107902Y-91681000D02*
X146413200Y-92986298D01*
X98150000Y-77160000D02*
X98320000Y-77330000D01*
X128575870Y-95309000D02*
X131114130Y-95309000D01*
X132446800Y-92986298D02*
X132549898Y-92883200D01*
X127218286Y-92392652D02*
X127152652Y-92392652D01*
X146413200Y-92986298D02*
X146413200Y-97874300D01*
X129025000Y-90585938D02*
X127218286Y-92392652D01*
X107866000Y-84426000D02*
X107866000Y-82629000D01*
X103230000Y-92410000D02*
X109250000Y-86390000D01*
X114230000Y-95404596D02*
X113317298Y-96317298D01*
X144827500Y-99460000D02*
X147937500Y-102570000D01*
X114230000Y-92975000D02*
X116874726Y-92975000D01*
X102567000Y-77330000D02*
X98320000Y-77330000D01*
X107866000Y-82629000D02*
X102567000Y-77330000D01*
X141101000Y-91681000D02*
X145107902Y-91681000D01*
X109830000Y-86390000D02*
X112635000Y-86390000D01*
X135850000Y-86060000D02*
X138542500Y-86060000D01*
X141101000Y-85278500D02*
X141101000Y-91681000D01*
X131114130Y-95309000D02*
X132446800Y-93976330D01*
X149280000Y-104040000D02*
X147800000Y-105520000D01*
X127580000Y-101860000D02*
X127580000Y-96304870D01*
X112635000Y-86390000D02*
X112760000Y-86515000D01*
X127580000Y-96304870D02*
X128575870Y-95309000D01*
X149280000Y-102570000D02*
X149280000Y-104040000D01*
X129025000Y-89822500D02*
X129025000Y-90585938D01*
X146413200Y-97874300D02*
X144827500Y-99460000D01*
X132446800Y-93976330D02*
X132446800Y-92986298D01*
X147937500Y-102570000D02*
X149280000Y-102570000D01*
X102265000Y-92410000D02*
X103230000Y-92410000D01*
X116874726Y-92975000D02*
X116949863Y-93050137D01*
X146310102Y-92883200D02*
X146413200Y-92986298D01*
D47*
%TO.N,Net-(U2-SS)*%
X98090000Y-90958400D02*
X98090000Y-92420000D01*
X101694200Y-87006200D02*
X101694200Y-87354200D01*
X101694200Y-87354200D02*
X98090000Y-90958400D01*
D45*
%TO.N,Net-(D2-A)*%
X139937500Y-82840000D02*
X148160000Y-82840000D01*
X148160000Y-83297500D02*
X148512500Y-83650000D01*
X148160000Y-82840000D02*
X148160000Y-83297500D01*
X138387500Y-84390000D02*
X139937500Y-82840000D01*
D47*
%TO.N,Net-(J5-Pin_1)*%
X99980000Y-86480000D02*
X101168000Y-86480000D01*
X101168000Y-86480000D02*
X101188000Y-86500000D01*
X114010000Y-82150000D02*
X108540000Y-82150000D01*
X116390000Y-84530000D02*
X114010000Y-82150000D01*
D45*
X135865000Y-85385000D02*
X137602781Y-85385001D01*
X134720000Y-84240000D02*
X133519000Y-83039000D01*
X134720000Y-84240000D02*
X135865000Y-85385000D01*
X133519000Y-83039000D02*
X132470000Y-83039000D01*
%TO.N,Net-(J6-Pin_1)*%
X131200000Y-88550000D02*
X132850000Y-86900000D01*
X131200000Y-89410000D02*
X131200000Y-88550000D01*
%TO.N,Net-(J6-Pin_2)*%
X106640000Y-86395000D02*
X106640000Y-87610000D01*
X101300000Y-88820000D02*
X101300000Y-88280144D01*
X102095200Y-87055200D02*
X102144200Y-87006200D01*
X105430000Y-88820000D02*
X101300000Y-88820000D01*
X101972944Y-87607200D02*
X102095200Y-87607200D01*
X106640000Y-87610000D02*
X105430000Y-88820000D01*
X101849944Y-87730200D02*
X101972944Y-87607200D01*
X102095200Y-87607200D02*
X102095200Y-87055200D01*
X101300000Y-88280144D02*
X101849944Y-87730200D01*
%TO.N,Net-(U2-MODE)*%
X129526000Y-88295166D02*
X129526000Y-90867834D01*
X129526000Y-86064000D02*
X129526000Y-87900834D01*
X129526000Y-90867834D02*
X129007435Y-91386399D01*
X118534256Y-93786000D02*
X115431000Y-90682744D01*
X115431000Y-88436000D02*
X115275000Y-88280000D01*
X126607834Y-93786000D02*
X118534256Y-93786000D01*
X129526000Y-87900834D02*
X129526000Y-88295166D01*
D47*
X105355735Y-88045735D02*
X105074265Y-88045735D01*
X105074265Y-88045735D02*
X105070000Y-88050000D01*
X103044200Y-88050000D02*
X103044200Y-87006200D01*
D45*
X129007435Y-91386399D02*
X126607834Y-93786000D01*
D47*
X105070000Y-88050000D02*
X103044200Y-88050000D01*
D45*
X115431000Y-90682744D02*
X115431000Y-88436000D01*
X131200000Y-84390000D02*
X129526000Y-86064000D01*
%TO.N,Net-(U2-FB)*%
X134720000Y-90140000D02*
X134720000Y-89015000D01*
X134720000Y-89015000D02*
X136545000Y-87190000D01*
X102594200Y-87006200D02*
X102594200Y-88120706D01*
X102594200Y-88120706D02*
X102494905Y-88220001D01*
D46*
%TO.N,Net-(J9-D-)*%
X94885000Y-74660000D02*
X98000000Y-74660000D01*
D45*
X98170000Y-74830000D02*
X108297500Y-74830000D01*
X98040750Y-74830000D02*
X98170000Y-74830000D01*
X108297500Y-74830000D02*
X112800000Y-79332500D01*
D46*
X98000000Y-74660000D02*
X98170000Y-74830000D01*
%TO.N,Net-(J9-D+)*%
X97870750Y-72660000D02*
X98040750Y-72830000D01*
D45*
X108122500Y-72830000D02*
X112800000Y-77507500D01*
D46*
X94885000Y-72660000D02*
X97870750Y-72660000D01*
D45*
X98040750Y-72830000D02*
X108122500Y-72830000D01*
D46*
%TO.N,7v*%
X129056000Y-100684000D02*
X129056000Y-104234000D01*
X152660000Y-78230000D02*
X152660000Y-103740000D01*
X129056000Y-104234000D02*
X127450000Y-105840000D01*
X150740000Y-105660000D02*
X145090000Y-111310000D01*
X119800000Y-73310000D02*
X147740000Y-73310000D01*
X147740000Y-73310000D02*
X121919999Y-73310000D01*
X152660000Y-103740000D02*
X150740000Y-105660000D01*
X147430000Y-73000000D02*
X152660000Y-78230000D01*
X129796000Y-96936000D02*
X129796000Y-99944000D01*
X129796000Y-99944000D02*
X129056000Y-100684000D01*
X145090000Y-111310000D02*
X128000000Y-111310000D01*
X129020000Y-96160000D02*
X129796000Y-96936000D01*
D45*
%TO.N,Net-(U3-GROUND)*%
X147390000Y-92420000D02*
X147390000Y-92710000D01*
X148864372Y-99170000D02*
X147390000Y-97695628D01*
X149280000Y-99170000D02*
X148864372Y-99170000D01*
X147390000Y-97695628D02*
X147390000Y-92420000D01*
X147390000Y-92710000D02*
X147560000Y-92880000D01*
%TO.N,Net-(C21-Pad1)*%
X149290000Y-92420000D02*
X148070000Y-93640000D01*
X148070000Y-93640000D02*
X148070000Y-94300000D01*
%TO.N,Net-(D1-K)*%
X149695628Y-100870000D02*
X149280000Y-100870000D01*
X150981000Y-102155372D02*
X149695628Y-100870000D01*
X150981000Y-103844000D02*
X150981000Y-102155372D01*
D47*
X147440001Y-106000000D02*
X148825000Y-106000000D01*
X147160000Y-105719999D02*
X147440001Y-106000000D01*
X147160000Y-105520000D02*
X147160000Y-105719999D01*
D45*
X149165000Y-105660000D02*
X150981000Y-103844000D01*
D47*
X148825000Y-106000000D02*
X149165000Y-105660000D01*
D45*
%TO.N,Net-(R15-Pad1)*%
X129020000Y-93984000D02*
X129670000Y-94634000D01*
X129020000Y-93650000D02*
X129020000Y-93984000D01*
%TO.N,Net-(U3-FEEDBACK)*%
X131912800Y-92407200D02*
X137877800Y-92407200D01*
X130670000Y-93650000D02*
X131912800Y-92407200D01*
X149695628Y-97470000D02*
X151020000Y-96145628D01*
X151020000Y-96145628D02*
X151020000Y-92970000D01*
X149280000Y-97470000D02*
X149695628Y-97470000D01*
X137877800Y-92407200D02*
X140225000Y-90060000D01*
%TO.N,Net-(U1-~{OE})*%
X131961936Y-82439000D02*
X130499000Y-83901936D01*
X149251000Y-84127600D02*
X149251000Y-83172400D01*
X148952600Y-84426000D02*
X149251000Y-84127600D01*
X146425000Y-84160000D02*
X146691000Y-84426000D01*
X125775000Y-88654870D02*
X125775000Y-89822500D01*
X130499000Y-83930870D02*
X125775000Y-88654870D01*
X130499000Y-83901936D02*
X130499000Y-83930870D01*
X148517600Y-82439000D02*
X131961936Y-82439000D01*
X146691000Y-84426000D02*
X148952600Y-84426000D01*
X149251000Y-83172400D02*
X148517600Y-82439000D01*
D47*
%TO.N,PWM2*%
X125125000Y-83360001D02*
X129173001Y-79312000D01*
X141978000Y-79312000D02*
X145210000Y-76080000D01*
X125125000Y-84097500D02*
X125125000Y-83360001D01*
X129173001Y-79312000D02*
X141978000Y-79312000D01*
%TO.N,PWM3*%
X124475000Y-83360001D02*
X128874001Y-78961000D01*
X128874001Y-78961000D02*
X139789000Y-78961000D01*
X139789000Y-78961000D02*
X142670000Y-76080000D01*
X124475000Y-84097500D02*
X124475000Y-83360001D01*
%TO.N,PWM5*%
X123175000Y-83475484D02*
X128391484Y-78259000D01*
X123175000Y-84097500D02*
X123175000Y-83475484D01*
X128391484Y-78259000D02*
X135411000Y-78259000D01*
X135411000Y-78259000D02*
X137590000Y-76080000D01*
%TO.N,PWM7*%
X131033000Y-77557000D02*
X132510000Y-76080000D01*
X121875000Y-84097500D02*
X121875000Y-83360001D01*
X127678001Y-77557000D02*
X131033000Y-77557000D01*
X121875000Y-83360001D02*
X127678001Y-77557000D01*
%TO.N,PWM8*%
X121225000Y-84097500D02*
X121225000Y-83475484D01*
X127494484Y-77206000D02*
X128844000Y-77206000D01*
X128844000Y-77206000D02*
X129970000Y-76080000D01*
X121225000Y-83475484D02*
X127494484Y-77206000D01*
%TO.N,PWM1*%
X125775000Y-83475484D02*
X129587484Y-79663000D01*
X125775000Y-84097500D02*
X125775000Y-83475484D01*
X144167000Y-79663000D02*
X147750000Y-76080000D01*
X129587484Y-79663000D02*
X144167000Y-79663000D01*
%TO.N,PWM9*%
X119473000Y-83927484D02*
X127320484Y-76080000D01*
X120575000Y-92182000D02*
X120400000Y-92357000D01*
X119473000Y-92357000D02*
X119473000Y-83927484D01*
X120400000Y-92357000D02*
X119473000Y-92357000D01*
X120575000Y-89822500D02*
X120575000Y-92182000D01*
X127320484Y-76080000D02*
X127430000Y-76080000D01*
%TO.N,PWM12*%
X122525000Y-89822500D02*
X122480000Y-89867500D01*
X118420000Y-93140000D02*
X118420000Y-77470000D01*
X118420000Y-77470000D02*
X119810000Y-76080000D01*
X122480000Y-93410000D02*
X118690000Y-93410000D01*
X122480000Y-89867500D02*
X122480000Y-93410000D01*
X118690000Y-93410000D02*
X118420000Y-93140000D01*
%TO.N,PWM11*%
X118953194Y-77433194D02*
X120996806Y-77433194D01*
X121875000Y-93059000D02*
X118835388Y-93059000D01*
X121875000Y-89822500D02*
X121875000Y-93059000D01*
X118771000Y-92994612D02*
X118771000Y-77615388D01*
X118835388Y-93059000D02*
X118771000Y-92994612D01*
X120996806Y-77433194D02*
X122350000Y-76080000D01*
X118771000Y-77615388D02*
X118953194Y-77433194D01*
%TO.N,PWM10*%
X119122000Y-80328000D02*
X122070000Y-77380000D01*
X121225000Y-92708000D02*
X119122000Y-92708000D01*
X122070000Y-77380000D02*
X123590000Y-77380000D01*
X123590000Y-77380000D02*
X124890000Y-76080000D01*
X121225000Y-89822500D02*
X121225000Y-92708000D01*
X119122000Y-92708000D02*
X119122000Y-80328000D01*
%TO.N,PWM4*%
X123825000Y-83475484D02*
X128690484Y-78610000D01*
X128690484Y-78610000D02*
X137600000Y-78610000D01*
X123825000Y-84097500D02*
X123825000Y-83475484D01*
X137600000Y-78610000D02*
X140130000Y-76080000D01*
%TO.N,PWM6*%
X127977001Y-77908000D02*
X133222000Y-77908000D01*
X133222000Y-77908000D02*
X135050000Y-76080000D01*
X122525000Y-84097500D02*
X122525000Y-83360001D01*
X122525000Y-83360001D02*
X127977001Y-77908000D01*
D46*
%TO.N,Net-(J1-+)*%
X122753000Y-98314000D02*
X113611750Y-98314000D01*
X107530000Y-90025000D02*
X110880000Y-90025000D01*
X110880000Y-90025000D02*
X112879000Y-92024000D01*
X97930000Y-82930000D02*
X100149000Y-85149000D01*
X100149000Y-85149000D02*
X100512000Y-85149000D01*
D45*
X101188000Y-85150000D02*
X100513000Y-85150000D01*
D46*
X130002000Y-91065000D02*
X122753000Y-98314000D01*
X130002000Y-88098000D02*
X130002000Y-91065000D01*
X112879000Y-95801000D02*
X112879000Y-92024000D01*
X109860000Y-98820000D02*
X112879000Y-95801000D01*
X99183600Y-84183600D02*
X99183600Y-85025000D01*
X113105750Y-98820000D02*
X109860000Y-98820000D01*
X97930000Y-82930000D02*
X99183600Y-84183600D01*
X113611750Y-98314000D02*
X113105750Y-98820000D01*
D45*
X100513000Y-85150000D02*
X100512000Y-85149000D01*
D46*
X131200000Y-86900000D02*
X130002000Y-88098000D01*
D45*
%TO.N,Net-(U6-CAP)*%
X125140000Y-107230000D02*
X125553500Y-106816500D01*
X125553500Y-106816500D02*
X125553500Y-104414000D01*
X125553500Y-104414000D02*
X125479500Y-104340000D01*
X125479500Y-104340000D02*
X124915000Y-104340000D01*
%TO.N,+3V3*%
X123141000Y-105941000D02*
X123102500Y-105902500D01*
X117834000Y-105989000D02*
X118055000Y-106210000D01*
X129639000Y-107841000D02*
X122876550Y-107841000D01*
X140510000Y-107620000D02*
X132020530Y-107620000D01*
X123141000Y-107396550D02*
X123141000Y-105941000D01*
X118463000Y-103010000D02*
X117834000Y-103639000D01*
X122786550Y-107751000D02*
X123141000Y-107396550D01*
X129750000Y-107730000D02*
X129639000Y-107841000D01*
X123001500Y-105314000D02*
X121816000Y-105314000D01*
X118055000Y-106210000D02*
X119596000Y-107751000D01*
X119905000Y-103010000D02*
X118463000Y-103010000D01*
X117834000Y-103639000D02*
X117834000Y-105989000D01*
X123102500Y-105902500D02*
X123102500Y-105415000D01*
X122876550Y-107841000D02*
X122786550Y-107751000D01*
X119596000Y-107751000D02*
X122786550Y-107751000D01*
X132020530Y-107620000D02*
X131080265Y-108560265D01*
X123102500Y-105415000D02*
X123001500Y-105314000D01*
X121816000Y-105314000D02*
X121790000Y-105340000D01*
%TO.N,Net-(U6-XIN32)*%
X121151500Y-104914000D02*
X121225500Y-104840000D01*
X121225500Y-104840000D02*
X121790000Y-104840000D01*
X121151500Y-106043500D02*
X121151500Y-104914000D01*
X120025000Y-107170000D02*
X119863530Y-107170000D01*
X119863530Y-107170000D02*
X119096765Y-106403235D01*
X120025000Y-107170000D02*
X121151500Y-106043500D01*
D47*
%TO.N,Net-(U6-XOUT32{slash}CLKSEL1)*%
X118535000Y-104690000D02*
X118561000Y-104716000D01*
X119945000Y-105120000D02*
X119945000Y-104721000D01*
X119945000Y-104721000D02*
X119950000Y-104716000D01*
X119950000Y-104716000D02*
X120817756Y-104716000D01*
X118561000Y-104716000D02*
X119950000Y-104716000D01*
X120817756Y-104716000D02*
X121193756Y-104340000D01*
X121193756Y-104340000D02*
X121790000Y-104340000D01*
D45*
%TO.N,/BOOTN*%
X133260000Y-109510000D02*
X121790000Y-109510000D01*
X123570000Y-105870000D02*
X123602500Y-105902500D01*
X134130000Y-108640000D02*
X133260000Y-109510000D01*
X123570000Y-105020000D02*
X123570000Y-105870000D01*
%TO.N,Net-(U6-ENV_SCL)*%
X134786667Y-110110000D02*
X125760000Y-110110000D01*
D47*
X125429500Y-101340000D02*
X125760000Y-101670500D01*
D45*
X136256667Y-108640000D02*
X134786667Y-110110000D01*
D47*
X124915000Y-101340000D02*
X125429500Y-101340000D01*
X125760000Y-101670500D02*
X125760000Y-102480000D01*
D45*
%TO.N,Net-(U6-ENV_SDA)*%
X125917000Y-100693000D02*
X124524500Y-100693000D01*
X126080000Y-100530000D02*
X125917000Y-100693000D01*
X124102500Y-101115000D02*
X124102500Y-101277500D01*
X136313333Y-110710000D02*
X126610000Y-110710000D01*
X138383333Y-108640000D02*
X136313333Y-110710000D01*
X126477652Y-100530000D02*
X126080000Y-100530000D01*
X124524500Y-100693000D02*
X124102500Y-101115000D01*
D47*
%TO.N,Net-(U6-SA0{slash}H_MOSI)*%
X123602500Y-101277500D02*
X123602500Y-102518672D01*
X123602500Y-102518672D02*
X123691000Y-102607172D01*
D45*
%TO.N,/IMU_RST*%
X124276500Y-104266000D02*
X124276500Y-103914000D01*
X124079943Y-104680000D02*
X124150000Y-104680000D01*
X124276500Y-104553500D02*
X124276500Y-104266000D01*
X122690000Y-104680000D02*
X123060057Y-104680000D01*
X124276500Y-103414000D02*
X124915000Y-103414000D01*
X124276500Y-103914000D02*
X124276500Y-103414000D01*
X123321057Y-104419000D02*
X123818943Y-104419000D01*
X124150000Y-104680000D02*
X124276500Y-104553500D01*
X123818943Y-104419000D02*
X124079943Y-104680000D01*
X124915000Y-103414000D02*
X124915000Y-103340000D01*
X123060057Y-104680000D02*
X123321057Y-104419000D01*
D47*
%TO.N,/IMU_INT*%
X124400500Y-101840000D02*
X124301500Y-101939000D01*
X124301500Y-103038000D02*
X124071804Y-103038000D01*
X124071804Y-103038000D02*
X123290000Y-103819804D01*
X124915000Y-101840000D02*
X124400500Y-101840000D01*
X124301500Y-101939000D02*
X124301500Y-103038000D01*
D45*
%TO.N,/SDA{slash}8*%
X122770000Y-99891000D02*
X122770000Y-100028400D01*
X122770000Y-100028400D02*
X122274200Y-100524200D01*
X121790000Y-101008400D02*
X122274200Y-100524200D01*
X122274200Y-100524200D02*
X122828400Y-99970000D01*
X125330000Y-99771000D02*
X125330000Y-97300000D01*
X125330000Y-99771000D02*
X125210000Y-99891000D01*
X127654999Y-91280000D02*
X126870000Y-91280000D01*
X128375000Y-89822500D02*
X128375000Y-90559999D01*
X125210000Y-99891000D02*
X122770000Y-99891000D01*
X121790000Y-101340000D02*
X121790000Y-101008400D01*
X128375000Y-90559999D02*
X127654999Y-91280000D01*
%TO.N,/SCL{slash}9*%
X127725000Y-90495000D02*
X127359000Y-90861000D01*
X122602500Y-100763000D02*
X122602500Y-101277500D01*
X125670798Y-96350798D02*
X125930000Y-96610000D01*
X127725000Y-89822500D02*
X127725000Y-90495000D01*
X125376100Y-100292000D02*
X123073500Y-100292000D01*
X125931000Y-97051057D02*
X125931000Y-97548943D01*
X125731000Y-97748943D02*
X125731000Y-99501000D01*
X125740000Y-99928100D02*
X125376100Y-100292000D01*
X125731000Y-99501000D02*
X125740000Y-99510000D01*
X125640000Y-90861000D02*
X125610000Y-90891000D01*
X125610000Y-90891000D02*
X125610000Y-93186000D01*
X125930000Y-96610000D02*
X125930000Y-97050057D01*
X125930000Y-97050057D02*
X125931000Y-97051057D01*
X125931000Y-97548943D02*
X125731000Y-97748943D01*
X127359000Y-90861000D02*
X125640000Y-90861000D01*
X125740000Y-99510000D02*
X125740000Y-99928100D01*
X123073500Y-100292000D02*
X122602500Y-100763000D01*
%TD*%
%TA.AperFunction,Conductor*%
%TO.N,GND*%
G36*
X100789855Y-89174937D02*
G01*
X100834202Y-89203438D01*
X100931284Y-89300520D01*
X100931286Y-89300521D01*
X100931290Y-89300524D01*
X101053152Y-89370880D01*
X101068216Y-89379577D01*
X101220943Y-89420500D01*
X104964837Y-89420500D01*
X105031876Y-89440185D01*
X105077631Y-89492989D01*
X105087575Y-89562147D01*
X105058550Y-89625703D01*
X105052518Y-89632181D01*
X103373962Y-91310735D01*
X103312639Y-91344220D01*
X103242947Y-91339236D01*
X103187014Y-91297364D01*
X103184179Y-91293200D01*
X103182711Y-91291343D01*
X103058657Y-91167289D01*
X103058656Y-91167288D01*
X102923269Y-91083781D01*
X102909336Y-91075187D01*
X102909331Y-91075185D01*
X102882614Y-91066332D01*
X102742797Y-91020001D01*
X102742795Y-91020000D01*
X102640010Y-91009500D01*
X101889998Y-91009500D01*
X101889980Y-91009501D01*
X101787203Y-91020000D01*
X101787200Y-91020001D01*
X101620668Y-91075185D01*
X101620663Y-91075187D01*
X101471342Y-91167289D01*
X101347289Y-91291342D01*
X101255187Y-91440663D01*
X101255185Y-91440668D01*
X101241382Y-91482323D01*
X101200001Y-91607203D01*
X101200001Y-91607204D01*
X101200000Y-91607204D01*
X101192455Y-91681060D01*
X101166058Y-91745751D01*
X101108877Y-91785902D01*
X101039066Y-91788765D01*
X100978790Y-91753430D01*
X100951391Y-91707460D01*
X100924358Y-91625880D01*
X100924356Y-91625875D01*
X100832315Y-91476654D01*
X100708345Y-91352684D01*
X100559124Y-91260643D01*
X100559119Y-91260641D01*
X100392697Y-91205494D01*
X100392690Y-91205493D01*
X100289986Y-91195000D01*
X100240000Y-91195000D01*
X100240000Y-93644999D01*
X100289972Y-93644999D01*
X100289986Y-93644998D01*
X100392697Y-93634505D01*
X100559119Y-93579358D01*
X100559124Y-93579356D01*
X100708345Y-93487315D01*
X100832315Y-93363345D01*
X100924356Y-93214124D01*
X100924359Y-93214117D01*
X100952953Y-93127824D01*
X100992724Y-93070379D01*
X101057240Y-93043555D01*
X101126016Y-93055869D01*
X101177216Y-93103412D01*
X101194017Y-93154224D01*
X101200001Y-93212797D01*
X101200001Y-93212799D01*
X101248878Y-93360299D01*
X101255186Y-93379334D01*
X101347288Y-93528656D01*
X101471344Y-93652712D01*
X101620666Y-93744814D01*
X101787203Y-93799999D01*
X101889991Y-93810500D01*
X102640008Y-93810499D01*
X102640016Y-93810498D01*
X102640019Y-93810498D01*
X102696302Y-93804748D01*
X102742797Y-93799999D01*
X102909334Y-93744814D01*
X103058656Y-93652712D01*
X103182712Y-93528656D01*
X103274814Y-93379334D01*
X103329999Y-93212797D01*
X103334665Y-93167117D01*
X103361060Y-93102427D01*
X103418240Y-93062275D01*
X103422034Y-93061057D01*
X103427018Y-93059544D01*
X103427036Y-93059541D01*
X103549969Y-93008620D01*
X103660606Y-92934695D01*
X103928322Y-92666978D01*
X103989641Y-92633496D01*
X104059333Y-92638480D01*
X104115267Y-92680351D01*
X104139684Y-92745815D01*
X104140000Y-92754662D01*
X104140000Y-93109971D01*
X104140001Y-93109987D01*
X104150494Y-93212697D01*
X104205641Y-93379119D01*
X104205643Y-93379124D01*
X104297684Y-93528345D01*
X104421654Y-93652315D01*
X104570875Y-93744356D01*
X104570880Y-93744358D01*
X104737302Y-93799505D01*
X104737309Y-93799506D01*
X104840019Y-93809999D01*
X104964999Y-93809999D01*
X104965000Y-93809998D01*
X104965000Y-92534000D01*
X104984685Y-92466961D01*
X105037489Y-92421206D01*
X105089000Y-92410000D01*
X105341000Y-92410000D01*
X105408039Y-92429685D01*
X105453794Y-92482489D01*
X105465000Y-92534000D01*
X105465000Y-93809999D01*
X105589972Y-93809999D01*
X105589986Y-93809998D01*
X105692697Y-93799505D01*
X105859119Y-93744358D01*
X105859124Y-93744356D01*
X106008344Y-93652316D01*
X106025959Y-93634701D01*
X106087281Y-93601214D01*
X106156973Y-93606197D01*
X106212907Y-93648067D01*
X106219181Y-93657284D01*
X106287682Y-93768343D01*
X106411654Y-93892315D01*
X106560875Y-93984356D01*
X106560880Y-93984358D01*
X106727302Y-94039505D01*
X106727309Y-94039506D01*
X106830019Y-94049999D01*
X107279999Y-94049999D01*
X107780000Y-94049999D01*
X108229972Y-94049999D01*
X108229986Y-94049998D01*
X108332697Y-94039505D01*
X108499119Y-93984358D01*
X108499124Y-93984356D01*
X108648345Y-93892315D01*
X108772315Y-93768345D01*
X108864356Y-93619124D01*
X108864358Y-93619119D01*
X108919505Y-93452697D01*
X108919506Y-93452690D01*
X108929999Y-93349986D01*
X109480001Y-93349986D01*
X109490494Y-93452697D01*
X109545641Y-93619119D01*
X109545643Y-93619124D01*
X109637684Y-93768345D01*
X109761654Y-93892315D01*
X109910875Y-93984356D01*
X109910880Y-93984358D01*
X110077302Y-94039505D01*
X110077309Y-94039506D01*
X110180019Y-94049999D01*
X110629999Y-94049999D01*
X110630000Y-94049998D01*
X110630000Y-93225000D01*
X109480001Y-93225000D01*
X109480001Y-93349986D01*
X108929999Y-93349986D01*
X108930000Y-93349973D01*
X108930000Y-93225000D01*
X107780000Y-93225000D01*
X107780000Y-94049999D01*
X107279999Y-94049999D01*
X107280000Y-94049998D01*
X107280000Y-92725000D01*
X107780000Y-92725000D01*
X108929999Y-92725000D01*
X108929999Y-92600029D01*
X108929998Y-92600013D01*
X109480000Y-92600013D01*
X109480000Y-92725000D01*
X110630000Y-92725000D01*
X110630000Y-91900000D01*
X110180028Y-91900000D01*
X110180012Y-91900001D01*
X110077302Y-91910494D01*
X109910880Y-91965641D01*
X109910875Y-91965643D01*
X109761654Y-92057684D01*
X109637684Y-92181654D01*
X109545643Y-92330875D01*
X109545641Y-92330880D01*
X109490494Y-92497302D01*
X109490493Y-92497309D01*
X109480000Y-92600013D01*
X108929998Y-92600013D01*
X108929998Y-92600012D01*
X108919505Y-92497302D01*
X108864358Y-92330880D01*
X108864356Y-92330875D01*
X108772315Y-92181654D01*
X108648345Y-92057684D01*
X108499124Y-91965643D01*
X108499119Y-91965641D01*
X108332697Y-91910494D01*
X108332690Y-91910493D01*
X108229986Y-91900000D01*
X107780000Y-91900000D01*
X107780000Y-92725000D01*
X107280000Y-92725000D01*
X107280000Y-91900000D01*
X106830028Y-91900000D01*
X106830012Y-91900001D01*
X106727302Y-91910494D01*
X106560880Y-91965641D01*
X106560875Y-91965643D01*
X106479096Y-92016086D01*
X106411703Y-92034526D01*
X106345040Y-92013603D01*
X106300270Y-91959961D01*
X106289999Y-91910547D01*
X106289999Y-91710028D01*
X106289998Y-91710013D01*
X106279505Y-91607302D01*
X106224358Y-91440880D01*
X106224356Y-91440875D01*
X106132315Y-91291654D01*
X106008345Y-91167684D01*
X105859124Y-91075643D01*
X105859121Y-91075642D01*
X105794976Y-91054386D01*
X105737531Y-91014612D01*
X105710709Y-90950096D01*
X105723025Y-90881320D01*
X105746297Y-90849003D01*
X105986029Y-90609270D01*
X106047350Y-90575787D01*
X106117042Y-90580771D01*
X106172975Y-90622643D01*
X106191414Y-90657950D01*
X106195114Y-90669119D01*
X106195186Y-90669334D01*
X106287288Y-90818656D01*
X106411344Y-90942712D01*
X106560666Y-91034814D01*
X106727203Y-91089999D01*
X106829991Y-91100500D01*
X108230008Y-91100499D01*
X108332797Y-91089999D01*
X108499334Y-91034814D01*
X108648656Y-90942712D01*
X108772712Y-90818656D01*
X108809259Y-90759402D01*
X108861207Y-90712679D01*
X108914798Y-90700500D01*
X109495202Y-90700500D01*
X109562241Y-90720185D01*
X109600739Y-90759401D01*
X109637288Y-90818656D01*
X109761344Y-90942712D01*
X109910666Y-91034814D01*
X110077203Y-91089999D01*
X110179991Y-91100500D01*
X110948836Y-91100499D01*
X111015875Y-91120183D01*
X111036517Y-91136818D01*
X111588018Y-91688319D01*
X111621503Y-91749642D01*
X111616519Y-91819334D01*
X111574647Y-91875267D01*
X111509183Y-91899684D01*
X111500337Y-91900000D01*
X111130000Y-91900000D01*
X111130000Y-94049999D01*
X111579972Y-94049999D01*
X111579986Y-94049998D01*
X111682697Y-94039505D01*
X111849119Y-93984358D01*
X111849124Y-93984356D01*
X111998342Y-93892317D01*
X112002587Y-93888961D01*
X112067382Y-93862820D01*
X112136024Y-93875858D01*
X112186720Y-93923938D01*
X112203500Y-93986226D01*
X112203500Y-95469836D01*
X112183815Y-95536875D01*
X112167181Y-95557517D01*
X111299517Y-96425181D01*
X111238194Y-96458666D01*
X111211836Y-96461500D01*
X107954129Y-96461500D01*
X107954123Y-96461501D01*
X107894516Y-96467908D01*
X107759671Y-96518202D01*
X107759664Y-96518206D01*
X107644455Y-96604452D01*
X107644452Y-96604455D01*
X107558206Y-96719664D01*
X107558202Y-96719671D01*
X107507908Y-96854517D01*
X107501501Y-96914116D01*
X107501500Y-96914135D01*
X107501500Y-100725870D01*
X107501501Y-100725876D01*
X107507908Y-100785483D01*
X107558202Y-100920328D01*
X107558206Y-100920335D01*
X107644452Y-101035544D01*
X107644455Y-101035547D01*
X107759664Y-101121793D01*
X107759671Y-101121797D01*
X107894517Y-101172091D01*
X107894516Y-101172091D01*
X107901444Y-101172835D01*
X107954127Y-101178500D01*
X111765872Y-101178499D01*
X111825483Y-101172091D01*
X111960331Y-101121796D01*
X112075546Y-101035546D01*
X112161796Y-100920331D01*
X112212091Y-100785483D01*
X112218500Y-100725873D01*
X112218500Y-99619500D01*
X112238185Y-99552461D01*
X112290989Y-99506706D01*
X112342500Y-99495500D01*
X113172282Y-99495500D01*
X113172283Y-99495499D01*
X113302786Y-99469541D01*
X113425719Y-99418620D01*
X113536356Y-99344695D01*
X113855232Y-99025819D01*
X113916555Y-98992334D01*
X113942913Y-98989500D01*
X116670500Y-98989500D01*
X116737539Y-99009185D01*
X116783294Y-99061989D01*
X116794500Y-99113500D01*
X116794500Y-99677870D01*
X116794501Y-99677876D01*
X116800908Y-99737483D01*
X116851202Y-99872328D01*
X116851206Y-99872335D01*
X116937452Y-99987544D01*
X116937455Y-99987547D01*
X117052664Y-100073793D01*
X117052671Y-100073797D01*
X117187517Y-100124091D01*
X117187516Y-100124091D01*
X117194444Y-100124835D01*
X117247127Y-100130500D01*
X118342872Y-100130499D01*
X118402483Y-100124091D01*
X118537331Y-100073796D01*
X118537333Y-100073794D01*
X118545640Y-100070696D01*
X118546225Y-100072265D01*
X118604367Y-100059616D01*
X118644207Y-100071312D01*
X118644602Y-100070253D01*
X118787623Y-100123597D01*
X118787627Y-100123598D01*
X118847155Y-100129999D01*
X118847172Y-100130000D01*
X119145000Y-100130000D01*
X119645000Y-100130000D01*
X119942828Y-100130000D01*
X119942844Y-100129999D01*
X120002372Y-100123598D01*
X120002379Y-100123596D01*
X120137086Y-100073354D01*
X120137093Y-100073350D01*
X120252187Y-99987190D01*
X120252190Y-99987187D01*
X120338350Y-99872093D01*
X120338354Y-99872086D01*
X120388596Y-99737379D01*
X120388598Y-99737372D01*
X120394999Y-99677844D01*
X120395000Y-99677827D01*
X120395000Y-99430000D01*
X119645000Y-99430000D01*
X119645000Y-100130000D01*
X119145000Y-100130000D01*
X119145000Y-99304000D01*
X119164685Y-99236961D01*
X119217489Y-99191206D01*
X119269000Y-99180000D01*
X119395000Y-99180000D01*
X119395000Y-99113500D01*
X119414685Y-99046461D01*
X119467489Y-99000706D01*
X119519000Y-98989500D01*
X121600500Y-98989500D01*
X121667539Y-99009185D01*
X121713294Y-99061989D01*
X121724500Y-99113500D01*
X121724500Y-99637870D01*
X121724501Y-99637876D01*
X121730908Y-99697483D01*
X121781202Y-99832328D01*
X121781204Y-99832331D01*
X121860500Y-99938257D01*
X121884917Y-100003721D01*
X121870065Y-100071994D01*
X121848914Y-100100249D01*
X121421286Y-100527878D01*
X121309481Y-100639682D01*
X121309477Y-100639687D01*
X121273503Y-100701998D01*
X121273500Y-100702004D01*
X121261712Y-100722419D01*
X121217236Y-100765848D01*
X121217268Y-100765890D01*
X121216949Y-100766128D01*
X121213762Y-100769241D01*
X121210174Y-100771200D01*
X121210169Y-100771204D01*
X121094954Y-100857454D01*
X121094953Y-100857455D01*
X121094952Y-100857456D01*
X121008706Y-100972664D01*
X121008702Y-100972671D01*
X120970890Y-101074053D01*
X120958409Y-101107517D01*
X120952000Y-101167127D01*
X120952000Y-101167134D01*
X120952000Y-101167135D01*
X120952000Y-101512869D01*
X120952001Y-101512879D01*
X120958867Y-101576751D01*
X120959459Y-101595416D01*
X120958999Y-101605933D01*
X120958409Y-101607517D01*
X120952000Y-101667127D01*
X120952000Y-101766109D01*
X120951882Y-101768817D01*
X120941424Y-101799419D01*
X120932315Y-101830443D01*
X120930195Y-101832279D01*
X120929289Y-101834933D01*
X120903943Y-101855027D01*
X120879511Y-101876198D01*
X120876736Y-101876596D01*
X120874538Y-101878340D01*
X120842357Y-101881540D01*
X120810353Y-101886142D01*
X120807801Y-101884976D01*
X120805012Y-101885254D01*
X120776219Y-101870553D01*
X120746797Y-101857117D01*
X120745280Y-101854757D01*
X120742784Y-101853483D01*
X120726505Y-101825542D01*
X120709023Y-101798339D01*
X120708923Y-101797998D01*
X120667031Y-101653804D01*
X120584721Y-101514625D01*
X120584714Y-101514616D01*
X120470383Y-101400285D01*
X120470374Y-101400278D01*
X120331195Y-101317968D01*
X120331190Y-101317966D01*
X120175918Y-101272855D01*
X120175912Y-101272854D01*
X120155000Y-101271209D01*
X120155000Y-101926000D01*
X120135315Y-101993039D01*
X120082511Y-102038794D01*
X120031000Y-102050000D01*
X119905000Y-102050000D01*
X119905000Y-102105500D01*
X119885315Y-102172539D01*
X119832511Y-102218294D01*
X119781000Y-102229500D01*
X119670302Y-102229500D01*
X119634008Y-102232356D01*
X119634002Y-102232357D01*
X119478610Y-102277503D01*
X119478605Y-102277506D01*
X119469766Y-102282732D01*
X119406648Y-102300000D01*
X119100495Y-102300000D01*
X119086037Y-102319255D01*
X119086033Y-102320774D01*
X119048091Y-102379444D01*
X118984453Y-102408288D01*
X118967156Y-102409500D01*
X118383939Y-102409500D01*
X118359940Y-102415930D01*
X118359941Y-102415931D01*
X118231214Y-102450423D01*
X118231209Y-102450426D01*
X118094290Y-102529475D01*
X118094282Y-102529481D01*
X117353481Y-103270282D01*
X117353479Y-103270285D01*
X117306261Y-103352071D01*
X117306258Y-103352076D01*
X117291576Y-103377504D01*
X117241007Y-103425718D01*
X117184191Y-103439500D01*
X116587129Y-103439500D01*
X116587123Y-103439501D01*
X116527516Y-103445908D01*
X116392671Y-103496202D01*
X116392664Y-103496206D01*
X116277455Y-103582452D01*
X116277452Y-103582455D01*
X116191206Y-103697664D01*
X116191202Y-103697671D01*
X116140908Y-103832517D01*
X116134501Y-103892116D01*
X116134500Y-103892135D01*
X116134500Y-105487870D01*
X116134501Y-105487876D01*
X116140908Y-105547483D01*
X116191202Y-105682328D01*
X116191206Y-105682335D01*
X116277452Y-105797544D01*
X116277455Y-105797547D01*
X116392664Y-105883793D01*
X116392671Y-105883797D01*
X116429795Y-105897643D01*
X116527517Y-105934091D01*
X116587127Y-105940500D01*
X117109499Y-105940499D01*
X117176538Y-105960183D01*
X117222293Y-106012987D01*
X117231527Y-106042470D01*
X117233499Y-106053393D01*
X117233499Y-106068057D01*
X117241611Y-106098332D01*
X117242528Y-106103409D01*
X117242110Y-106107291D01*
X117244500Y-106125438D01*
X117244500Y-106414697D01*
X117247356Y-106450991D01*
X117247357Y-106450997D01*
X117292504Y-106606390D01*
X117292507Y-106606397D01*
X117304910Y-106627370D01*
X117322093Y-106695094D01*
X117304912Y-106753608D01*
X117292968Y-106773804D01*
X117250496Y-106920000D01*
X117556648Y-106920000D01*
X117619766Y-106937267D01*
X117628605Y-106942494D01*
X117628608Y-106942494D01*
X117628610Y-106942496D01*
X117784002Y-106987642D01*
X117784005Y-106987642D01*
X117784007Y-106987643D01*
X117820310Y-106990500D01*
X117931000Y-106990500D01*
X117998039Y-107010185D01*
X118043794Y-107062989D01*
X118055000Y-107114500D01*
X118055000Y-107170000D01*
X118114403Y-107170000D01*
X118143843Y-107178644D01*
X118173830Y-107185168D01*
X118178845Y-107188922D01*
X118181442Y-107189685D01*
X118202084Y-107206319D01*
X118268681Y-107272916D01*
X118302166Y-107334239D01*
X118305000Y-107360597D01*
X118305000Y-107948789D01*
X118325910Y-107947145D01*
X118481195Y-107902031D01*
X118620374Y-107819721D01*
X118620382Y-107819715D01*
X118630247Y-107809850D01*
X118691569Y-107776363D01*
X118761261Y-107781345D01*
X118805612Y-107809847D01*
X119093584Y-108097819D01*
X119127069Y-108159142D01*
X119122085Y-108228834D01*
X119080213Y-108284767D01*
X119014749Y-108309184D01*
X119005903Y-108309500D01*
X116704575Y-108309500D01*
X116637536Y-108289815D01*
X116629101Y-108283885D01*
X116530289Y-108208064D01*
X116481308Y-108179785D01*
X116320214Y-108086777D01*
X116320205Y-108086773D01*
X116096104Y-107993947D01*
X115861785Y-107931161D01*
X115621289Y-107899500D01*
X115621288Y-107899500D01*
X115378712Y-107899500D01*
X115378711Y-107899500D01*
X115138214Y-107931161D01*
X114903895Y-107993947D01*
X114679794Y-108086773D01*
X114679785Y-108086777D01*
X114469710Y-108208064D01*
X114427850Y-108240185D01*
X114370909Y-108283876D01*
X114305742Y-108309070D01*
X114295425Y-108309500D01*
X111073242Y-108309500D01*
X111006203Y-108289815D01*
X110960448Y-108237011D01*
X110950504Y-108167853D01*
X110979529Y-108104297D01*
X111011242Y-108078113D01*
X111172845Y-107984811D01*
X111341694Y-107855247D01*
X110621717Y-107135270D01*
X110739466Y-107049722D01*
X110889722Y-106899466D01*
X110975270Y-106781717D01*
X111695247Y-107501694D01*
X111757934Y-107420000D01*
X117250496Y-107420000D01*
X117292968Y-107566195D01*
X117375278Y-107705374D01*
X117375285Y-107705383D01*
X117489616Y-107819714D01*
X117489625Y-107819721D01*
X117628804Y-107902031D01*
X117784089Y-107947145D01*
X117805000Y-107948789D01*
X117805000Y-107420000D01*
X117250496Y-107420000D01*
X111757934Y-107420000D01*
X111824811Y-107332845D01*
X111979361Y-107065156D01*
X111979365Y-107065147D01*
X112097652Y-106779577D01*
X112177651Y-106481012D01*
X112177653Y-106481001D01*
X112217999Y-106174558D01*
X112218000Y-106174544D01*
X112218000Y-105865455D01*
X112217999Y-105865441D01*
X112177653Y-105558998D01*
X112177651Y-105558987D01*
X112097652Y-105260422D01*
X111979365Y-104974852D01*
X111979361Y-104974842D01*
X111824815Y-104707159D01*
X111695247Y-104538304D01*
X110975270Y-105258281D01*
X110889722Y-105140534D01*
X110739466Y-104990278D01*
X110621716Y-104904728D01*
X111341694Y-104184751D01*
X111341694Y-104184750D01*
X111172844Y-104055187D01*
X110905157Y-103900638D01*
X110905147Y-103900634D01*
X110619577Y-103782347D01*
X110321012Y-103702348D01*
X110321001Y-103702346D01*
X110014558Y-103662000D01*
X109705441Y-103662000D01*
X109398998Y-103702346D01*
X109398987Y-103702348D01*
X109100422Y-103782347D01*
X108814852Y-103900634D01*
X108814842Y-103900638D01*
X108547155Y-104055187D01*
X108378304Y-104184750D01*
X108378304Y-104184751D01*
X109098282Y-104904729D01*
X108980534Y-104990278D01*
X108830278Y-105140534D01*
X108744729Y-105258282D01*
X108024751Y-104538304D01*
X108024750Y-104538304D01*
X107895187Y-104707155D01*
X107740638Y-104974842D01*
X107740634Y-104974852D01*
X107622347Y-105260422D01*
X107542348Y-105558987D01*
X107542346Y-105558998D01*
X107502000Y-105865441D01*
X107502000Y-106174558D01*
X107542346Y-106481001D01*
X107542348Y-106481012D01*
X107622347Y-106779577D01*
X107740634Y-107065147D01*
X107740638Y-107065157D01*
X107895187Y-107332844D01*
X108024751Y-107501694D01*
X108744728Y-106781716D01*
X108830278Y-106899466D01*
X108980534Y-107049722D01*
X109098281Y-107135270D01*
X108378304Y-107855247D01*
X108547159Y-107984815D01*
X108708757Y-108078113D01*
X108756973Y-108128680D01*
X108770196Y-108197287D01*
X108744228Y-108262152D01*
X108687314Y-108302680D01*
X108646757Y-108309500D01*
X108450098Y-108309500D01*
X108383059Y-108289815D01*
X108362417Y-108273181D01*
X101889236Y-101800000D01*
X119100496Y-101800000D01*
X119655000Y-101800000D01*
X119655000Y-101271210D01*
X119654999Y-101271209D01*
X119634087Y-101272854D01*
X119634081Y-101272855D01*
X119478809Y-101317966D01*
X119478804Y-101317968D01*
X119339625Y-101400278D01*
X119339616Y-101400285D01*
X119225285Y-101514616D01*
X119225278Y-101514625D01*
X119142968Y-101653804D01*
X119100496Y-101800000D01*
X101889236Y-101800000D01*
X97686819Y-97597583D01*
X97653334Y-97536260D01*
X97650500Y-97509902D01*
X97650500Y-95583389D01*
X102159500Y-95583389D01*
X102159500Y-95756611D01*
X102163335Y-95780823D01*
X102180181Y-95887190D01*
X102186598Y-95927701D01*
X102229252Y-96058976D01*
X102240128Y-96092447D01*
X102247968Y-96107834D01*
X102318768Y-96246788D01*
X102420586Y-96386928D01*
X102543072Y-96509414D01*
X102683212Y-96611232D01*
X102837555Y-96689873D01*
X103002299Y-96743402D01*
X103173389Y-96770500D01*
X103173390Y-96770500D01*
X104546610Y-96770500D01*
X104546611Y-96770500D01*
X104717701Y-96743402D01*
X104882445Y-96689873D01*
X105036788Y-96611232D01*
X105176928Y-96509414D01*
X105299414Y-96386928D01*
X105401232Y-96246788D01*
X105479873Y-96092445D01*
X105533402Y-95927701D01*
X105560500Y-95756611D01*
X105560500Y-95583389D01*
X105533402Y-95412299D01*
X105479873Y-95247555D01*
X105401232Y-95093212D01*
X105299414Y-94953072D01*
X105176928Y-94830586D01*
X105036788Y-94728768D01*
X104882445Y-94650127D01*
X104717701Y-94596598D01*
X104717699Y-94596597D01*
X104717698Y-94596597D01*
X104586271Y-94575781D01*
X104546611Y-94569500D01*
X103173389Y-94569500D01*
X103133728Y-94575781D01*
X103002302Y-94596597D01*
X102837552Y-94650128D01*
X102683211Y-94728768D01*
X102606772Y-94784305D01*
X102543072Y-94830586D01*
X102543070Y-94830588D01*
X102543069Y-94830588D01*
X102420588Y-94953069D01*
X102420588Y-94953070D01*
X102420586Y-94953072D01*
X102419912Y-94954000D01*
X102318768Y-95093211D01*
X102240128Y-95247552D01*
X102186597Y-95412302D01*
X102166624Y-95538409D01*
X102159500Y-95583389D01*
X97650500Y-95583389D01*
X97650500Y-93768563D01*
X97670185Y-93701524D01*
X97722989Y-93655769D01*
X97787103Y-93645205D01*
X97789991Y-93645500D01*
X98390008Y-93645499D01*
X98390016Y-93645498D01*
X98390019Y-93645498D01*
X98446302Y-93639748D01*
X98492797Y-93634999D01*
X98659334Y-93579814D01*
X98808656Y-93487712D01*
X98932712Y-93363656D01*
X98934752Y-93360347D01*
X98936745Y-93358555D01*
X98937193Y-93357989D01*
X98937289Y-93358065D01*
X98986694Y-93313623D01*
X99055656Y-93302395D01*
X99119740Y-93330234D01*
X99145829Y-93360339D01*
X99147681Y-93363341D01*
X99147683Y-93363344D01*
X99271654Y-93487315D01*
X99420875Y-93579356D01*
X99420880Y-93579358D01*
X99587302Y-93634505D01*
X99587309Y-93634506D01*
X99690019Y-93644999D01*
X99739999Y-93644998D01*
X99740000Y-93644998D01*
X99740000Y-91195000D01*
X99739999Y-91194999D01*
X99690029Y-91195000D01*
X99690011Y-91195001D01*
X99587302Y-91205494D01*
X99420880Y-91260641D01*
X99420875Y-91260643D01*
X99271654Y-91352684D01*
X99147683Y-91476655D01*
X99147679Y-91476660D01*
X99145826Y-91479665D01*
X99144018Y-91481290D01*
X99143202Y-91482323D01*
X99143025Y-91482183D01*
X99093874Y-91526385D01*
X99024911Y-91537601D01*
X98960831Y-91509752D01*
X98934753Y-91479653D01*
X98934462Y-91479182D01*
X98932712Y-91476344D01*
X98808656Y-91352288D01*
X98808652Y-91352285D01*
X98757406Y-91320676D01*
X98710681Y-91268728D01*
X98699460Y-91199766D01*
X98727303Y-91135684D01*
X98734811Y-91127468D01*
X100658842Y-89203436D01*
X100720163Y-89169953D01*
X100789855Y-89174937D01*
G37*
%TD.AperFunction*%
%TA.AperFunction,Conductor*%
G36*
X124365426Y-106317171D02*
G01*
X124414832Y-106366576D01*
X124430000Y-106426004D01*
X124430000Y-106731645D01*
X124412734Y-106794763D01*
X124407507Y-106803600D01*
X124407504Y-106803608D01*
X124362357Y-106959002D01*
X124362356Y-106959008D01*
X124359500Y-106995302D01*
X124359500Y-107106000D01*
X124356949Y-107114685D01*
X124358238Y-107123647D01*
X124347259Y-107147687D01*
X124339815Y-107173039D01*
X124332974Y-107178966D01*
X124329213Y-107187203D01*
X124306978Y-107201492D01*
X124287011Y-107218794D01*
X124276496Y-107221081D01*
X124270435Y-107224977D01*
X124235500Y-107230000D01*
X124054000Y-107230000D01*
X123986961Y-107210315D01*
X123941206Y-107157511D01*
X123930000Y-107106000D01*
X123930000Y-106725683D01*
X123949685Y-106658644D01*
X123979689Y-106626417D01*
X124081924Y-106549883D01*
X124085046Y-106547546D01*
X124171296Y-106432331D01*
X124189818Y-106382672D01*
X124231689Y-106326738D01*
X124297153Y-106302320D01*
X124365426Y-106317171D01*
G37*
%TD.AperFunction*%
%TA.AperFunction,Conductor*%
G36*
X122064127Y-106485184D02*
G01*
X122096354Y-106515187D01*
X122120312Y-106547190D01*
X122235406Y-106633350D01*
X122235413Y-106633354D01*
X122370120Y-106683596D01*
X122370119Y-106683596D01*
X122429755Y-106690008D01*
X122431875Y-106690886D01*
X122434147Y-106690560D01*
X122463986Y-106704187D01*
X122494306Y-106716746D01*
X122495615Y-106718631D01*
X122497703Y-106719585D01*
X122515446Y-106747194D01*
X122534154Y-106774139D01*
X122534623Y-106777034D01*
X122535477Y-106778363D01*
X122540500Y-106813298D01*
X122540500Y-106903607D01*
X122520815Y-106970646D01*
X122468011Y-107016401D01*
X122463954Y-107018168D01*
X122407371Y-107041606D01*
X122407364Y-107041609D01*
X122275675Y-107129602D01*
X122208997Y-107150480D01*
X122206784Y-107150500D01*
X121193097Y-107150500D01*
X121126058Y-107130815D01*
X121080303Y-107078011D01*
X121070359Y-107008853D01*
X121099384Y-106945297D01*
X121105416Y-106938819D01*
X121542417Y-106501818D01*
X121603740Y-106468333D01*
X121630098Y-106465499D01*
X121997088Y-106465499D01*
X122064127Y-106485184D01*
G37*
%TD.AperFunction*%
%TA.AperFunction,Conductor*%
G36*
X132542134Y-94938810D02*
G01*
X132598067Y-94980682D01*
X132622484Y-95046146D01*
X132622800Y-95054992D01*
X132622800Y-96359000D01*
X132603115Y-96426039D01*
X132550311Y-96471794D01*
X132498801Y-96483000D01*
X132371730Y-96483000D01*
X132371723Y-96483001D01*
X132312116Y-96489408D01*
X132177271Y-96539702D01*
X132177264Y-96539706D01*
X132062055Y-96625952D01*
X132062052Y-96625955D01*
X131975806Y-96741164D01*
X131975802Y-96741171D01*
X131925508Y-96876017D01*
X131919101Y-96935616D01*
X131919100Y-96935635D01*
X131919100Y-100442518D01*
X131899415Y-100509557D01*
X131846611Y-100555312D01*
X131781844Y-100565807D01*
X131727844Y-100560000D01*
X130830000Y-100560000D01*
X130830000Y-103160000D01*
X131727828Y-103160000D01*
X131727841Y-103159999D01*
X131784043Y-103153956D01*
X131852803Y-103166360D01*
X131903941Y-103213970D01*
X131921300Y-103277245D01*
X131921300Y-104466245D01*
X131901615Y-104533284D01*
X131848811Y-104579039D01*
X131779653Y-104588983D01*
X131753968Y-104582427D01*
X131657383Y-104546403D01*
X131657372Y-104546401D01*
X131597844Y-104540000D01*
X130700000Y-104540000D01*
X130700000Y-105716000D01*
X130680315Y-105783039D01*
X130627511Y-105828794D01*
X130576000Y-105840000D01*
X130324000Y-105840000D01*
X130256961Y-105820315D01*
X130211206Y-105767511D01*
X130200000Y-105716000D01*
X130200000Y-104540000D01*
X129834961Y-104540000D01*
X129767922Y-104520315D01*
X129722167Y-104467511D01*
X129712223Y-104398353D01*
X129713344Y-104391809D01*
X129731499Y-104300534D01*
X129731500Y-104300532D01*
X129731500Y-103284000D01*
X129751185Y-103216961D01*
X129803989Y-103171206D01*
X129855500Y-103160000D01*
X130330000Y-103160000D01*
X130330000Y-100560000D01*
X130320331Y-100550331D01*
X130286846Y-100489008D01*
X130291830Y-100419316D01*
X130317297Y-100379699D01*
X130316830Y-100379316D01*
X130320122Y-100375304D01*
X130320348Y-100374952D01*
X130320695Y-100374606D01*
X130394620Y-100263969D01*
X130445540Y-100141036D01*
X130459274Y-100071994D01*
X130471500Y-100010533D01*
X130471500Y-99644999D01*
X130920000Y-99644999D01*
X130926581Y-99644999D01*
X130997102Y-99638591D01*
X130997107Y-99638590D01*
X131159396Y-99588018D01*
X131304877Y-99500072D01*
X131425072Y-99379877D01*
X131513019Y-99234395D01*
X131563590Y-99072106D01*
X131570000Y-99001572D01*
X131570000Y-98920000D01*
X130920000Y-98920000D01*
X130920000Y-99644999D01*
X130471500Y-99644999D01*
X130471500Y-98420000D01*
X130920000Y-98420000D01*
X131569999Y-98420000D01*
X131569999Y-98338417D01*
X131563591Y-98267897D01*
X131563590Y-98267892D01*
X131513018Y-98105603D01*
X131425072Y-97960122D01*
X131304877Y-97839927D01*
X131159395Y-97751980D01*
X131159396Y-97751980D01*
X130997105Y-97701409D01*
X130997106Y-97701409D01*
X130926572Y-97695000D01*
X130920000Y-97695000D01*
X130920000Y-98420000D01*
X130471500Y-98420000D01*
X130471500Y-97259500D01*
X130491185Y-97192461D01*
X130543989Y-97146706D01*
X130595500Y-97135500D01*
X130926613Y-97135500D01*
X130926616Y-97135500D01*
X130997196Y-97129086D01*
X131159606Y-97078478D01*
X131305185Y-96990472D01*
X131425472Y-96870185D01*
X131513478Y-96724606D01*
X131564086Y-96562196D01*
X131570500Y-96491616D01*
X131570500Y-95859292D01*
X131590185Y-95792253D01*
X131606819Y-95771611D01*
X132088549Y-95289881D01*
X132411120Y-94967310D01*
X132472442Y-94933826D01*
X132542134Y-94938810D01*
G37*
%TD.AperFunction*%
%TA.AperFunction,Conductor*%
G36*
X126316130Y-103133060D02*
G01*
X126372517Y-103154091D01*
X126432127Y-103160500D01*
X128256500Y-103160499D01*
X128323539Y-103180184D01*
X128369294Y-103232987D01*
X128380500Y-103284499D01*
X128380500Y-103902836D01*
X128360815Y-103969875D01*
X128344181Y-103990517D01*
X127831517Y-104503181D01*
X127770194Y-104536666D01*
X127743836Y-104539500D01*
X126302129Y-104539500D01*
X126302108Y-104539502D01*
X126291248Y-104540669D01*
X126222489Y-104528259D01*
X126171355Y-104480645D01*
X126154001Y-104417379D01*
X126154001Y-104334945D01*
X126154001Y-104334943D01*
X126113077Y-104182215D01*
X126034020Y-104045284D01*
X125941735Y-103952999D01*
X125922216Y-103933480D01*
X125848216Y-103859480D01*
X125814500Y-103840014D01*
X125808451Y-103833670D01*
X125800299Y-103830450D01*
X125784711Y-103808773D01*
X125766285Y-103789448D01*
X125763554Y-103779349D01*
X125759508Y-103773723D01*
X125755198Y-103748452D01*
X125752669Y-103739098D01*
X125745338Y-103598817D01*
X125745880Y-103596537D01*
X125745880Y-103579090D01*
X125746590Y-103572485D01*
X125746591Y-103572483D01*
X125753000Y-103512873D01*
X125752999Y-103399338D01*
X125772683Y-103332300D01*
X125825487Y-103286545D01*
X125852808Y-103277722D01*
X125859361Y-103276418D01*
X125993497Y-103249737D01*
X126139179Y-103189394D01*
X126203911Y-103146141D01*
X126270585Y-103125263D01*
X126316130Y-103133060D01*
G37*
%TD.AperFunction*%
%TA.AperFunction,Conductor*%
G36*
X120879189Y-103185447D02*
G01*
X120932123Y-103231051D01*
X120951999Y-103298034D01*
X120952000Y-103298387D01*
X120952000Y-103512869D01*
X120952001Y-103512876D01*
X120959119Y-103579092D01*
X120958796Y-103580879D01*
X120959443Y-103582574D01*
X120959119Y-103605599D01*
X120952500Y-103667169D01*
X120952500Y-103737442D01*
X120932815Y-103804481D01*
X120880011Y-103850236D01*
X120810853Y-103860180D01*
X120747297Y-103831155D01*
X120709523Y-103772377D01*
X120709424Y-103772037D01*
X120707033Y-103763810D01*
X120707031Y-103763804D01*
X120620748Y-103617907D01*
X120622714Y-103616744D01*
X120614465Y-103595122D01*
X120601876Y-103563065D01*
X120601999Y-103562447D01*
X120601776Y-103561863D01*
X120608818Y-103528281D01*
X120615551Y-103494547D01*
X120616098Y-103493564D01*
X120616116Y-103493481D01*
X120616182Y-103493413D01*
X120618636Y-103489008D01*
X120667494Y-103406395D01*
X120667494Y-103406391D01*
X120667496Y-103406390D01*
X120708924Y-103263793D01*
X120746530Y-103204908D01*
X120810002Y-103175701D01*
X120879189Y-103185447D01*
G37*
%TD.AperFunction*%
%TA.AperFunction,Conductor*%
G36*
X124539122Y-97585690D02*
G01*
X124595056Y-97627561D01*
X124610350Y-97654420D01*
X124620602Y-97679172D01*
X124620609Y-97679185D01*
X124708602Y-97810874D01*
X124714252Y-97828920D01*
X124724477Y-97844830D01*
X124728928Y-97875789D01*
X124729480Y-97877551D01*
X124729500Y-97879765D01*
X124729500Y-98066000D01*
X124709815Y-98133039D01*
X124657011Y-98178794D01*
X124605500Y-98190000D01*
X124575000Y-98190000D01*
X124575000Y-99016000D01*
X124555315Y-99083039D01*
X124502511Y-99128794D01*
X124451000Y-99140000D01*
X124199000Y-99140000D01*
X124131961Y-99120315D01*
X124086206Y-99067511D01*
X124075000Y-99016000D01*
X124075000Y-98190000D01*
X124041331Y-98156331D01*
X124007846Y-98095008D01*
X124012830Y-98025316D01*
X124041331Y-97980969D01*
X124222021Y-97800279D01*
X124408110Y-97614189D01*
X124469431Y-97580706D01*
X124539122Y-97585690D01*
G37*
%TD.AperFunction*%
%TA.AperFunction,Conductor*%
G36*
X116436931Y-93670185D02*
G01*
X116438783Y-93671398D01*
X116570677Y-93759527D01*
X116570690Y-93759534D01*
X116693735Y-93810500D01*
X116716366Y-93819874D01*
X116871016Y-93850636D01*
X116871019Y-93850637D01*
X116871021Y-93850637D01*
X117028707Y-93850637D01*
X117028708Y-93850636D01*
X117183360Y-93819874D01*
X117329042Y-93759531D01*
X117441955Y-93684085D01*
X117508632Y-93663207D01*
X117576012Y-93681691D01*
X117598527Y-93699506D01*
X117816839Y-93917819D01*
X117850324Y-93979142D01*
X117845340Y-94048834D01*
X117803468Y-94104767D01*
X117738004Y-94129184D01*
X117729158Y-94129500D01*
X117247129Y-94129500D01*
X117247123Y-94129501D01*
X117187516Y-94135908D01*
X117052671Y-94186202D01*
X117052664Y-94186206D01*
X116937455Y-94272452D01*
X116937452Y-94272455D01*
X116851206Y-94387664D01*
X116851202Y-94387671D01*
X116800908Y-94522517D01*
X116794501Y-94582116D01*
X116794500Y-94582135D01*
X116794500Y-95577870D01*
X116794501Y-95577876D01*
X116800908Y-95637483D01*
X116851202Y-95772328D01*
X116851206Y-95772335D01*
X116937452Y-95887544D01*
X116937455Y-95887547D01*
X117052664Y-95973793D01*
X117052671Y-95973797D01*
X117187517Y-96024091D01*
X117187516Y-96024091D01*
X117194444Y-96024835D01*
X117247127Y-96030500D01*
X118342872Y-96030499D01*
X118402483Y-96024091D01*
X118537331Y-95973796D01*
X118537333Y-95973794D01*
X118545640Y-95970696D01*
X118546225Y-95972265D01*
X118604367Y-95959616D01*
X118644207Y-95971312D01*
X118644602Y-95970253D01*
X118787623Y-96023597D01*
X118787627Y-96023598D01*
X118847155Y-96029999D01*
X118847172Y-96030000D01*
X119145000Y-96030000D01*
X119645000Y-96030000D01*
X119942828Y-96030000D01*
X119942844Y-96029999D01*
X120002372Y-96023598D01*
X120002379Y-96023596D01*
X120137086Y-95973354D01*
X120137093Y-95973350D01*
X120252187Y-95887190D01*
X120252190Y-95887187D01*
X120338350Y-95772093D01*
X120338354Y-95772086D01*
X120388596Y-95637379D01*
X120388598Y-95637372D01*
X120394999Y-95577844D01*
X120395000Y-95577827D01*
X120395000Y-95330000D01*
X119645000Y-95330000D01*
X119645000Y-96030000D01*
X119145000Y-96030000D01*
X119145000Y-95204000D01*
X119164685Y-95136961D01*
X119217489Y-95091206D01*
X119269000Y-95080000D01*
X119395000Y-95080000D01*
X119395000Y-94954000D01*
X119414685Y-94886961D01*
X119467489Y-94841206D01*
X119519000Y-94830000D01*
X120395000Y-94830000D01*
X120395000Y-94582172D01*
X120394999Y-94582155D01*
X120388720Y-94523756D01*
X120401125Y-94454996D01*
X120448735Y-94403859D01*
X120512009Y-94386500D01*
X121603186Y-94386500D01*
X121670225Y-94406185D01*
X121715980Y-94458989D01*
X121726475Y-94523751D01*
X121724500Y-94542127D01*
X121724500Y-94542128D01*
X121724500Y-94542132D01*
X121724500Y-95537870D01*
X121724501Y-95537876D01*
X121730908Y-95597483D01*
X121781202Y-95732328D01*
X121781206Y-95732335D01*
X121867452Y-95847544D01*
X121867455Y-95847547D01*
X121982664Y-95933793D01*
X121982671Y-95933797D01*
X122117517Y-95984091D01*
X122117516Y-95984091D01*
X122124444Y-95984835D01*
X122177127Y-95990500D01*
X123272872Y-95990499D01*
X123332483Y-95984091D01*
X123467331Y-95933796D01*
X123467333Y-95933794D01*
X123475640Y-95930696D01*
X123476225Y-95932265D01*
X123534367Y-95919616D01*
X123574207Y-95931312D01*
X123574602Y-95930253D01*
X123717623Y-95983597D01*
X123717627Y-95983598D01*
X123777155Y-95989999D01*
X123777172Y-95990000D01*
X123822337Y-95990000D01*
X123889376Y-96009685D01*
X123935131Y-96062489D01*
X123945075Y-96131647D01*
X123916050Y-96195203D01*
X123910018Y-96201681D01*
X122509518Y-97602181D01*
X122448195Y-97635666D01*
X122421837Y-97638500D01*
X113545217Y-97638500D01*
X113414719Y-97664458D01*
X113414709Y-97664461D01*
X113291788Y-97715376D01*
X113291770Y-97715386D01*
X113181148Y-97789301D01*
X113181140Y-97789307D01*
X112862268Y-98108181D01*
X112800945Y-98141666D01*
X112774587Y-98144500D01*
X112342499Y-98144500D01*
X112275460Y-98124815D01*
X112229705Y-98072011D01*
X112218499Y-98020500D01*
X112218499Y-97468163D01*
X112238184Y-97401124D01*
X112254818Y-97380482D01*
X112455818Y-97179482D01*
X112668635Y-96966664D01*
X112729956Y-96933181D01*
X112799647Y-96938165D01*
X112825203Y-96951244D01*
X112938119Y-97026692D01*
X112938121Y-97026693D01*
X112938125Y-97026695D01*
X113063140Y-97078477D01*
X113083801Y-97087035D01*
X113238451Y-97117797D01*
X113238454Y-97117798D01*
X113238456Y-97117798D01*
X113396142Y-97117798D01*
X113396143Y-97117797D01*
X113550795Y-97087035D01*
X113696477Y-97026692D01*
X113827587Y-96939087D01*
X113939087Y-96827587D01*
X114026692Y-96696477D01*
X114029428Y-96689873D01*
X114051596Y-96636352D01*
X114087035Y-96550795D01*
X114091598Y-96527850D01*
X114123983Y-96465941D01*
X114125535Y-96464361D01*
X114754692Y-95835205D01*
X114754694Y-95835203D01*
X114754695Y-95835202D01*
X114791031Y-95780821D01*
X114828620Y-95724565D01*
X114853085Y-95665501D01*
X114879541Y-95601632D01*
X114905500Y-95471127D01*
X114905500Y-95338065D01*
X114905500Y-94164981D01*
X114925185Y-94097942D01*
X114977989Y-94052187D01*
X115016899Y-94041623D01*
X115017391Y-94041572D01*
X115032797Y-94039999D01*
X115199334Y-93984814D01*
X115348656Y-93892712D01*
X115472712Y-93768656D01*
X115509259Y-93709402D01*
X115561207Y-93662679D01*
X115614798Y-93650500D01*
X116369892Y-93650500D01*
X116436931Y-93670185D01*
G37*
%TD.AperFunction*%
%TA.AperFunction,Conductor*%
G36*
X150315878Y-93360299D02*
G01*
X150329046Y-93376777D01*
X150398602Y-93480874D01*
X150419480Y-93547551D01*
X150419500Y-93549765D01*
X150419500Y-94480375D01*
X150399815Y-94547414D01*
X150347011Y-94593169D01*
X150277853Y-94603113D01*
X150265831Y-94600322D01*
X150265744Y-94600686D01*
X150261004Y-94599548D01*
X150074447Y-94570000D01*
X149530000Y-94570000D01*
X149530000Y-95221517D01*
X149511591Y-95210889D01*
X149358991Y-95170000D01*
X149201009Y-95170000D01*
X149048409Y-95210889D01*
X149030000Y-95221517D01*
X149030000Y-94570000D01*
X148983571Y-94570000D01*
X148916532Y-94550315D01*
X148870777Y-94497511D01*
X148860833Y-94428353D01*
X148861954Y-94421809D01*
X148870499Y-94378846D01*
X148870500Y-94378844D01*
X148870500Y-94221155D01*
X148870499Y-94221153D01*
X148869197Y-94214606D01*
X148839737Y-94066503D01*
X148837098Y-94060132D01*
X148779395Y-93920822D01*
X148776524Y-93915451D01*
X148777571Y-93914891D01*
X148769974Y-93890621D01*
X148758880Y-93860877D01*
X148759610Y-93857516D01*
X148758584Y-93854236D01*
X148766983Y-93823625D01*
X148773732Y-93792604D01*
X148776516Y-93788884D01*
X148777073Y-93786857D01*
X148794879Y-93764354D01*
X148879138Y-93680095D01*
X148940459Y-93646612D01*
X148979421Y-93644420D01*
X148989991Y-93645500D01*
X149590008Y-93645499D01*
X149590016Y-93645498D01*
X149590019Y-93645498D01*
X149646302Y-93639748D01*
X149692797Y-93634999D01*
X149859334Y-93579814D01*
X150008656Y-93487712D01*
X150132712Y-93363656D01*
X150132712Y-93363655D01*
X150137819Y-93358549D01*
X150140011Y-93360741D01*
X150185650Y-93328397D01*
X150255448Y-93325229D01*
X150315878Y-93360299D01*
G37*
%TD.AperFunction*%
%TA.AperFunction,Conductor*%
G36*
X138580539Y-87309685D02*
G01*
X138626294Y-87362489D01*
X138637500Y-87414000D01*
X138637500Y-88489999D01*
X138699972Y-88489999D01*
X138699986Y-88489998D01*
X138802697Y-88479505D01*
X138969119Y-88424358D01*
X138969124Y-88424356D01*
X139118342Y-88332317D01*
X139211964Y-88238695D01*
X139273287Y-88205210D01*
X139342979Y-88210194D01*
X139387327Y-88238695D01*
X139481344Y-88332712D01*
X139630666Y-88424814D01*
X139797203Y-88479999D01*
X139899991Y-88490500D01*
X140301500Y-88490499D01*
X140368539Y-88510183D01*
X140414294Y-88562987D01*
X140425500Y-88614499D01*
X140425500Y-88960500D01*
X140405815Y-89027539D01*
X140353011Y-89073294D01*
X140301500Y-89084500D01*
X139968384Y-89084500D01*
X139949145Y-89086248D01*
X139897807Y-89090913D01*
X139735393Y-89141522D01*
X139589811Y-89229530D01*
X139589810Y-89229531D01*
X139487327Y-89332015D01*
X139426004Y-89365500D01*
X139356312Y-89360516D01*
X139311965Y-89332015D01*
X139209877Y-89229927D01*
X139064395Y-89141980D01*
X139064396Y-89141980D01*
X138902105Y-89091409D01*
X138902106Y-89091409D01*
X138831572Y-89085000D01*
X138825000Y-89085000D01*
X138825000Y-89936000D01*
X138805315Y-90003039D01*
X138752511Y-90048794D01*
X138701000Y-90060000D01*
X138575000Y-90060000D01*
X138575000Y-90186000D01*
X138555315Y-90253039D01*
X138502511Y-90298794D01*
X138451000Y-90310000D01*
X137687500Y-90310000D01*
X137669209Y-90328290D01*
X137667815Y-90333039D01*
X137615011Y-90378794D01*
X137563500Y-90390000D01*
X136795000Y-90390000D01*
X136795000Y-91339999D01*
X136857472Y-91339999D01*
X136857486Y-91339998D01*
X136960197Y-91329505D01*
X137126619Y-91274358D01*
X137126624Y-91274356D01*
X137275845Y-91182315D01*
X137399815Y-91058345D01*
X137491856Y-90909124D01*
X137491858Y-90909119D01*
X137547005Y-90742697D01*
X137548424Y-90736071D01*
X137551272Y-90736680D01*
X137572743Y-90683947D01*
X137629892Y-90643751D01*
X137699701Y-90640834D01*
X137760005Y-90676122D01*
X137775881Y-90697016D01*
X137819927Y-90769877D01*
X137940122Y-90890072D01*
X138085604Y-90978019D01*
X138085603Y-90978019D01*
X138173498Y-91005408D01*
X138231646Y-91044145D01*
X138259620Y-91108170D01*
X138248538Y-91177156D01*
X138224289Y-91211474D01*
X137665384Y-91770381D01*
X137604061Y-91803866D01*
X137577703Y-91806700D01*
X131999470Y-91806700D01*
X131999454Y-91806699D01*
X131991858Y-91806699D01*
X131833743Y-91806699D01*
X131773084Y-91822953D01*
X131681014Y-91847623D01*
X131681009Y-91847626D01*
X131544090Y-91926675D01*
X131544082Y-91926681D01*
X130832584Y-92638181D01*
X130771261Y-92671666D01*
X130744903Y-92674500D01*
X130413384Y-92674500D01*
X130394145Y-92676248D01*
X130342807Y-92680913D01*
X130180393Y-92731522D01*
X130034811Y-92819530D01*
X130034810Y-92819531D01*
X129932681Y-92921661D01*
X129871358Y-92955146D01*
X129801666Y-92950162D01*
X129757319Y-92921661D01*
X129655188Y-92819530D01*
X129634165Y-92806821D01*
X129509606Y-92731522D01*
X129509605Y-92731521D01*
X129508671Y-92730957D01*
X129461483Y-92679429D01*
X129449645Y-92610569D01*
X129476914Y-92546241D01*
X129485129Y-92537170D01*
X130526695Y-91495606D01*
X130600620Y-91384969D01*
X130651540Y-91262036D01*
X130667319Y-91182712D01*
X130677500Y-91131533D01*
X130677500Y-90486747D01*
X130697185Y-90419708D01*
X130749989Y-90373953D01*
X130819147Y-90364009D01*
X130838382Y-90368360D01*
X130872804Y-90379086D01*
X130943384Y-90385500D01*
X130943387Y-90385500D01*
X131456613Y-90385500D01*
X131456616Y-90385500D01*
X131527196Y-90379086D01*
X131689606Y-90328478D01*
X131835185Y-90240472D01*
X131937673Y-90137983D01*
X131998994Y-90104499D01*
X132068685Y-90109483D01*
X132113034Y-90137984D01*
X132215122Y-90240072D01*
X132360604Y-90328019D01*
X132360603Y-90328019D01*
X132522894Y-90378590D01*
X132522893Y-90378590D01*
X132593408Y-90384998D01*
X132593426Y-90384999D01*
X132599999Y-90384998D01*
X132600000Y-90384998D01*
X132600000Y-88435000D01*
X132599999Y-88434999D01*
X132593436Y-88435000D01*
X132593417Y-88435001D01*
X132522897Y-88441408D01*
X132522888Y-88441409D01*
X132472877Y-88456994D01*
X132403017Y-88458145D01*
X132343624Y-88421344D01*
X132313556Y-88358276D01*
X132322359Y-88288963D01*
X132348303Y-88250931D01*
X132687416Y-87911819D01*
X132748739Y-87878334D01*
X132775097Y-87875500D01*
X133106613Y-87875500D01*
X133106616Y-87875500D01*
X133177196Y-87869086D01*
X133339606Y-87818478D01*
X133485185Y-87730472D01*
X133505672Y-87709984D01*
X133566993Y-87676500D01*
X133636684Y-87681483D01*
X133692619Y-87723354D01*
X133716711Y-87785063D01*
X133717501Y-87792797D01*
X133717501Y-87792799D01*
X133769058Y-87948386D01*
X133772686Y-87959334D01*
X133864788Y-88108656D01*
X133988844Y-88232712D01*
X134138166Y-88324814D01*
X134264894Y-88366807D01*
X134289543Y-88383873D01*
X134315532Y-88398838D01*
X134317970Y-88403555D01*
X134322337Y-88406578D01*
X134333848Y-88434264D01*
X134347621Y-88460903D01*
X134347122Y-88466190D01*
X134349161Y-88471094D01*
X134343875Y-88500610D01*
X134341060Y-88530464D01*
X134337585Y-88535737D01*
X134336846Y-88539870D01*
X134323449Y-88561050D01*
X134318843Y-88566920D01*
X134239480Y-88646284D01*
X134196224Y-88721206D01*
X134191827Y-88728822D01*
X134162275Y-88780008D01*
X134160423Y-88783215D01*
X134119499Y-88935943D01*
X134119499Y-88935945D01*
X134119499Y-88947492D01*
X134118127Y-88952163D01*
X134119140Y-88956927D01*
X134108377Y-88985366D01*
X134099814Y-89014531D01*
X134095661Y-89018970D01*
X134094411Y-89022274D01*
X134082074Y-89033494D01*
X134069336Y-89047112D01*
X134065091Y-89050257D01*
X133988844Y-89097288D01*
X133952199Y-89133932D01*
X133944835Y-89139391D01*
X133920296Y-89148410D01*
X133897354Y-89160938D01*
X133888029Y-89160270D01*
X133879255Y-89163496D01*
X133853737Y-89157817D01*
X133827663Y-89155952D01*
X133820179Y-89150349D01*
X133811054Y-89148319D01*
X133792657Y-89129746D01*
X133771730Y-89114080D01*
X133768306Y-89105162D01*
X133761884Y-89098679D01*
X133757006Y-89075731D01*
X133747507Y-89050990D01*
X133743591Y-89007897D01*
X133743590Y-89007892D01*
X133693018Y-88845603D01*
X133605072Y-88700122D01*
X133484877Y-88579927D01*
X133339395Y-88491980D01*
X133339396Y-88491980D01*
X133177105Y-88441409D01*
X133177106Y-88441409D01*
X133106572Y-88435000D01*
X133100000Y-88435000D01*
X133100000Y-90384999D01*
X133106581Y-90384999D01*
X133177102Y-90378591D01*
X133177107Y-90378590D01*
X133339396Y-90328018D01*
X133484877Y-90240072D01*
X133495316Y-90229633D01*
X133556638Y-90196146D01*
X133626330Y-90201128D01*
X133682265Y-90242997D01*
X133706684Y-90308461D01*
X133707000Y-90317311D01*
X133707000Y-90640000D01*
X133707001Y-90640019D01*
X133717500Y-90742796D01*
X133717501Y-90742799D01*
X133772685Y-90909331D01*
X133772687Y-90909336D01*
X133797828Y-90950096D01*
X133864788Y-91058656D01*
X133988844Y-91182712D01*
X134138166Y-91274814D01*
X134304703Y-91329999D01*
X134407491Y-91340500D01*
X135032508Y-91340499D01*
X135032516Y-91340498D01*
X135032519Y-91340498D01*
X135088802Y-91334748D01*
X135135297Y-91329999D01*
X135301834Y-91274814D01*
X135451156Y-91182712D01*
X135545175Y-91088692D01*
X135606494Y-91055210D01*
X135676186Y-91060194D01*
X135720534Y-91088695D01*
X135814154Y-91182315D01*
X135963375Y-91274356D01*
X135963380Y-91274358D01*
X136129802Y-91329505D01*
X136129809Y-91329506D01*
X136232519Y-91339999D01*
X136294999Y-91339998D01*
X136295000Y-91339998D01*
X136295000Y-89890000D01*
X136795000Y-89890000D01*
X137545000Y-89890000D01*
X137563290Y-89871709D01*
X137564685Y-89866961D01*
X137617489Y-89821206D01*
X137669000Y-89810000D01*
X138325000Y-89810000D01*
X138325000Y-89085000D01*
X138324999Y-89084999D01*
X138318436Y-89085000D01*
X138318417Y-89085001D01*
X138247897Y-89091408D01*
X138247892Y-89091409D01*
X138085603Y-89141981D01*
X137940122Y-89229927D01*
X137819927Y-89350122D01*
X137742766Y-89477762D01*
X137691238Y-89524950D01*
X137622378Y-89536788D01*
X137558050Y-89509519D01*
X137518943Y-89452616D01*
X137491858Y-89370880D01*
X137491856Y-89370875D01*
X137399815Y-89221654D01*
X137275845Y-89097684D01*
X137126624Y-89005643D01*
X137126619Y-89005641D01*
X136960197Y-88950494D01*
X136960190Y-88950493D01*
X136857486Y-88940000D01*
X136795000Y-88940000D01*
X136795000Y-89890000D01*
X136295000Y-89890000D01*
X136295000Y-88940000D01*
X136294999Y-88939999D01*
X136232528Y-88940000D01*
X136232511Y-88940001D01*
X136129802Y-88950494D01*
X135963380Y-89005641D01*
X135963371Y-89005645D01*
X135862152Y-89068078D01*
X135794760Y-89086518D01*
X135728096Y-89065595D01*
X135683327Y-89011953D01*
X135674666Y-88942622D01*
X135704863Y-88879615D01*
X135709356Y-88874877D01*
X136157417Y-88426816D01*
X136218738Y-88393333D01*
X136245086Y-88390499D01*
X136857508Y-88390499D01*
X136857516Y-88390498D01*
X136857519Y-88390498D01*
X136926827Y-88383418D01*
X136960297Y-88379999D01*
X137126834Y-88324814D01*
X137276156Y-88232712D01*
X137333226Y-88175641D01*
X137394545Y-88142159D01*
X137464237Y-88147143D01*
X137520171Y-88189014D01*
X137526440Y-88198224D01*
X137532681Y-88208341D01*
X137532683Y-88208344D01*
X137656654Y-88332315D01*
X137805875Y-88424356D01*
X137805880Y-88424358D01*
X137972302Y-88479505D01*
X137972309Y-88479506D01*
X138075019Y-88489999D01*
X138137499Y-88489998D01*
X138137500Y-88489998D01*
X138137500Y-87414000D01*
X138157185Y-87346961D01*
X138209989Y-87301206D01*
X138261500Y-87290000D01*
X138513500Y-87290000D01*
X138580539Y-87309685D01*
G37*
%TD.AperFunction*%
%TA.AperFunction,Conductor*%
G36*
X149305702Y-75831449D02*
G01*
X149312180Y-75837481D01*
X151948181Y-78473482D01*
X151981666Y-78534805D01*
X151984500Y-78561163D01*
X151984500Y-92583311D01*
X151964815Y-92650350D01*
X151912011Y-92696105D01*
X151842853Y-92706049D01*
X151779297Y-92677024D01*
X151745939Y-92630763D01*
X151729397Y-92590827D01*
X151729390Y-92590814D01*
X151641789Y-92459711D01*
X151641786Y-92459707D01*
X151530292Y-92348213D01*
X151530288Y-92348210D01*
X151399185Y-92260609D01*
X151399172Y-92260602D01*
X151253501Y-92200264D01*
X151253489Y-92200261D01*
X151098845Y-92169500D01*
X151098842Y-92169500D01*
X150941158Y-92169500D01*
X150941155Y-92169500D01*
X150786510Y-92200261D01*
X150786498Y-92200264D01*
X150640827Y-92260602D01*
X150640814Y-92260609D01*
X150509711Y-92348210D01*
X150509707Y-92348213D01*
X150502180Y-92355741D01*
X150440857Y-92389226D01*
X150371165Y-92384242D01*
X150315232Y-92342370D01*
X150290815Y-92276906D01*
X150290499Y-92268060D01*
X150290499Y-91894998D01*
X150290498Y-91894981D01*
X150279999Y-91792203D01*
X150279998Y-91792200D01*
X150267151Y-91753430D01*
X150224814Y-91625666D01*
X150132712Y-91476344D01*
X150008656Y-91352288D01*
X149910352Y-91291654D01*
X149859336Y-91260187D01*
X149859331Y-91260185D01*
X149857862Y-91259698D01*
X149692797Y-91205001D01*
X149692795Y-91205000D01*
X149590010Y-91194500D01*
X148989998Y-91194500D01*
X148989980Y-91194501D01*
X148887203Y-91205000D01*
X148887200Y-91205001D01*
X148720668Y-91260185D01*
X148720663Y-91260187D01*
X148571342Y-91352289D01*
X148447285Y-91476346D01*
X148445537Y-91479182D01*
X148443829Y-91480717D01*
X148442807Y-91482011D01*
X148442585Y-91481836D01*
X148393589Y-91525905D01*
X148324626Y-91537126D01*
X148260544Y-91509282D01*
X148234463Y-91479182D01*
X148232714Y-91476346D01*
X148108657Y-91352289D01*
X148108656Y-91352288D01*
X148010352Y-91291654D01*
X147959336Y-91260187D01*
X147959331Y-91260185D01*
X147957862Y-91259698D01*
X147792797Y-91205001D01*
X147792795Y-91205000D01*
X147690010Y-91194500D01*
X147089998Y-91194500D01*
X147089980Y-91194501D01*
X146987203Y-91205000D01*
X146987200Y-91205001D01*
X146820668Y-91260185D01*
X146820663Y-91260187D01*
X146671342Y-91352289D01*
X146547289Y-91476342D01*
X146455187Y-91625663D01*
X146455185Y-91625668D01*
X146407087Y-91770819D01*
X146367314Y-91828264D01*
X146302798Y-91855087D01*
X146234022Y-91842772D01*
X146201700Y-91819496D01*
X145538511Y-91156307D01*
X145538507Y-91156304D01*
X145427877Y-91082383D01*
X145427867Y-91082378D01*
X145304938Y-91031459D01*
X145304930Y-91031457D01*
X145174437Y-91005500D01*
X145174433Y-91005500D01*
X141900500Y-91005500D01*
X141833461Y-90985815D01*
X141787706Y-90933011D01*
X141776500Y-90881500D01*
X141776500Y-85967135D01*
X144479500Y-85967135D01*
X144479500Y-87762870D01*
X144479501Y-87762876D01*
X144485908Y-87822483D01*
X144536202Y-87957328D01*
X144536206Y-87957335D01*
X144622452Y-88072544D01*
X144622455Y-88072547D01*
X144737664Y-88158793D01*
X144737671Y-88158797D01*
X144869082Y-88207810D01*
X144925016Y-88249681D01*
X144949433Y-88315145D01*
X144934582Y-88383418D01*
X144913431Y-88411673D01*
X144799889Y-88525215D01*
X144674951Y-88697179D01*
X144578444Y-88886585D01*
X144578443Y-88886587D01*
X144578443Y-88886588D01*
X144564398Y-88929815D01*
X144512753Y-89088760D01*
X144490170Y-89231344D01*
X144479500Y-89298713D01*
X144479500Y-89511287D01*
X144489534Y-89574644D01*
X144506585Y-89682298D01*
X144512754Y-89721243D01*
X144515074Y-89728384D01*
X144578444Y-89923414D01*
X144674951Y-90112820D01*
X144799890Y-90284786D01*
X144950213Y-90435109D01*
X145122179Y-90560048D01*
X145122181Y-90560049D01*
X145122184Y-90560051D01*
X145311588Y-90656557D01*
X145513757Y-90722246D01*
X145723713Y-90755500D01*
X145723714Y-90755500D01*
X145936286Y-90755500D01*
X145936287Y-90755500D01*
X146146243Y-90722246D01*
X146348412Y-90656557D01*
X146537816Y-90560051D01*
X146658398Y-90472444D01*
X146709786Y-90435109D01*
X146709788Y-90435106D01*
X146709792Y-90435104D01*
X146860104Y-90284792D01*
X146860106Y-90284788D01*
X146860109Y-90284786D01*
X146985048Y-90112820D01*
X146985047Y-90112820D01*
X146985051Y-90112816D01*
X147081557Y-89923412D01*
X147147246Y-89721243D01*
X147180500Y-89511287D01*
X147180500Y-89298713D01*
X147147246Y-89088757D01*
X147081557Y-88886588D01*
X146985051Y-88697184D01*
X146985049Y-88697181D01*
X146985048Y-88697179D01*
X146860109Y-88525213D01*
X146746569Y-88411673D01*
X146713084Y-88350350D01*
X146718068Y-88280658D01*
X146759940Y-88224725D01*
X146790915Y-88207810D01*
X146922331Y-88158796D01*
X147037546Y-88072546D01*
X147123796Y-87957331D01*
X147174091Y-87822483D01*
X147180500Y-87762873D01*
X147180499Y-85967128D01*
X147174091Y-85907517D01*
X147164014Y-85880500D01*
X147123797Y-85772671D01*
X147123793Y-85772664D01*
X147037547Y-85657455D01*
X147037544Y-85657452D01*
X146922335Y-85571206D01*
X146922328Y-85571202D01*
X146787482Y-85520908D01*
X146787483Y-85520908D01*
X146727883Y-85514501D01*
X146727881Y-85514500D01*
X146727873Y-85514500D01*
X146727864Y-85514500D01*
X144932129Y-85514500D01*
X144932123Y-85514501D01*
X144872516Y-85520908D01*
X144737671Y-85571202D01*
X144737664Y-85571206D01*
X144622455Y-85657452D01*
X144622452Y-85657455D01*
X144536206Y-85772664D01*
X144536202Y-85772671D01*
X144485908Y-85907517D01*
X144480999Y-85953181D01*
X144479501Y-85967123D01*
X144479500Y-85967135D01*
X141776500Y-85967135D01*
X141776500Y-85211968D01*
X141770244Y-85180521D01*
X141770244Y-85180520D01*
X141750541Y-85081464D01*
X141701944Y-84964143D01*
X141700300Y-84959548D01*
X141625698Y-84847898D01*
X141625697Y-84847897D01*
X141625695Y-84847894D01*
X141531606Y-84753805D01*
X141269383Y-84491582D01*
X143875001Y-84491582D01*
X143881408Y-84562102D01*
X143881409Y-84562107D01*
X143931981Y-84724396D01*
X144019927Y-84869877D01*
X144140122Y-84990072D01*
X144285604Y-85078019D01*
X144285603Y-85078019D01*
X144447894Y-85128590D01*
X144447893Y-85128590D01*
X144518408Y-85134998D01*
X144518426Y-85134999D01*
X144524999Y-85134998D01*
X144525000Y-85134998D01*
X144525000Y-84410000D01*
X143875001Y-84410000D01*
X143875001Y-84491582D01*
X141269383Y-84491582D01*
X141261818Y-84484017D01*
X141247114Y-84457089D01*
X141230522Y-84431271D01*
X141229630Y-84425070D01*
X141228333Y-84422694D01*
X141225499Y-84396336D01*
X141225499Y-83889998D01*
X141225498Y-83889981D01*
X141214999Y-83787203D01*
X141214998Y-83787200D01*
X141208138Y-83766498D01*
X141159814Y-83620666D01*
X141159811Y-83620662D01*
X141158059Y-83616903D01*
X141157629Y-83614075D01*
X141157542Y-83613811D01*
X141157587Y-83613796D01*
X141147568Y-83547825D01*
X141176089Y-83484042D01*
X141234567Y-83445803D01*
X141270442Y-83440500D01*
X143811793Y-83440500D01*
X143878832Y-83460185D01*
X143924587Y-83512989D01*
X143934531Y-83582147D01*
X143930178Y-83601390D01*
X143881409Y-83757893D01*
X143875000Y-83828427D01*
X143875000Y-83910000D01*
X144651000Y-83910000D01*
X144718039Y-83929685D01*
X144763794Y-83982489D01*
X144775000Y-84034000D01*
X144775000Y-84160000D01*
X144901000Y-84160000D01*
X144968039Y-84179685D01*
X145013794Y-84232489D01*
X145025000Y-84284000D01*
X145025000Y-85134999D01*
X145031581Y-85134999D01*
X145102102Y-85128591D01*
X145102107Y-85128590D01*
X145264396Y-85078018D01*
X145409877Y-84990072D01*
X145409878Y-84990071D01*
X145511963Y-84887985D01*
X145573286Y-84854499D01*
X145642977Y-84859483D01*
X145687326Y-84887984D01*
X145789811Y-84990469D01*
X145789813Y-84990470D01*
X145789815Y-84990472D01*
X145935394Y-85078478D01*
X146097804Y-85129086D01*
X146168384Y-85135500D01*
X146168387Y-85135500D01*
X146681613Y-85135500D01*
X146681616Y-85135500D01*
X146752196Y-85129086D01*
X146914606Y-85078478D01*
X146948711Y-85057861D01*
X146971007Y-85044383D01*
X147035156Y-85026500D01*
X148865931Y-85026500D01*
X148865947Y-85026501D01*
X148873543Y-85026501D01*
X149031654Y-85026501D01*
X149031657Y-85026501D01*
X149184385Y-84985577D01*
X149247055Y-84949394D01*
X149321316Y-84906520D01*
X149433120Y-84794716D01*
X149433120Y-84794714D01*
X149443323Y-84784512D01*
X149443327Y-84784506D01*
X149586070Y-84641763D01*
X149647391Y-84608280D01*
X149712755Y-84611741D01*
X149722413Y-84614941D01*
X149722422Y-84614943D01*
X149820856Y-84624999D01*
X150337500Y-84624999D01*
X150354136Y-84624999D01*
X150354152Y-84624998D01*
X150452583Y-84614943D01*
X150612072Y-84562093D01*
X150612077Y-84562091D01*
X150755080Y-84473885D01*
X150873885Y-84355080D01*
X150962091Y-84212077D01*
X150962093Y-84212072D01*
X151014942Y-84052583D01*
X151024999Y-83954150D01*
X151025000Y-83954137D01*
X151025000Y-83900000D01*
X150337500Y-83900000D01*
X150337500Y-84624999D01*
X149820856Y-84624999D01*
X149837500Y-84624998D01*
X149837500Y-84275229D01*
X149841681Y-84243301D01*
X149841908Y-84242454D01*
X149851500Y-84206658D01*
X149851500Y-84048543D01*
X149851500Y-83400000D01*
X150337500Y-83400000D01*
X151024999Y-83400000D01*
X151024999Y-83345864D01*
X151024998Y-83345847D01*
X151014943Y-83247416D01*
X150962093Y-83087927D01*
X150962091Y-83087922D01*
X150873885Y-82944919D01*
X150755080Y-82826114D01*
X150612077Y-82737908D01*
X150612072Y-82737906D01*
X150452583Y-82685057D01*
X150354150Y-82675000D01*
X150337500Y-82675000D01*
X150337500Y-83400000D01*
X149851500Y-83400000D01*
X149851500Y-83093343D01*
X149851500Y-83093341D01*
X149849993Y-83087717D01*
X149841725Y-83056859D01*
X149837500Y-83024767D01*
X149837500Y-82674999D01*
X149820856Y-82675000D01*
X149722414Y-82685057D01*
X149712744Y-82688261D01*
X149642915Y-82690657D01*
X149586068Y-82658233D01*
X149005190Y-82077355D01*
X149005188Y-82077352D01*
X148886317Y-81958481D01*
X148886316Y-81958480D01*
X148799504Y-81908360D01*
X148799504Y-81908359D01*
X148799500Y-81908358D01*
X148749385Y-81879423D01*
X148596657Y-81838499D01*
X148438543Y-81838499D01*
X148430947Y-81838499D01*
X148430931Y-81838500D01*
X132048605Y-81838500D01*
X132048589Y-81838499D01*
X132040993Y-81838499D01*
X131882879Y-81838499D01*
X131775523Y-81867265D01*
X131730146Y-81879424D01*
X131730145Y-81879425D01*
X131680032Y-81908359D01*
X131680031Y-81908360D01*
X131636625Y-81933420D01*
X131593221Y-81958479D01*
X131593218Y-81958481D01*
X130018481Y-83533218D01*
X130018477Y-83533223D01*
X129987117Y-83587541D01*
X129967413Y-83613221D01*
X129937179Y-83643454D01*
X129875859Y-83676939D01*
X129806167Y-83671955D01*
X129750233Y-83630085D01*
X129725815Y-83564621D01*
X129725499Y-83555773D01*
X129725499Y-83420636D01*
X129710046Y-83303246D01*
X129710044Y-83303241D01*
X129710044Y-83303238D01*
X129649536Y-83157159D01*
X129553282Y-83031718D01*
X129427841Y-82935464D01*
X129319276Y-82890495D01*
X129281762Y-82874956D01*
X129281760Y-82874955D01*
X129164361Y-82859500D01*
X128885636Y-82859500D01*
X128768246Y-82874953D01*
X128768234Y-82874957D01*
X128747450Y-82883566D01*
X128677981Y-82891033D01*
X128652550Y-82883566D01*
X128631765Y-82874957D01*
X128631760Y-82874955D01*
X128514361Y-82859500D01*
X128235636Y-82859500D01*
X128118246Y-82874953D01*
X128118234Y-82874957D01*
X128097450Y-82883566D01*
X128027981Y-82891033D01*
X128002550Y-82883566D01*
X127981765Y-82874957D01*
X127981760Y-82874955D01*
X127864361Y-82859500D01*
X127585636Y-82859500D01*
X127509296Y-82869550D01*
X127440261Y-82858783D01*
X127388006Y-82812402D01*
X127369122Y-82745133D01*
X127389604Y-82678333D01*
X127405427Y-82658935D01*
X129789545Y-80274819D01*
X129850868Y-80241334D01*
X129877226Y-80238500D01*
X144242764Y-80238500D01*
X144242766Y-80238500D01*
X144389135Y-80199281D01*
X144520365Y-80123515D01*
X147177060Y-77466817D01*
X147238383Y-77433333D01*
X147264741Y-77430499D01*
X148647871Y-77430499D01*
X148647872Y-77430499D01*
X148707483Y-77424091D01*
X148842331Y-77373796D01*
X148957546Y-77287546D01*
X149043796Y-77172331D01*
X149094091Y-77037483D01*
X149100500Y-76977873D01*
X149100499Y-75925161D01*
X149120183Y-75858123D01*
X149172987Y-75812368D01*
X149242146Y-75802424D01*
X149305702Y-75831449D01*
G37*
%TD.AperFunction*%
%TA.AperFunction,Conductor*%
G36*
X112776942Y-89501185D02*
G01*
X112822697Y-89553989D01*
X112833261Y-89618104D01*
X112830000Y-89650016D01*
X112830000Y-89775000D01*
X114106000Y-89775000D01*
X114173039Y-89794685D01*
X114218794Y-89847489D01*
X114230000Y-89899000D01*
X114230000Y-90025000D01*
X114356000Y-90025000D01*
X114423039Y-90044685D01*
X114468794Y-90097489D01*
X114480000Y-90149000D01*
X114480000Y-91099999D01*
X114929974Y-91099999D01*
X114929978Y-91099998D01*
X114933998Y-91099588D01*
X114935922Y-91099945D01*
X114937756Y-91099262D01*
X114970122Y-91106302D01*
X115002691Y-91112356D01*
X115004722Y-91113828D01*
X115006029Y-91114113D01*
X115034273Y-91135256D01*
X115034284Y-91135264D01*
X115062284Y-91163264D01*
X115062285Y-91163264D01*
X115069353Y-91170332D01*
X115986840Y-92087819D01*
X116020325Y-92149142D01*
X116015341Y-92218834D01*
X115973469Y-92274767D01*
X115908005Y-92299184D01*
X115899159Y-92299500D01*
X115614798Y-92299500D01*
X115547759Y-92279815D01*
X115509259Y-92240597D01*
X115472712Y-92181344D01*
X115348656Y-92057288D01*
X115199334Y-91965186D01*
X115032797Y-91910001D01*
X115032795Y-91910000D01*
X114930016Y-91899500D01*
X114930009Y-91899500D01*
X113641440Y-91899500D01*
X113574401Y-91879815D01*
X113528646Y-91827011D01*
X113526890Y-91822980D01*
X113480089Y-91709991D01*
X113477621Y-91704033D01*
X113477616Y-91704024D01*
X113403695Y-91593394D01*
X113403692Y-91593390D01*
X112315659Y-90505358D01*
X112300786Y-90478121D01*
X112284156Y-90451900D01*
X112283705Y-90446838D01*
X112282174Y-90444035D01*
X112279342Y-90416936D01*
X112279377Y-90410994D01*
X112280500Y-90400009D01*
X112280500Y-90399986D01*
X112830001Y-90399986D01*
X112840494Y-90502697D01*
X112895641Y-90669119D01*
X112895643Y-90669124D01*
X112987684Y-90818345D01*
X113111654Y-90942315D01*
X113260875Y-91034356D01*
X113260880Y-91034358D01*
X113427302Y-91089505D01*
X113427309Y-91089506D01*
X113530019Y-91099999D01*
X113979999Y-91099999D01*
X113980000Y-91099998D01*
X113980000Y-90275000D01*
X112830001Y-90275000D01*
X112830001Y-90399986D01*
X112280500Y-90399986D01*
X112280499Y-89649992D01*
X112277241Y-89618101D01*
X112290010Y-89549410D01*
X112337890Y-89498525D01*
X112400599Y-89481500D01*
X112709903Y-89481500D01*
X112776942Y-89501185D01*
G37*
%TD.AperFunction*%
%TA.AperFunction,Conductor*%
G36*
X111303039Y-83209685D02*
G01*
X111348794Y-83262489D01*
X111360000Y-83314000D01*
X111360000Y-83315000D01*
X114159998Y-83315000D01*
X114172877Y-83302121D01*
X114234200Y-83268635D01*
X114303891Y-83273619D01*
X114348240Y-83302120D01*
X115003181Y-83957060D01*
X115036666Y-84018383D01*
X115039500Y-84044741D01*
X115039500Y-85427870D01*
X115039501Y-85427876D01*
X115045908Y-85487483D01*
X115096202Y-85622328D01*
X115096206Y-85622335D01*
X115182452Y-85737544D01*
X115182455Y-85737547D01*
X115297664Y-85823793D01*
X115297671Y-85823797D01*
X115432517Y-85874091D01*
X115432516Y-85874091D01*
X115439444Y-85874835D01*
X115492127Y-85880500D01*
X117287872Y-85880499D01*
X117347483Y-85874091D01*
X117482331Y-85823796D01*
X117597546Y-85737546D01*
X117621235Y-85705901D01*
X117677167Y-85664032D01*
X117746858Y-85659048D01*
X117808181Y-85692533D01*
X117841666Y-85753856D01*
X117844500Y-85780214D01*
X117844500Y-91947646D01*
X117824815Y-92014685D01*
X117772011Y-92060440D01*
X117702853Y-92070384D01*
X117639297Y-92041359D01*
X117632819Y-92035327D01*
X116067819Y-90470327D01*
X116034334Y-90409004D01*
X116031500Y-90382646D01*
X116031500Y-89023052D01*
X116049383Y-88958902D01*
X116054466Y-88950494D01*
X116118478Y-88844606D01*
X116169086Y-88682196D01*
X116175500Y-88611616D01*
X116175500Y-87948384D01*
X116169086Y-87877804D01*
X116118478Y-87715394D01*
X116030472Y-87569815D01*
X116030470Y-87569813D01*
X116030469Y-87569811D01*
X115910188Y-87449530D01*
X115764606Y-87361522D01*
X115717877Y-87346961D01*
X115602196Y-87310914D01*
X115602194Y-87310913D01*
X115602192Y-87310913D01*
X115552778Y-87306423D01*
X115531616Y-87304500D01*
X115018384Y-87304500D01*
X114999145Y-87306248D01*
X114947807Y-87310913D01*
X114785393Y-87361522D01*
X114639811Y-87449530D01*
X114639810Y-87449531D01*
X114537681Y-87551661D01*
X114476358Y-87585146D01*
X114406666Y-87580162D01*
X114362319Y-87551661D01*
X114260188Y-87449530D01*
X114232368Y-87432712D01*
X114116419Y-87362618D01*
X114069232Y-87311091D01*
X114057394Y-87242231D01*
X114075031Y-87191405D01*
X114094814Y-87159334D01*
X114149999Y-86992797D01*
X114160500Y-86890009D01*
X114160499Y-86139992D01*
X114154196Y-86078294D01*
X114149999Y-86037203D01*
X114149998Y-86037200D01*
X114094814Y-85870666D01*
X114002712Y-85721344D01*
X113878656Y-85597288D01*
X113745594Y-85515215D01*
X113729336Y-85505187D01*
X113729331Y-85505185D01*
X113727862Y-85504698D01*
X113562797Y-85450001D01*
X113562795Y-85450000D01*
X113460010Y-85439500D01*
X112059998Y-85439500D01*
X112059981Y-85439501D01*
X111957203Y-85450000D01*
X111957200Y-85450001D01*
X111790668Y-85505185D01*
X111790663Y-85505187D01*
X111641342Y-85597289D01*
X111560451Y-85678181D01*
X111499128Y-85711666D01*
X111472770Y-85714500D01*
X111214798Y-85714500D01*
X111147759Y-85694815D01*
X111109259Y-85655597D01*
X111072712Y-85596344D01*
X110948656Y-85472288D01*
X110799334Y-85380186D01*
X110632797Y-85325001D01*
X110632795Y-85325000D01*
X110530016Y-85314500D01*
X110530009Y-85314500D01*
X109761163Y-85314500D01*
X109694124Y-85294815D01*
X109673482Y-85278181D01*
X109121981Y-84726680D01*
X109088496Y-84665357D01*
X109093480Y-84595665D01*
X109135352Y-84539732D01*
X109200816Y-84515315D01*
X109209662Y-84514999D01*
X109579999Y-84514999D01*
X110080000Y-84514999D01*
X110529972Y-84514999D01*
X110529986Y-84514998D01*
X110632697Y-84504505D01*
X110799119Y-84449358D01*
X110799124Y-84449356D01*
X110948345Y-84357315D01*
X111072315Y-84233345D01*
X111167782Y-84078569D01*
X111219730Y-84031845D01*
X111288692Y-84020622D01*
X111352775Y-84048466D01*
X111391027Y-84104661D01*
X111425642Y-84209121D01*
X111425643Y-84209124D01*
X111517684Y-84358345D01*
X111641654Y-84482315D01*
X111790875Y-84574356D01*
X111790880Y-84574358D01*
X111957302Y-84629505D01*
X111957309Y-84629506D01*
X112060019Y-84639999D01*
X112509999Y-84639999D01*
X113010000Y-84639999D01*
X113459972Y-84639999D01*
X113459986Y-84639998D01*
X113562697Y-84629505D01*
X113729119Y-84574358D01*
X113729124Y-84574356D01*
X113878345Y-84482315D01*
X114002315Y-84358345D01*
X114094356Y-84209124D01*
X114094358Y-84209119D01*
X114149505Y-84042697D01*
X114149506Y-84042690D01*
X114159999Y-83939986D01*
X114160000Y-83939973D01*
X114160000Y-83815000D01*
X113010000Y-83815000D01*
X113010000Y-84639999D01*
X112509999Y-84639999D01*
X112510000Y-84639998D01*
X112510000Y-83815000D01*
X111354000Y-83815000D01*
X111286961Y-83795315D01*
X111241206Y-83742511D01*
X111230000Y-83691000D01*
X111230000Y-83690000D01*
X110080000Y-83690000D01*
X110080000Y-84514999D01*
X109579999Y-84514999D01*
X109580000Y-84514998D01*
X109580000Y-83564000D01*
X109599685Y-83496961D01*
X109652489Y-83451206D01*
X109704000Y-83440000D01*
X109830000Y-83440000D01*
X109830000Y-83314000D01*
X109849685Y-83246961D01*
X109902489Y-83201206D01*
X109954000Y-83190000D01*
X111236000Y-83190000D01*
X111303039Y-83209685D01*
G37*
%TD.AperFunction*%
%TA.AperFunction,Conductor*%
G36*
X128844834Y-86536784D02*
G01*
X128900767Y-86578656D01*
X128925184Y-86644120D01*
X128925500Y-86652966D01*
X128925500Y-88470507D01*
X128917078Y-88499187D01*
X128911112Y-88528482D01*
X128907338Y-88532357D01*
X128905815Y-88537546D01*
X128883227Y-88557118D01*
X128862368Y-88578540D01*
X128855370Y-88581256D01*
X128853011Y-88583301D01*
X128841836Y-88586510D01*
X128829466Y-88591312D01*
X128823619Y-88592665D01*
X128768238Y-88599956D01*
X128737971Y-88612492D01*
X128727966Y-88614809D01*
X128658214Y-88610751D01*
X128652550Y-88608566D01*
X128631765Y-88599957D01*
X128631760Y-88599955D01*
X128514361Y-88584500D01*
X128235636Y-88584500D01*
X128118246Y-88599953D01*
X128118234Y-88599957D01*
X128097450Y-88608566D01*
X128027981Y-88616033D01*
X128002550Y-88608566D01*
X127981765Y-88599957D01*
X127981760Y-88599955D01*
X127864361Y-88584500D01*
X127585636Y-88584500D01*
X127468241Y-88599954D01*
X127468239Y-88599955D01*
X127446796Y-88608837D01*
X127377327Y-88616304D01*
X127351895Y-88608837D01*
X127331631Y-88600444D01*
X127275000Y-88592987D01*
X127275000Y-88635499D01*
X127266372Y-88664880D01*
X127259892Y-88694816D01*
X127256374Y-88698928D01*
X127255315Y-88702538D01*
X127238769Y-88723092D01*
X127232977Y-88728895D01*
X127196718Y-88756718D01*
X127168466Y-88793535D01*
X127162769Y-88799245D01*
X127138913Y-88812302D01*
X127116948Y-88828341D01*
X127108715Y-88828831D01*
X127101480Y-88832792D01*
X127074349Y-88830878D01*
X127047202Y-88832496D01*
X127040010Y-88828457D01*
X127031783Y-88827877D01*
X127009994Y-88811600D01*
X126986281Y-88798283D01*
X126976630Y-88787146D01*
X126953282Y-88756718D01*
X126953280Y-88756717D01*
X126953280Y-88756716D01*
X126923511Y-88733873D01*
X126882310Y-88677444D01*
X126875000Y-88635499D01*
X126875000Y-88592987D01*
X126873906Y-88592028D01*
X126836482Y-88533026D01*
X126836898Y-88463158D01*
X126867982Y-88411121D01*
X128713820Y-86565283D01*
X128775142Y-86531800D01*
X128844834Y-86536784D01*
G37*
%TD.AperFunction*%
%TA.AperFunction,Conductor*%
G36*
X120507647Y-84987857D02*
G01*
X120516647Y-84986564D01*
X120540651Y-84997526D01*
X120565975Y-85004945D01*
X120576118Y-85013723D01*
X120580203Y-85015589D01*
X120588723Y-85024632D01*
X120592662Y-85028041D01*
X120599824Y-85036296D01*
X120600464Y-85037841D01*
X120696718Y-85163282D01*
X120736441Y-85193762D01*
X120744662Y-85203238D01*
X120773727Y-85266776D01*
X120775000Y-85284499D01*
X120775000Y-85327010D01*
X120831631Y-85319555D01*
X120851887Y-85311165D01*
X120921356Y-85303693D01*
X120946798Y-85311163D01*
X120968238Y-85320044D01*
X121085639Y-85335500D01*
X121364360Y-85335499D01*
X121364361Y-85335499D01*
X121376594Y-85333888D01*
X121481762Y-85320044D01*
X121502545Y-85311434D01*
X121572014Y-85303965D01*
X121597453Y-85311434D01*
X121618238Y-85320044D01*
X121735639Y-85335500D01*
X122014360Y-85335499D01*
X122014361Y-85335499D01*
X122026594Y-85333888D01*
X122131762Y-85320044D01*
X122152545Y-85311434D01*
X122222014Y-85303965D01*
X122247453Y-85311434D01*
X122268238Y-85320044D01*
X122385639Y-85335500D01*
X122664360Y-85335499D01*
X122664361Y-85335499D01*
X122676594Y-85333888D01*
X122781762Y-85320044D01*
X122802545Y-85311434D01*
X122872014Y-85303965D01*
X122897453Y-85311434D01*
X122918238Y-85320044D01*
X123035639Y-85335500D01*
X123314360Y-85335499D01*
X123314361Y-85335499D01*
X123326594Y-85333888D01*
X123431762Y-85320044D01*
X123452545Y-85311434D01*
X123522014Y-85303965D01*
X123547453Y-85311434D01*
X123568238Y-85320044D01*
X123685639Y-85335500D01*
X123964360Y-85335499D01*
X123964361Y-85335499D01*
X123976594Y-85333888D01*
X124081762Y-85320044D01*
X124102545Y-85311434D01*
X124172014Y-85303965D01*
X124197453Y-85311434D01*
X124218238Y-85320044D01*
X124335639Y-85335500D01*
X124614360Y-85335499D01*
X124614361Y-85335499D01*
X124626594Y-85333888D01*
X124731762Y-85320044D01*
X124752545Y-85311434D01*
X124822014Y-85303965D01*
X124847453Y-85311434D01*
X124868238Y-85320044D01*
X124985639Y-85335500D01*
X125264360Y-85335499D01*
X125264361Y-85335499D01*
X125276594Y-85333888D01*
X125381762Y-85320044D01*
X125402545Y-85311434D01*
X125472014Y-85303965D01*
X125497453Y-85311434D01*
X125518238Y-85320044D01*
X125635639Y-85335500D01*
X125914360Y-85335499D01*
X125914361Y-85335499D01*
X125926594Y-85333888D01*
X126031762Y-85320044D01*
X126052545Y-85311434D01*
X126122014Y-85303965D01*
X126147453Y-85311434D01*
X126168238Y-85320044D01*
X126285639Y-85335500D01*
X126564360Y-85335499D01*
X126564361Y-85335499D01*
X126576594Y-85333888D01*
X126681762Y-85320044D01*
X126702545Y-85311434D01*
X126772014Y-85303965D01*
X126797453Y-85311434D01*
X126818238Y-85320044D01*
X126935639Y-85335500D01*
X127214360Y-85335499D01*
X127214361Y-85335499D01*
X127226594Y-85333888D01*
X127331762Y-85320044D01*
X127352545Y-85311434D01*
X127422014Y-85303965D01*
X127447453Y-85311434D01*
X127468238Y-85320044D01*
X127585639Y-85335500D01*
X127864360Y-85335499D01*
X127940700Y-85325449D01*
X128009733Y-85336215D01*
X128061989Y-85382595D01*
X128080874Y-85449864D01*
X128060393Y-85516664D01*
X128044564Y-85536069D01*
X125406286Y-88174348D01*
X125294481Y-88286152D01*
X125294479Y-88286155D01*
X125256526Y-88351892D01*
X125256524Y-88351895D01*
X125252514Y-88358842D01*
X125215423Y-88423085D01*
X125194668Y-88500542D01*
X125191506Y-88508141D01*
X125174506Y-88529165D01*
X125160432Y-88552255D01*
X125152865Y-88555930D01*
X125147576Y-88562472D01*
X125121905Y-88570969D01*
X125097585Y-88582783D01*
X125082379Y-88584052D01*
X125081246Y-88584428D01*
X125080421Y-88584216D01*
X125077024Y-88584500D01*
X124985637Y-88584500D01*
X124868246Y-88599953D01*
X124868234Y-88599957D01*
X124847450Y-88608566D01*
X124777981Y-88616033D01*
X124752550Y-88608566D01*
X124731765Y-88599957D01*
X124731760Y-88599955D01*
X124614361Y-88584500D01*
X124335636Y-88584500D01*
X124218246Y-88599953D01*
X124218234Y-88599957D01*
X124197450Y-88608566D01*
X124127981Y-88616033D01*
X124102550Y-88608566D01*
X124081765Y-88599957D01*
X124081760Y-88599955D01*
X123964361Y-88584500D01*
X123685636Y-88584500D01*
X123568246Y-88599953D01*
X123568234Y-88599957D01*
X123547450Y-88608566D01*
X123477981Y-88616033D01*
X123452550Y-88608566D01*
X123431765Y-88599957D01*
X123431760Y-88599955D01*
X123314361Y-88584500D01*
X123035636Y-88584500D01*
X122918246Y-88599953D01*
X122918234Y-88599957D01*
X122897450Y-88608566D01*
X122827981Y-88616033D01*
X122802550Y-88608566D01*
X122781765Y-88599957D01*
X122781760Y-88599955D01*
X122664361Y-88584500D01*
X122385636Y-88584500D01*
X122268246Y-88599953D01*
X122268234Y-88599957D01*
X122247450Y-88608566D01*
X122177981Y-88616033D01*
X122152550Y-88608566D01*
X122131765Y-88599957D01*
X122131760Y-88599955D01*
X122014361Y-88584500D01*
X121735636Y-88584500D01*
X121618246Y-88599953D01*
X121618234Y-88599957D01*
X121597450Y-88608566D01*
X121527981Y-88616033D01*
X121502550Y-88608566D01*
X121481765Y-88599957D01*
X121481760Y-88599955D01*
X121364361Y-88584500D01*
X121085636Y-88584500D01*
X120968246Y-88599953D01*
X120968234Y-88599957D01*
X120947450Y-88608566D01*
X120877981Y-88616033D01*
X120852550Y-88608566D01*
X120831765Y-88599957D01*
X120831760Y-88599955D01*
X120714361Y-88584500D01*
X120435636Y-88584500D01*
X120318246Y-88599953D01*
X120318234Y-88599957D01*
X120219952Y-88640667D01*
X120150483Y-88648136D01*
X120088004Y-88616861D01*
X120052352Y-88556772D01*
X120048500Y-88526106D01*
X120048500Y-85393352D01*
X120068185Y-85326313D01*
X120120989Y-85280558D01*
X120190147Y-85270614D01*
X120219953Y-85278791D01*
X120318369Y-85319556D01*
X120318372Y-85319557D01*
X120374998Y-85327011D01*
X120375000Y-85327010D01*
X120375000Y-85109302D01*
X120382434Y-85083982D01*
X120386174Y-85057861D01*
X120392123Y-85050986D01*
X120394685Y-85042263D01*
X120414625Y-85024984D01*
X120431896Y-85005028D01*
X120440619Y-85002460D01*
X120447489Y-84996508D01*
X120473606Y-84992752D01*
X120498923Y-84985302D01*
X120507647Y-84987857D01*
G37*
%TD.AperFunction*%
%TA.AperFunction,Conductor*%
G36*
X102302876Y-78025185D02*
G01*
X102323518Y-78041819D01*
X106574518Y-82292819D01*
X106608003Y-82354142D01*
X106603019Y-82423834D01*
X106561147Y-82479767D01*
X106495683Y-82504184D01*
X106486837Y-82504500D01*
X105742129Y-82504500D01*
X105742123Y-82504501D01*
X105682516Y-82510908D01*
X105547671Y-82561202D01*
X105547664Y-82561206D01*
X105432455Y-82647452D01*
X105432452Y-82647455D01*
X105346206Y-82762664D01*
X105346202Y-82762671D01*
X105295908Y-82897517D01*
X105289501Y-82957116D01*
X105289500Y-82957135D01*
X105289500Y-84752870D01*
X105289501Y-84752876D01*
X105295908Y-84812483D01*
X105346202Y-84947328D01*
X105346206Y-84947335D01*
X105432452Y-85062544D01*
X105432455Y-85062547D01*
X105547664Y-85148793D01*
X105547671Y-85148797D01*
X105679082Y-85197810D01*
X105735016Y-85239681D01*
X105759433Y-85305145D01*
X105744582Y-85373418D01*
X105723431Y-85401673D01*
X105609889Y-85515215D01*
X105484951Y-85687179D01*
X105388444Y-85876585D01*
X105322753Y-86078760D01*
X105289500Y-86288713D01*
X105289500Y-86501286D01*
X105315729Y-86666892D01*
X105306774Y-86736186D01*
X105261778Y-86789638D01*
X105195026Y-86810277D01*
X105127713Y-86791552D01*
X105124366Y-86789393D01*
X105088769Y-86765608D01*
X105088758Y-86765602D01*
X104943087Y-86705264D01*
X104943077Y-86705261D01*
X104900208Y-86696734D01*
X104838297Y-86664349D01*
X104803723Y-86603633D01*
X104800400Y-86575117D01*
X104800400Y-86352172D01*
X104800399Y-86352160D01*
X104793780Y-86290604D01*
X104793780Y-86264090D01*
X104794490Y-86257485D01*
X104794491Y-86257483D01*
X104800900Y-86197873D01*
X104800899Y-85902128D01*
X104794491Y-85842517D01*
X104794489Y-85842513D01*
X104794032Y-85838255D01*
X104794032Y-85811745D01*
X104794489Y-85807486D01*
X104794491Y-85807483D01*
X104800900Y-85747873D01*
X104800899Y-85452128D01*
X104794491Y-85392517D01*
X104794489Y-85392513D01*
X104794032Y-85388255D01*
X104794032Y-85361745D01*
X104794489Y-85357486D01*
X104794491Y-85357483D01*
X104800900Y-85297873D01*
X104800899Y-85002128D01*
X104794491Y-84942517D01*
X104794489Y-84942513D01*
X104794032Y-84938255D01*
X104794032Y-84911745D01*
X104794489Y-84907486D01*
X104794491Y-84907483D01*
X104800900Y-84847873D01*
X104800899Y-84552128D01*
X104794491Y-84492517D01*
X104794142Y-84491582D01*
X104744197Y-84357671D01*
X104744193Y-84357664D01*
X104657947Y-84242455D01*
X104657944Y-84242452D01*
X104542735Y-84156206D01*
X104542728Y-84156202D01*
X104407882Y-84105908D01*
X104407883Y-84105908D01*
X104348283Y-84099501D01*
X104348281Y-84099500D01*
X104348273Y-84099500D01*
X104348265Y-84099500D01*
X104218699Y-84099500D01*
X104151660Y-84079815D01*
X104105905Y-84027011D01*
X104094699Y-83975500D01*
X104094699Y-83845929D01*
X104094698Y-83845923D01*
X104094697Y-83845916D01*
X104088291Y-83786317D01*
X104080903Y-83766510D01*
X104037997Y-83651471D01*
X104037993Y-83651464D01*
X103951747Y-83536255D01*
X103951744Y-83536252D01*
X103836535Y-83450006D01*
X103836528Y-83450002D01*
X103701686Y-83399710D01*
X103701685Y-83399709D01*
X103701683Y-83399709D01*
X103642073Y-83393300D01*
X103642063Y-83393300D01*
X103346330Y-83393300D01*
X103346320Y-83393301D01*
X103282448Y-83400167D01*
X103255942Y-83400167D01*
X103251683Y-83399709D01*
X103192073Y-83393300D01*
X103192065Y-83393300D01*
X102896330Y-83393300D01*
X102896320Y-83393301D01*
X102832448Y-83400167D01*
X102805942Y-83400167D01*
X102801683Y-83399709D01*
X102742073Y-83393300D01*
X102742065Y-83393300D01*
X102446330Y-83393300D01*
X102446320Y-83393301D01*
X102382448Y-83400167D01*
X102355942Y-83400167D01*
X102351683Y-83399709D01*
X102292073Y-83393300D01*
X102292065Y-83393300D01*
X101996330Y-83393300D01*
X101996320Y-83393301D01*
X101932448Y-83400167D01*
X101905942Y-83400167D01*
X101901683Y-83399709D01*
X101842073Y-83393300D01*
X101842065Y-83393300D01*
X101546330Y-83393300D01*
X101546323Y-83393301D01*
X101486716Y-83399708D01*
X101351871Y-83450002D01*
X101351864Y-83450006D01*
X101236655Y-83536252D01*
X101236652Y-83536255D01*
X101150406Y-83651464D01*
X101150402Y-83651471D01*
X101100108Y-83786317D01*
X101094391Y-83839500D01*
X101093701Y-83845923D01*
X101093700Y-83845935D01*
X101093700Y-83945102D01*
X101087461Y-83966347D01*
X101085882Y-83988436D01*
X101077809Y-83999219D01*
X101074015Y-84012141D01*
X101057281Y-84026640D01*
X101044010Y-84044369D01*
X101031389Y-84049076D01*
X101021211Y-84057896D01*
X100999293Y-84061047D01*
X100978546Y-84068786D01*
X100965385Y-84065923D01*
X100952053Y-84067840D01*
X100931909Y-84058640D01*
X100910273Y-84053934D01*
X100892547Y-84040665D01*
X100888497Y-84038815D01*
X100882019Y-84032783D01*
X100762986Y-83913750D01*
X100729501Y-83852427D01*
X100729050Y-83850260D01*
X100728190Y-83845935D01*
X100698150Y-83694916D01*
X100678989Y-83648656D01*
X100637810Y-83549240D01*
X100637803Y-83549227D01*
X100550202Y-83418124D01*
X100550199Y-83418120D01*
X100438705Y-83306626D01*
X100438701Y-83306623D01*
X100307598Y-83219022D01*
X100307585Y-83219015D01*
X100161914Y-83158677D01*
X100161902Y-83158674D01*
X100007258Y-83127913D01*
X100007255Y-83127913D01*
X99849571Y-83127913D01*
X99849568Y-83127913D01*
X99694923Y-83158674D01*
X99694911Y-83158677D01*
X99549240Y-83219015D01*
X99549227Y-83219022D01*
X99415358Y-83308471D01*
X99414853Y-83309147D01*
X99413708Y-83309573D01*
X99413059Y-83310008D01*
X99412956Y-83309854D01*
X99384610Y-83320426D01*
X99354878Y-83333049D01*
X99352063Y-83332566D01*
X99349389Y-83333564D01*
X99317841Y-83326701D01*
X99286013Y-83321246D01*
X99283057Y-83319134D01*
X99281116Y-83318712D01*
X99252862Y-83297561D01*
X99191818Y-83236517D01*
X99158333Y-83175194D01*
X99155499Y-83148836D01*
X99155499Y-82629998D01*
X99155498Y-82629981D01*
X99144999Y-82527203D01*
X99144998Y-82527200D01*
X99115318Y-82437633D01*
X99089814Y-82360666D01*
X98997712Y-82211344D01*
X98972294Y-82185926D01*
X98938809Y-82124603D01*
X98943793Y-82054911D01*
X98984489Y-81999869D01*
X98999667Y-81988222D01*
X98999667Y-81988221D01*
X98213533Y-81202087D01*
X98344175Y-81107171D01*
X98472171Y-80979175D01*
X98567086Y-80848533D01*
X99353220Y-81634667D01*
X99353222Y-81634667D01*
X99469813Y-81482725D01*
X99469825Y-81482707D01*
X99617290Y-81227292D01*
X99617295Y-81227281D01*
X99730161Y-80954800D01*
X99730164Y-80954790D01*
X99806500Y-80669897D01*
X99806503Y-80669884D01*
X99844998Y-80377483D01*
X99845000Y-80377466D01*
X99845000Y-80082533D01*
X99844998Y-80082516D01*
X99806503Y-79790115D01*
X99806500Y-79790102D01*
X99730164Y-79505209D01*
X99730161Y-79505199D01*
X99617295Y-79232718D01*
X99617290Y-79232707D01*
X99469825Y-78977292D01*
X99469819Y-78977284D01*
X99353221Y-78825331D01*
X98567086Y-79611466D01*
X98472171Y-79480825D01*
X98344175Y-79352829D01*
X98213532Y-79257912D01*
X98999667Y-78471777D01*
X98847715Y-78355180D01*
X98847707Y-78355174D01*
X98642829Y-78236887D01*
X98594613Y-78186320D01*
X98581391Y-78117713D01*
X98607359Y-78052848D01*
X98664273Y-78012320D01*
X98704829Y-78005500D01*
X102235837Y-78005500D01*
X102302876Y-78025185D01*
G37*
%TD.AperFunction*%
%TA.AperFunction,Conductor*%
G36*
X133043039Y-84409685D02*
G01*
X133088794Y-84462489D01*
X133100000Y-84514000D01*
X133100000Y-85364999D01*
X133106581Y-85364999D01*
X133177102Y-85358591D01*
X133177107Y-85358590D01*
X133339396Y-85308018D01*
X133484877Y-85220072D01*
X133605071Y-85099878D01*
X133610623Y-85090694D01*
X133662149Y-85043504D01*
X133731008Y-85031662D01*
X133795338Y-85058928D01*
X133822281Y-85089741D01*
X133864788Y-85158656D01*
X133988844Y-85282712D01*
X134138166Y-85374814D01*
X134304703Y-85429999D01*
X134407491Y-85440500D01*
X135019901Y-85440499D01*
X135049347Y-85449145D01*
X135079328Y-85455667D01*
X135084341Y-85459419D01*
X135086940Y-85460183D01*
X135107582Y-85476818D01*
X135205050Y-85574286D01*
X135238535Y-85635609D01*
X135233551Y-85705301D01*
X135205050Y-85749648D01*
X135001516Y-85953181D01*
X134940193Y-85986666D01*
X134913835Y-85989500D01*
X134407498Y-85989500D01*
X134407480Y-85989501D01*
X134304703Y-86000000D01*
X134304700Y-86000001D01*
X134138168Y-86055185D01*
X134138163Y-86055187D01*
X133988842Y-86147289D01*
X133864788Y-86271343D01*
X133860307Y-86277011D01*
X133859111Y-86276065D01*
X133813369Y-86317208D01*
X133744406Y-86328428D01*
X133680325Y-86300583D01*
X133653666Y-86269537D01*
X133605472Y-86189815D01*
X133605470Y-86189813D01*
X133605469Y-86189811D01*
X133485188Y-86069530D01*
X133461460Y-86055186D01*
X133339606Y-85981522D01*
X133177196Y-85930914D01*
X133177194Y-85930913D01*
X133177192Y-85930913D01*
X133127778Y-85926423D01*
X133106616Y-85924500D01*
X132593384Y-85924500D01*
X132574145Y-85926248D01*
X132522807Y-85930913D01*
X132360393Y-85981522D01*
X132214811Y-86069530D01*
X132214810Y-86069531D01*
X132112681Y-86171661D01*
X132051358Y-86205146D01*
X131981666Y-86200162D01*
X131937319Y-86171661D01*
X131835188Y-86069530D01*
X131811460Y-86055186D01*
X131689606Y-85981522D01*
X131527196Y-85930914D01*
X131527194Y-85930913D01*
X131527192Y-85930913D01*
X131477778Y-85926423D01*
X131456616Y-85924500D01*
X130943384Y-85924500D01*
X130872804Y-85930914D01*
X130823636Y-85946235D01*
X130753777Y-85947385D01*
X130694385Y-85910584D01*
X130664317Y-85847515D01*
X130673121Y-85778202D01*
X130699065Y-85740169D01*
X131037417Y-85401819D01*
X131098740Y-85368334D01*
X131125098Y-85365500D01*
X131456613Y-85365500D01*
X131456616Y-85365500D01*
X131527196Y-85359086D01*
X131689606Y-85308478D01*
X131835185Y-85220472D01*
X131937673Y-85117983D01*
X131998994Y-85084499D01*
X132068685Y-85089483D01*
X132113034Y-85117984D01*
X132215122Y-85220072D01*
X132360604Y-85308019D01*
X132360603Y-85308019D01*
X132522894Y-85358590D01*
X132522893Y-85358590D01*
X132593408Y-85364998D01*
X132593426Y-85364999D01*
X132599999Y-85364998D01*
X132600000Y-85364998D01*
X132600000Y-84514000D01*
X132619685Y-84446961D01*
X132672489Y-84401206D01*
X132724000Y-84390000D01*
X132976000Y-84390000D01*
X133043039Y-84409685D01*
G37*
%TD.AperFunction*%
%TA.AperFunction,Conductor*%
G36*
X121934075Y-70427007D02*
G01*
X121900000Y-70554174D01*
X121900000Y-70685826D01*
X121934075Y-70812993D01*
X121966988Y-70870000D01*
X120293012Y-70870000D01*
X120325925Y-70812993D01*
X120360000Y-70685826D01*
X120360000Y-70554174D01*
X120325925Y-70427007D01*
X120293012Y-70370000D01*
X121966988Y-70370000D01*
X121934075Y-70427007D01*
G37*
%TD.AperFunction*%
%TA.AperFunction,Conductor*%
G36*
X124474075Y-70427007D02*
G01*
X124440000Y-70554174D01*
X124440000Y-70685826D01*
X124474075Y-70812993D01*
X124506988Y-70870000D01*
X122833012Y-70870000D01*
X122865925Y-70812993D01*
X122900000Y-70685826D01*
X122900000Y-70554174D01*
X122865925Y-70427007D01*
X122833012Y-70370000D01*
X124506988Y-70370000D01*
X124474075Y-70427007D01*
G37*
%TD.AperFunction*%
%TA.AperFunction,Conductor*%
G36*
X127014075Y-70427007D02*
G01*
X126980000Y-70554174D01*
X126980000Y-70685826D01*
X127014075Y-70812993D01*
X127046988Y-70870000D01*
X125373012Y-70870000D01*
X125405925Y-70812993D01*
X125440000Y-70685826D01*
X125440000Y-70554174D01*
X125405925Y-70427007D01*
X125373012Y-70370000D01*
X127046988Y-70370000D01*
X127014075Y-70427007D01*
G37*
%TD.AperFunction*%
%TA.AperFunction,Conductor*%
G36*
X129554075Y-70427007D02*
G01*
X129520000Y-70554174D01*
X129520000Y-70685826D01*
X129554075Y-70812993D01*
X129586988Y-70870000D01*
X127913012Y-70870000D01*
X127945925Y-70812993D01*
X127980000Y-70685826D01*
X127980000Y-70554174D01*
X127945925Y-70427007D01*
X127913012Y-70370000D01*
X129586988Y-70370000D01*
X129554075Y-70427007D01*
G37*
%TD.AperFunction*%
%TA.AperFunction,Conductor*%
G36*
X132094075Y-70427007D02*
G01*
X132060000Y-70554174D01*
X132060000Y-70685826D01*
X132094075Y-70812993D01*
X132126988Y-70870000D01*
X130453012Y-70870000D01*
X130485925Y-70812993D01*
X130520000Y-70685826D01*
X130520000Y-70554174D01*
X130485925Y-70427007D01*
X130453012Y-70370000D01*
X132126988Y-70370000D01*
X132094075Y-70427007D01*
G37*
%TD.AperFunction*%
%TA.AperFunction,Conductor*%
G36*
X134634075Y-70427007D02*
G01*
X134600000Y-70554174D01*
X134600000Y-70685826D01*
X134634075Y-70812993D01*
X134666988Y-70870000D01*
X132993012Y-70870000D01*
X133025925Y-70812993D01*
X133060000Y-70685826D01*
X133060000Y-70554174D01*
X133025925Y-70427007D01*
X132993012Y-70370000D01*
X134666988Y-70370000D01*
X134634075Y-70427007D01*
G37*
%TD.AperFunction*%
%TA.AperFunction,Conductor*%
G36*
X137174075Y-70427007D02*
G01*
X137140000Y-70554174D01*
X137140000Y-70685826D01*
X137174075Y-70812993D01*
X137206988Y-70870000D01*
X135533012Y-70870000D01*
X135565925Y-70812993D01*
X135600000Y-70685826D01*
X135600000Y-70554174D01*
X135565925Y-70427007D01*
X135533012Y-70370000D01*
X137206988Y-70370000D01*
X137174075Y-70427007D01*
G37*
%TD.AperFunction*%
%TA.AperFunction,Conductor*%
G36*
X139714075Y-70427007D02*
G01*
X139680000Y-70554174D01*
X139680000Y-70685826D01*
X139714075Y-70812993D01*
X139746988Y-70870000D01*
X138073012Y-70870000D01*
X138105925Y-70812993D01*
X138140000Y-70685826D01*
X138140000Y-70554174D01*
X138105925Y-70427007D01*
X138073012Y-70370000D01*
X139746988Y-70370000D01*
X139714075Y-70427007D01*
G37*
%TD.AperFunction*%
%TA.AperFunction,Conductor*%
G36*
X142254075Y-70427007D02*
G01*
X142220000Y-70554174D01*
X142220000Y-70685826D01*
X142254075Y-70812993D01*
X142286988Y-70870000D01*
X140613012Y-70870000D01*
X140645925Y-70812993D01*
X140680000Y-70685826D01*
X140680000Y-70554174D01*
X140645925Y-70427007D01*
X140613012Y-70370000D01*
X142286988Y-70370000D01*
X142254075Y-70427007D01*
G37*
%TD.AperFunction*%
%TA.AperFunction,Conductor*%
G36*
X144794075Y-70427007D02*
G01*
X144760000Y-70554174D01*
X144760000Y-70685826D01*
X144794075Y-70812993D01*
X144826988Y-70870000D01*
X143153012Y-70870000D01*
X143185925Y-70812993D01*
X143220000Y-70685826D01*
X143220000Y-70554174D01*
X143185925Y-70427007D01*
X143153012Y-70370000D01*
X144826988Y-70370000D01*
X144794075Y-70427007D01*
G37*
%TD.AperFunction*%
%TA.AperFunction,Conductor*%
G36*
X147334075Y-70427007D02*
G01*
X147300000Y-70554174D01*
X147300000Y-70685826D01*
X147334075Y-70812993D01*
X147366988Y-70870000D01*
X145693012Y-70870000D01*
X145725925Y-70812993D01*
X145760000Y-70685826D01*
X145760000Y-70554174D01*
X145725925Y-70427007D01*
X145693012Y-70370000D01*
X147366988Y-70370000D01*
X147334075Y-70427007D01*
G37*
%TD.AperFunction*%
%TA.AperFunction,Conductor*%
G36*
X96184730Y-65330185D02*
G01*
X96205372Y-65346819D01*
X96976466Y-66117913D01*
X96845825Y-66212829D01*
X96717829Y-66340825D01*
X96622912Y-66471466D01*
X95836777Y-65685331D01*
X95836775Y-65685331D01*
X95720185Y-65837276D01*
X95720174Y-65837292D01*
X95572709Y-66092707D01*
X95572704Y-66092718D01*
X95459838Y-66365199D01*
X95459835Y-66365209D01*
X95383499Y-66650102D01*
X95383496Y-66650115D01*
X95345001Y-66942516D01*
X95345000Y-66942533D01*
X95345000Y-67237466D01*
X95345001Y-67237483D01*
X95383496Y-67529884D01*
X95383499Y-67529897D01*
X95459835Y-67814790D01*
X95459838Y-67814800D01*
X95572704Y-68087281D01*
X95572709Y-68087292D01*
X95720174Y-68342707D01*
X95720180Y-68342715D01*
X95836777Y-68494667D01*
X96622912Y-67708531D01*
X96717829Y-67839175D01*
X96845825Y-67967171D01*
X96976466Y-68062086D01*
X96190331Y-68848221D01*
X96342284Y-68964819D01*
X96342292Y-68964825D01*
X96597707Y-69112290D01*
X96597718Y-69112295D01*
X96870199Y-69225161D01*
X96870209Y-69225164D01*
X97155102Y-69301500D01*
X97155115Y-69301503D01*
X97447516Y-69339998D01*
X97447534Y-69340000D01*
X97742466Y-69340000D01*
X97742483Y-69339998D01*
X98034884Y-69301503D01*
X98034897Y-69301500D01*
X98319790Y-69225164D01*
X98319800Y-69225161D01*
X98592281Y-69112295D01*
X98592292Y-69112290D01*
X98847707Y-68964825D01*
X98847725Y-68964813D01*
X98999667Y-68848222D01*
X98999667Y-68848220D01*
X98863781Y-68712334D01*
X98780158Y-68628711D01*
X110899500Y-68628711D01*
X110899500Y-68871288D01*
X110931161Y-69111785D01*
X110993947Y-69346104D01*
X111069252Y-69527906D01*
X111086776Y-69570212D01*
X111208064Y-69780289D01*
X111208066Y-69780292D01*
X111208067Y-69780293D01*
X111355733Y-69972736D01*
X111355739Y-69972743D01*
X111527256Y-70144260D01*
X111527263Y-70144266D01*
X111625833Y-70219901D01*
X111719711Y-70291936D01*
X111929788Y-70413224D01*
X112153900Y-70506054D01*
X112388211Y-70568838D01*
X112568586Y-70592584D01*
X112628711Y-70600500D01*
X112628712Y-70600500D01*
X112871289Y-70600500D01*
X112919388Y-70594167D01*
X113111789Y-70568838D01*
X113346100Y-70506054D01*
X113570212Y-70413224D01*
X113780289Y-70291936D01*
X113972738Y-70144265D01*
X114144265Y-69972738D01*
X114291936Y-69780289D01*
X114413224Y-69570212D01*
X114506054Y-69346100D01*
X114568838Y-69111789D01*
X114600500Y-68871288D01*
X114600500Y-68628712D01*
X114568838Y-68388211D01*
X114566292Y-68378711D01*
X149649500Y-68378711D01*
X149649500Y-68621288D01*
X149681161Y-68861785D01*
X149743947Y-69096104D01*
X149818629Y-69276401D01*
X149836776Y-69320212D01*
X149958064Y-69530289D01*
X149958066Y-69530292D01*
X149958067Y-69530293D01*
X150105733Y-69722736D01*
X150105739Y-69722743D01*
X150277256Y-69894260D01*
X150277263Y-69894266D01*
X150372183Y-69967100D01*
X150469711Y-70041936D01*
X150679788Y-70163224D01*
X150903900Y-70256054D01*
X151138211Y-70318838D01*
X151318586Y-70342584D01*
X151378711Y-70350500D01*
X151378712Y-70350500D01*
X151621289Y-70350500D01*
X151669388Y-70344167D01*
X151861789Y-70318838D01*
X152096100Y-70256054D01*
X152320212Y-70163224D01*
X152530289Y-70041936D01*
X152722738Y-69894265D01*
X152894265Y-69722738D01*
X153041936Y-69530289D01*
X153163224Y-69320212D01*
X153256054Y-69096100D01*
X153318838Y-68861789D01*
X153350500Y-68621288D01*
X153350500Y-68378712D01*
X153318838Y-68138211D01*
X153256054Y-67903900D01*
X153163224Y-67679788D01*
X153041936Y-67469711D01*
X152894265Y-67277262D01*
X152894260Y-67277256D01*
X152722743Y-67105739D01*
X152722736Y-67105733D01*
X152530293Y-66958067D01*
X152530292Y-66958066D01*
X152530289Y-66958064D01*
X152320212Y-66836776D01*
X152320205Y-66836773D01*
X152096104Y-66743947D01*
X151861785Y-66681161D01*
X151621289Y-66649500D01*
X151621288Y-66649500D01*
X151378712Y-66649500D01*
X151378711Y-66649500D01*
X151138214Y-66681161D01*
X150903895Y-66743947D01*
X150679794Y-66836773D01*
X150679785Y-66836777D01*
X150469706Y-66958067D01*
X150277263Y-67105733D01*
X150277256Y-67105739D01*
X150105739Y-67277256D01*
X150105733Y-67277263D01*
X149958067Y-67469706D01*
X149836777Y-67679785D01*
X149836773Y-67679794D01*
X149743947Y-67903895D01*
X149681161Y-68138214D01*
X149649500Y-68378711D01*
X114566292Y-68378711D01*
X114506054Y-68153900D01*
X114413224Y-67929788D01*
X114291936Y-67719711D01*
X114144265Y-67527262D01*
X114144260Y-67527256D01*
X113972743Y-67355739D01*
X113972736Y-67355733D01*
X113780293Y-67208067D01*
X113780292Y-67208066D01*
X113780289Y-67208064D01*
X113603050Y-67105735D01*
X113570214Y-67086777D01*
X113570205Y-67086773D01*
X113346104Y-66993947D01*
X113111785Y-66931161D01*
X112871289Y-66899500D01*
X112871288Y-66899500D01*
X112628712Y-66899500D01*
X112628711Y-66899500D01*
X112388214Y-66931161D01*
X112153895Y-66993947D01*
X111929794Y-67086773D01*
X111929785Y-67086777D01*
X111719706Y-67208067D01*
X111527263Y-67355733D01*
X111527256Y-67355739D01*
X111355739Y-67527256D01*
X111355733Y-67527263D01*
X111208067Y-67719706D01*
X111086777Y-67929785D01*
X111086773Y-67929794D01*
X110993947Y-68153895D01*
X110931161Y-68388214D01*
X110899500Y-68628711D01*
X98780158Y-68628711D01*
X98213533Y-68062086D01*
X98344175Y-67967171D01*
X98472171Y-67839175D01*
X98567086Y-67708533D01*
X99353220Y-68494667D01*
X99353222Y-68494667D01*
X99469813Y-68342725D01*
X99469825Y-68342707D01*
X99617290Y-68087292D01*
X99617295Y-68087281D01*
X99730161Y-67814800D01*
X99730164Y-67814790D01*
X99806500Y-67529897D01*
X99806503Y-67529884D01*
X99844998Y-67237483D01*
X99845000Y-67237466D01*
X99845000Y-66942533D01*
X99844998Y-66942516D01*
X99806503Y-66650115D01*
X99806500Y-66650102D01*
X99730164Y-66365209D01*
X99730161Y-66365199D01*
X99617295Y-66092718D01*
X99617290Y-66092707D01*
X99469825Y-65837292D01*
X99469819Y-65837284D01*
X99353221Y-65685331D01*
X98567086Y-66471466D01*
X98472171Y-66340825D01*
X98344175Y-66212829D01*
X98213533Y-66117912D01*
X98984626Y-65346819D01*
X99045949Y-65313334D01*
X99072307Y-65310500D01*
X154825500Y-65310500D01*
X154892539Y-65330185D01*
X154938294Y-65382989D01*
X154949500Y-65434500D01*
X154949500Y-112535500D01*
X154929815Y-112602539D01*
X154877011Y-112648294D01*
X154825500Y-112659500D01*
X93124000Y-112659500D01*
X93056961Y-112639815D01*
X93011206Y-112587011D01*
X93000000Y-112535500D01*
X93000000Y-109083389D01*
X102159500Y-109083389D01*
X102159500Y-109256611D01*
X102163384Y-109281135D01*
X102183873Y-109410500D01*
X102186598Y-109427701D01*
X102240127Y-109592445D01*
X102318768Y-109746788D01*
X102420586Y-109886928D01*
X102543072Y-110009414D01*
X102683212Y-110111232D01*
X102837555Y-110189873D01*
X103002299Y-110243402D01*
X103173389Y-110270500D01*
X103173390Y-110270500D01*
X104546610Y-110270500D01*
X104546611Y-110270500D01*
X104717701Y-110243402D01*
X104882445Y-110189873D01*
X105036788Y-110111232D01*
X105176928Y-110009414D01*
X105299414Y-109886928D01*
X105401232Y-109746788D01*
X105479873Y-109592445D01*
X105533402Y-109427701D01*
X105560500Y-109256611D01*
X105560500Y-109083389D01*
X105533402Y-108912299D01*
X105479873Y-108747555D01*
X105401232Y-108593212D01*
X105299414Y-108453072D01*
X105176928Y-108330586D01*
X105036788Y-108228768D01*
X104940670Y-108179794D01*
X104882447Y-108150128D01*
X104882446Y-108150127D01*
X104882445Y-108150127D01*
X104717701Y-108096598D01*
X104717699Y-108096597D01*
X104717698Y-108096597D01*
X104586271Y-108075781D01*
X104546611Y-108069500D01*
X103173389Y-108069500D01*
X103133728Y-108075781D01*
X103002302Y-108096597D01*
X102837552Y-108150128D01*
X102683211Y-108228768D01*
X102637263Y-108262152D01*
X102543072Y-108330586D01*
X102543070Y-108330588D01*
X102543069Y-108330588D01*
X102420588Y-108453069D01*
X102420588Y-108453070D01*
X102420586Y-108453072D01*
X102376859Y-108513256D01*
X102318768Y-108593211D01*
X102240128Y-108747552D01*
X102186597Y-108912302D01*
X102168053Y-109029388D01*
X102159500Y-109083389D01*
X93000000Y-109083389D01*
X93000000Y-72560639D01*
X93622500Y-72560639D01*
X93622500Y-72759360D01*
X93653587Y-72955637D01*
X93714993Y-73144629D01*
X93714994Y-73144632D01*
X93745098Y-73203713D01*
X93805213Y-73321694D01*
X93922019Y-73482464D01*
X93922021Y-73482466D01*
X94011874Y-73572319D01*
X94045359Y-73633642D01*
X94040375Y-73703334D01*
X94011874Y-73747681D01*
X93922021Y-73837533D01*
X93805213Y-73998305D01*
X93714994Y-74175367D01*
X93714993Y-74175370D01*
X93653587Y-74364362D01*
X93647573Y-74402335D01*
X93622500Y-74560639D01*
X93622500Y-74759361D01*
X93626751Y-74786202D01*
X93653587Y-74955637D01*
X93714993Y-75144629D01*
X93714994Y-75144632D01*
X93805213Y-75321694D01*
X93922019Y-75482464D01*
X94062536Y-75622981D01*
X94185863Y-75712583D01*
X94228528Y-75767913D01*
X94234507Y-75837526D01*
X94201901Y-75899321D01*
X94151982Y-75930607D01*
X94053666Y-75963186D01*
X94053663Y-75963187D01*
X93904342Y-76055289D01*
X93780289Y-76179342D01*
X93688187Y-76328663D01*
X93688186Y-76328666D01*
X93633001Y-76495203D01*
X93633001Y-76495204D01*
X93633000Y-76495204D01*
X93622500Y-76597983D01*
X93622500Y-77722001D01*
X93622501Y-77722018D01*
X93633000Y-77824796D01*
X93633001Y-77824799D01*
X93688185Y-77991331D01*
X93688187Y-77991336D01*
X93709065Y-78025185D01*
X93780288Y-78140656D01*
X93904344Y-78264712D01*
X94053666Y-78356814D01*
X94220203Y-78411999D01*
X94322991Y-78422500D01*
X95447008Y-78422499D01*
X95549797Y-78411999D01*
X95716334Y-78356814D01*
X95865656Y-78264712D01*
X95989712Y-78140656D01*
X96081814Y-77991334D01*
X96105287Y-77920495D01*
X96145060Y-77863051D01*
X96209575Y-77836228D01*
X96222993Y-77835500D01*
X96896189Y-77835500D01*
X96963228Y-77855185D01*
X97008983Y-77907989D01*
X97018927Y-77977147D01*
X96989902Y-78040703D01*
X96931124Y-78078477D01*
X96928282Y-78079275D01*
X96870209Y-78094835D01*
X96870199Y-78094838D01*
X96597718Y-78207704D01*
X96597707Y-78207709D01*
X96342292Y-78355174D01*
X96342276Y-78355185D01*
X96190331Y-78471775D01*
X96190331Y-78471777D01*
X96976466Y-79257912D01*
X96845825Y-79352829D01*
X96717829Y-79480825D01*
X96622912Y-79611466D01*
X95836777Y-78825331D01*
X95836775Y-78825331D01*
X95720185Y-78977276D01*
X95720174Y-78977292D01*
X95572709Y-79232707D01*
X95572704Y-79232718D01*
X95459838Y-79505199D01*
X95459835Y-79505209D01*
X95383499Y-79790102D01*
X95383496Y-79790115D01*
X95345001Y-80082516D01*
X95345000Y-80082533D01*
X95345000Y-80377466D01*
X95345001Y-80377483D01*
X95383496Y-80669884D01*
X95383499Y-80669897D01*
X95459835Y-80954790D01*
X95459838Y-80954800D01*
X95572704Y-81227281D01*
X95572709Y-81227292D01*
X95720174Y-81482707D01*
X95720180Y-81482715D01*
X95836777Y-81634667D01*
X96622912Y-80848531D01*
X96717829Y-80979175D01*
X96845825Y-81107171D01*
X96976466Y-81202086D01*
X96190331Y-81988221D01*
X96342284Y-82104819D01*
X96342292Y-82104825D01*
X96597707Y-82252290D01*
X96597723Y-82252298D01*
X96674427Y-82284069D01*
X96728831Y-82327909D01*
X96750896Y-82394203D01*
X96744681Y-82437633D01*
X96715001Y-82527200D01*
X96715000Y-82527204D01*
X96704500Y-82629983D01*
X96704500Y-83230001D01*
X96704502Y-83230024D01*
X96708217Y-83266398D01*
X96695446Y-83335091D01*
X96647564Y-83385974D01*
X96579774Y-83402893D01*
X96515640Y-83381166D01*
X96515354Y-83381595D01*
X96513759Y-83380529D01*
X96513598Y-83380475D01*
X96513016Y-83380033D01*
X96379185Y-83290609D01*
X96379172Y-83290602D01*
X96233501Y-83230264D01*
X96233489Y-83230261D01*
X96078845Y-83199500D01*
X96078842Y-83199500D01*
X95921158Y-83199500D01*
X95921155Y-83199500D01*
X95766510Y-83230261D01*
X95766498Y-83230264D01*
X95620827Y-83290602D01*
X95620814Y-83290609D01*
X95489711Y-83378210D01*
X95489707Y-83378213D01*
X95378213Y-83489707D01*
X95378210Y-83489711D01*
X95290609Y-83620814D01*
X95290602Y-83620827D01*
X95230264Y-83766498D01*
X95230261Y-83766510D01*
X95199500Y-83921153D01*
X95199500Y-84078846D01*
X95230261Y-84233489D01*
X95230264Y-84233501D01*
X95290602Y-84379172D01*
X95290609Y-84379185D01*
X95378602Y-84510874D01*
X95399480Y-84577551D01*
X95399500Y-84579765D01*
X95399500Y-86493330D01*
X95399499Y-86493348D01*
X95399499Y-86659054D01*
X95399498Y-86659054D01*
X95399499Y-86659057D01*
X95440423Y-86811785D01*
X95467786Y-86859179D01*
X95467786Y-86859180D01*
X95519475Y-86948709D01*
X95519481Y-86948717D01*
X95638349Y-87067585D01*
X95638355Y-87067590D01*
X96639902Y-88069137D01*
X96673387Y-88130460D01*
X96675580Y-88169414D01*
X96674500Y-88179986D01*
X96674500Y-88780001D01*
X96674501Y-88780019D01*
X96685000Y-88882796D01*
X96685001Y-88882799D01*
X96740185Y-89049331D01*
X96740187Y-89049336D01*
X96756468Y-89075731D01*
X96832288Y-89198656D01*
X96956344Y-89322712D01*
X97105666Y-89414814D01*
X97272203Y-89469999D01*
X97284543Y-89471259D01*
X97349232Y-89497651D01*
X97389387Y-89554830D01*
X97392253Y-89624641D01*
X97359624Y-89682298D01*
X96681286Y-90360638D01*
X96569481Y-90472442D01*
X96569479Y-90472444D01*
X96551956Y-90502797D01*
X96530301Y-90540305D01*
X96518901Y-90560051D01*
X96490423Y-90609374D01*
X96482212Y-90640019D01*
X96449499Y-90762103D01*
X96449499Y-90762105D01*
X96449499Y-90930206D01*
X96449500Y-90930219D01*
X96449500Y-97723330D01*
X96449499Y-97723348D01*
X96449499Y-97889054D01*
X96449498Y-97889054D01*
X96472460Y-97974749D01*
X96490423Y-98041785D01*
X96507874Y-98072011D01*
X96519358Y-98091900D01*
X96519359Y-98091904D01*
X96519360Y-98091904D01*
X96567997Y-98176148D01*
X96569479Y-98178714D01*
X96569481Y-98178717D01*
X96688349Y-98297585D01*
X96688354Y-98297589D01*
X107781284Y-109390520D01*
X107781286Y-109390521D01*
X107781290Y-109390524D01*
X107878796Y-109446818D01*
X107918216Y-109469577D01*
X108070943Y-109510501D01*
X108070945Y-109510501D01*
X108236654Y-109510501D01*
X108236670Y-109510500D01*
X113525500Y-109510500D01*
X113592539Y-109530185D01*
X113638294Y-109582989D01*
X113649500Y-109634500D01*
X113649500Y-109871288D01*
X113681161Y-110111785D01*
X113743947Y-110346104D01*
X113804733Y-110492853D01*
X113836776Y-110570212D01*
X113958064Y-110780289D01*
X113958066Y-110780292D01*
X113958067Y-110780293D01*
X114105733Y-110972736D01*
X114105739Y-110972743D01*
X114277256Y-111144260D01*
X114277263Y-111144266D01*
X114390321Y-111231018D01*
X114469711Y-111291936D01*
X114679788Y-111413224D01*
X114903900Y-111506054D01*
X115138211Y-111568838D01*
X115318586Y-111592584D01*
X115378711Y-111600500D01*
X115378712Y-111600500D01*
X115621289Y-111600500D01*
X115669388Y-111594167D01*
X115861789Y-111568838D01*
X116096100Y-111506054D01*
X116320212Y-111413224D01*
X116530289Y-111291936D01*
X116722738Y-111144265D01*
X116894265Y-110972738D01*
X117041936Y-110780289D01*
X117163224Y-110570212D01*
X117256054Y-110346100D01*
X117318838Y-110111789D01*
X117350500Y-109871288D01*
X117350500Y-109634500D01*
X117370185Y-109567461D01*
X117422989Y-109521706D01*
X117474500Y-109510500D01*
X120872152Y-109510500D01*
X120939191Y-109530185D01*
X120984946Y-109582989D01*
X120993769Y-109610308D01*
X121020261Y-109743491D01*
X121020264Y-109743501D01*
X121080602Y-109889172D01*
X121080609Y-109889185D01*
X121168210Y-110020288D01*
X121168213Y-110020292D01*
X121279707Y-110131786D01*
X121279711Y-110131789D01*
X121410814Y-110219390D01*
X121410827Y-110219397D01*
X121556498Y-110279735D01*
X121556503Y-110279737D01*
X121711153Y-110310499D01*
X121711156Y-110310500D01*
X121711158Y-110310500D01*
X121868844Y-110310500D01*
X121868845Y-110310499D01*
X122023497Y-110279737D01*
X122169179Y-110219394D01*
X122182777Y-110210308D01*
X122300875Y-110131398D01*
X122367553Y-110110520D01*
X122369766Y-110110500D01*
X124842152Y-110110500D01*
X124909191Y-110130185D01*
X124954946Y-110182989D01*
X124963769Y-110210308D01*
X124990261Y-110343491D01*
X124990264Y-110343501D01*
X125050602Y-110489172D01*
X125050609Y-110489185D01*
X125138210Y-110620288D01*
X125138213Y-110620292D01*
X125249707Y-110731786D01*
X125249711Y-110731789D01*
X125380814Y-110819390D01*
X125380827Y-110819397D01*
X125526498Y-110879735D01*
X125526503Y-110879737D01*
X125681153Y-110910499D01*
X125681156Y-110910500D01*
X125681158Y-110910500D01*
X125743741Y-110910500D01*
X125810780Y-110930185D01*
X125856535Y-110982989D01*
X125858302Y-110987048D01*
X125900602Y-111089172D01*
X125900609Y-111089185D01*
X125988210Y-111220288D01*
X125988213Y-111220292D01*
X126099707Y-111331786D01*
X126099711Y-111331789D01*
X126230814Y-111419390D01*
X126230827Y-111419397D01*
X126291314Y-111444451D01*
X126376503Y-111479737D01*
X126508797Y-111506052D01*
X126531153Y-111510499D01*
X126531156Y-111510500D01*
X126531158Y-111510500D01*
X126688844Y-111510500D01*
X126688845Y-111510499D01*
X126843497Y-111479737D01*
X126989179Y-111419394D01*
X127025885Y-111394868D01*
X127092562Y-111373989D01*
X127159942Y-111392473D01*
X127206633Y-111444451D01*
X127216394Y-111473777D01*
X127230261Y-111543491D01*
X127230264Y-111543501D01*
X127290602Y-111689172D01*
X127290609Y-111689185D01*
X127378210Y-111820288D01*
X127378213Y-111820292D01*
X127489707Y-111931786D01*
X127489711Y-111931789D01*
X127620814Y-112019390D01*
X127620827Y-112019397D01*
X127766498Y-112079735D01*
X127766503Y-112079737D01*
X127921153Y-112110499D01*
X127921156Y-112110500D01*
X127921158Y-112110500D01*
X128078844Y-112110500D01*
X128078845Y-112110499D01*
X128233497Y-112079737D01*
X128379179Y-112019394D01*
X128387928Y-112013547D01*
X128398628Y-112006399D01*
X128465305Y-111985520D01*
X128467520Y-111985500D01*
X145156532Y-111985500D01*
X145156533Y-111985499D01*
X145287036Y-111959541D01*
X145409969Y-111908620D01*
X145520606Y-111834695D01*
X149023796Y-108331504D01*
X149085117Y-108298021D01*
X149154809Y-108303005D01*
X149210742Y-108344877D01*
X149235159Y-108410341D01*
X149231250Y-108451280D01*
X149181161Y-108638212D01*
X149149500Y-108878711D01*
X149149500Y-109121288D01*
X149181161Y-109361785D01*
X149243947Y-109596104D01*
X149305001Y-109743501D01*
X149336776Y-109820212D01*
X149458064Y-110030289D01*
X149458066Y-110030292D01*
X149458067Y-110030293D01*
X149605733Y-110222736D01*
X149605739Y-110222743D01*
X149777256Y-110394260D01*
X149777262Y-110394265D01*
X149969711Y-110541936D01*
X150179788Y-110663224D01*
X150403900Y-110756054D01*
X150638211Y-110818838D01*
X150818586Y-110842584D01*
X150878711Y-110850500D01*
X150878712Y-110850500D01*
X151121289Y-110850500D01*
X151169388Y-110844167D01*
X151361789Y-110818838D01*
X151596100Y-110756054D01*
X151820212Y-110663224D01*
X152030289Y-110541936D01*
X152222738Y-110394265D01*
X152394265Y-110222738D01*
X152541936Y-110030289D01*
X152663224Y-109820212D01*
X152756054Y-109596100D01*
X152818838Y-109361789D01*
X152850500Y-109121288D01*
X152850500Y-108878712D01*
X152849600Y-108871879D01*
X152840982Y-108806414D01*
X152818838Y-108638211D01*
X152756054Y-108403900D01*
X152663224Y-108179788D01*
X152541936Y-107969711D01*
X152426840Y-107819715D01*
X152394266Y-107777263D01*
X152394260Y-107777256D01*
X152222743Y-107605739D01*
X152222736Y-107605733D01*
X152030293Y-107458067D01*
X152030292Y-107458066D01*
X152030289Y-107458064D01*
X151820212Y-107336776D01*
X151810722Y-107332845D01*
X151596104Y-107243947D01*
X151478944Y-107212554D01*
X151361789Y-107181162D01*
X151361788Y-107181161D01*
X151361785Y-107181161D01*
X151121289Y-107149500D01*
X151121288Y-107149500D01*
X150878712Y-107149500D01*
X150878711Y-107149500D01*
X150638212Y-107181161D01*
X150451280Y-107231250D01*
X150381430Y-107229587D01*
X150323568Y-107190424D01*
X150296064Y-107126196D01*
X150307651Y-107057294D01*
X150331503Y-107023797D01*
X150683482Y-106671819D01*
X150744805Y-106638334D01*
X150771163Y-106635500D01*
X151006669Y-106635500D01*
X151006674Y-106635500D01*
X151105185Y-106625436D01*
X151264787Y-106572549D01*
X151407891Y-106484281D01*
X151526781Y-106365391D01*
X151615049Y-106222287D01*
X151667936Y-106062685D01*
X151678000Y-105964174D01*
X151678000Y-105728663D01*
X151697685Y-105661624D01*
X151714319Y-105640982D01*
X153184692Y-104170609D01*
X153184695Y-104170606D01*
X153258620Y-104059969D01*
X153309540Y-103937036D01*
X153324967Y-103859481D01*
X153335500Y-103806533D01*
X153335500Y-78163468D01*
X153335499Y-78163467D01*
X153326953Y-78120500D01*
X153309541Y-78032964D01*
X153258620Y-77910031D01*
X153258618Y-77910028D01*
X153258616Y-77910024D01*
X153184695Y-77799394D01*
X153184692Y-77799390D01*
X149095673Y-73710372D01*
X149062188Y-73649049D01*
X149060881Y-73603293D01*
X149080018Y-73482466D01*
X149090500Y-73416287D01*
X149090500Y-73203713D01*
X149057246Y-72993757D01*
X148991557Y-72791588D01*
X148895051Y-72602184D01*
X148895049Y-72602181D01*
X148895048Y-72602179D01*
X148770109Y-72430213D01*
X148619786Y-72279890D01*
X148447820Y-72154951D01*
X148321308Y-72090490D01*
X148270512Y-72042515D01*
X148253717Y-71974694D01*
X148276254Y-71908559D01*
X148321308Y-71869520D01*
X148507557Y-71774620D01*
X148679459Y-71649727D01*
X148679464Y-71649723D01*
X148829723Y-71499464D01*
X148829727Y-71499459D01*
X148954620Y-71327557D01*
X149051095Y-71138217D01*
X149116757Y-70936129D01*
X149116757Y-70936126D01*
X149127231Y-70870000D01*
X148233012Y-70870000D01*
X148265925Y-70812993D01*
X148300000Y-70685826D01*
X148300000Y-70554174D01*
X148265925Y-70427007D01*
X148233012Y-70370000D01*
X149127231Y-70370000D01*
X149116757Y-70303873D01*
X149116757Y-70303870D01*
X149051095Y-70101782D01*
X148954620Y-69912442D01*
X148829727Y-69740540D01*
X148829723Y-69740535D01*
X148679464Y-69590276D01*
X148679459Y-69590272D01*
X148507557Y-69465379D01*
X148318215Y-69368903D01*
X148116124Y-69303241D01*
X148050000Y-69292768D01*
X148050000Y-70186988D01*
X147992993Y-70154075D01*
X147865826Y-70120000D01*
X147734174Y-70120000D01*
X147607007Y-70154075D01*
X147550000Y-70186988D01*
X147550000Y-69292768D01*
X147549999Y-69292768D01*
X147483875Y-69303241D01*
X147281784Y-69368903D01*
X147092442Y-69465379D01*
X146920540Y-69590272D01*
X146920535Y-69590276D01*
X146770276Y-69740535D01*
X146770272Y-69740540D01*
X146645377Y-69912444D01*
X146640484Y-69922048D01*
X146592509Y-69972844D01*
X146524688Y-69989638D01*
X146458553Y-69967100D01*
X146419516Y-69922048D01*
X146414622Y-69912444D01*
X146289727Y-69740540D01*
X146289723Y-69740535D01*
X146139464Y-69590276D01*
X146139459Y-69590272D01*
X145967557Y-69465379D01*
X145778215Y-69368903D01*
X145576124Y-69303241D01*
X145510000Y-69292768D01*
X145510000Y-70186988D01*
X145452993Y-70154075D01*
X145325826Y-70120000D01*
X145194174Y-70120000D01*
X145067007Y-70154075D01*
X145010000Y-70186988D01*
X145010000Y-69292768D01*
X145009999Y-69292768D01*
X144943875Y-69303241D01*
X144741784Y-69368903D01*
X144552442Y-69465379D01*
X144380540Y-69590272D01*
X144380535Y-69590276D01*
X144230276Y-69740535D01*
X144230272Y-69740540D01*
X144105377Y-69912444D01*
X144100484Y-69922048D01*
X144052509Y-69972844D01*
X143984688Y-69989638D01*
X143918553Y-69967100D01*
X143879516Y-69922048D01*
X143874622Y-69912444D01*
X143749727Y-69740540D01*
X143749723Y-69740535D01*
X143599464Y-69590276D01*
X143599459Y-69590272D01*
X143427557Y-69465379D01*
X143238215Y-69368903D01*
X143036124Y-69303241D01*
X142970000Y-69292768D01*
X142970000Y-70186988D01*
X142912993Y-70154075D01*
X142785826Y-70120000D01*
X142654174Y-70120000D01*
X142527007Y-70154075D01*
X142470000Y-70186988D01*
X142470000Y-69292768D01*
X142469999Y-69292768D01*
X142403875Y-69303241D01*
X142201784Y-69368903D01*
X142012442Y-69465379D01*
X141840540Y-69590272D01*
X141840535Y-69590276D01*
X141690276Y-69740535D01*
X141690272Y-69740540D01*
X141565377Y-69912444D01*
X141560484Y-69922048D01*
X141512509Y-69972844D01*
X141444688Y-69989638D01*
X141378553Y-69967100D01*
X141339516Y-69922048D01*
X141334622Y-69912444D01*
X141209727Y-69740540D01*
X141209723Y-69740535D01*
X141059464Y-69590276D01*
X141059459Y-69590272D01*
X140887557Y-69465379D01*
X140698215Y-69368903D01*
X140496124Y-69303241D01*
X140430000Y-69292768D01*
X140430000Y-70186988D01*
X140372993Y-70154075D01*
X140245826Y-70120000D01*
X140114174Y-70120000D01*
X139987007Y-70154075D01*
X139930000Y-70186988D01*
X139930000Y-69292768D01*
X139929999Y-69292768D01*
X139863875Y-69303241D01*
X139661784Y-69368903D01*
X139472442Y-69465379D01*
X139300540Y-69590272D01*
X139300535Y-69590276D01*
X139150276Y-69740535D01*
X139150272Y-69740540D01*
X139025377Y-69912444D01*
X139020484Y-69922048D01*
X138972509Y-69972844D01*
X138904688Y-69989638D01*
X138838553Y-69967100D01*
X138799516Y-69922048D01*
X138794622Y-69912444D01*
X138669727Y-69740540D01*
X138669723Y-69740535D01*
X138519464Y-69590276D01*
X138519459Y-69590272D01*
X138347557Y-69465379D01*
X138158215Y-69368903D01*
X137956124Y-69303241D01*
X137890000Y-69292768D01*
X137890000Y-70186988D01*
X137832993Y-70154075D01*
X137705826Y-70120000D01*
X137574174Y-70120000D01*
X137447007Y-70154075D01*
X137390000Y-70186988D01*
X137390000Y-69292768D01*
X137389999Y-69292768D01*
X137323875Y-69303241D01*
X137121784Y-69368903D01*
X136932442Y-69465379D01*
X136760540Y-69590272D01*
X136760535Y-69590276D01*
X136610276Y-69740535D01*
X136610272Y-69740540D01*
X136485377Y-69912444D01*
X136480484Y-69922048D01*
X136432509Y-69972844D01*
X136364688Y-69989638D01*
X136298553Y-69967100D01*
X136259516Y-69922048D01*
X136254622Y-69912444D01*
X136129727Y-69740540D01*
X136129723Y-69740535D01*
X135979464Y-69590276D01*
X135979459Y-69590272D01*
X135807557Y-69465379D01*
X135618215Y-69368903D01*
X135416124Y-69303241D01*
X135350000Y-69292768D01*
X135350000Y-70186988D01*
X135292993Y-70154075D01*
X135165826Y-70120000D01*
X135034174Y-70120000D01*
X134907007Y-70154075D01*
X134850000Y-70186988D01*
X134850000Y-69292768D01*
X134849999Y-69292768D01*
X134783875Y-69303241D01*
X134581784Y-69368903D01*
X134392442Y-69465379D01*
X134220540Y-69590272D01*
X134220535Y-69590276D01*
X134070276Y-69740535D01*
X134070272Y-69740540D01*
X133945377Y-69912444D01*
X133940484Y-69922048D01*
X133892509Y-69972844D01*
X133824688Y-69989638D01*
X133758553Y-69967100D01*
X133719516Y-69922048D01*
X133714622Y-69912444D01*
X133589727Y-69740540D01*
X133589723Y-69740535D01*
X133439464Y-69590276D01*
X133439459Y-69590272D01*
X133267557Y-69465379D01*
X133078215Y-69368903D01*
X132876124Y-69303241D01*
X132810000Y-69292768D01*
X132810000Y-70186988D01*
X132752993Y-70154075D01*
X132625826Y-70120000D01*
X132494174Y-70120000D01*
X132367007Y-70154075D01*
X132310000Y-70186988D01*
X132310000Y-69292768D01*
X132309999Y-69292768D01*
X132243875Y-69303241D01*
X132041784Y-69368903D01*
X131852442Y-69465379D01*
X131680540Y-69590272D01*
X131680535Y-69590276D01*
X131530276Y-69740535D01*
X131530272Y-69740540D01*
X131405377Y-69912444D01*
X131400484Y-69922048D01*
X131352509Y-69972844D01*
X131284688Y-69989638D01*
X131218553Y-69967100D01*
X131179516Y-69922048D01*
X131174622Y-69912444D01*
X131049727Y-69740540D01*
X131049723Y-69740535D01*
X130899464Y-69590276D01*
X130899459Y-69590272D01*
X130727557Y-69465379D01*
X130538215Y-69368903D01*
X130336124Y-69303241D01*
X130270000Y-69292768D01*
X130270000Y-70186988D01*
X130212993Y-70154075D01*
X130085826Y-70120000D01*
X129954174Y-70120000D01*
X129827007Y-70154075D01*
X129770000Y-70186988D01*
X129770000Y-69292768D01*
X129769999Y-69292768D01*
X129703875Y-69303241D01*
X129501784Y-69368903D01*
X129312442Y-69465379D01*
X129140540Y-69590272D01*
X129140535Y-69590276D01*
X128990276Y-69740535D01*
X128990272Y-69740540D01*
X128865377Y-69912444D01*
X128860484Y-69922048D01*
X128812509Y-69972844D01*
X128744688Y-69989638D01*
X128678553Y-69967100D01*
X128639516Y-69922048D01*
X128634622Y-69912444D01*
X128509727Y-69740540D01*
X128509723Y-69740535D01*
X128359464Y-69590276D01*
X128359459Y-69590272D01*
X128187557Y-69465379D01*
X127998215Y-69368903D01*
X127796124Y-69303241D01*
X127730000Y-69292768D01*
X127730000Y-70186988D01*
X127672993Y-70154075D01*
X127545826Y-70120000D01*
X127414174Y-70120000D01*
X127287007Y-70154075D01*
X127230000Y-70186988D01*
X127230000Y-69292768D01*
X127229999Y-69292768D01*
X127163875Y-69303241D01*
X126961784Y-69368903D01*
X126772442Y-69465379D01*
X126600540Y-69590272D01*
X126600535Y-69590276D01*
X126450276Y-69740535D01*
X126450272Y-69740540D01*
X126325377Y-69912444D01*
X126320484Y-69922048D01*
X126272509Y-69972844D01*
X126204688Y-69989638D01*
X126138553Y-69967100D01*
X126099516Y-69922048D01*
X126094622Y-69912444D01*
X125969727Y-69740540D01*
X125969723Y-69740535D01*
X125819464Y-69590276D01*
X125819459Y-69590272D01*
X125647557Y-69465379D01*
X125458215Y-69368903D01*
X125256124Y-69303241D01*
X125190000Y-69292768D01*
X125190000Y-70186988D01*
X125132993Y-70154075D01*
X125005826Y-70120000D01*
X124874174Y-70120000D01*
X124747007Y-70154075D01*
X124690000Y-70186988D01*
X124690000Y-69292768D01*
X124689999Y-69292768D01*
X124623875Y-69303241D01*
X124421784Y-69368903D01*
X124232442Y-69465379D01*
X124060540Y-69590272D01*
X124060535Y-69590276D01*
X123910276Y-69740535D01*
X123910272Y-69740540D01*
X123785377Y-69912444D01*
X123780484Y-69922048D01*
X123732509Y-69972844D01*
X123664688Y-69989638D01*
X123598553Y-69967100D01*
X123559516Y-69922048D01*
X123554622Y-69912444D01*
X123429727Y-69740540D01*
X123429723Y-69740535D01*
X123279464Y-69590276D01*
X123279459Y-69590272D01*
X123107557Y-69465379D01*
X122918215Y-69368903D01*
X122716124Y-69303241D01*
X122650000Y-69292768D01*
X122650000Y-70186988D01*
X122592993Y-70154075D01*
X122465826Y-70120000D01*
X122334174Y-70120000D01*
X122207007Y-70154075D01*
X122150000Y-70186988D01*
X122150000Y-69292768D01*
X122149999Y-69292768D01*
X122083875Y-69303241D01*
X121881784Y-69368903D01*
X121692442Y-69465379D01*
X121520541Y-69590271D01*
X121406477Y-69704335D01*
X121345154Y-69737819D01*
X121275462Y-69732835D01*
X121219529Y-69690963D01*
X121202614Y-69659986D01*
X121153354Y-69527913D01*
X121153350Y-69527906D01*
X121067190Y-69412812D01*
X121067187Y-69412809D01*
X120952093Y-69326649D01*
X120952086Y-69326645D01*
X120817379Y-69276403D01*
X120817372Y-69276401D01*
X120757844Y-69270000D01*
X120110000Y-69270000D01*
X120110000Y-70186988D01*
X120052993Y-70154075D01*
X119925826Y-70120000D01*
X119794174Y-70120000D01*
X119667007Y-70154075D01*
X119610000Y-70186988D01*
X119610000Y-69270000D01*
X118962155Y-69270000D01*
X118902627Y-69276401D01*
X118902620Y-69276403D01*
X118767913Y-69326645D01*
X118767906Y-69326649D01*
X118652812Y-69412809D01*
X118652809Y-69412812D01*
X118566649Y-69527906D01*
X118566645Y-69527913D01*
X118516403Y-69662620D01*
X118516401Y-69662627D01*
X118510000Y-69722155D01*
X118510000Y-70370000D01*
X119426988Y-70370000D01*
X119394075Y-70427007D01*
X119360000Y-70554174D01*
X119360000Y-70685826D01*
X119394075Y-70812993D01*
X119426988Y-70870000D01*
X118510000Y-70870000D01*
X118510000Y-71517844D01*
X118516401Y-71577372D01*
X118516403Y-71577379D01*
X118566645Y-71712086D01*
X118566649Y-71712093D01*
X118652808Y-71827186D01*
X118673882Y-71842962D01*
X118715753Y-71898896D01*
X118720737Y-71968588D01*
X118687252Y-72029911D01*
X118673883Y-72041495D01*
X118592452Y-72102455D01*
X118506206Y-72217664D01*
X118506202Y-72217671D01*
X118455908Y-72352517D01*
X118449501Y-72412116D01*
X118449500Y-72412135D01*
X118449500Y-74207870D01*
X118449501Y-74207876D01*
X118455908Y-74267483D01*
X118506202Y-74402328D01*
X118506206Y-74402335D01*
X118592452Y-74517544D01*
X118592455Y-74517547D01*
X118707664Y-74603793D01*
X118707671Y-74603797D01*
X118842517Y-74654091D01*
X118842516Y-74654091D01*
X118849444Y-74654835D01*
X118902127Y-74660500D01*
X119104699Y-74660499D01*
X119171736Y-74680183D01*
X119217491Y-74732987D01*
X119227435Y-74802145D01*
X119198410Y-74865701D01*
X119160993Y-74894983D01*
X119102182Y-74924949D01*
X118930213Y-75049890D01*
X118779890Y-75200213D01*
X118654951Y-75372179D01*
X118558444Y-75561585D01*
X118492753Y-75763760D01*
X118459500Y-75973713D01*
X118459500Y-76186286D01*
X118492754Y-76396246D01*
X118515161Y-76465209D01*
X118517156Y-76535050D01*
X118484911Y-76591207D01*
X118066635Y-77009485D01*
X117959487Y-77116632D01*
X117959485Y-77116635D01*
X117883719Y-77247863D01*
X117844500Y-77394234D01*
X117844500Y-83279785D01*
X117824815Y-83346824D01*
X117772011Y-83392579D01*
X117702853Y-83402523D01*
X117639297Y-83373498D01*
X117621234Y-83354097D01*
X117605477Y-83333049D01*
X117597546Y-83322454D01*
X117597544Y-83322453D01*
X117597544Y-83322452D01*
X117482335Y-83236206D01*
X117482328Y-83236202D01*
X117347482Y-83185908D01*
X117347483Y-83185908D01*
X117287883Y-83179501D01*
X117287881Y-83179500D01*
X117287873Y-83179500D01*
X117287865Y-83179500D01*
X115904742Y-83179500D01*
X115837703Y-83159815D01*
X115817061Y-83143181D01*
X114363367Y-81689487D01*
X114363365Y-81689485D01*
X114297750Y-81651602D01*
X114232136Y-81613719D01*
X114158950Y-81594109D01*
X114085766Y-81574500D01*
X114085765Y-81574500D01*
X109147941Y-81574500D01*
X109080902Y-81554815D01*
X109060260Y-81538181D01*
X109050292Y-81528213D01*
X109050288Y-81528210D01*
X108919185Y-81440609D01*
X108919172Y-81440602D01*
X108773501Y-81380264D01*
X108773489Y-81380261D01*
X108618845Y-81349500D01*
X108618842Y-81349500D01*
X108461158Y-81349500D01*
X108461155Y-81349500D01*
X108306510Y-81380261D01*
X108306498Y-81380264D01*
X108160827Y-81440602D01*
X108160814Y-81440609D01*
X108029711Y-81528210D01*
X108029707Y-81528213D01*
X107962792Y-81595129D01*
X107901469Y-81628614D01*
X107831777Y-81623630D01*
X107787430Y-81595129D01*
X102997609Y-76805307D01*
X102997605Y-76805304D01*
X102886975Y-76731383D01*
X102886965Y-76731378D01*
X102764036Y-76680459D01*
X102764028Y-76680457D01*
X102633535Y-76654500D01*
X102633531Y-76654500D01*
X98646949Y-76654500D01*
X98579910Y-76634815D01*
X98578058Y-76633602D01*
X98469975Y-76561383D01*
X98469965Y-76561378D01*
X98347036Y-76510459D01*
X98347028Y-76510457D01*
X98216535Y-76484500D01*
X98216531Y-76484500D01*
X96222993Y-76484500D01*
X96155954Y-76464815D01*
X96110199Y-76412011D01*
X96105287Y-76399504D01*
X96081814Y-76328666D01*
X95989712Y-76179344D01*
X95865656Y-76055288D01*
X95716334Y-75963186D01*
X95618016Y-75930606D01*
X95560573Y-75890834D01*
X95533750Y-75826318D01*
X95546065Y-75757542D01*
X95584137Y-75712583D01*
X95707464Y-75622981D01*
X95847981Y-75482464D01*
X95917618Y-75386615D01*
X95972948Y-75343949D01*
X96017937Y-75335500D01*
X97673052Y-75335500D01*
X97740091Y-75355185D01*
X97741905Y-75356373D01*
X97850031Y-75428619D01*
X97972964Y-75479540D01*
X97972968Y-75479540D01*
X97972969Y-75479541D01*
X98103466Y-75505500D01*
X98103469Y-75505500D01*
X98236533Y-75505500D01*
X98324325Y-75488035D01*
X98367036Y-75479540D01*
X98462640Y-75439939D01*
X98510093Y-75430500D01*
X107997403Y-75430500D01*
X108064442Y-75450185D01*
X108085084Y-75466819D01*
X111563181Y-78944917D01*
X111596666Y-79006240D01*
X111599500Y-79032598D01*
X111599500Y-79645001D01*
X111599501Y-79645019D01*
X111610000Y-79747796D01*
X111610001Y-79747799D01*
X111652631Y-79876446D01*
X111665186Y-79914334D01*
X111757288Y-80063656D01*
X111881344Y-80187712D01*
X112030666Y-80279814D01*
X112197203Y-80334999D01*
X112299991Y-80345500D01*
X113300008Y-80345499D01*
X113300016Y-80345498D01*
X113300019Y-80345498D01*
X113356302Y-80339748D01*
X113402797Y-80334999D01*
X113569334Y-80279814D01*
X113718656Y-80187712D01*
X113842712Y-80063656D01*
X113934814Y-79914334D01*
X113989999Y-79747797D01*
X114000500Y-79645009D01*
X114000499Y-79019992D01*
X113989999Y-78917203D01*
X113934814Y-78750666D01*
X113842712Y-78601344D01*
X113749049Y-78507681D01*
X113715564Y-78446358D01*
X113720548Y-78376666D01*
X113749049Y-78332319D01*
X113768357Y-78313011D01*
X113842712Y-78238656D01*
X113934814Y-78089334D01*
X113989999Y-77922797D01*
X114000500Y-77820009D01*
X114000499Y-77194992D01*
X113992494Y-77116632D01*
X113989999Y-77092203D01*
X113989998Y-77092200D01*
X113934814Y-76925666D01*
X113842712Y-76776344D01*
X113718656Y-76652288D01*
X113569334Y-76560186D01*
X113402797Y-76505001D01*
X113402795Y-76505000D01*
X113300016Y-76494500D01*
X113300009Y-76494500D01*
X112687597Y-76494500D01*
X112620558Y-76474815D01*
X112599916Y-76458181D01*
X108610090Y-72468355D01*
X108610088Y-72468352D01*
X108491217Y-72349481D01*
X108491216Y-72349480D01*
X108404404Y-72299360D01*
X108404404Y-72299359D01*
X108404400Y-72299358D01*
X108354285Y-72270423D01*
X108201557Y-72229499D01*
X108043443Y-72229499D01*
X108035847Y-72229499D01*
X108035831Y-72229500D01*
X98446913Y-72229500D01*
X98379874Y-72209815D01*
X98359236Y-72193185D01*
X98301356Y-72135305D01*
X98301355Y-72135304D01*
X98301354Y-72135303D01*
X98190725Y-72061383D01*
X98190715Y-72061378D01*
X98067786Y-72010459D01*
X98067778Y-72010457D01*
X97937285Y-71984500D01*
X97937281Y-71984500D01*
X96017937Y-71984500D01*
X95950898Y-71964815D01*
X95917618Y-71933384D01*
X95847984Y-71837539D01*
X95707466Y-71697021D01*
X95707464Y-71697019D01*
X95546694Y-71580213D01*
X95428919Y-71520203D01*
X95378124Y-71472229D01*
X95361329Y-71404408D01*
X95383866Y-71338273D01*
X95428921Y-71299234D01*
X95546422Y-71239364D01*
X95583716Y-71212268D01*
X94981750Y-70610302D01*
X95062553Y-70588651D01*
X95167446Y-70528091D01*
X95253091Y-70442446D01*
X95313651Y-70337553D01*
X95335302Y-70256749D01*
X95937268Y-70858715D01*
X95964362Y-70821425D01*
X96054542Y-70644437D01*
X96115924Y-70455523D01*
X96115924Y-70455520D01*
X96147000Y-70259321D01*
X96147000Y-70060678D01*
X96115924Y-69864479D01*
X96115924Y-69864476D01*
X96054542Y-69675562D01*
X95964358Y-69498567D01*
X95937268Y-69461283D01*
X95335302Y-70063249D01*
X95313651Y-69982447D01*
X95253091Y-69877554D01*
X95167446Y-69791909D01*
X95062553Y-69731349D01*
X94981749Y-69709697D01*
X95583716Y-69107731D01*
X95583715Y-69107730D01*
X95546432Y-69080641D01*
X95369437Y-68990457D01*
X95180522Y-68929075D01*
X95140535Y-68922742D01*
X94984321Y-68898000D01*
X94785679Y-68898000D01*
X94589479Y-68929075D01*
X94589476Y-68929075D01*
X94400562Y-68990457D01*
X94223564Y-69080643D01*
X94186283Y-69107729D01*
X94186282Y-69107730D01*
X94788250Y-69709697D01*
X94707447Y-69731349D01*
X94602554Y-69791909D01*
X94516909Y-69877554D01*
X94456349Y-69982447D01*
X94434697Y-70063250D01*
X93832730Y-69461282D01*
X93832729Y-69461283D01*
X93805643Y-69498564D01*
X93715457Y-69675562D01*
X93654075Y-69864476D01*
X93654075Y-69864479D01*
X93623000Y-70060678D01*
X93623000Y-70259321D01*
X93654075Y-70455520D01*
X93654075Y-70455523D01*
X93715457Y-70644437D01*
X93805641Y-70821432D01*
X93832730Y-70858715D01*
X93832731Y-70858716D01*
X94434697Y-70256749D01*
X94456349Y-70337553D01*
X94516909Y-70442446D01*
X94602554Y-70528091D01*
X94707447Y-70588651D01*
X94788250Y-70610302D01*
X94186283Y-71212268D01*
X94186283Y-71212269D01*
X94223567Y-71239358D01*
X94341079Y-71299234D01*
X94391875Y-71347209D01*
X94408670Y-71415030D01*
X94386133Y-71481165D01*
X94341079Y-71520204D01*
X94223305Y-71580213D01*
X94062533Y-71697021D01*
X93922021Y-71837533D01*
X93805213Y-71998305D01*
X93714994Y-72175367D01*
X93714993Y-72175370D01*
X93653587Y-72364362D01*
X93622500Y-72560639D01*
X93000000Y-72560639D01*
X93000000Y-65434500D01*
X93019685Y-65367461D01*
X93072489Y-65321706D01*
X93124000Y-65310500D01*
X96117691Y-65310500D01*
X96184730Y-65330185D01*
G37*
%TD.AperFunction*%
%TD*%
%TA.AperFunction,NonConductor*%
G36*
X146442403Y-105804871D02*
G01*
X146475760Y-105851130D01*
X146505464Y-105922841D01*
X146601718Y-106048282D01*
X146727159Y-106144536D01*
X146727162Y-106144537D01*
X146727163Y-106144538D01*
X146778627Y-106165855D01*
X146785559Y-106170487D01*
X146790602Y-106171584D01*
X146818852Y-106192731D01*
X146972421Y-106346299D01*
X146972428Y-106346307D01*
X146979486Y-106353365D01*
X147086636Y-106460515D01*
X147217866Y-106536281D01*
X147364234Y-106575500D01*
X147364235Y-106575500D01*
X148569836Y-106575500D01*
X148636875Y-106595185D01*
X148682630Y-106647989D01*
X148692574Y-106717147D01*
X148663549Y-106780703D01*
X148657517Y-106787181D01*
X144846518Y-110598181D01*
X144785195Y-110631666D01*
X144758837Y-110634500D01*
X137537430Y-110634500D01*
X137470391Y-110614815D01*
X137424636Y-110562011D01*
X137414692Y-110492853D01*
X137443717Y-110429297D01*
X137449749Y-110422819D01*
X138425749Y-109446818D01*
X138487072Y-109413333D01*
X138513430Y-109410499D01*
X138632501Y-109410499D01*
X138632513Y-109410499D01*
X138668537Y-109407665D01*
X138822726Y-109362869D01*
X138960931Y-109281135D01*
X139074468Y-109167598D01*
X139156202Y-109029393D01*
X139200998Y-108875204D01*
X139203833Y-108839181D01*
X139203832Y-108440820D01*
X139200998Y-108404796D01*
X139193531Y-108379094D01*
X139193730Y-108309227D01*
X139231671Y-108250556D01*
X139295309Y-108221712D01*
X139312607Y-108220500D01*
X139580725Y-108220500D01*
X139647764Y-108240185D01*
X139693519Y-108292989D01*
X139703463Y-108362147D01*
X139699802Y-108379094D01*
X139692334Y-108404797D01*
X139689500Y-108440811D01*
X139689500Y-108839169D01*
X139689501Y-108839191D01*
X139692335Y-108875205D01*
X139737129Y-109029388D01*
X139737131Y-109029393D01*
X139818863Y-109167595D01*
X139818869Y-109167603D01*
X139932396Y-109281130D01*
X139932400Y-109281133D01*
X139932402Y-109281135D01*
X140070607Y-109362869D01*
X140111268Y-109374682D01*
X140224791Y-109407664D01*
X140224794Y-109407664D01*
X140224796Y-109407665D01*
X140260819Y-109410500D01*
X140268121Y-109410499D01*
X140292314Y-109412881D01*
X140379298Y-109430184D01*
X140431157Y-109440500D01*
X140431158Y-109440500D01*
X140588844Y-109440500D01*
X140727685Y-109412882D01*
X140751877Y-109410499D01*
X140759168Y-109410499D01*
X140759180Y-109410499D01*
X140795204Y-109407665D01*
X140949393Y-109362869D01*
X141087598Y-109281135D01*
X141201135Y-109167598D01*
X141282869Y-109029393D01*
X141327665Y-108875204D01*
X141330500Y-108839181D01*
X141330499Y-108440820D01*
X141327665Y-108404796D01*
X141282869Y-108250607D01*
X141248869Y-108193117D01*
X141231688Y-108125398D01*
X141248869Y-108066882D01*
X141282869Y-108009393D01*
X141287357Y-107993947D01*
X141327664Y-107855208D01*
X141327665Y-107855202D01*
X141330500Y-107819181D01*
X141330499Y-107420820D01*
X141327665Y-107384796D01*
X141282869Y-107230607D01*
X141201135Y-107092402D01*
X141201133Y-107092400D01*
X141201130Y-107092396D01*
X141087603Y-106978869D01*
X141087595Y-106978863D01*
X140949393Y-106897131D01*
X140949388Y-106897129D01*
X140795208Y-106852335D01*
X140795202Y-106852334D01*
X140759181Y-106849500D01*
X140260830Y-106849500D01*
X140260808Y-106849501D01*
X140224794Y-106852335D01*
X140070611Y-106897129D01*
X140070606Y-106897131D01*
X139932404Y-106978863D01*
X139932396Y-106978869D01*
X139928085Y-106983181D01*
X139866762Y-107016666D01*
X139840404Y-107019500D01*
X139052929Y-107019500D01*
X138985890Y-106999815D01*
X138965248Y-106983181D01*
X138960936Y-106978869D01*
X138960928Y-106978863D01*
X138822726Y-106897131D01*
X138822721Y-106897129D01*
X138668541Y-106852335D01*
X138668535Y-106852334D01*
X138632514Y-106849500D01*
X138134163Y-106849500D01*
X138134141Y-106849501D01*
X138098127Y-106852335D01*
X137943944Y-106897129D01*
X137943939Y-106897131D01*
X137805737Y-106978863D01*
X137805729Y-106978869D01*
X137801418Y-106983181D01*
X137740095Y-107016666D01*
X137713737Y-107019500D01*
X136926263Y-107019500D01*
X136859224Y-106999815D01*
X136838582Y-106983181D01*
X136834270Y-106978869D01*
X136834262Y-106978863D01*
X136696060Y-106897131D01*
X136696055Y-106897129D01*
X136541875Y-106852335D01*
X136541869Y-106852334D01*
X136505848Y-106849500D01*
X136007497Y-106849500D01*
X136007475Y-106849501D01*
X135971461Y-106852335D01*
X135817278Y-106897129D01*
X135817273Y-106897131D01*
X135679071Y-106978863D01*
X135679063Y-106978869D01*
X135674752Y-106983181D01*
X135613429Y-107016666D01*
X135587071Y-107019500D01*
X134799596Y-107019500D01*
X134732557Y-106999815D01*
X134711915Y-106983181D01*
X134707603Y-106978869D01*
X134707595Y-106978863D01*
X134569393Y-106897131D01*
X134569388Y-106897129D01*
X134415208Y-106852335D01*
X134415202Y-106852334D01*
X134379181Y-106849500D01*
X133880830Y-106849500D01*
X133880808Y-106849501D01*
X133844794Y-106852335D01*
X133690611Y-106897129D01*
X133690606Y-106897131D01*
X133552404Y-106978863D01*
X133552396Y-106978869D01*
X133548085Y-106983181D01*
X133486762Y-107016666D01*
X133460404Y-107019500D01*
X132921096Y-107019500D01*
X132899850Y-107013261D01*
X132877764Y-107011682D01*
X132866980Y-107003609D01*
X132854057Y-106999815D01*
X132839556Y-106983080D01*
X132821830Y-106969811D01*
X132817122Y-106957190D01*
X132808302Y-106947011D01*
X132805150Y-106925094D01*
X132797412Y-106904347D01*
X132800274Y-106891185D01*
X132798358Y-106877853D01*
X132807556Y-106857711D01*
X132812263Y-106836074D01*
X132825533Y-106818347D01*
X132827383Y-106814297D01*
X132833414Y-106807820D01*
X132854053Y-106787181D01*
X132880305Y-106760928D01*
X132880310Y-106760925D01*
X132890514Y-106750720D01*
X132890516Y-106750720D01*
X133002320Y-106638916D01*
X133055072Y-106547547D01*
X133080771Y-106503035D01*
X133080780Y-106503016D01*
X133080790Y-106503001D01*
X133081377Y-106501985D01*
X133122301Y-106349257D01*
X133122301Y-106191143D01*
X133122301Y-106183548D01*
X133122300Y-106183530D01*
X133122300Y-105984800D01*
X133141985Y-105917761D01*
X133194789Y-105872006D01*
X133246300Y-105860800D01*
X146237200Y-105860800D01*
X146252906Y-105845093D01*
X146256885Y-105831545D01*
X146309689Y-105785790D01*
X146378847Y-105775846D01*
X146442403Y-105804871D01*
G37*
%TD.AperFunction*%
M02*
