%TF.GenerationSoftware,KiCad,Pcbnew,9.0.0*%
%TF.CreationDate,2025-08-15T19:12:53+05:30*%
%TF.ProjectId,robodogv2,726f626f-646f-4677-9632-2e6b69636164,rev?*%
%TF.SameCoordinates,Original*%
%TF.FileFunction,Paste,Top*%
%TF.FilePolarity,Positive*%
%FSLAX46Y46*%
G04 Gerber Fmt 4.6, Leading zero omitted, Abs format (unit mm)*
G04 Created by KiCad (PCBNEW 9.0.0) date 2025-08-15 19:12:53*
%MOMM*%
%LPD*%
G01*
G04 APERTURE LIST*
G04 Aperture macros list*
%AMRoundRect*
0 Rectangle with rounded corners*
0 $1 Rounding radius*
0 $2 $3 $4 $5 $6 $7 $8 $9 X,Y pos of 4 corners*
0 Add a 4 corners polygon primitive as box body*
4,1,4,$2,$3,$4,$5,$6,$7,$8,$9,$2,$3,0*
0 Add four circle primitives for the rounded corners*
1,1,$1+$1,$2,$3*
1,1,$1+$1,$4,$5*
1,1,$1+$1,$6,$7*
1,1,$1+$1,$8,$9*
0 Add four rect primitives between the rounded corners*
20,1,$1+$1,$2,$3,$4,$5,0*
20,1,$1+$1,$4,$5,$6,$7,0*
20,1,$1+$1,$6,$7,$8,$9,0*
20,1,$1+$1,$8,$9,$2,$3,0*%
G04 Aperture macros list end*
%ADD10R,0.600000X0.200000*%
%ADD11R,0.200000X0.600000*%
%ADD12R,0.926000X0.975000*%
%ADD13RoundRect,0.140000X-0.140000X-0.170000X0.140000X-0.170000X0.140000X0.170000X-0.140000X0.170000X0*%
%ADD14RoundRect,0.218750X0.218750X0.256250X-0.218750X0.256250X-0.218750X-0.256250X0.218750X-0.256250X0*%
%ADD15R,1.000000X0.900000*%
%ADD16RoundRect,0.250000X0.450000X-0.262500X0.450000X0.262500X-0.450000X0.262500X-0.450000X-0.262500X0*%
%ADD17RoundRect,0.250000X0.250000X0.475000X-0.250000X0.475000X-0.250000X-0.475000X0.250000X-0.475000X0*%
%ADD18RoundRect,0.100000X-0.100000X0.637500X-0.100000X-0.637500X0.100000X-0.637500X0.100000X0.637500X0*%
%ADD19RoundRect,0.135000X0.185000X-0.135000X0.185000X0.135000X-0.185000X0.135000X-0.185000X-0.135000X0*%
%ADD20RoundRect,0.250000X-0.262500X-0.450000X0.262500X-0.450000X0.262500X0.450000X-0.262500X0.450000X0*%
%ADD21RoundRect,0.200000X-0.200000X-0.275000X0.200000X-0.275000X0.200000X0.275000X-0.200000X0.275000X0*%
%ADD22RoundRect,0.250000X0.650000X-0.325000X0.650000X0.325000X-0.650000X0.325000X-0.650000X-0.325000X0*%
%ADD23R,2.200000X1.600000*%
%ADD24R,3.225800X4.953000*%
%ADD25RoundRect,0.079500X0.079500X0.100500X-0.079500X0.100500X-0.079500X-0.100500X0.079500X-0.100500X0*%
%ADD26RoundRect,0.250000X-0.475000X0.250000X-0.475000X-0.250000X0.475000X-0.250000X0.475000X0.250000X0*%
%ADD27RoundRect,0.140000X0.170000X-0.140000X0.170000X0.140000X-0.170000X0.140000X-0.170000X-0.140000X0*%
%ADD28RoundRect,0.250000X-0.250000X-0.475000X0.250000X-0.475000X0.250000X0.475000X-0.250000X0.475000X0*%
%ADD29RoundRect,0.200000X0.200000X0.275000X-0.200000X0.275000X-0.200000X-0.275000X0.200000X-0.275000X0*%
%ADD30RoundRect,0.250000X-0.325000X-0.650000X0.325000X-0.650000X0.325000X0.650000X-0.325000X0.650000X0*%
%ADD31R,0.800000X1.500000*%
%ADD32R,0.675000X0.250000*%
%ADD33R,0.250000X0.575000*%
%ADD34RoundRect,0.218750X-0.218750X-0.256250X0.218750X-0.256250X0.218750X0.256250X-0.218750X0.256250X0*%
G04 APERTURE END LIST*
D10*
%TO.C,U2*%
X101188000Y-84700000D03*
X101188000Y-85150000D03*
X101188000Y-85600000D03*
X101188000Y-86050000D03*
X101188000Y-86500000D03*
D11*
X101694200Y-87006200D03*
X102144200Y-87006200D03*
X102594200Y-87006200D03*
X103044200Y-87006200D03*
X103494200Y-87006200D03*
D10*
X104000400Y-86500000D03*
X104000400Y-86050000D03*
X104000400Y-85600000D03*
X104000400Y-85150000D03*
X104000400Y-84700000D03*
D11*
X103494200Y-84193800D03*
X103044200Y-84193800D03*
X102594200Y-84193800D03*
X102144200Y-84193800D03*
X101694200Y-84193800D03*
D12*
X102717200Y-85607000D03*
%TD*%
D13*
%TO.C,C22*%
X124180000Y-107230000D03*
X125140000Y-107230000D03*
%TD*%
D14*
%TO.C,D2*%
X150087500Y-83650000D03*
X148512500Y-83650000D03*
%TD*%
D15*
%TO.C,SW1*%
X117795000Y-99180000D03*
X117795000Y-95080000D03*
X119395000Y-99180000D03*
X119395000Y-95080000D03*
%TD*%
D16*
%TO.C,R16*%
X112800000Y-79332500D03*
X112800000Y-77507500D03*
%TD*%
D17*
%TO.C,C21*%
X149290000Y-92420000D03*
X147390000Y-92420000D03*
%TD*%
D18*
%TO.C,U1*%
X129025000Y-84097500D03*
X128375000Y-84097500D03*
X127725000Y-84097500D03*
X127075000Y-84097500D03*
X126425000Y-84097500D03*
X125775000Y-84097500D03*
X125125000Y-84097500D03*
X124475000Y-84097500D03*
X123825000Y-84097500D03*
X123175000Y-84097500D03*
X122525000Y-84097500D03*
X121875000Y-84097500D03*
X121225000Y-84097500D03*
X120575000Y-84097500D03*
X120575000Y-89822500D03*
X121225000Y-89822500D03*
X121875000Y-89822500D03*
X122525000Y-89822500D03*
X123175000Y-89822500D03*
X123825000Y-89822500D03*
X124475000Y-89822500D03*
X125125000Y-89822500D03*
X125775000Y-89822500D03*
X126425000Y-89822500D03*
X127075000Y-89822500D03*
X127725000Y-89822500D03*
X128375000Y-89822500D03*
X129025000Y-89822500D03*
%TD*%
D19*
%TO.C,R21*%
X138383333Y-108640000D03*
X138383333Y-107620000D03*
%TD*%
D20*
%TO.C,R11*%
X134720000Y-87190000D03*
X136545000Y-87190000D03*
%TD*%
D21*
%TO.C,R8*%
X131200000Y-84390000D03*
X132850000Y-84390000D03*
%TD*%
D22*
%TO.C,C11*%
X107530000Y-92975000D03*
X107530000Y-90025000D03*
%TD*%
D20*
%TO.C,R6*%
X134720000Y-84240000D03*
X136545000Y-84240000D03*
%TD*%
D19*
%TO.C,R5*%
X134130000Y-108640000D03*
X134130000Y-107620000D03*
%TD*%
D23*
%TO.C,C2*%
X127450000Y-105840000D03*
X130450000Y-105840000D03*
%TD*%
D24*
%TO.C,L2*%
X134032500Y-99460000D03*
X144827500Y-99460000D03*
%TD*%
D25*
%TO.C,L1*%
X147825000Y-105520000D03*
X147135000Y-105520000D03*
%TD*%
D26*
%TO.C,C15*%
X97900000Y-86580000D03*
X97900000Y-88480000D03*
%TD*%
D21*
%TO.C,R7*%
X113625000Y-88280000D03*
X115275000Y-88280000D03*
%TD*%
D27*
%TO.C,C24*%
X118055000Y-107170000D03*
X118055000Y-106210000D03*
%TD*%
%TO.C,C25*%
X120025000Y-107170000D03*
X120025000Y-106210000D03*
%TD*%
D28*
%TO.C,C20*%
X98090000Y-92420000D03*
X99990000Y-92420000D03*
%TD*%
D19*
%TO.C,R20*%
X136256667Y-108640000D03*
X136256667Y-107620000D03*
%TD*%
D20*
%TO.C,R12*%
X134720000Y-90140000D03*
X136545000Y-90140000D03*
%TD*%
D23*
%TO.C,C1*%
X127580000Y-101860000D03*
X130580000Y-101860000D03*
%TD*%
D15*
%TO.C,SW2*%
X122725000Y-99140000D03*
X122725000Y-95040000D03*
X124325000Y-99140000D03*
X124325000Y-95040000D03*
%TD*%
D29*
%TO.C,R14*%
X130670000Y-98670000D03*
X129020000Y-98670000D03*
%TD*%
D30*
%TO.C,C19*%
X102265000Y-92410000D03*
X105215000Y-92410000D03*
%TD*%
D26*
%TO.C,C14*%
X97930000Y-82930000D03*
X97930000Y-84830000D03*
%TD*%
D20*
%TO.C,R28*%
X138387500Y-87290000D03*
X140212500Y-87290000D03*
%TD*%
D19*
%TO.C,R22*%
X140510000Y-108640000D03*
X140510000Y-107620000D03*
%TD*%
D27*
%TO.C,C26*%
X119945000Y-105120000D03*
X119945000Y-104160000D03*
%TD*%
D29*
%TO.C,R15*%
X130670000Y-96160000D03*
X129020000Y-96160000D03*
%TD*%
D22*
%TO.C,C16*%
X114230000Y-92975000D03*
X114230000Y-90025000D03*
%TD*%
D31*
%TO.C,Y1*%
X118535000Y-104690000D03*
X117035000Y-104690000D03*
%TD*%
D22*
%TO.C,C17*%
X112760000Y-86515000D03*
X112760000Y-83565000D03*
%TD*%
D32*
%TO.C,U6*%
X121790000Y-105840000D03*
D33*
X122602500Y-105902500D03*
X123102500Y-105902500D03*
X123602500Y-105902500D03*
X124102500Y-105902500D03*
D32*
X124915000Y-105840000D03*
X124915000Y-105340000D03*
X124915000Y-104840000D03*
X124915000Y-104340000D03*
X124915000Y-103840000D03*
X124915000Y-103340000D03*
X124915000Y-102840000D03*
X124915000Y-102340000D03*
X124915000Y-101840000D03*
X124915000Y-101340000D03*
D33*
X124102500Y-101277500D03*
X123602500Y-101277500D03*
X123102500Y-101277500D03*
X122602500Y-101277500D03*
D32*
X121790000Y-101340000D03*
X121790000Y-101840000D03*
X121790000Y-102340000D03*
X121790000Y-102840000D03*
X121790000Y-103340000D03*
X121790000Y-103840000D03*
X121790000Y-104340000D03*
X121790000Y-104840000D03*
X121790000Y-105340000D03*
%TD*%
D27*
%TO.C,C23*%
X119905000Y-103010000D03*
X119905000Y-102050000D03*
%TD*%
D29*
%TO.C,R17*%
X130670000Y-93650000D03*
X129020000Y-93650000D03*
%TD*%
D13*
%TO.C,C13*%
X111110000Y-88320000D03*
X112070000Y-88320000D03*
%TD*%
D22*
%TO.C,C12*%
X110880000Y-92975000D03*
X110880000Y-90025000D03*
%TD*%
D20*
%TO.C,R13*%
X138387500Y-84390000D03*
X140212500Y-84390000D03*
%TD*%
D21*
%TO.C,R19*%
X144775000Y-84160000D03*
X146425000Y-84160000D03*
%TD*%
%TO.C,R9*%
X131200000Y-86900000D03*
X132850000Y-86900000D03*
%TD*%
%TO.C,R18*%
X138575000Y-90060000D03*
X140225000Y-90060000D03*
%TD*%
D34*
%TO.C,D1*%
X149165000Y-105660000D03*
X150740000Y-105660000D03*
%TD*%
D21*
%TO.C,R10*%
X131200000Y-89410000D03*
X132850000Y-89410000D03*
%TD*%
D22*
%TO.C,C18*%
X109830000Y-86390000D03*
X109830000Y-83440000D03*
%TD*%
M02*
