%TF.GenerationSoftware,KiCad,Pcbnew,9.0.0*%
%TF.CreationDate,2025-08-15T19:12:53+05:30*%
%TF.ProjectId,robodogv2,726f626f-646f-4677-9632-2e6b69636164,rev?*%
%TF.SameCoordinates,Original*%
%TF.FileFunction,Legend,Top*%
%TF.FilePolarity,Positive*%
%FSLAX46Y46*%
G04 Gerber Fmt 4.6, Leading zero omitted, Abs format (unit mm)*
G04 Created by KiCad (PCBNEW 9.0.0) date 2025-08-15 19:12:53*
%MOMM*%
%LPD*%
G01*
G04 APERTURE LIST*
%ADD10C,0.150000*%
%ADD11C,0.203200*%
%ADD12C,0.254000*%
%ADD13C,0.120000*%
%ADD14C,0.152400*%
%ADD15C,0.127000*%
%ADD16C,0.200000*%
%ADD17C,0.100000*%
G04 APERTURE END LIST*
D10*
X102131980Y-82936876D02*
X102131980Y-83454971D01*
X102131980Y-83454971D02*
X102162457Y-83515923D01*
X102162457Y-83515923D02*
X102192933Y-83546400D01*
X102192933Y-83546400D02*
X102253885Y-83576876D01*
X102253885Y-83576876D02*
X102375790Y-83576876D01*
X102375790Y-83576876D02*
X102436742Y-83546400D01*
X102436742Y-83546400D02*
X102467219Y-83515923D01*
X102467219Y-83515923D02*
X102497695Y-83454971D01*
X102497695Y-83454971D02*
X102497695Y-82936876D01*
X102771980Y-82997828D02*
X102802456Y-82967352D01*
X102802456Y-82967352D02*
X102863409Y-82936876D01*
X102863409Y-82936876D02*
X103015790Y-82936876D01*
X103015790Y-82936876D02*
X103076742Y-82967352D01*
X103076742Y-82967352D02*
X103107218Y-82997828D01*
X103107218Y-82997828D02*
X103137695Y-83058780D01*
X103137695Y-83058780D02*
X103137695Y-83119733D01*
X103137695Y-83119733D02*
X103107218Y-83211161D01*
X103107218Y-83211161D02*
X102741504Y-83576876D01*
X102741504Y-83576876D02*
X103137695Y-83576876D01*
X124017142Y-106429580D02*
X123969523Y-106477200D01*
X123969523Y-106477200D02*
X123826666Y-106524819D01*
X123826666Y-106524819D02*
X123731428Y-106524819D01*
X123731428Y-106524819D02*
X123588571Y-106477200D01*
X123588571Y-106477200D02*
X123493333Y-106381961D01*
X123493333Y-106381961D02*
X123445714Y-106286723D01*
X123445714Y-106286723D02*
X123398095Y-106096247D01*
X123398095Y-106096247D02*
X123398095Y-105953390D01*
X123398095Y-105953390D02*
X123445714Y-105762914D01*
X123445714Y-105762914D02*
X123493333Y-105667676D01*
X123493333Y-105667676D02*
X123588571Y-105572438D01*
X123588571Y-105572438D02*
X123731428Y-105524819D01*
X123731428Y-105524819D02*
X123826666Y-105524819D01*
X123826666Y-105524819D02*
X123969523Y-105572438D01*
X123969523Y-105572438D02*
X124017142Y-105620057D01*
X124398095Y-105620057D02*
X124445714Y-105572438D01*
X124445714Y-105572438D02*
X124540952Y-105524819D01*
X124540952Y-105524819D02*
X124779047Y-105524819D01*
X124779047Y-105524819D02*
X124874285Y-105572438D01*
X124874285Y-105572438D02*
X124921904Y-105620057D01*
X124921904Y-105620057D02*
X124969523Y-105715295D01*
X124969523Y-105715295D02*
X124969523Y-105810533D01*
X124969523Y-105810533D02*
X124921904Y-105953390D01*
X124921904Y-105953390D02*
X124350476Y-106524819D01*
X124350476Y-106524819D02*
X124969523Y-106524819D01*
X125350476Y-105620057D02*
X125398095Y-105572438D01*
X125398095Y-105572438D02*
X125493333Y-105524819D01*
X125493333Y-105524819D02*
X125731428Y-105524819D01*
X125731428Y-105524819D02*
X125826666Y-105572438D01*
X125826666Y-105572438D02*
X125874285Y-105620057D01*
X125874285Y-105620057D02*
X125921904Y-105715295D01*
X125921904Y-105715295D02*
X125921904Y-105810533D01*
X125921904Y-105810533D02*
X125874285Y-105953390D01*
X125874285Y-105953390D02*
X125302857Y-106524819D01*
X125302857Y-106524819D02*
X125921904Y-106524819D01*
X116924819Y-73643333D02*
X117639104Y-73643333D01*
X117639104Y-73643333D02*
X117781961Y-73690952D01*
X117781961Y-73690952D02*
X117877200Y-73786190D01*
X117877200Y-73786190D02*
X117924819Y-73929047D01*
X117924819Y-73929047D02*
X117924819Y-74024285D01*
X117258152Y-72738571D02*
X117924819Y-72738571D01*
X116877200Y-72976666D02*
X117591485Y-73214761D01*
X117591485Y-73214761D02*
X117591485Y-72595714D01*
X148561905Y-85534819D02*
X148561905Y-84534819D01*
X148561905Y-84534819D02*
X148800000Y-84534819D01*
X148800000Y-84534819D02*
X148942857Y-84582438D01*
X148942857Y-84582438D02*
X149038095Y-84677676D01*
X149038095Y-84677676D02*
X149085714Y-84772914D01*
X149085714Y-84772914D02*
X149133333Y-84963390D01*
X149133333Y-84963390D02*
X149133333Y-85106247D01*
X149133333Y-85106247D02*
X149085714Y-85296723D01*
X149085714Y-85296723D02*
X149038095Y-85391961D01*
X149038095Y-85391961D02*
X148942857Y-85487200D01*
X148942857Y-85487200D02*
X148800000Y-85534819D01*
X148800000Y-85534819D02*
X148561905Y-85534819D01*
X149514286Y-84630057D02*
X149561905Y-84582438D01*
X149561905Y-84582438D02*
X149657143Y-84534819D01*
X149657143Y-84534819D02*
X149895238Y-84534819D01*
X149895238Y-84534819D02*
X149990476Y-84582438D01*
X149990476Y-84582438D02*
X150038095Y-84630057D01*
X150038095Y-84630057D02*
X150085714Y-84725295D01*
X150085714Y-84725295D02*
X150085714Y-84820533D01*
X150085714Y-84820533D02*
X150038095Y-84963390D01*
X150038095Y-84963390D02*
X149466667Y-85534819D01*
X149466667Y-85534819D02*
X150085714Y-85534819D01*
X116552200Y-98463332D02*
X116599819Y-98320475D01*
X116599819Y-98320475D02*
X116599819Y-98082380D01*
X116599819Y-98082380D02*
X116552200Y-97987142D01*
X116552200Y-97987142D02*
X116504580Y-97939523D01*
X116504580Y-97939523D02*
X116409342Y-97891904D01*
X116409342Y-97891904D02*
X116314104Y-97891904D01*
X116314104Y-97891904D02*
X116218866Y-97939523D01*
X116218866Y-97939523D02*
X116171247Y-97987142D01*
X116171247Y-97987142D02*
X116123628Y-98082380D01*
X116123628Y-98082380D02*
X116076009Y-98272856D01*
X116076009Y-98272856D02*
X116028390Y-98368094D01*
X116028390Y-98368094D02*
X115980771Y-98415713D01*
X115980771Y-98415713D02*
X115885533Y-98463332D01*
X115885533Y-98463332D02*
X115790295Y-98463332D01*
X115790295Y-98463332D02*
X115695057Y-98415713D01*
X115695057Y-98415713D02*
X115647438Y-98368094D01*
X115647438Y-98368094D02*
X115599819Y-98272856D01*
X115599819Y-98272856D02*
X115599819Y-98034761D01*
X115599819Y-98034761D02*
X115647438Y-97891904D01*
X115599819Y-97558570D02*
X116599819Y-97320475D01*
X116599819Y-97320475D02*
X115885533Y-97129999D01*
X115885533Y-97129999D02*
X116599819Y-96939523D01*
X116599819Y-96939523D02*
X115599819Y-96701428D01*
X116599819Y-95796666D02*
X116599819Y-96368094D01*
X116599819Y-96082380D02*
X115599819Y-96082380D01*
X115599819Y-96082380D02*
X115742676Y-96177618D01*
X115742676Y-96177618D02*
X115837914Y-96272856D01*
X115837914Y-96272856D02*
X115885533Y-96368094D01*
X111604819Y-79062857D02*
X111128628Y-79396190D01*
X111604819Y-79634285D02*
X110604819Y-79634285D01*
X110604819Y-79634285D02*
X110604819Y-79253333D01*
X110604819Y-79253333D02*
X110652438Y-79158095D01*
X110652438Y-79158095D02*
X110700057Y-79110476D01*
X110700057Y-79110476D02*
X110795295Y-79062857D01*
X110795295Y-79062857D02*
X110938152Y-79062857D01*
X110938152Y-79062857D02*
X111033390Y-79110476D01*
X111033390Y-79110476D02*
X111081009Y-79158095D01*
X111081009Y-79158095D02*
X111128628Y-79253333D01*
X111128628Y-79253333D02*
X111128628Y-79634285D01*
X111604819Y-78110476D02*
X111604819Y-78681904D01*
X111604819Y-78396190D02*
X110604819Y-78396190D01*
X110604819Y-78396190D02*
X110747676Y-78491428D01*
X110747676Y-78491428D02*
X110842914Y-78586666D01*
X110842914Y-78586666D02*
X110890533Y-78681904D01*
X110604819Y-77253333D02*
X110604819Y-77443809D01*
X110604819Y-77443809D02*
X110652438Y-77539047D01*
X110652438Y-77539047D02*
X110700057Y-77586666D01*
X110700057Y-77586666D02*
X110842914Y-77681904D01*
X110842914Y-77681904D02*
X111033390Y-77729523D01*
X111033390Y-77729523D02*
X111414342Y-77729523D01*
X111414342Y-77729523D02*
X111509580Y-77681904D01*
X111509580Y-77681904D02*
X111557200Y-77634285D01*
X111557200Y-77634285D02*
X111604819Y-77539047D01*
X111604819Y-77539047D02*
X111604819Y-77348571D01*
X111604819Y-77348571D02*
X111557200Y-77253333D01*
X111557200Y-77253333D02*
X111509580Y-77205714D01*
X111509580Y-77205714D02*
X111414342Y-77158095D01*
X111414342Y-77158095D02*
X111176247Y-77158095D01*
X111176247Y-77158095D02*
X111081009Y-77205714D01*
X111081009Y-77205714D02*
X111033390Y-77253333D01*
X111033390Y-77253333D02*
X110985771Y-77348571D01*
X110985771Y-77348571D02*
X110985771Y-77539047D01*
X110985771Y-77539047D02*
X111033390Y-77634285D01*
X111033390Y-77634285D02*
X111081009Y-77681904D01*
X111081009Y-77681904D02*
X111176247Y-77729523D01*
X147697142Y-94459580D02*
X147649523Y-94507200D01*
X147649523Y-94507200D02*
X147506666Y-94554819D01*
X147506666Y-94554819D02*
X147411428Y-94554819D01*
X147411428Y-94554819D02*
X147268571Y-94507200D01*
X147268571Y-94507200D02*
X147173333Y-94411961D01*
X147173333Y-94411961D02*
X147125714Y-94316723D01*
X147125714Y-94316723D02*
X147078095Y-94126247D01*
X147078095Y-94126247D02*
X147078095Y-93983390D01*
X147078095Y-93983390D02*
X147125714Y-93792914D01*
X147125714Y-93792914D02*
X147173333Y-93697676D01*
X147173333Y-93697676D02*
X147268571Y-93602438D01*
X147268571Y-93602438D02*
X147411428Y-93554819D01*
X147411428Y-93554819D02*
X147506666Y-93554819D01*
X147506666Y-93554819D02*
X147649523Y-93602438D01*
X147649523Y-93602438D02*
X147697142Y-93650057D01*
X148078095Y-93650057D02*
X148125714Y-93602438D01*
X148125714Y-93602438D02*
X148220952Y-93554819D01*
X148220952Y-93554819D02*
X148459047Y-93554819D01*
X148459047Y-93554819D02*
X148554285Y-93602438D01*
X148554285Y-93602438D02*
X148601904Y-93650057D01*
X148601904Y-93650057D02*
X148649523Y-93745295D01*
X148649523Y-93745295D02*
X148649523Y-93840533D01*
X148649523Y-93840533D02*
X148601904Y-93983390D01*
X148601904Y-93983390D02*
X148030476Y-94554819D01*
X148030476Y-94554819D02*
X148649523Y-94554819D01*
X149601904Y-94554819D02*
X149030476Y-94554819D01*
X149316190Y-94554819D02*
X149316190Y-93554819D01*
X149316190Y-93554819D02*
X149220952Y-93697676D01*
X149220952Y-93697676D02*
X149125714Y-93792914D01*
X149125714Y-93792914D02*
X149030476Y-93840533D01*
X130054819Y-87721904D02*
X130864342Y-87721904D01*
X130864342Y-87721904D02*
X130959580Y-87674285D01*
X130959580Y-87674285D02*
X131007200Y-87626666D01*
X131007200Y-87626666D02*
X131054819Y-87531428D01*
X131054819Y-87531428D02*
X131054819Y-87340952D01*
X131054819Y-87340952D02*
X131007200Y-87245714D01*
X131007200Y-87245714D02*
X130959580Y-87198095D01*
X130959580Y-87198095D02*
X130864342Y-87150476D01*
X130864342Y-87150476D02*
X130054819Y-87150476D01*
X131054819Y-86150476D02*
X131054819Y-86721904D01*
X131054819Y-86436190D02*
X130054819Y-86436190D01*
X130054819Y-86436190D02*
X130197676Y-86531428D01*
X130197676Y-86531428D02*
X130292914Y-86626666D01*
X130292914Y-86626666D02*
X130340533Y-86721904D01*
X137668152Y-108772857D02*
X137191961Y-109106190D01*
X137668152Y-109344285D02*
X136668152Y-109344285D01*
X136668152Y-109344285D02*
X136668152Y-108963333D01*
X136668152Y-108963333D02*
X136715771Y-108868095D01*
X136715771Y-108868095D02*
X136763390Y-108820476D01*
X136763390Y-108820476D02*
X136858628Y-108772857D01*
X136858628Y-108772857D02*
X137001485Y-108772857D01*
X137001485Y-108772857D02*
X137096723Y-108820476D01*
X137096723Y-108820476D02*
X137144342Y-108868095D01*
X137144342Y-108868095D02*
X137191961Y-108963333D01*
X137191961Y-108963333D02*
X137191961Y-109344285D01*
X136763390Y-108391904D02*
X136715771Y-108344285D01*
X136715771Y-108344285D02*
X136668152Y-108249047D01*
X136668152Y-108249047D02*
X136668152Y-108010952D01*
X136668152Y-108010952D02*
X136715771Y-107915714D01*
X136715771Y-107915714D02*
X136763390Y-107868095D01*
X136763390Y-107868095D02*
X136858628Y-107820476D01*
X136858628Y-107820476D02*
X136953866Y-107820476D01*
X136953866Y-107820476D02*
X137096723Y-107868095D01*
X137096723Y-107868095D02*
X137668152Y-108439523D01*
X137668152Y-108439523D02*
X137668152Y-107820476D01*
X137668152Y-106868095D02*
X137668152Y-107439523D01*
X137668152Y-107153809D02*
X136668152Y-107153809D01*
X136668152Y-107153809D02*
X136811009Y-107249047D01*
X136811009Y-107249047D02*
X136906247Y-107344285D01*
X136906247Y-107344285D02*
X136953866Y-107439523D01*
X134989642Y-85994819D02*
X134656309Y-85518628D01*
X134418214Y-85994819D02*
X134418214Y-84994819D01*
X134418214Y-84994819D02*
X134799166Y-84994819D01*
X134799166Y-84994819D02*
X134894404Y-85042438D01*
X134894404Y-85042438D02*
X134942023Y-85090057D01*
X134942023Y-85090057D02*
X134989642Y-85185295D01*
X134989642Y-85185295D02*
X134989642Y-85328152D01*
X134989642Y-85328152D02*
X134942023Y-85423390D01*
X134942023Y-85423390D02*
X134894404Y-85471009D01*
X134894404Y-85471009D02*
X134799166Y-85518628D01*
X134799166Y-85518628D02*
X134418214Y-85518628D01*
X135942023Y-85994819D02*
X135370595Y-85994819D01*
X135656309Y-85994819D02*
X135656309Y-84994819D01*
X135656309Y-84994819D02*
X135561071Y-85137676D01*
X135561071Y-85137676D02*
X135465833Y-85232914D01*
X135465833Y-85232914D02*
X135370595Y-85280533D01*
X136894404Y-85994819D02*
X136322976Y-85994819D01*
X136608690Y-85994819D02*
X136608690Y-84994819D01*
X136608690Y-84994819D02*
X136513452Y-85137676D01*
X136513452Y-85137676D02*
X136418214Y-85232914D01*
X136418214Y-85232914D02*
X136322976Y-85280533D01*
X131858333Y-83414819D02*
X131525000Y-82938628D01*
X131286905Y-83414819D02*
X131286905Y-82414819D01*
X131286905Y-82414819D02*
X131667857Y-82414819D01*
X131667857Y-82414819D02*
X131763095Y-82462438D01*
X131763095Y-82462438D02*
X131810714Y-82510057D01*
X131810714Y-82510057D02*
X131858333Y-82605295D01*
X131858333Y-82605295D02*
X131858333Y-82748152D01*
X131858333Y-82748152D02*
X131810714Y-82843390D01*
X131810714Y-82843390D02*
X131763095Y-82891009D01*
X131763095Y-82891009D02*
X131667857Y-82938628D01*
X131667857Y-82938628D02*
X131286905Y-82938628D01*
X132429762Y-82843390D02*
X132334524Y-82795771D01*
X132334524Y-82795771D02*
X132286905Y-82748152D01*
X132286905Y-82748152D02*
X132239286Y-82652914D01*
X132239286Y-82652914D02*
X132239286Y-82605295D01*
X132239286Y-82605295D02*
X132286905Y-82510057D01*
X132286905Y-82510057D02*
X132334524Y-82462438D01*
X132334524Y-82462438D02*
X132429762Y-82414819D01*
X132429762Y-82414819D02*
X132620238Y-82414819D01*
X132620238Y-82414819D02*
X132715476Y-82462438D01*
X132715476Y-82462438D02*
X132763095Y-82510057D01*
X132763095Y-82510057D02*
X132810714Y-82605295D01*
X132810714Y-82605295D02*
X132810714Y-82652914D01*
X132810714Y-82652914D02*
X132763095Y-82748152D01*
X132763095Y-82748152D02*
X132715476Y-82795771D01*
X132715476Y-82795771D02*
X132620238Y-82843390D01*
X132620238Y-82843390D02*
X132429762Y-82843390D01*
X132429762Y-82843390D02*
X132334524Y-82891009D01*
X132334524Y-82891009D02*
X132286905Y-82938628D01*
X132286905Y-82938628D02*
X132239286Y-83033866D01*
X132239286Y-83033866D02*
X132239286Y-83224342D01*
X132239286Y-83224342D02*
X132286905Y-83319580D01*
X132286905Y-83319580D02*
X132334524Y-83367200D01*
X132334524Y-83367200D02*
X132429762Y-83414819D01*
X132429762Y-83414819D02*
X132620238Y-83414819D01*
X132620238Y-83414819D02*
X132715476Y-83367200D01*
X132715476Y-83367200D02*
X132763095Y-83319580D01*
X132763095Y-83319580D02*
X132810714Y-83224342D01*
X132810714Y-83224342D02*
X132810714Y-83033866D01*
X132810714Y-83033866D02*
X132763095Y-82938628D01*
X132763095Y-82938628D02*
X132715476Y-82891009D01*
X132715476Y-82891009D02*
X132620238Y-82843390D01*
X106039580Y-92142857D02*
X106087200Y-92190476D01*
X106087200Y-92190476D02*
X106134819Y-92333333D01*
X106134819Y-92333333D02*
X106134819Y-92428571D01*
X106134819Y-92428571D02*
X106087200Y-92571428D01*
X106087200Y-92571428D02*
X105991961Y-92666666D01*
X105991961Y-92666666D02*
X105896723Y-92714285D01*
X105896723Y-92714285D02*
X105706247Y-92761904D01*
X105706247Y-92761904D02*
X105563390Y-92761904D01*
X105563390Y-92761904D02*
X105372914Y-92714285D01*
X105372914Y-92714285D02*
X105277676Y-92666666D01*
X105277676Y-92666666D02*
X105182438Y-92571428D01*
X105182438Y-92571428D02*
X105134819Y-92428571D01*
X105134819Y-92428571D02*
X105134819Y-92333333D01*
X105134819Y-92333333D02*
X105182438Y-92190476D01*
X105182438Y-92190476D02*
X105230057Y-92142857D01*
X106134819Y-91190476D02*
X106134819Y-91761904D01*
X106134819Y-91476190D02*
X105134819Y-91476190D01*
X105134819Y-91476190D02*
X105277676Y-91571428D01*
X105277676Y-91571428D02*
X105372914Y-91666666D01*
X105372914Y-91666666D02*
X105420533Y-91761904D01*
X106134819Y-90238095D02*
X106134819Y-90809523D01*
X106134819Y-90523809D02*
X105134819Y-90523809D01*
X105134819Y-90523809D02*
X105277676Y-90619047D01*
X105277676Y-90619047D02*
X105372914Y-90714285D01*
X105372914Y-90714285D02*
X105420533Y-90809523D01*
X150738095Y-64754819D02*
X150738095Y-63754819D01*
X150738095Y-64231009D02*
X151309523Y-64231009D01*
X151309523Y-64754819D02*
X151309523Y-63754819D01*
X151690476Y-63754819D02*
X152309523Y-63754819D01*
X152309523Y-63754819D02*
X151976190Y-64135771D01*
X151976190Y-64135771D02*
X152119047Y-64135771D01*
X152119047Y-64135771D02*
X152214285Y-64183390D01*
X152214285Y-64183390D02*
X152261904Y-64231009D01*
X152261904Y-64231009D02*
X152309523Y-64326247D01*
X152309523Y-64326247D02*
X152309523Y-64564342D01*
X152309523Y-64564342D02*
X152261904Y-64659580D01*
X152261904Y-64659580D02*
X152214285Y-64707200D01*
X152214285Y-64707200D02*
X152119047Y-64754819D01*
X152119047Y-64754819D02*
X151833333Y-64754819D01*
X151833333Y-64754819D02*
X151738095Y-64707200D01*
X151738095Y-64707200D02*
X151690476Y-64659580D01*
X135465833Y-83044819D02*
X135132500Y-82568628D01*
X134894405Y-83044819D02*
X134894405Y-82044819D01*
X134894405Y-82044819D02*
X135275357Y-82044819D01*
X135275357Y-82044819D02*
X135370595Y-82092438D01*
X135370595Y-82092438D02*
X135418214Y-82140057D01*
X135418214Y-82140057D02*
X135465833Y-82235295D01*
X135465833Y-82235295D02*
X135465833Y-82378152D01*
X135465833Y-82378152D02*
X135418214Y-82473390D01*
X135418214Y-82473390D02*
X135370595Y-82521009D01*
X135370595Y-82521009D02*
X135275357Y-82568628D01*
X135275357Y-82568628D02*
X134894405Y-82568628D01*
X136322976Y-82044819D02*
X136132500Y-82044819D01*
X136132500Y-82044819D02*
X136037262Y-82092438D01*
X136037262Y-82092438D02*
X135989643Y-82140057D01*
X135989643Y-82140057D02*
X135894405Y-82282914D01*
X135894405Y-82282914D02*
X135846786Y-82473390D01*
X135846786Y-82473390D02*
X135846786Y-82854342D01*
X135846786Y-82854342D02*
X135894405Y-82949580D01*
X135894405Y-82949580D02*
X135942024Y-82997200D01*
X135942024Y-82997200D02*
X136037262Y-83044819D01*
X136037262Y-83044819D02*
X136227738Y-83044819D01*
X136227738Y-83044819D02*
X136322976Y-82997200D01*
X136322976Y-82997200D02*
X136370595Y-82949580D01*
X136370595Y-82949580D02*
X136418214Y-82854342D01*
X136418214Y-82854342D02*
X136418214Y-82616247D01*
X136418214Y-82616247D02*
X136370595Y-82521009D01*
X136370595Y-82521009D02*
X136322976Y-82473390D01*
X136322976Y-82473390D02*
X136227738Y-82425771D01*
X136227738Y-82425771D02*
X136037262Y-82425771D01*
X136037262Y-82425771D02*
X135942024Y-82473390D01*
X135942024Y-82473390D02*
X135894405Y-82521009D01*
X135894405Y-82521009D02*
X135846786Y-82616247D01*
X133414819Y-108296666D02*
X132938628Y-108629999D01*
X133414819Y-108868094D02*
X132414819Y-108868094D01*
X132414819Y-108868094D02*
X132414819Y-108487142D01*
X132414819Y-108487142D02*
X132462438Y-108391904D01*
X132462438Y-108391904D02*
X132510057Y-108344285D01*
X132510057Y-108344285D02*
X132605295Y-108296666D01*
X132605295Y-108296666D02*
X132748152Y-108296666D01*
X132748152Y-108296666D02*
X132843390Y-108344285D01*
X132843390Y-108344285D02*
X132891009Y-108391904D01*
X132891009Y-108391904D02*
X132938628Y-108487142D01*
X132938628Y-108487142D02*
X132938628Y-108868094D01*
X132414819Y-107391904D02*
X132414819Y-107868094D01*
X132414819Y-107868094D02*
X132891009Y-107915713D01*
X132891009Y-107915713D02*
X132843390Y-107868094D01*
X132843390Y-107868094D02*
X132795771Y-107772856D01*
X132795771Y-107772856D02*
X132795771Y-107534761D01*
X132795771Y-107534761D02*
X132843390Y-107439523D01*
X132843390Y-107439523D02*
X132891009Y-107391904D01*
X132891009Y-107391904D02*
X132986247Y-107344285D01*
X132986247Y-107344285D02*
X133224342Y-107344285D01*
X133224342Y-107344285D02*
X133319580Y-107391904D01*
X133319580Y-107391904D02*
X133367200Y-107439523D01*
X133367200Y-107439523D02*
X133414819Y-107534761D01*
X133414819Y-107534761D02*
X133414819Y-107772856D01*
X133414819Y-107772856D02*
X133367200Y-107868094D01*
X133367200Y-107868094D02*
X133319580Y-107915713D01*
X128783333Y-103499580D02*
X128735714Y-103547200D01*
X128735714Y-103547200D02*
X128592857Y-103594819D01*
X128592857Y-103594819D02*
X128497619Y-103594819D01*
X128497619Y-103594819D02*
X128354762Y-103547200D01*
X128354762Y-103547200D02*
X128259524Y-103451961D01*
X128259524Y-103451961D02*
X128211905Y-103356723D01*
X128211905Y-103356723D02*
X128164286Y-103166247D01*
X128164286Y-103166247D02*
X128164286Y-103023390D01*
X128164286Y-103023390D02*
X128211905Y-102832914D01*
X128211905Y-102832914D02*
X128259524Y-102737676D01*
X128259524Y-102737676D02*
X128354762Y-102642438D01*
X128354762Y-102642438D02*
X128497619Y-102594819D01*
X128497619Y-102594819D02*
X128592857Y-102594819D01*
X128592857Y-102594819D02*
X128735714Y-102642438D01*
X128735714Y-102642438D02*
X128783333Y-102690057D01*
X129164286Y-102690057D02*
X129211905Y-102642438D01*
X129211905Y-102642438D02*
X129307143Y-102594819D01*
X129307143Y-102594819D02*
X129545238Y-102594819D01*
X129545238Y-102594819D02*
X129640476Y-102642438D01*
X129640476Y-102642438D02*
X129688095Y-102690057D01*
X129688095Y-102690057D02*
X129735714Y-102785295D01*
X129735714Y-102785295D02*
X129735714Y-102880533D01*
X129735714Y-102880533D02*
X129688095Y-103023390D01*
X129688095Y-103023390D02*
X129116667Y-103594819D01*
X129116667Y-103594819D02*
X129735714Y-103594819D01*
X149534819Y-76413333D02*
X150249104Y-76413333D01*
X150249104Y-76413333D02*
X150391961Y-76460952D01*
X150391961Y-76460952D02*
X150487200Y-76556190D01*
X150487200Y-76556190D02*
X150534819Y-76699047D01*
X150534819Y-76699047D02*
X150534819Y-76794285D01*
X149534819Y-76032380D02*
X149534819Y-75413333D01*
X149534819Y-75413333D02*
X149915771Y-75746666D01*
X149915771Y-75746666D02*
X149915771Y-75603809D01*
X149915771Y-75603809D02*
X149963390Y-75508571D01*
X149963390Y-75508571D02*
X150011009Y-75460952D01*
X150011009Y-75460952D02*
X150106247Y-75413333D01*
X150106247Y-75413333D02*
X150344342Y-75413333D01*
X150344342Y-75413333D02*
X150439580Y-75460952D01*
X150439580Y-75460952D02*
X150487200Y-75508571D01*
X150487200Y-75508571D02*
X150534819Y-75603809D01*
X150534819Y-75603809D02*
X150534819Y-75889523D01*
X150534819Y-75889523D02*
X150487200Y-75984761D01*
X150487200Y-75984761D02*
X150439580Y-76032380D01*
X111988095Y-65004819D02*
X111988095Y-64004819D01*
X111988095Y-64481009D02*
X112559523Y-64481009D01*
X112559523Y-65004819D02*
X112559523Y-64004819D01*
X112988095Y-64100057D02*
X113035714Y-64052438D01*
X113035714Y-64052438D02*
X113130952Y-64004819D01*
X113130952Y-64004819D02*
X113369047Y-64004819D01*
X113369047Y-64004819D02*
X113464285Y-64052438D01*
X113464285Y-64052438D02*
X113511904Y-64100057D01*
X113511904Y-64100057D02*
X113559523Y-64195295D01*
X113559523Y-64195295D02*
X113559523Y-64290533D01*
X113559523Y-64290533D02*
X113511904Y-64433390D01*
X113511904Y-64433390D02*
X112940476Y-65004819D01*
X112940476Y-65004819D02*
X113559523Y-65004819D01*
X139263333Y-99914819D02*
X138787143Y-99914819D01*
X138787143Y-99914819D02*
X138787143Y-98914819D01*
X139549048Y-99010057D02*
X139596667Y-98962438D01*
X139596667Y-98962438D02*
X139691905Y-98914819D01*
X139691905Y-98914819D02*
X139930000Y-98914819D01*
X139930000Y-98914819D02*
X140025238Y-98962438D01*
X140025238Y-98962438D02*
X140072857Y-99010057D01*
X140072857Y-99010057D02*
X140120476Y-99105295D01*
X140120476Y-99105295D02*
X140120476Y-99200533D01*
X140120476Y-99200533D02*
X140072857Y-99343390D01*
X140072857Y-99343390D02*
X139501429Y-99914819D01*
X139501429Y-99914819D02*
X140120476Y-99914819D01*
X147313333Y-107024819D02*
X146837143Y-107024819D01*
X146837143Y-107024819D02*
X146837143Y-106024819D01*
X148170476Y-107024819D02*
X147599048Y-107024819D01*
X147884762Y-107024819D02*
X147884762Y-106024819D01*
X147884762Y-106024819D02*
X147789524Y-106167676D01*
X147789524Y-106167676D02*
X147694286Y-106262914D01*
X147694286Y-106262914D02*
X147599048Y-106310533D01*
X99939580Y-88172857D02*
X99987200Y-88220476D01*
X99987200Y-88220476D02*
X100034819Y-88363333D01*
X100034819Y-88363333D02*
X100034819Y-88458571D01*
X100034819Y-88458571D02*
X99987200Y-88601428D01*
X99987200Y-88601428D02*
X99891961Y-88696666D01*
X99891961Y-88696666D02*
X99796723Y-88744285D01*
X99796723Y-88744285D02*
X99606247Y-88791904D01*
X99606247Y-88791904D02*
X99463390Y-88791904D01*
X99463390Y-88791904D02*
X99272914Y-88744285D01*
X99272914Y-88744285D02*
X99177676Y-88696666D01*
X99177676Y-88696666D02*
X99082438Y-88601428D01*
X99082438Y-88601428D02*
X99034819Y-88458571D01*
X99034819Y-88458571D02*
X99034819Y-88363333D01*
X99034819Y-88363333D02*
X99082438Y-88220476D01*
X99082438Y-88220476D02*
X99130057Y-88172857D01*
X100034819Y-87220476D02*
X100034819Y-87791904D01*
X100034819Y-87506190D02*
X99034819Y-87506190D01*
X99034819Y-87506190D02*
X99177676Y-87601428D01*
X99177676Y-87601428D02*
X99272914Y-87696666D01*
X99272914Y-87696666D02*
X99320533Y-87791904D01*
X99034819Y-86315714D02*
X99034819Y-86791904D01*
X99034819Y-86791904D02*
X99511009Y-86839523D01*
X99511009Y-86839523D02*
X99463390Y-86791904D01*
X99463390Y-86791904D02*
X99415771Y-86696666D01*
X99415771Y-86696666D02*
X99415771Y-86458571D01*
X99415771Y-86458571D02*
X99463390Y-86363333D01*
X99463390Y-86363333D02*
X99511009Y-86315714D01*
X99511009Y-86315714D02*
X99606247Y-86268095D01*
X99606247Y-86268095D02*
X99844342Y-86268095D01*
X99844342Y-86268095D02*
X99939580Y-86315714D01*
X99939580Y-86315714D02*
X99987200Y-86363333D01*
X99987200Y-86363333D02*
X100034819Y-86458571D01*
X100034819Y-86458571D02*
X100034819Y-86696666D01*
X100034819Y-86696666D02*
X99987200Y-86791904D01*
X99987200Y-86791904D02*
X99939580Y-86839523D01*
X114283333Y-87304819D02*
X113950000Y-86828628D01*
X113711905Y-87304819D02*
X113711905Y-86304819D01*
X113711905Y-86304819D02*
X114092857Y-86304819D01*
X114092857Y-86304819D02*
X114188095Y-86352438D01*
X114188095Y-86352438D02*
X114235714Y-86400057D01*
X114235714Y-86400057D02*
X114283333Y-86495295D01*
X114283333Y-86495295D02*
X114283333Y-86638152D01*
X114283333Y-86638152D02*
X114235714Y-86733390D01*
X114235714Y-86733390D02*
X114188095Y-86781009D01*
X114188095Y-86781009D02*
X114092857Y-86828628D01*
X114092857Y-86828628D02*
X113711905Y-86828628D01*
X114616667Y-86304819D02*
X115283333Y-86304819D01*
X115283333Y-86304819D02*
X114854762Y-87304819D01*
X117254580Y-107332857D02*
X117302200Y-107380476D01*
X117302200Y-107380476D02*
X117349819Y-107523333D01*
X117349819Y-107523333D02*
X117349819Y-107618571D01*
X117349819Y-107618571D02*
X117302200Y-107761428D01*
X117302200Y-107761428D02*
X117206961Y-107856666D01*
X117206961Y-107856666D02*
X117111723Y-107904285D01*
X117111723Y-107904285D02*
X116921247Y-107951904D01*
X116921247Y-107951904D02*
X116778390Y-107951904D01*
X116778390Y-107951904D02*
X116587914Y-107904285D01*
X116587914Y-107904285D02*
X116492676Y-107856666D01*
X116492676Y-107856666D02*
X116397438Y-107761428D01*
X116397438Y-107761428D02*
X116349819Y-107618571D01*
X116349819Y-107618571D02*
X116349819Y-107523333D01*
X116349819Y-107523333D02*
X116397438Y-107380476D01*
X116397438Y-107380476D02*
X116445057Y-107332857D01*
X116445057Y-106951904D02*
X116397438Y-106904285D01*
X116397438Y-106904285D02*
X116349819Y-106809047D01*
X116349819Y-106809047D02*
X116349819Y-106570952D01*
X116349819Y-106570952D02*
X116397438Y-106475714D01*
X116397438Y-106475714D02*
X116445057Y-106428095D01*
X116445057Y-106428095D02*
X116540295Y-106380476D01*
X116540295Y-106380476D02*
X116635533Y-106380476D01*
X116635533Y-106380476D02*
X116778390Y-106428095D01*
X116778390Y-106428095D02*
X117349819Y-106999523D01*
X117349819Y-106999523D02*
X117349819Y-106380476D01*
X116683152Y-105523333D02*
X117349819Y-105523333D01*
X116302200Y-105761428D02*
X117016485Y-105999523D01*
X117016485Y-105999523D02*
X117016485Y-105380476D01*
X119224580Y-107332857D02*
X119272200Y-107380476D01*
X119272200Y-107380476D02*
X119319819Y-107523333D01*
X119319819Y-107523333D02*
X119319819Y-107618571D01*
X119319819Y-107618571D02*
X119272200Y-107761428D01*
X119272200Y-107761428D02*
X119176961Y-107856666D01*
X119176961Y-107856666D02*
X119081723Y-107904285D01*
X119081723Y-107904285D02*
X118891247Y-107951904D01*
X118891247Y-107951904D02*
X118748390Y-107951904D01*
X118748390Y-107951904D02*
X118557914Y-107904285D01*
X118557914Y-107904285D02*
X118462676Y-107856666D01*
X118462676Y-107856666D02*
X118367438Y-107761428D01*
X118367438Y-107761428D02*
X118319819Y-107618571D01*
X118319819Y-107618571D02*
X118319819Y-107523333D01*
X118319819Y-107523333D02*
X118367438Y-107380476D01*
X118367438Y-107380476D02*
X118415057Y-107332857D01*
X118415057Y-106951904D02*
X118367438Y-106904285D01*
X118367438Y-106904285D02*
X118319819Y-106809047D01*
X118319819Y-106809047D02*
X118319819Y-106570952D01*
X118319819Y-106570952D02*
X118367438Y-106475714D01*
X118367438Y-106475714D02*
X118415057Y-106428095D01*
X118415057Y-106428095D02*
X118510295Y-106380476D01*
X118510295Y-106380476D02*
X118605533Y-106380476D01*
X118605533Y-106380476D02*
X118748390Y-106428095D01*
X118748390Y-106428095D02*
X119319819Y-106999523D01*
X119319819Y-106999523D02*
X119319819Y-106380476D01*
X118319819Y-105475714D02*
X118319819Y-105951904D01*
X118319819Y-105951904D02*
X118796009Y-105999523D01*
X118796009Y-105999523D02*
X118748390Y-105951904D01*
X118748390Y-105951904D02*
X118700771Y-105856666D01*
X118700771Y-105856666D02*
X118700771Y-105618571D01*
X118700771Y-105618571D02*
X118748390Y-105523333D01*
X118748390Y-105523333D02*
X118796009Y-105475714D01*
X118796009Y-105475714D02*
X118891247Y-105428095D01*
X118891247Y-105428095D02*
X119129342Y-105428095D01*
X119129342Y-105428095D02*
X119224580Y-105475714D01*
X119224580Y-105475714D02*
X119272200Y-105523333D01*
X119272200Y-105523333D02*
X119319819Y-105618571D01*
X119319819Y-105618571D02*
X119319819Y-105856666D01*
X119319819Y-105856666D02*
X119272200Y-105951904D01*
X119272200Y-105951904D02*
X119224580Y-105999523D01*
X98397142Y-91099580D02*
X98349523Y-91147200D01*
X98349523Y-91147200D02*
X98206666Y-91194819D01*
X98206666Y-91194819D02*
X98111428Y-91194819D01*
X98111428Y-91194819D02*
X97968571Y-91147200D01*
X97968571Y-91147200D02*
X97873333Y-91051961D01*
X97873333Y-91051961D02*
X97825714Y-90956723D01*
X97825714Y-90956723D02*
X97778095Y-90766247D01*
X97778095Y-90766247D02*
X97778095Y-90623390D01*
X97778095Y-90623390D02*
X97825714Y-90432914D01*
X97825714Y-90432914D02*
X97873333Y-90337676D01*
X97873333Y-90337676D02*
X97968571Y-90242438D01*
X97968571Y-90242438D02*
X98111428Y-90194819D01*
X98111428Y-90194819D02*
X98206666Y-90194819D01*
X98206666Y-90194819D02*
X98349523Y-90242438D01*
X98349523Y-90242438D02*
X98397142Y-90290057D01*
X98778095Y-90290057D02*
X98825714Y-90242438D01*
X98825714Y-90242438D02*
X98920952Y-90194819D01*
X98920952Y-90194819D02*
X99159047Y-90194819D01*
X99159047Y-90194819D02*
X99254285Y-90242438D01*
X99254285Y-90242438D02*
X99301904Y-90290057D01*
X99301904Y-90290057D02*
X99349523Y-90385295D01*
X99349523Y-90385295D02*
X99349523Y-90480533D01*
X99349523Y-90480533D02*
X99301904Y-90623390D01*
X99301904Y-90623390D02*
X98730476Y-91194819D01*
X98730476Y-91194819D02*
X99349523Y-91194819D01*
X99968571Y-90194819D02*
X100063809Y-90194819D01*
X100063809Y-90194819D02*
X100159047Y-90242438D01*
X100159047Y-90242438D02*
X100206666Y-90290057D01*
X100206666Y-90290057D02*
X100254285Y-90385295D01*
X100254285Y-90385295D02*
X100301904Y-90575771D01*
X100301904Y-90575771D02*
X100301904Y-90813866D01*
X100301904Y-90813866D02*
X100254285Y-91004342D01*
X100254285Y-91004342D02*
X100206666Y-91099580D01*
X100206666Y-91099580D02*
X100159047Y-91147200D01*
X100159047Y-91147200D02*
X100063809Y-91194819D01*
X100063809Y-91194819D02*
X99968571Y-91194819D01*
X99968571Y-91194819D02*
X99873333Y-91147200D01*
X99873333Y-91147200D02*
X99825714Y-91099580D01*
X99825714Y-91099580D02*
X99778095Y-91004342D01*
X99778095Y-91004342D02*
X99730476Y-90813866D01*
X99730476Y-90813866D02*
X99730476Y-90575771D01*
X99730476Y-90575771D02*
X99778095Y-90385295D01*
X99778095Y-90385295D02*
X99825714Y-90290057D01*
X99825714Y-90290057D02*
X99873333Y-90242438D01*
X99873333Y-90242438D02*
X99968571Y-90194819D01*
X135541486Y-108772857D02*
X135065295Y-109106190D01*
X135541486Y-109344285D02*
X134541486Y-109344285D01*
X134541486Y-109344285D02*
X134541486Y-108963333D01*
X134541486Y-108963333D02*
X134589105Y-108868095D01*
X134589105Y-108868095D02*
X134636724Y-108820476D01*
X134636724Y-108820476D02*
X134731962Y-108772857D01*
X134731962Y-108772857D02*
X134874819Y-108772857D01*
X134874819Y-108772857D02*
X134970057Y-108820476D01*
X134970057Y-108820476D02*
X135017676Y-108868095D01*
X135017676Y-108868095D02*
X135065295Y-108963333D01*
X135065295Y-108963333D02*
X135065295Y-109344285D01*
X134636724Y-108391904D02*
X134589105Y-108344285D01*
X134589105Y-108344285D02*
X134541486Y-108249047D01*
X134541486Y-108249047D02*
X134541486Y-108010952D01*
X134541486Y-108010952D02*
X134589105Y-107915714D01*
X134589105Y-107915714D02*
X134636724Y-107868095D01*
X134636724Y-107868095D02*
X134731962Y-107820476D01*
X134731962Y-107820476D02*
X134827200Y-107820476D01*
X134827200Y-107820476D02*
X134970057Y-107868095D01*
X134970057Y-107868095D02*
X135541486Y-108439523D01*
X135541486Y-108439523D02*
X135541486Y-107820476D01*
X134541486Y-107201428D02*
X134541486Y-107106190D01*
X134541486Y-107106190D02*
X134589105Y-107010952D01*
X134589105Y-107010952D02*
X134636724Y-106963333D01*
X134636724Y-106963333D02*
X134731962Y-106915714D01*
X134731962Y-106915714D02*
X134922438Y-106868095D01*
X134922438Y-106868095D02*
X135160533Y-106868095D01*
X135160533Y-106868095D02*
X135351009Y-106915714D01*
X135351009Y-106915714D02*
X135446247Y-106963333D01*
X135446247Y-106963333D02*
X135493867Y-107010952D01*
X135493867Y-107010952D02*
X135541486Y-107106190D01*
X135541486Y-107106190D02*
X135541486Y-107201428D01*
X135541486Y-107201428D02*
X135493867Y-107296666D01*
X135493867Y-107296666D02*
X135446247Y-107344285D01*
X135446247Y-107344285D02*
X135351009Y-107391904D01*
X135351009Y-107391904D02*
X135160533Y-107439523D01*
X135160533Y-107439523D02*
X134922438Y-107439523D01*
X134922438Y-107439523D02*
X134731962Y-107391904D01*
X134731962Y-107391904D02*
X134636724Y-107344285D01*
X134636724Y-107344285D02*
X134589105Y-107296666D01*
X134589105Y-107296666D02*
X134541486Y-107201428D01*
X134989642Y-88944819D02*
X134656309Y-88468628D01*
X134418214Y-88944819D02*
X134418214Y-87944819D01*
X134418214Y-87944819D02*
X134799166Y-87944819D01*
X134799166Y-87944819D02*
X134894404Y-87992438D01*
X134894404Y-87992438D02*
X134942023Y-88040057D01*
X134942023Y-88040057D02*
X134989642Y-88135295D01*
X134989642Y-88135295D02*
X134989642Y-88278152D01*
X134989642Y-88278152D02*
X134942023Y-88373390D01*
X134942023Y-88373390D02*
X134894404Y-88421009D01*
X134894404Y-88421009D02*
X134799166Y-88468628D01*
X134799166Y-88468628D02*
X134418214Y-88468628D01*
X135942023Y-88944819D02*
X135370595Y-88944819D01*
X135656309Y-88944819D02*
X135656309Y-87944819D01*
X135656309Y-87944819D02*
X135561071Y-88087676D01*
X135561071Y-88087676D02*
X135465833Y-88182914D01*
X135465833Y-88182914D02*
X135370595Y-88230533D01*
X136322976Y-88040057D02*
X136370595Y-87992438D01*
X136370595Y-87992438D02*
X136465833Y-87944819D01*
X136465833Y-87944819D02*
X136703928Y-87944819D01*
X136703928Y-87944819D02*
X136799166Y-87992438D01*
X136799166Y-87992438D02*
X136846785Y-88040057D01*
X136846785Y-88040057D02*
X136894404Y-88135295D01*
X136894404Y-88135295D02*
X136894404Y-88230533D01*
X136894404Y-88230533D02*
X136846785Y-88373390D01*
X136846785Y-88373390D02*
X136275357Y-88944819D01*
X136275357Y-88944819D02*
X136894404Y-88944819D01*
X128913333Y-99519580D02*
X128865714Y-99567200D01*
X128865714Y-99567200D02*
X128722857Y-99614819D01*
X128722857Y-99614819D02*
X128627619Y-99614819D01*
X128627619Y-99614819D02*
X128484762Y-99567200D01*
X128484762Y-99567200D02*
X128389524Y-99471961D01*
X128389524Y-99471961D02*
X128341905Y-99376723D01*
X128341905Y-99376723D02*
X128294286Y-99186247D01*
X128294286Y-99186247D02*
X128294286Y-99043390D01*
X128294286Y-99043390D02*
X128341905Y-98852914D01*
X128341905Y-98852914D02*
X128389524Y-98757676D01*
X128389524Y-98757676D02*
X128484762Y-98662438D01*
X128484762Y-98662438D02*
X128627619Y-98614819D01*
X128627619Y-98614819D02*
X128722857Y-98614819D01*
X128722857Y-98614819D02*
X128865714Y-98662438D01*
X128865714Y-98662438D02*
X128913333Y-98710057D01*
X129865714Y-99614819D02*
X129294286Y-99614819D01*
X129580000Y-99614819D02*
X129580000Y-98614819D01*
X129580000Y-98614819D02*
X129484762Y-98757676D01*
X129484762Y-98757676D02*
X129389524Y-98852914D01*
X129389524Y-98852914D02*
X129294286Y-98900533D01*
X121482200Y-98423332D02*
X121529819Y-98280475D01*
X121529819Y-98280475D02*
X121529819Y-98042380D01*
X121529819Y-98042380D02*
X121482200Y-97947142D01*
X121482200Y-97947142D02*
X121434580Y-97899523D01*
X121434580Y-97899523D02*
X121339342Y-97851904D01*
X121339342Y-97851904D02*
X121244104Y-97851904D01*
X121244104Y-97851904D02*
X121148866Y-97899523D01*
X121148866Y-97899523D02*
X121101247Y-97947142D01*
X121101247Y-97947142D02*
X121053628Y-98042380D01*
X121053628Y-98042380D02*
X121006009Y-98232856D01*
X121006009Y-98232856D02*
X120958390Y-98328094D01*
X120958390Y-98328094D02*
X120910771Y-98375713D01*
X120910771Y-98375713D02*
X120815533Y-98423332D01*
X120815533Y-98423332D02*
X120720295Y-98423332D01*
X120720295Y-98423332D02*
X120625057Y-98375713D01*
X120625057Y-98375713D02*
X120577438Y-98328094D01*
X120577438Y-98328094D02*
X120529819Y-98232856D01*
X120529819Y-98232856D02*
X120529819Y-97994761D01*
X120529819Y-97994761D02*
X120577438Y-97851904D01*
X120529819Y-97518570D02*
X121529819Y-97280475D01*
X121529819Y-97280475D02*
X120815533Y-97089999D01*
X120815533Y-97089999D02*
X121529819Y-96899523D01*
X121529819Y-96899523D02*
X120529819Y-96661428D01*
X120625057Y-96328094D02*
X120577438Y-96280475D01*
X120577438Y-96280475D02*
X120529819Y-96185237D01*
X120529819Y-96185237D02*
X120529819Y-95947142D01*
X120529819Y-95947142D02*
X120577438Y-95851904D01*
X120577438Y-95851904D02*
X120625057Y-95804285D01*
X120625057Y-95804285D02*
X120720295Y-95756666D01*
X120720295Y-95756666D02*
X120815533Y-95756666D01*
X120815533Y-95756666D02*
X120958390Y-95804285D01*
X120958390Y-95804285D02*
X121529819Y-96375713D01*
X121529819Y-96375713D02*
X121529819Y-95756666D01*
X116056666Y-81214819D02*
X116056666Y-81929104D01*
X116056666Y-81929104D02*
X116009047Y-82071961D01*
X116009047Y-82071961D02*
X115913809Y-82167200D01*
X115913809Y-82167200D02*
X115770952Y-82214819D01*
X115770952Y-82214819D02*
X115675714Y-82214819D01*
X117009047Y-81214819D02*
X116532857Y-81214819D01*
X116532857Y-81214819D02*
X116485238Y-81691009D01*
X116485238Y-81691009D02*
X116532857Y-81643390D01*
X116532857Y-81643390D02*
X116628095Y-81595771D01*
X116628095Y-81595771D02*
X116866190Y-81595771D01*
X116866190Y-81595771D02*
X116961428Y-81643390D01*
X116961428Y-81643390D02*
X117009047Y-81691009D01*
X117009047Y-81691009D02*
X117056666Y-81786247D01*
X117056666Y-81786247D02*
X117056666Y-82024342D01*
X117056666Y-82024342D02*
X117009047Y-82119580D01*
X117009047Y-82119580D02*
X116961428Y-82167200D01*
X116961428Y-82167200D02*
X116866190Y-82214819D01*
X116866190Y-82214819D02*
X116628095Y-82214819D01*
X116628095Y-82214819D02*
X116532857Y-82167200D01*
X116532857Y-82167200D02*
X116485238Y-82119580D01*
X129202142Y-100554819D02*
X128868809Y-100078628D01*
X128630714Y-100554819D02*
X128630714Y-99554819D01*
X128630714Y-99554819D02*
X129011666Y-99554819D01*
X129011666Y-99554819D02*
X129106904Y-99602438D01*
X129106904Y-99602438D02*
X129154523Y-99650057D01*
X129154523Y-99650057D02*
X129202142Y-99745295D01*
X129202142Y-99745295D02*
X129202142Y-99888152D01*
X129202142Y-99888152D02*
X129154523Y-99983390D01*
X129154523Y-99983390D02*
X129106904Y-100031009D01*
X129106904Y-100031009D02*
X129011666Y-100078628D01*
X129011666Y-100078628D02*
X128630714Y-100078628D01*
X130154523Y-100554819D02*
X129583095Y-100554819D01*
X129868809Y-100554819D02*
X129868809Y-99554819D01*
X129868809Y-99554819D02*
X129773571Y-99697676D01*
X129773571Y-99697676D02*
X129678333Y-99792914D01*
X129678333Y-99792914D02*
X129583095Y-99840533D01*
X131011666Y-99888152D02*
X131011666Y-100554819D01*
X130773571Y-99507200D02*
X130535476Y-100221485D01*
X130535476Y-100221485D02*
X131154523Y-100221485D01*
X103097142Y-90919580D02*
X103049523Y-90967200D01*
X103049523Y-90967200D02*
X102906666Y-91014819D01*
X102906666Y-91014819D02*
X102811428Y-91014819D01*
X102811428Y-91014819D02*
X102668571Y-90967200D01*
X102668571Y-90967200D02*
X102573333Y-90871961D01*
X102573333Y-90871961D02*
X102525714Y-90776723D01*
X102525714Y-90776723D02*
X102478095Y-90586247D01*
X102478095Y-90586247D02*
X102478095Y-90443390D01*
X102478095Y-90443390D02*
X102525714Y-90252914D01*
X102525714Y-90252914D02*
X102573333Y-90157676D01*
X102573333Y-90157676D02*
X102668571Y-90062438D01*
X102668571Y-90062438D02*
X102811428Y-90014819D01*
X102811428Y-90014819D02*
X102906666Y-90014819D01*
X102906666Y-90014819D02*
X103049523Y-90062438D01*
X103049523Y-90062438D02*
X103097142Y-90110057D01*
X104049523Y-91014819D02*
X103478095Y-91014819D01*
X103763809Y-91014819D02*
X103763809Y-90014819D01*
X103763809Y-90014819D02*
X103668571Y-90157676D01*
X103668571Y-90157676D02*
X103573333Y-90252914D01*
X103573333Y-90252914D02*
X103478095Y-90300533D01*
X104525714Y-91014819D02*
X104716190Y-91014819D01*
X104716190Y-91014819D02*
X104811428Y-90967200D01*
X104811428Y-90967200D02*
X104859047Y-90919580D01*
X104859047Y-90919580D02*
X104954285Y-90776723D01*
X104954285Y-90776723D02*
X105001904Y-90586247D01*
X105001904Y-90586247D02*
X105001904Y-90205295D01*
X105001904Y-90205295D02*
X104954285Y-90110057D01*
X104954285Y-90110057D02*
X104906666Y-90062438D01*
X104906666Y-90062438D02*
X104811428Y-90014819D01*
X104811428Y-90014819D02*
X104620952Y-90014819D01*
X104620952Y-90014819D02*
X104525714Y-90062438D01*
X104525714Y-90062438D02*
X104478095Y-90110057D01*
X104478095Y-90110057D02*
X104430476Y-90205295D01*
X104430476Y-90205295D02*
X104430476Y-90443390D01*
X104430476Y-90443390D02*
X104478095Y-90538628D01*
X104478095Y-90538628D02*
X104525714Y-90586247D01*
X104525714Y-90586247D02*
X104620952Y-90633866D01*
X104620952Y-90633866D02*
X104811428Y-90633866D01*
X104811428Y-90633866D02*
X104906666Y-90586247D01*
X104906666Y-90586247D02*
X104954285Y-90538628D01*
X104954285Y-90538628D02*
X105001904Y-90443390D01*
X99969580Y-84522857D02*
X100017200Y-84570476D01*
X100017200Y-84570476D02*
X100064819Y-84713333D01*
X100064819Y-84713333D02*
X100064819Y-84808571D01*
X100064819Y-84808571D02*
X100017200Y-84951428D01*
X100017200Y-84951428D02*
X99921961Y-85046666D01*
X99921961Y-85046666D02*
X99826723Y-85094285D01*
X99826723Y-85094285D02*
X99636247Y-85141904D01*
X99636247Y-85141904D02*
X99493390Y-85141904D01*
X99493390Y-85141904D02*
X99302914Y-85094285D01*
X99302914Y-85094285D02*
X99207676Y-85046666D01*
X99207676Y-85046666D02*
X99112438Y-84951428D01*
X99112438Y-84951428D02*
X99064819Y-84808571D01*
X99064819Y-84808571D02*
X99064819Y-84713333D01*
X99064819Y-84713333D02*
X99112438Y-84570476D01*
X99112438Y-84570476D02*
X99160057Y-84522857D01*
X100064819Y-83570476D02*
X100064819Y-84141904D01*
X100064819Y-83856190D02*
X99064819Y-83856190D01*
X99064819Y-83856190D02*
X99207676Y-83951428D01*
X99207676Y-83951428D02*
X99302914Y-84046666D01*
X99302914Y-84046666D02*
X99350533Y-84141904D01*
X99398152Y-82713333D02*
X100064819Y-82713333D01*
X99017200Y-82951428D02*
X99731485Y-83189523D01*
X99731485Y-83189523D02*
X99731485Y-82570476D01*
X138657142Y-86094819D02*
X138323809Y-85618628D01*
X138085714Y-86094819D02*
X138085714Y-85094819D01*
X138085714Y-85094819D02*
X138466666Y-85094819D01*
X138466666Y-85094819D02*
X138561904Y-85142438D01*
X138561904Y-85142438D02*
X138609523Y-85190057D01*
X138609523Y-85190057D02*
X138657142Y-85285295D01*
X138657142Y-85285295D02*
X138657142Y-85428152D01*
X138657142Y-85428152D02*
X138609523Y-85523390D01*
X138609523Y-85523390D02*
X138561904Y-85571009D01*
X138561904Y-85571009D02*
X138466666Y-85618628D01*
X138466666Y-85618628D02*
X138085714Y-85618628D01*
X139038095Y-85190057D02*
X139085714Y-85142438D01*
X139085714Y-85142438D02*
X139180952Y-85094819D01*
X139180952Y-85094819D02*
X139419047Y-85094819D01*
X139419047Y-85094819D02*
X139514285Y-85142438D01*
X139514285Y-85142438D02*
X139561904Y-85190057D01*
X139561904Y-85190057D02*
X139609523Y-85285295D01*
X139609523Y-85285295D02*
X139609523Y-85380533D01*
X139609523Y-85380533D02*
X139561904Y-85523390D01*
X139561904Y-85523390D02*
X138990476Y-86094819D01*
X138990476Y-86094819D02*
X139609523Y-86094819D01*
X140180952Y-85523390D02*
X140085714Y-85475771D01*
X140085714Y-85475771D02*
X140038095Y-85428152D01*
X140038095Y-85428152D02*
X139990476Y-85332914D01*
X139990476Y-85332914D02*
X139990476Y-85285295D01*
X139990476Y-85285295D02*
X140038095Y-85190057D01*
X140038095Y-85190057D02*
X140085714Y-85142438D01*
X140085714Y-85142438D02*
X140180952Y-85094819D01*
X140180952Y-85094819D02*
X140371428Y-85094819D01*
X140371428Y-85094819D02*
X140466666Y-85142438D01*
X140466666Y-85142438D02*
X140514285Y-85190057D01*
X140514285Y-85190057D02*
X140561904Y-85285295D01*
X140561904Y-85285295D02*
X140561904Y-85332914D01*
X140561904Y-85332914D02*
X140514285Y-85428152D01*
X140514285Y-85428152D02*
X140466666Y-85475771D01*
X140466666Y-85475771D02*
X140371428Y-85523390D01*
X140371428Y-85523390D02*
X140180952Y-85523390D01*
X140180952Y-85523390D02*
X140085714Y-85571009D01*
X140085714Y-85571009D02*
X140038095Y-85618628D01*
X140038095Y-85618628D02*
X139990476Y-85713866D01*
X139990476Y-85713866D02*
X139990476Y-85904342D01*
X139990476Y-85904342D02*
X140038095Y-85999580D01*
X140038095Y-85999580D02*
X140085714Y-86047200D01*
X140085714Y-86047200D02*
X140180952Y-86094819D01*
X140180952Y-86094819D02*
X140371428Y-86094819D01*
X140371428Y-86094819D02*
X140466666Y-86047200D01*
X140466666Y-86047200D02*
X140514285Y-85999580D01*
X140514285Y-85999580D02*
X140561904Y-85904342D01*
X140561904Y-85904342D02*
X140561904Y-85713866D01*
X140561904Y-85713866D02*
X140514285Y-85618628D01*
X140514285Y-85618628D02*
X140466666Y-85571009D01*
X140466666Y-85571009D02*
X140371428Y-85523390D01*
X139794819Y-108772857D02*
X139318628Y-109106190D01*
X139794819Y-109344285D02*
X138794819Y-109344285D01*
X138794819Y-109344285D02*
X138794819Y-108963333D01*
X138794819Y-108963333D02*
X138842438Y-108868095D01*
X138842438Y-108868095D02*
X138890057Y-108820476D01*
X138890057Y-108820476D02*
X138985295Y-108772857D01*
X138985295Y-108772857D02*
X139128152Y-108772857D01*
X139128152Y-108772857D02*
X139223390Y-108820476D01*
X139223390Y-108820476D02*
X139271009Y-108868095D01*
X139271009Y-108868095D02*
X139318628Y-108963333D01*
X139318628Y-108963333D02*
X139318628Y-109344285D01*
X138890057Y-108391904D02*
X138842438Y-108344285D01*
X138842438Y-108344285D02*
X138794819Y-108249047D01*
X138794819Y-108249047D02*
X138794819Y-108010952D01*
X138794819Y-108010952D02*
X138842438Y-107915714D01*
X138842438Y-107915714D02*
X138890057Y-107868095D01*
X138890057Y-107868095D02*
X138985295Y-107820476D01*
X138985295Y-107820476D02*
X139080533Y-107820476D01*
X139080533Y-107820476D02*
X139223390Y-107868095D01*
X139223390Y-107868095D02*
X139794819Y-108439523D01*
X139794819Y-108439523D02*
X139794819Y-107820476D01*
X138890057Y-107439523D02*
X138842438Y-107391904D01*
X138842438Y-107391904D02*
X138794819Y-107296666D01*
X138794819Y-107296666D02*
X138794819Y-107058571D01*
X138794819Y-107058571D02*
X138842438Y-106963333D01*
X138842438Y-106963333D02*
X138890057Y-106915714D01*
X138890057Y-106915714D02*
X138985295Y-106868095D01*
X138985295Y-106868095D02*
X139080533Y-106868095D01*
X139080533Y-106868095D02*
X139223390Y-106915714D01*
X139223390Y-106915714D02*
X139794819Y-107487142D01*
X139794819Y-107487142D02*
X139794819Y-106868095D01*
X116984819Y-70953333D02*
X117699104Y-70953333D01*
X117699104Y-70953333D02*
X117841961Y-71000952D01*
X117841961Y-71000952D02*
X117937200Y-71096190D01*
X117937200Y-71096190D02*
X117984819Y-71239047D01*
X117984819Y-71239047D02*
X117984819Y-71334285D01*
X116984819Y-70572380D02*
X116984819Y-69905714D01*
X116984819Y-69905714D02*
X117984819Y-70334285D01*
X91989819Y-79443333D02*
X92704104Y-79443333D01*
X92704104Y-79443333D02*
X92846961Y-79490952D01*
X92846961Y-79490952D02*
X92942200Y-79586190D01*
X92942200Y-79586190D02*
X92989819Y-79729047D01*
X92989819Y-79729047D02*
X92989819Y-79824285D01*
X92989819Y-78919523D02*
X92989819Y-78729047D01*
X92989819Y-78729047D02*
X92942200Y-78633809D01*
X92942200Y-78633809D02*
X92894580Y-78586190D01*
X92894580Y-78586190D02*
X92751723Y-78490952D01*
X92751723Y-78490952D02*
X92561247Y-78443333D01*
X92561247Y-78443333D02*
X92180295Y-78443333D01*
X92180295Y-78443333D02*
X92085057Y-78490952D01*
X92085057Y-78490952D02*
X92037438Y-78538571D01*
X92037438Y-78538571D02*
X91989819Y-78633809D01*
X91989819Y-78633809D02*
X91989819Y-78824285D01*
X91989819Y-78824285D02*
X92037438Y-78919523D01*
X92037438Y-78919523D02*
X92085057Y-78967142D01*
X92085057Y-78967142D02*
X92180295Y-79014761D01*
X92180295Y-79014761D02*
X92418390Y-79014761D01*
X92418390Y-79014761D02*
X92513628Y-78967142D01*
X92513628Y-78967142D02*
X92561247Y-78919523D01*
X92561247Y-78919523D02*
X92608866Y-78824285D01*
X92608866Y-78824285D02*
X92608866Y-78633809D01*
X92608866Y-78633809D02*
X92561247Y-78538571D01*
X92561247Y-78538571D02*
X92513628Y-78490952D01*
X92513628Y-78490952D02*
X92418390Y-78443333D01*
X145496666Y-83989819D02*
X145496666Y-84704104D01*
X145496666Y-84704104D02*
X145449047Y-84846961D01*
X145449047Y-84846961D02*
X145353809Y-84942200D01*
X145353809Y-84942200D02*
X145210952Y-84989819D01*
X145210952Y-84989819D02*
X145115714Y-84989819D01*
X145925238Y-84085057D02*
X145972857Y-84037438D01*
X145972857Y-84037438D02*
X146068095Y-83989819D01*
X146068095Y-83989819D02*
X146306190Y-83989819D01*
X146306190Y-83989819D02*
X146401428Y-84037438D01*
X146401428Y-84037438D02*
X146449047Y-84085057D01*
X146449047Y-84085057D02*
X146496666Y-84180295D01*
X146496666Y-84180295D02*
X146496666Y-84275533D01*
X146496666Y-84275533D02*
X146449047Y-84418390D01*
X146449047Y-84418390D02*
X145877619Y-84989819D01*
X145877619Y-84989819D02*
X146496666Y-84989819D01*
X119144580Y-105282857D02*
X119192200Y-105330476D01*
X119192200Y-105330476D02*
X119239819Y-105473333D01*
X119239819Y-105473333D02*
X119239819Y-105568571D01*
X119239819Y-105568571D02*
X119192200Y-105711428D01*
X119192200Y-105711428D02*
X119096961Y-105806666D01*
X119096961Y-105806666D02*
X119001723Y-105854285D01*
X119001723Y-105854285D02*
X118811247Y-105901904D01*
X118811247Y-105901904D02*
X118668390Y-105901904D01*
X118668390Y-105901904D02*
X118477914Y-105854285D01*
X118477914Y-105854285D02*
X118382676Y-105806666D01*
X118382676Y-105806666D02*
X118287438Y-105711428D01*
X118287438Y-105711428D02*
X118239819Y-105568571D01*
X118239819Y-105568571D02*
X118239819Y-105473333D01*
X118239819Y-105473333D02*
X118287438Y-105330476D01*
X118287438Y-105330476D02*
X118335057Y-105282857D01*
X118335057Y-104901904D02*
X118287438Y-104854285D01*
X118287438Y-104854285D02*
X118239819Y-104759047D01*
X118239819Y-104759047D02*
X118239819Y-104520952D01*
X118239819Y-104520952D02*
X118287438Y-104425714D01*
X118287438Y-104425714D02*
X118335057Y-104378095D01*
X118335057Y-104378095D02*
X118430295Y-104330476D01*
X118430295Y-104330476D02*
X118525533Y-104330476D01*
X118525533Y-104330476D02*
X118668390Y-104378095D01*
X118668390Y-104378095D02*
X119239819Y-104949523D01*
X119239819Y-104949523D02*
X119239819Y-104330476D01*
X118239819Y-103473333D02*
X118239819Y-103663809D01*
X118239819Y-103663809D02*
X118287438Y-103759047D01*
X118287438Y-103759047D02*
X118335057Y-103806666D01*
X118335057Y-103806666D02*
X118477914Y-103901904D01*
X118477914Y-103901904D02*
X118668390Y-103949523D01*
X118668390Y-103949523D02*
X119049342Y-103949523D01*
X119049342Y-103949523D02*
X119144580Y-103901904D01*
X119144580Y-103901904D02*
X119192200Y-103854285D01*
X119192200Y-103854285D02*
X119239819Y-103759047D01*
X119239819Y-103759047D02*
X119239819Y-103568571D01*
X119239819Y-103568571D02*
X119192200Y-103473333D01*
X119192200Y-103473333D02*
X119144580Y-103425714D01*
X119144580Y-103425714D02*
X119049342Y-103378095D01*
X119049342Y-103378095D02*
X118811247Y-103378095D01*
X118811247Y-103378095D02*
X118716009Y-103425714D01*
X118716009Y-103425714D02*
X118668390Y-103473333D01*
X118668390Y-103473333D02*
X118620771Y-103568571D01*
X118620771Y-103568571D02*
X118620771Y-103759047D01*
X118620771Y-103759047D02*
X118668390Y-103854285D01*
X118668390Y-103854285D02*
X118716009Y-103901904D01*
X118716009Y-103901904D02*
X118811247Y-103949523D01*
X114738095Y-106004819D02*
X114738095Y-105004819D01*
X114738095Y-105481009D02*
X115309523Y-105481009D01*
X115309523Y-106004819D02*
X115309523Y-105004819D01*
X116309523Y-106004819D02*
X115738095Y-106004819D01*
X116023809Y-106004819D02*
X116023809Y-105004819D01*
X116023809Y-105004819D02*
X115928571Y-105147676D01*
X115928571Y-105147676D02*
X115833333Y-105242914D01*
X115833333Y-105242914D02*
X115738095Y-105290533D01*
X129202142Y-98044819D02*
X128868809Y-97568628D01*
X128630714Y-98044819D02*
X128630714Y-97044819D01*
X128630714Y-97044819D02*
X129011666Y-97044819D01*
X129011666Y-97044819D02*
X129106904Y-97092438D01*
X129106904Y-97092438D02*
X129154523Y-97140057D01*
X129154523Y-97140057D02*
X129202142Y-97235295D01*
X129202142Y-97235295D02*
X129202142Y-97378152D01*
X129202142Y-97378152D02*
X129154523Y-97473390D01*
X129154523Y-97473390D02*
X129106904Y-97521009D01*
X129106904Y-97521009D02*
X129011666Y-97568628D01*
X129011666Y-97568628D02*
X128630714Y-97568628D01*
X130154523Y-98044819D02*
X129583095Y-98044819D01*
X129868809Y-98044819D02*
X129868809Y-97044819D01*
X129868809Y-97044819D02*
X129773571Y-97187676D01*
X129773571Y-97187676D02*
X129678333Y-97282914D01*
X129678333Y-97282914D02*
X129583095Y-97330533D01*
X131059285Y-97044819D02*
X130583095Y-97044819D01*
X130583095Y-97044819D02*
X130535476Y-97521009D01*
X130535476Y-97521009D02*
X130583095Y-97473390D01*
X130583095Y-97473390D02*
X130678333Y-97425771D01*
X130678333Y-97425771D02*
X130916428Y-97425771D01*
X130916428Y-97425771D02*
X131011666Y-97473390D01*
X131011666Y-97473390D02*
X131059285Y-97521009D01*
X131059285Y-97521009D02*
X131106904Y-97616247D01*
X131106904Y-97616247D02*
X131106904Y-97854342D01*
X131106904Y-97854342D02*
X131059285Y-97949580D01*
X131059285Y-97949580D02*
X131011666Y-97997200D01*
X131011666Y-97997200D02*
X130916428Y-98044819D01*
X130916428Y-98044819D02*
X130678333Y-98044819D01*
X130678333Y-98044819D02*
X130583095Y-97997200D01*
X130583095Y-97997200D02*
X130535476Y-97949580D01*
X112739580Y-92142857D02*
X112787200Y-92190476D01*
X112787200Y-92190476D02*
X112834819Y-92333333D01*
X112834819Y-92333333D02*
X112834819Y-92428571D01*
X112834819Y-92428571D02*
X112787200Y-92571428D01*
X112787200Y-92571428D02*
X112691961Y-92666666D01*
X112691961Y-92666666D02*
X112596723Y-92714285D01*
X112596723Y-92714285D02*
X112406247Y-92761904D01*
X112406247Y-92761904D02*
X112263390Y-92761904D01*
X112263390Y-92761904D02*
X112072914Y-92714285D01*
X112072914Y-92714285D02*
X111977676Y-92666666D01*
X111977676Y-92666666D02*
X111882438Y-92571428D01*
X111882438Y-92571428D02*
X111834819Y-92428571D01*
X111834819Y-92428571D02*
X111834819Y-92333333D01*
X111834819Y-92333333D02*
X111882438Y-92190476D01*
X111882438Y-92190476D02*
X111930057Y-92142857D01*
X112834819Y-91190476D02*
X112834819Y-91761904D01*
X112834819Y-91476190D02*
X111834819Y-91476190D01*
X111834819Y-91476190D02*
X111977676Y-91571428D01*
X111977676Y-91571428D02*
X112072914Y-91666666D01*
X112072914Y-91666666D02*
X112120533Y-91761904D01*
X111834819Y-90333333D02*
X111834819Y-90523809D01*
X111834819Y-90523809D02*
X111882438Y-90619047D01*
X111882438Y-90619047D02*
X111930057Y-90666666D01*
X111930057Y-90666666D02*
X112072914Y-90761904D01*
X112072914Y-90761904D02*
X112263390Y-90809523D01*
X112263390Y-90809523D02*
X112644342Y-90809523D01*
X112644342Y-90809523D02*
X112739580Y-90761904D01*
X112739580Y-90761904D02*
X112787200Y-90714285D01*
X112787200Y-90714285D02*
X112834819Y-90619047D01*
X112834819Y-90619047D02*
X112834819Y-90428571D01*
X112834819Y-90428571D02*
X112787200Y-90333333D01*
X112787200Y-90333333D02*
X112739580Y-90285714D01*
X112739580Y-90285714D02*
X112644342Y-90238095D01*
X112644342Y-90238095D02*
X112406247Y-90238095D01*
X112406247Y-90238095D02*
X112311009Y-90285714D01*
X112311009Y-90285714D02*
X112263390Y-90333333D01*
X112263390Y-90333333D02*
X112215771Y-90428571D01*
X112215771Y-90428571D02*
X112215771Y-90619047D01*
X112215771Y-90619047D02*
X112263390Y-90714285D01*
X112263390Y-90714285D02*
X112311009Y-90761904D01*
X112311009Y-90761904D02*
X112406247Y-90809523D01*
X117308809Y-106468628D02*
X117308809Y-106944819D01*
X116975476Y-105944819D02*
X117308809Y-106468628D01*
X117308809Y-106468628D02*
X117642142Y-105944819D01*
X118499285Y-106944819D02*
X117927857Y-106944819D01*
X118213571Y-106944819D02*
X118213571Y-105944819D01*
X118213571Y-105944819D02*
X118118333Y-106087676D01*
X118118333Y-106087676D02*
X118023095Y-106182914D01*
X118023095Y-106182914D02*
X117927857Y-106230533D01*
X153124199Y-97137534D02*
X153933722Y-97137534D01*
X153933722Y-97137534D02*
X154028960Y-97089915D01*
X154028960Y-97089915D02*
X154076580Y-97042296D01*
X154076580Y-97042296D02*
X154124199Y-96947058D01*
X154124199Y-96947058D02*
X154124199Y-96756582D01*
X154124199Y-96756582D02*
X154076580Y-96661344D01*
X154076580Y-96661344D02*
X154028960Y-96613725D01*
X154028960Y-96613725D02*
X153933722Y-96566106D01*
X153933722Y-96566106D02*
X153124199Y-96566106D01*
X153124199Y-96185153D02*
X153124199Y-95566106D01*
X153124199Y-95566106D02*
X153505151Y-95899439D01*
X153505151Y-95899439D02*
X153505151Y-95756582D01*
X153505151Y-95756582D02*
X153552770Y-95661344D01*
X153552770Y-95661344D02*
X153600389Y-95613725D01*
X153600389Y-95613725D02*
X153695627Y-95566106D01*
X153695627Y-95566106D02*
X153933722Y-95566106D01*
X153933722Y-95566106D02*
X154028960Y-95613725D01*
X154028960Y-95613725D02*
X154076580Y-95661344D01*
X154076580Y-95661344D02*
X154124199Y-95756582D01*
X154124199Y-95756582D02*
X154124199Y-96042296D01*
X154124199Y-96042296D02*
X154076580Y-96137534D01*
X154076580Y-96137534D02*
X154028960Y-96185153D01*
X111269580Y-85682857D02*
X111317200Y-85730476D01*
X111317200Y-85730476D02*
X111364819Y-85873333D01*
X111364819Y-85873333D02*
X111364819Y-85968571D01*
X111364819Y-85968571D02*
X111317200Y-86111428D01*
X111317200Y-86111428D02*
X111221961Y-86206666D01*
X111221961Y-86206666D02*
X111126723Y-86254285D01*
X111126723Y-86254285D02*
X110936247Y-86301904D01*
X110936247Y-86301904D02*
X110793390Y-86301904D01*
X110793390Y-86301904D02*
X110602914Y-86254285D01*
X110602914Y-86254285D02*
X110507676Y-86206666D01*
X110507676Y-86206666D02*
X110412438Y-86111428D01*
X110412438Y-86111428D02*
X110364819Y-85968571D01*
X110364819Y-85968571D02*
X110364819Y-85873333D01*
X110364819Y-85873333D02*
X110412438Y-85730476D01*
X110412438Y-85730476D02*
X110460057Y-85682857D01*
X111364819Y-84730476D02*
X111364819Y-85301904D01*
X111364819Y-85016190D02*
X110364819Y-85016190D01*
X110364819Y-85016190D02*
X110507676Y-85111428D01*
X110507676Y-85111428D02*
X110602914Y-85206666D01*
X110602914Y-85206666D02*
X110650533Y-85301904D01*
X110364819Y-84397142D02*
X110364819Y-83730476D01*
X110364819Y-83730476D02*
X111364819Y-84159047D01*
X120307176Y-103745619D02*
X120825271Y-103745619D01*
X120825271Y-103745619D02*
X120886223Y-103715142D01*
X120886223Y-103715142D02*
X120916700Y-103684666D01*
X120916700Y-103684666D02*
X120947176Y-103623714D01*
X120947176Y-103623714D02*
X120947176Y-103501809D01*
X120947176Y-103501809D02*
X120916700Y-103440857D01*
X120916700Y-103440857D02*
X120886223Y-103410380D01*
X120886223Y-103410380D02*
X120825271Y-103379904D01*
X120825271Y-103379904D02*
X120307176Y-103379904D01*
X120307176Y-102800857D02*
X120307176Y-102922762D01*
X120307176Y-102922762D02*
X120337652Y-102983714D01*
X120337652Y-102983714D02*
X120368128Y-103014190D01*
X120368128Y-103014190D02*
X120459557Y-103075143D01*
X120459557Y-103075143D02*
X120581461Y-103105619D01*
X120581461Y-103105619D02*
X120825271Y-103105619D01*
X120825271Y-103105619D02*
X120886223Y-103075143D01*
X120886223Y-103075143D02*
X120916700Y-103044666D01*
X120916700Y-103044666D02*
X120947176Y-102983714D01*
X120947176Y-102983714D02*
X120947176Y-102861809D01*
X120947176Y-102861809D02*
X120916700Y-102800857D01*
X120916700Y-102800857D02*
X120886223Y-102770381D01*
X120886223Y-102770381D02*
X120825271Y-102739904D01*
X120825271Y-102739904D02*
X120672890Y-102739904D01*
X120672890Y-102739904D02*
X120611938Y-102770381D01*
X120611938Y-102770381D02*
X120581461Y-102800857D01*
X120581461Y-102800857D02*
X120550985Y-102861809D01*
X120550985Y-102861809D02*
X120550985Y-102983714D01*
X120550985Y-102983714D02*
X120581461Y-103044666D01*
X120581461Y-103044666D02*
X120611938Y-103075143D01*
X120611938Y-103075143D02*
X120672890Y-103105619D01*
X119104580Y-103172857D02*
X119152200Y-103220476D01*
X119152200Y-103220476D02*
X119199819Y-103363333D01*
X119199819Y-103363333D02*
X119199819Y-103458571D01*
X119199819Y-103458571D02*
X119152200Y-103601428D01*
X119152200Y-103601428D02*
X119056961Y-103696666D01*
X119056961Y-103696666D02*
X118961723Y-103744285D01*
X118961723Y-103744285D02*
X118771247Y-103791904D01*
X118771247Y-103791904D02*
X118628390Y-103791904D01*
X118628390Y-103791904D02*
X118437914Y-103744285D01*
X118437914Y-103744285D02*
X118342676Y-103696666D01*
X118342676Y-103696666D02*
X118247438Y-103601428D01*
X118247438Y-103601428D02*
X118199819Y-103458571D01*
X118199819Y-103458571D02*
X118199819Y-103363333D01*
X118199819Y-103363333D02*
X118247438Y-103220476D01*
X118247438Y-103220476D02*
X118295057Y-103172857D01*
X118295057Y-102791904D02*
X118247438Y-102744285D01*
X118247438Y-102744285D02*
X118199819Y-102649047D01*
X118199819Y-102649047D02*
X118199819Y-102410952D01*
X118199819Y-102410952D02*
X118247438Y-102315714D01*
X118247438Y-102315714D02*
X118295057Y-102268095D01*
X118295057Y-102268095D02*
X118390295Y-102220476D01*
X118390295Y-102220476D02*
X118485533Y-102220476D01*
X118485533Y-102220476D02*
X118628390Y-102268095D01*
X118628390Y-102268095D02*
X119199819Y-102839523D01*
X119199819Y-102839523D02*
X119199819Y-102220476D01*
X118199819Y-101887142D02*
X118199819Y-101268095D01*
X118199819Y-101268095D02*
X118580771Y-101601428D01*
X118580771Y-101601428D02*
X118580771Y-101458571D01*
X118580771Y-101458571D02*
X118628390Y-101363333D01*
X118628390Y-101363333D02*
X118676009Y-101315714D01*
X118676009Y-101315714D02*
X118771247Y-101268095D01*
X118771247Y-101268095D02*
X119009342Y-101268095D01*
X119009342Y-101268095D02*
X119104580Y-101315714D01*
X119104580Y-101315714D02*
X119152200Y-101363333D01*
X119152200Y-101363333D02*
X119199819Y-101458571D01*
X119199819Y-101458571D02*
X119199819Y-101744285D01*
X119199819Y-101744285D02*
X119152200Y-101839523D01*
X119152200Y-101839523D02*
X119104580Y-101887142D01*
X89799603Y-107577080D02*
X90514203Y-107577080D01*
X90514203Y-107577080D02*
X90657123Y-107624720D01*
X90657123Y-107624720D02*
X90752404Y-107720000D01*
X90752404Y-107720000D02*
X90800044Y-107862920D01*
X90800044Y-107862920D02*
X90800044Y-107958200D01*
X90800044Y-106576639D02*
X90800044Y-107148319D01*
X90800044Y-106862479D02*
X89799603Y-106862479D01*
X89799603Y-106862479D02*
X89942523Y-106957759D01*
X89942523Y-106957759D02*
X90037803Y-107053039D01*
X90037803Y-107053039D02*
X90085443Y-107148319D01*
X129202142Y-95534819D02*
X128868809Y-95058628D01*
X128630714Y-95534819D02*
X128630714Y-94534819D01*
X128630714Y-94534819D02*
X129011666Y-94534819D01*
X129011666Y-94534819D02*
X129106904Y-94582438D01*
X129106904Y-94582438D02*
X129154523Y-94630057D01*
X129154523Y-94630057D02*
X129202142Y-94725295D01*
X129202142Y-94725295D02*
X129202142Y-94868152D01*
X129202142Y-94868152D02*
X129154523Y-94963390D01*
X129154523Y-94963390D02*
X129106904Y-95011009D01*
X129106904Y-95011009D02*
X129011666Y-95058628D01*
X129011666Y-95058628D02*
X128630714Y-95058628D01*
X130154523Y-95534819D02*
X129583095Y-95534819D01*
X129868809Y-95534819D02*
X129868809Y-94534819D01*
X129868809Y-94534819D02*
X129773571Y-94677676D01*
X129773571Y-94677676D02*
X129678333Y-94772914D01*
X129678333Y-94772914D02*
X129583095Y-94820533D01*
X130487857Y-94534819D02*
X131154523Y-94534819D01*
X131154523Y-94534819D02*
X130725952Y-95534819D01*
X110947142Y-87519580D02*
X110899523Y-87567200D01*
X110899523Y-87567200D02*
X110756666Y-87614819D01*
X110756666Y-87614819D02*
X110661428Y-87614819D01*
X110661428Y-87614819D02*
X110518571Y-87567200D01*
X110518571Y-87567200D02*
X110423333Y-87471961D01*
X110423333Y-87471961D02*
X110375714Y-87376723D01*
X110375714Y-87376723D02*
X110328095Y-87186247D01*
X110328095Y-87186247D02*
X110328095Y-87043390D01*
X110328095Y-87043390D02*
X110375714Y-86852914D01*
X110375714Y-86852914D02*
X110423333Y-86757676D01*
X110423333Y-86757676D02*
X110518571Y-86662438D01*
X110518571Y-86662438D02*
X110661428Y-86614819D01*
X110661428Y-86614819D02*
X110756666Y-86614819D01*
X110756666Y-86614819D02*
X110899523Y-86662438D01*
X110899523Y-86662438D02*
X110947142Y-86710057D01*
X111899523Y-87614819D02*
X111328095Y-87614819D01*
X111613809Y-87614819D02*
X111613809Y-86614819D01*
X111613809Y-86614819D02*
X111518571Y-86757676D01*
X111518571Y-86757676D02*
X111423333Y-86852914D01*
X111423333Y-86852914D02*
X111328095Y-86900533D01*
X112232857Y-86614819D02*
X112851904Y-86614819D01*
X112851904Y-86614819D02*
X112518571Y-86995771D01*
X112518571Y-86995771D02*
X112661428Y-86995771D01*
X112661428Y-86995771D02*
X112756666Y-87043390D01*
X112756666Y-87043390D02*
X112804285Y-87091009D01*
X112804285Y-87091009D02*
X112851904Y-87186247D01*
X112851904Y-87186247D02*
X112851904Y-87424342D01*
X112851904Y-87424342D02*
X112804285Y-87519580D01*
X112804285Y-87519580D02*
X112756666Y-87567200D01*
X112756666Y-87567200D02*
X112661428Y-87614819D01*
X112661428Y-87614819D02*
X112375714Y-87614819D01*
X112375714Y-87614819D02*
X112280476Y-87567200D01*
X112280476Y-87567200D02*
X112232857Y-87519580D01*
X109389580Y-92142857D02*
X109437200Y-92190476D01*
X109437200Y-92190476D02*
X109484819Y-92333333D01*
X109484819Y-92333333D02*
X109484819Y-92428571D01*
X109484819Y-92428571D02*
X109437200Y-92571428D01*
X109437200Y-92571428D02*
X109341961Y-92666666D01*
X109341961Y-92666666D02*
X109246723Y-92714285D01*
X109246723Y-92714285D02*
X109056247Y-92761904D01*
X109056247Y-92761904D02*
X108913390Y-92761904D01*
X108913390Y-92761904D02*
X108722914Y-92714285D01*
X108722914Y-92714285D02*
X108627676Y-92666666D01*
X108627676Y-92666666D02*
X108532438Y-92571428D01*
X108532438Y-92571428D02*
X108484819Y-92428571D01*
X108484819Y-92428571D02*
X108484819Y-92333333D01*
X108484819Y-92333333D02*
X108532438Y-92190476D01*
X108532438Y-92190476D02*
X108580057Y-92142857D01*
X109484819Y-91190476D02*
X109484819Y-91761904D01*
X109484819Y-91476190D02*
X108484819Y-91476190D01*
X108484819Y-91476190D02*
X108627676Y-91571428D01*
X108627676Y-91571428D02*
X108722914Y-91666666D01*
X108722914Y-91666666D02*
X108770533Y-91761904D01*
X108580057Y-90809523D02*
X108532438Y-90761904D01*
X108532438Y-90761904D02*
X108484819Y-90666666D01*
X108484819Y-90666666D02*
X108484819Y-90428571D01*
X108484819Y-90428571D02*
X108532438Y-90333333D01*
X108532438Y-90333333D02*
X108580057Y-90285714D01*
X108580057Y-90285714D02*
X108675295Y-90238095D01*
X108675295Y-90238095D02*
X108770533Y-90238095D01*
X108770533Y-90238095D02*
X108913390Y-90285714D01*
X108913390Y-90285714D02*
X109484819Y-90857142D01*
X109484819Y-90857142D02*
X109484819Y-90238095D01*
X138657142Y-83194819D02*
X138323809Y-82718628D01*
X138085714Y-83194819D02*
X138085714Y-82194819D01*
X138085714Y-82194819D02*
X138466666Y-82194819D01*
X138466666Y-82194819D02*
X138561904Y-82242438D01*
X138561904Y-82242438D02*
X138609523Y-82290057D01*
X138609523Y-82290057D02*
X138657142Y-82385295D01*
X138657142Y-82385295D02*
X138657142Y-82528152D01*
X138657142Y-82528152D02*
X138609523Y-82623390D01*
X138609523Y-82623390D02*
X138561904Y-82671009D01*
X138561904Y-82671009D02*
X138466666Y-82718628D01*
X138466666Y-82718628D02*
X138085714Y-82718628D01*
X139609523Y-83194819D02*
X139038095Y-83194819D01*
X139323809Y-83194819D02*
X139323809Y-82194819D01*
X139323809Y-82194819D02*
X139228571Y-82337676D01*
X139228571Y-82337676D02*
X139133333Y-82432914D01*
X139133333Y-82432914D02*
X139038095Y-82480533D01*
X139942857Y-82194819D02*
X140561904Y-82194819D01*
X140561904Y-82194819D02*
X140228571Y-82575771D01*
X140228571Y-82575771D02*
X140371428Y-82575771D01*
X140371428Y-82575771D02*
X140466666Y-82623390D01*
X140466666Y-82623390D02*
X140514285Y-82671009D01*
X140514285Y-82671009D02*
X140561904Y-82766247D01*
X140561904Y-82766247D02*
X140561904Y-83004342D01*
X140561904Y-83004342D02*
X140514285Y-83099580D01*
X140514285Y-83099580D02*
X140466666Y-83147200D01*
X140466666Y-83147200D02*
X140371428Y-83194819D01*
X140371428Y-83194819D02*
X140085714Y-83194819D01*
X140085714Y-83194819D02*
X139990476Y-83147200D01*
X139990476Y-83147200D02*
X139942857Y-83099580D01*
X144957142Y-83184819D02*
X144623809Y-82708628D01*
X144385714Y-83184819D02*
X144385714Y-82184819D01*
X144385714Y-82184819D02*
X144766666Y-82184819D01*
X144766666Y-82184819D02*
X144861904Y-82232438D01*
X144861904Y-82232438D02*
X144909523Y-82280057D01*
X144909523Y-82280057D02*
X144957142Y-82375295D01*
X144957142Y-82375295D02*
X144957142Y-82518152D01*
X144957142Y-82518152D02*
X144909523Y-82613390D01*
X144909523Y-82613390D02*
X144861904Y-82661009D01*
X144861904Y-82661009D02*
X144766666Y-82708628D01*
X144766666Y-82708628D02*
X144385714Y-82708628D01*
X145909523Y-83184819D02*
X145338095Y-83184819D01*
X145623809Y-83184819D02*
X145623809Y-82184819D01*
X145623809Y-82184819D02*
X145528571Y-82327676D01*
X145528571Y-82327676D02*
X145433333Y-82422914D01*
X145433333Y-82422914D02*
X145338095Y-82470533D01*
X146385714Y-83184819D02*
X146576190Y-83184819D01*
X146576190Y-83184819D02*
X146671428Y-83137200D01*
X146671428Y-83137200D02*
X146719047Y-83089580D01*
X146719047Y-83089580D02*
X146814285Y-82946723D01*
X146814285Y-82946723D02*
X146861904Y-82756247D01*
X146861904Y-82756247D02*
X146861904Y-82375295D01*
X146861904Y-82375295D02*
X146814285Y-82280057D01*
X146814285Y-82280057D02*
X146766666Y-82232438D01*
X146766666Y-82232438D02*
X146671428Y-82184819D01*
X146671428Y-82184819D02*
X146480952Y-82184819D01*
X146480952Y-82184819D02*
X146385714Y-82232438D01*
X146385714Y-82232438D02*
X146338095Y-82280057D01*
X146338095Y-82280057D02*
X146290476Y-82375295D01*
X146290476Y-82375295D02*
X146290476Y-82613390D01*
X146290476Y-82613390D02*
X146338095Y-82708628D01*
X146338095Y-82708628D02*
X146385714Y-82756247D01*
X146385714Y-82756247D02*
X146480952Y-82803866D01*
X146480952Y-82803866D02*
X146671428Y-82803866D01*
X146671428Y-82803866D02*
X146766666Y-82756247D01*
X146766666Y-82756247D02*
X146814285Y-82708628D01*
X146814285Y-82708628D02*
X146861904Y-82613390D01*
X150238095Y-105254819D02*
X150238095Y-104254819D01*
X150238095Y-104731009D02*
X150809523Y-104731009D01*
X150809523Y-105254819D02*
X150809523Y-104254819D01*
X151714285Y-104588152D02*
X151714285Y-105254819D01*
X151476190Y-104207200D02*
X151238095Y-104921485D01*
X151238095Y-104921485D02*
X151857142Y-104921485D01*
X131858333Y-85924819D02*
X131525000Y-85448628D01*
X131286905Y-85924819D02*
X131286905Y-84924819D01*
X131286905Y-84924819D02*
X131667857Y-84924819D01*
X131667857Y-84924819D02*
X131763095Y-84972438D01*
X131763095Y-84972438D02*
X131810714Y-85020057D01*
X131810714Y-85020057D02*
X131858333Y-85115295D01*
X131858333Y-85115295D02*
X131858333Y-85258152D01*
X131858333Y-85258152D02*
X131810714Y-85353390D01*
X131810714Y-85353390D02*
X131763095Y-85401009D01*
X131763095Y-85401009D02*
X131667857Y-85448628D01*
X131667857Y-85448628D02*
X131286905Y-85448628D01*
X132334524Y-85924819D02*
X132525000Y-85924819D01*
X132525000Y-85924819D02*
X132620238Y-85877200D01*
X132620238Y-85877200D02*
X132667857Y-85829580D01*
X132667857Y-85829580D02*
X132763095Y-85686723D01*
X132763095Y-85686723D02*
X132810714Y-85496247D01*
X132810714Y-85496247D02*
X132810714Y-85115295D01*
X132810714Y-85115295D02*
X132763095Y-85020057D01*
X132763095Y-85020057D02*
X132715476Y-84972438D01*
X132715476Y-84972438D02*
X132620238Y-84924819D01*
X132620238Y-84924819D02*
X132429762Y-84924819D01*
X132429762Y-84924819D02*
X132334524Y-84972438D01*
X132334524Y-84972438D02*
X132286905Y-85020057D01*
X132286905Y-85020057D02*
X132239286Y-85115295D01*
X132239286Y-85115295D02*
X132239286Y-85353390D01*
X132239286Y-85353390D02*
X132286905Y-85448628D01*
X132286905Y-85448628D02*
X132334524Y-85496247D01*
X132334524Y-85496247D02*
X132429762Y-85543866D01*
X132429762Y-85543866D02*
X132620238Y-85543866D01*
X132620238Y-85543866D02*
X132715476Y-85496247D01*
X132715476Y-85496247D02*
X132763095Y-85448628D01*
X132763095Y-85448628D02*
X132810714Y-85353390D01*
X138757142Y-89084819D02*
X138423809Y-88608628D01*
X138185714Y-89084819D02*
X138185714Y-88084819D01*
X138185714Y-88084819D02*
X138566666Y-88084819D01*
X138566666Y-88084819D02*
X138661904Y-88132438D01*
X138661904Y-88132438D02*
X138709523Y-88180057D01*
X138709523Y-88180057D02*
X138757142Y-88275295D01*
X138757142Y-88275295D02*
X138757142Y-88418152D01*
X138757142Y-88418152D02*
X138709523Y-88513390D01*
X138709523Y-88513390D02*
X138661904Y-88561009D01*
X138661904Y-88561009D02*
X138566666Y-88608628D01*
X138566666Y-88608628D02*
X138185714Y-88608628D01*
X139709523Y-89084819D02*
X139138095Y-89084819D01*
X139423809Y-89084819D02*
X139423809Y-88084819D01*
X139423809Y-88084819D02*
X139328571Y-88227676D01*
X139328571Y-88227676D02*
X139233333Y-88322914D01*
X139233333Y-88322914D02*
X139138095Y-88370533D01*
X140280952Y-88513390D02*
X140185714Y-88465771D01*
X140185714Y-88465771D02*
X140138095Y-88418152D01*
X140138095Y-88418152D02*
X140090476Y-88322914D01*
X140090476Y-88322914D02*
X140090476Y-88275295D01*
X140090476Y-88275295D02*
X140138095Y-88180057D01*
X140138095Y-88180057D02*
X140185714Y-88132438D01*
X140185714Y-88132438D02*
X140280952Y-88084819D01*
X140280952Y-88084819D02*
X140471428Y-88084819D01*
X140471428Y-88084819D02*
X140566666Y-88132438D01*
X140566666Y-88132438D02*
X140614285Y-88180057D01*
X140614285Y-88180057D02*
X140661904Y-88275295D01*
X140661904Y-88275295D02*
X140661904Y-88322914D01*
X140661904Y-88322914D02*
X140614285Y-88418152D01*
X140614285Y-88418152D02*
X140566666Y-88465771D01*
X140566666Y-88465771D02*
X140471428Y-88513390D01*
X140471428Y-88513390D02*
X140280952Y-88513390D01*
X140280952Y-88513390D02*
X140185714Y-88561009D01*
X140185714Y-88561009D02*
X140138095Y-88608628D01*
X140138095Y-88608628D02*
X140090476Y-88703866D01*
X140090476Y-88703866D02*
X140090476Y-88894342D01*
X140090476Y-88894342D02*
X140138095Y-88989580D01*
X140138095Y-88989580D02*
X140185714Y-89037200D01*
X140185714Y-89037200D02*
X140280952Y-89084819D01*
X140280952Y-89084819D02*
X140471428Y-89084819D01*
X140471428Y-89084819D02*
X140566666Y-89037200D01*
X140566666Y-89037200D02*
X140614285Y-88989580D01*
X140614285Y-88989580D02*
X140661904Y-88894342D01*
X140661904Y-88894342D02*
X140661904Y-88703866D01*
X140661904Y-88703866D02*
X140614285Y-88608628D01*
X140614285Y-88608628D02*
X140566666Y-88561009D01*
X140566666Y-88561009D02*
X140471428Y-88513390D01*
X149214405Y-104684819D02*
X149214405Y-103684819D01*
X149214405Y-103684819D02*
X149452500Y-103684819D01*
X149452500Y-103684819D02*
X149595357Y-103732438D01*
X149595357Y-103732438D02*
X149690595Y-103827676D01*
X149690595Y-103827676D02*
X149738214Y-103922914D01*
X149738214Y-103922914D02*
X149785833Y-104113390D01*
X149785833Y-104113390D02*
X149785833Y-104256247D01*
X149785833Y-104256247D02*
X149738214Y-104446723D01*
X149738214Y-104446723D02*
X149690595Y-104541961D01*
X149690595Y-104541961D02*
X149595357Y-104637200D01*
X149595357Y-104637200D02*
X149452500Y-104684819D01*
X149452500Y-104684819D02*
X149214405Y-104684819D01*
X150738214Y-104684819D02*
X150166786Y-104684819D01*
X150452500Y-104684819D02*
X150452500Y-103684819D01*
X150452500Y-103684819D02*
X150357262Y-103827676D01*
X150357262Y-103827676D02*
X150262024Y-103922914D01*
X150262024Y-103922914D02*
X150166786Y-103970533D01*
X131382142Y-88434819D02*
X131048809Y-87958628D01*
X130810714Y-88434819D02*
X130810714Y-87434819D01*
X130810714Y-87434819D02*
X131191666Y-87434819D01*
X131191666Y-87434819D02*
X131286904Y-87482438D01*
X131286904Y-87482438D02*
X131334523Y-87530057D01*
X131334523Y-87530057D02*
X131382142Y-87625295D01*
X131382142Y-87625295D02*
X131382142Y-87768152D01*
X131382142Y-87768152D02*
X131334523Y-87863390D01*
X131334523Y-87863390D02*
X131286904Y-87911009D01*
X131286904Y-87911009D02*
X131191666Y-87958628D01*
X131191666Y-87958628D02*
X130810714Y-87958628D01*
X132334523Y-88434819D02*
X131763095Y-88434819D01*
X132048809Y-88434819D02*
X132048809Y-87434819D01*
X132048809Y-87434819D02*
X131953571Y-87577676D01*
X131953571Y-87577676D02*
X131858333Y-87672914D01*
X131858333Y-87672914D02*
X131763095Y-87720533D01*
X132953571Y-87434819D02*
X133048809Y-87434819D01*
X133048809Y-87434819D02*
X133144047Y-87482438D01*
X133144047Y-87482438D02*
X133191666Y-87530057D01*
X133191666Y-87530057D02*
X133239285Y-87625295D01*
X133239285Y-87625295D02*
X133286904Y-87815771D01*
X133286904Y-87815771D02*
X133286904Y-88053866D01*
X133286904Y-88053866D02*
X133239285Y-88244342D01*
X133239285Y-88244342D02*
X133191666Y-88339580D01*
X133191666Y-88339580D02*
X133144047Y-88387200D01*
X133144047Y-88387200D02*
X133048809Y-88434819D01*
X133048809Y-88434819D02*
X132953571Y-88434819D01*
X132953571Y-88434819D02*
X132858333Y-88387200D01*
X132858333Y-88387200D02*
X132810714Y-88339580D01*
X132810714Y-88339580D02*
X132763095Y-88244342D01*
X132763095Y-88244342D02*
X132715476Y-88053866D01*
X132715476Y-88053866D02*
X132715476Y-87815771D01*
X132715476Y-87815771D02*
X132763095Y-87625295D01*
X132763095Y-87625295D02*
X132810714Y-87530057D01*
X132810714Y-87530057D02*
X132858333Y-87482438D01*
X132858333Y-87482438D02*
X132953571Y-87434819D01*
X108339580Y-85557857D02*
X108387200Y-85605476D01*
X108387200Y-85605476D02*
X108434819Y-85748333D01*
X108434819Y-85748333D02*
X108434819Y-85843571D01*
X108434819Y-85843571D02*
X108387200Y-85986428D01*
X108387200Y-85986428D02*
X108291961Y-86081666D01*
X108291961Y-86081666D02*
X108196723Y-86129285D01*
X108196723Y-86129285D02*
X108006247Y-86176904D01*
X108006247Y-86176904D02*
X107863390Y-86176904D01*
X107863390Y-86176904D02*
X107672914Y-86129285D01*
X107672914Y-86129285D02*
X107577676Y-86081666D01*
X107577676Y-86081666D02*
X107482438Y-85986428D01*
X107482438Y-85986428D02*
X107434819Y-85843571D01*
X107434819Y-85843571D02*
X107434819Y-85748333D01*
X107434819Y-85748333D02*
X107482438Y-85605476D01*
X107482438Y-85605476D02*
X107530057Y-85557857D01*
X108434819Y-84605476D02*
X108434819Y-85176904D01*
X108434819Y-84891190D02*
X107434819Y-84891190D01*
X107434819Y-84891190D02*
X107577676Y-84986428D01*
X107577676Y-84986428D02*
X107672914Y-85081666D01*
X107672914Y-85081666D02*
X107720533Y-85176904D01*
X107863390Y-84034047D02*
X107815771Y-84129285D01*
X107815771Y-84129285D02*
X107768152Y-84176904D01*
X107768152Y-84176904D02*
X107672914Y-84224523D01*
X107672914Y-84224523D02*
X107625295Y-84224523D01*
X107625295Y-84224523D02*
X107530057Y-84176904D01*
X107530057Y-84176904D02*
X107482438Y-84129285D01*
X107482438Y-84129285D02*
X107434819Y-84034047D01*
X107434819Y-84034047D02*
X107434819Y-83843571D01*
X107434819Y-83843571D02*
X107482438Y-83748333D01*
X107482438Y-83748333D02*
X107530057Y-83700714D01*
X107530057Y-83700714D02*
X107625295Y-83653095D01*
X107625295Y-83653095D02*
X107672914Y-83653095D01*
X107672914Y-83653095D02*
X107768152Y-83700714D01*
X107768152Y-83700714D02*
X107815771Y-83748333D01*
X107815771Y-83748333D02*
X107863390Y-83843571D01*
X107863390Y-83843571D02*
X107863390Y-84034047D01*
X107863390Y-84034047D02*
X107911009Y-84129285D01*
X107911009Y-84129285D02*
X107958628Y-84176904D01*
X107958628Y-84176904D02*
X108053866Y-84224523D01*
X108053866Y-84224523D02*
X108244342Y-84224523D01*
X108244342Y-84224523D02*
X108339580Y-84176904D01*
X108339580Y-84176904D02*
X108387200Y-84129285D01*
X108387200Y-84129285D02*
X108434819Y-84034047D01*
X108434819Y-84034047D02*
X108434819Y-83843571D01*
X108434819Y-83843571D02*
X108387200Y-83748333D01*
X108387200Y-83748333D02*
X108339580Y-83700714D01*
X108339580Y-83700714D02*
X108244342Y-83653095D01*
X108244342Y-83653095D02*
X108053866Y-83653095D01*
X108053866Y-83653095D02*
X107958628Y-83700714D01*
X107958628Y-83700714D02*
X107911009Y-83748333D01*
X107911009Y-83748333D02*
X107863390Y-83843571D01*
X106306666Y-80979819D02*
X106306666Y-81694104D01*
X106306666Y-81694104D02*
X106259047Y-81836961D01*
X106259047Y-81836961D02*
X106163809Y-81932200D01*
X106163809Y-81932200D02*
X106020952Y-81979819D01*
X106020952Y-81979819D02*
X105925714Y-81979819D01*
X107211428Y-80979819D02*
X107020952Y-80979819D01*
X107020952Y-80979819D02*
X106925714Y-81027438D01*
X106925714Y-81027438D02*
X106878095Y-81075057D01*
X106878095Y-81075057D02*
X106782857Y-81217914D01*
X106782857Y-81217914D02*
X106735238Y-81408390D01*
X106735238Y-81408390D02*
X106735238Y-81789342D01*
X106735238Y-81789342D02*
X106782857Y-81884580D01*
X106782857Y-81884580D02*
X106830476Y-81932200D01*
X106830476Y-81932200D02*
X106925714Y-81979819D01*
X106925714Y-81979819D02*
X107116190Y-81979819D01*
X107116190Y-81979819D02*
X107211428Y-81932200D01*
X107211428Y-81932200D02*
X107259047Y-81884580D01*
X107259047Y-81884580D02*
X107306666Y-81789342D01*
X107306666Y-81789342D02*
X107306666Y-81551247D01*
X107306666Y-81551247D02*
X107259047Y-81456009D01*
X107259047Y-81456009D02*
X107211428Y-81408390D01*
X107211428Y-81408390D02*
X107116190Y-81360771D01*
X107116190Y-81360771D02*
X106925714Y-81360771D01*
X106925714Y-81360771D02*
X106830476Y-81408390D01*
X106830476Y-81408390D02*
X106782857Y-81456009D01*
X106782857Y-81456009D02*
X106735238Y-81551247D01*
D11*
%TO.C,U2*%
X101044800Y-84050600D02*
X101222600Y-84050600D01*
X101044800Y-84228400D02*
X101044800Y-84050600D01*
X101044800Y-87149400D02*
X101044800Y-86971600D01*
X101044800Y-87149400D02*
X101222600Y-87149400D01*
X103965800Y-84050600D02*
X104143600Y-84050600D01*
X103965800Y-87149400D02*
X104143600Y-87149400D01*
X104143600Y-84228400D02*
X104143600Y-84050600D01*
X104143600Y-87149400D02*
X104143600Y-86971600D01*
D12*
X100206600Y-84711000D02*
G75*
G02*
X100435200Y-84711000I114300J0D01*
G01*
X100435200Y-84711000D02*
G75*
G02*
X100206600Y-84711000I-114300J0D01*
G01*
D13*
%TO.C,C22*%
X124552164Y-106870000D02*
X124767836Y-106870000D01*
X124552164Y-107590000D02*
X124767836Y-107590000D01*
%TO.C,J4*%
X118470000Y-74640000D02*
X118470000Y-73310000D01*
X119800000Y-74640000D02*
X118470000Y-74640000D01*
X121070000Y-71980000D02*
X149070000Y-71980000D01*
X121070000Y-74640000D02*
X121070000Y-71980000D01*
X121070000Y-74640000D02*
X149070000Y-74640000D01*
X149070000Y-74640000D02*
X149070000Y-71980000D01*
%TO.C,D2*%
X148500000Y-84385000D02*
X150785000Y-84385000D01*
X150785000Y-82915000D02*
X148500000Y-82915000D01*
X150785000Y-84385000D02*
X150785000Y-82915000D01*
%TO.C,SW1*%
X117045000Y-94930000D02*
X117045000Y-99330000D01*
X118645000Y-94930000D02*
X118545000Y-94930000D01*
X118645000Y-99330000D02*
X118545000Y-99330000D01*
X120145000Y-99330000D02*
X120145000Y-94930000D01*
%TO.C,R16*%
X112065000Y-78647064D02*
X112065000Y-78192936D01*
X113535000Y-78647064D02*
X113535000Y-78192936D01*
%TO.C,C21*%
X148601252Y-91685000D02*
X148078748Y-91685000D01*
X148601252Y-93155000D02*
X148078748Y-93155000D01*
%TO.C,U1*%
X119840000Y-84650000D02*
X120115000Y-84650000D01*
X119840000Y-86960000D02*
X119840000Y-84650000D01*
X119840000Y-86960000D02*
X119840000Y-89270000D01*
X119840000Y-89270000D02*
X120115000Y-89270000D01*
X129760000Y-84650000D02*
X129485000Y-84650000D01*
X129760000Y-86960000D02*
X129760000Y-84650000D01*
X129760000Y-86960000D02*
X129760000Y-89270000D01*
X129760000Y-89270000D02*
X129485000Y-89270000D01*
X129815000Y-84300000D02*
X129485000Y-84060000D01*
X129815000Y-83820000D01*
X129815000Y-84300000D01*
G36*
X129815000Y-84300000D02*
G01*
X129485000Y-84060000D01*
X129815000Y-83820000D01*
X129815000Y-84300000D01*
G37*
%TO.C,R21*%
X138003333Y-108283641D02*
X138003333Y-107976359D01*
X138763333Y-108283641D02*
X138763333Y-107976359D01*
%TO.C,R11*%
X135405436Y-86455000D02*
X135859564Y-86455000D01*
X135405436Y-87925000D02*
X135859564Y-87925000D01*
%TO.C,R8*%
X131787742Y-83867500D02*
X132262258Y-83867500D01*
X131787742Y-84912500D02*
X132262258Y-84912500D01*
%TO.C,C11*%
X106620000Y-92211252D02*
X106620000Y-90788748D01*
X108440000Y-92211252D02*
X108440000Y-90788748D01*
%TO.C,R6*%
X135405436Y-83505000D02*
X135859564Y-83505000D01*
X135405436Y-84975000D02*
X135859564Y-84975000D01*
%TO.C,R5*%
X133750000Y-108283641D02*
X133750000Y-107976359D01*
X134510000Y-108283641D02*
X134510000Y-107976359D01*
%TO.C,C2*%
X126575000Y-104405000D02*
X126950000Y-104405000D01*
X126762500Y-104217500D02*
X126762500Y-104592500D01*
X127379437Y-104780000D02*
X128079437Y-104080000D01*
X127379437Y-106900000D02*
X128079437Y-107600000D01*
X128079437Y-104080000D02*
X130710000Y-104080000D01*
X128079437Y-107600000D02*
X130710000Y-107600000D01*
X130710000Y-104080000D02*
X130710000Y-104780000D01*
X130710000Y-107600000D02*
X130710000Y-106900000D01*
%TO.C,J3*%
X118480000Y-74750000D02*
X118480000Y-77410000D01*
X146480000Y-74750000D02*
X118480000Y-74750000D01*
X146480000Y-74750000D02*
X146480000Y-77410000D01*
X146480000Y-77410000D02*
X118480000Y-77410000D01*
X147750000Y-74750000D02*
X149080000Y-74750000D01*
X149080000Y-74750000D02*
X149080000Y-76080000D01*
D14*
%TO.C,L2*%
X132445000Y-92881400D02*
X132445000Y-96650760D01*
X132445000Y-102269240D02*
X132445000Y-106038600D01*
X132445000Y-106038600D02*
X146415000Y-106038600D01*
X146415000Y-92881400D02*
X132445000Y-92881400D01*
X146415000Y-96650760D02*
X146415000Y-92881400D01*
X146415000Y-106038600D02*
X146415000Y-102269240D01*
X131378200Y-99460000D02*
G75*
G02*
X131225800Y-99460000I-76200J0D01*
G01*
X131225800Y-99460000D02*
G75*
G02*
X131378200Y-99460000I76200J0D01*
G01*
D13*
%TO.C,C15*%
X97165000Y-87268748D02*
X97165000Y-87791252D01*
X98635000Y-87268748D02*
X98635000Y-87791252D01*
%TO.C,R7*%
X114212742Y-87757500D02*
X114687258Y-87757500D01*
X114212742Y-88802500D02*
X114687258Y-88802500D01*
%TO.C,C24*%
X117695000Y-106797836D02*
X117695000Y-106582164D01*
X118415000Y-106797836D02*
X118415000Y-106582164D01*
%TO.C,C25*%
X119665000Y-106797836D02*
X119665000Y-106582164D01*
X120385000Y-106797836D02*
X120385000Y-106582164D01*
%TO.C,C20*%
X98778748Y-91685000D02*
X99301252Y-91685000D01*
X98778748Y-93155000D02*
X99301252Y-93155000D01*
%TO.C,R20*%
X135876667Y-108283641D02*
X135876667Y-107976359D01*
X136636667Y-108283641D02*
X136636667Y-107976359D01*
%TO.C,R12*%
X135405436Y-89405000D02*
X135859564Y-89405000D01*
X135405436Y-90875000D02*
X135859564Y-90875000D01*
%TO.C,C1*%
X126705000Y-100425000D02*
X127080000Y-100425000D01*
X126892500Y-100237500D02*
X126892500Y-100612500D01*
X127509437Y-100800000D02*
X128209437Y-100100000D01*
X127509437Y-102920000D02*
X128209437Y-103620000D01*
X128209437Y-100100000D02*
X130840000Y-100100000D01*
X128209437Y-103620000D02*
X130840000Y-103620000D01*
X130840000Y-100100000D02*
X130840000Y-100800000D01*
X130840000Y-103620000D02*
X130840000Y-102920000D01*
%TO.C,SW2*%
X121975000Y-94890000D02*
X121975000Y-99290000D01*
X123575000Y-94890000D02*
X123475000Y-94890000D01*
X123575000Y-99290000D02*
X123475000Y-99290000D01*
X125075000Y-99290000D02*
X125075000Y-94890000D01*
%TO.C,J5*%
X115060000Y-85740000D02*
X115060000Y-85860000D01*
X115060000Y-85860000D02*
X117720000Y-85860000D01*
X116390000Y-83200000D02*
X117720000Y-83200000D01*
X117720000Y-83200000D02*
X117720000Y-84530000D01*
X117720000Y-85740000D02*
X117720000Y-85860000D01*
%TO.C,R14*%
X130082258Y-98147500D02*
X129607742Y-98147500D01*
X130082258Y-99192500D02*
X129607742Y-99192500D01*
%TO.C,C19*%
X103028748Y-91500000D02*
X104451252Y-91500000D01*
X103028748Y-93320000D02*
X104451252Y-93320000D01*
%TO.C,C14*%
X97195000Y-83618748D02*
X97195000Y-84141252D01*
X98665000Y-83618748D02*
X98665000Y-84141252D01*
%TO.C,R28*%
X139072936Y-86555000D02*
X139527064Y-86555000D01*
X139072936Y-88025000D02*
X139527064Y-88025000D01*
%TO.C,R22*%
X140130000Y-108283641D02*
X140130000Y-107976359D01*
X140890000Y-108283641D02*
X140890000Y-107976359D01*
%TO.C,J7*%
X118530000Y-71950000D02*
X118530000Y-70620000D01*
X119860000Y-71950000D02*
X118530000Y-71950000D01*
X121130000Y-69290000D02*
X149130000Y-69290000D01*
X121130000Y-71950000D02*
X121130000Y-69290000D01*
X121130000Y-71950000D02*
X149130000Y-71950000D01*
X149130000Y-71950000D02*
X149130000Y-69290000D01*
%TO.C,J9*%
X93765000Y-76860000D02*
X93765000Y-66900000D01*
X93765000Y-80420000D02*
X93765000Y-77460000D01*
X95585000Y-66900000D02*
X93765000Y-66900000D01*
X95585000Y-80420000D02*
X93765000Y-80420000D01*
X93765000Y-77160000D02*
X93295000Y-77500000D01*
X93295000Y-76820000D01*
X93765000Y-77160000D01*
G36*
X93765000Y-77160000D02*
G01*
X93295000Y-77500000D01*
X93295000Y-76820000D01*
X93765000Y-77160000D01*
G37*
%TO.C,J2*%
X144500000Y-85535000D02*
X145830000Y-85535000D01*
X144500000Y-86865000D02*
X144500000Y-85535000D01*
X144500000Y-88135000D02*
X144500000Y-90735000D01*
X144500000Y-88135000D02*
X147160000Y-88135000D01*
X144500000Y-90735000D02*
X147160000Y-90735000D01*
X147160000Y-88135000D02*
X147160000Y-90735000D01*
%TO.C,C26*%
X119585000Y-104747836D02*
X119585000Y-104532164D01*
X120305000Y-104747836D02*
X120305000Y-104532164D01*
%TO.C,R15*%
X130082258Y-95637500D02*
X129607742Y-95637500D01*
X130082258Y-96682500D02*
X129607742Y-96682500D01*
%TO.C,C16*%
X113320000Y-92211252D02*
X113320000Y-90788748D01*
X115140000Y-92211252D02*
X115140000Y-90788748D01*
%TO.C,Y1*%
X117935000Y-103890000D02*
X117635000Y-103890000D01*
X117935000Y-105490000D02*
X117635000Y-105490000D01*
X119135000Y-105440000D02*
X119135000Y-103940000D01*
D15*
%TO.C,U3*%
X147210000Y-104510000D02*
X147210000Y-93830000D01*
X147210000Y-104510000D02*
X152050000Y-104510000D01*
X152050000Y-93830000D02*
X147210000Y-93830000D01*
X152050000Y-93830000D02*
X152050000Y-104510000D01*
D16*
X149352500Y-93070000D02*
G75*
G02*
X149152500Y-93070000I-100000J0D01*
G01*
X149152500Y-93070000D02*
G75*
G02*
X149352500Y-93070000I100000J0D01*
G01*
D13*
%TO.C,C17*%
X111850000Y-85751252D02*
X111850000Y-84328748D01*
X113670000Y-85751252D02*
X113670000Y-84328748D01*
D15*
%TO.C,U6*%
X121452500Y-100901500D02*
X122164000Y-100901500D01*
X121452500Y-106278500D02*
X122164000Y-106278500D01*
X125252500Y-100901500D02*
X124541000Y-100901500D01*
X125252500Y-106278500D02*
X124541000Y-106278500D01*
D17*
X121002500Y-105840000D02*
G75*
G02*
X120902500Y-105840000I-50000J0D01*
G01*
X120902500Y-105840000D02*
G75*
G02*
X121002500Y-105840000I50000J0D01*
G01*
D13*
%TO.C,C23*%
X119545000Y-102637836D02*
X119545000Y-102422164D01*
X120265000Y-102637836D02*
X120265000Y-102422164D01*
D15*
%TO.C,J1*%
X93510000Y-94670000D02*
X93510000Y-110170000D01*
X93510000Y-110170000D02*
X111710000Y-110170000D01*
X111710000Y-94670000D02*
X93510000Y-94670000D01*
X111710000Y-94670000D02*
X111710000Y-96642000D01*
X111710000Y-103842000D02*
X111710000Y-100998000D01*
X111710000Y-110170000D02*
X111710000Y-108198000D01*
X114020000Y-97340000D02*
X114020000Y-98610000D01*
X114020000Y-98610000D02*
X112750000Y-98610000D01*
X114020000Y-98610000D02*
X115290000Y-98610000D01*
X114020000Y-99880000D02*
X114020000Y-98610000D01*
D13*
%TO.C,R17*%
X130082258Y-93127500D02*
X129607742Y-93127500D01*
X130082258Y-94172500D02*
X129607742Y-94172500D01*
%TO.C,C13*%
X111482164Y-87960000D02*
X111697836Y-87960000D01*
X111482164Y-88680000D02*
X111697836Y-88680000D01*
%TO.C,C12*%
X109970000Y-92211252D02*
X109970000Y-90788748D01*
X111790000Y-92211252D02*
X111790000Y-90788748D01*
%TO.C,R13*%
X139072936Y-83655000D02*
X139527064Y-83655000D01*
X139072936Y-85125000D02*
X139527064Y-85125000D01*
%TO.C,R19*%
X145362742Y-83637500D02*
X145837258Y-83637500D01*
X145362742Y-84682500D02*
X145837258Y-84682500D01*
%TO.C,R9*%
X131787742Y-86377500D02*
X132262258Y-86377500D01*
X131787742Y-87422500D02*
X132262258Y-87422500D01*
%TO.C,R18*%
X139162742Y-89537500D02*
X139637258Y-89537500D01*
X139162742Y-90582500D02*
X139637258Y-90582500D01*
%TO.C,D1*%
X148467500Y-104925000D02*
X148467500Y-106395000D01*
X148467500Y-106395000D02*
X150752500Y-106395000D01*
X150752500Y-104925000D02*
X148467500Y-104925000D01*
%TO.C,R10*%
X131787742Y-88887500D02*
X132262258Y-88887500D01*
X131787742Y-89932500D02*
X132262258Y-89932500D01*
%TO.C,C18*%
X108920000Y-85626252D02*
X108920000Y-84203748D01*
X110740000Y-85626252D02*
X110740000Y-84203748D01*
%TO.C,J6*%
X105310000Y-82525000D02*
X106640000Y-82525000D01*
X105310000Y-83855000D02*
X105310000Y-82525000D01*
X105310000Y-85125000D02*
X105310000Y-87725000D01*
X105310000Y-85125000D02*
X107970000Y-85125000D01*
X105310000Y-87725000D02*
X107970000Y-87725000D01*
X107970000Y-85125000D02*
X107970000Y-87725000D01*
%TD*%
M02*
